<?xml version="1.0" encoding="UTF-8"?>
<!-- Generator: visioncortex VTracer 0.6.4 -->
<svg version="1.1" xmlns="http://www.w3.org/2000/svg" width="1024" height="1024">
<path d="M0 0 C337.92 0 675.84 0 1024 0 C1024 337.92 1024 675.84 1024 1024 C686.08 1024 348.16 1024 0 1024 C0 686.08 0 348.16 0 0 Z " fill="#3D44B7" transform="translate(0,0)"/>
<path d="M0 0 C1.021 -0.012 2.042 -0.024 3.094 -0.037 C20.693 -0.071 35.579 5.64 48.27 18.184 C52.25 22.667 52.25 22.667 52.25 25.188 C52.91 25.188 53.57 25.188 54.25 25.188 C55.362 27.33 56.465 29.476 57.562 31.625 C58.026 32.513 58.026 32.513 58.498 33.42 C66.166 48.515 67.368 67.72 62.375 84 C56.525 99.55 44.98 111.696 30.25 119.188 C28.9 119.92 28.9 119.92 27.523 120.668 C12.871 127.289 -8.937 126.899 -23.961 121.441 C-24.881 121.028 -25.802 120.614 -26.75 120.188 C-27.712 119.763 -28.673 119.339 -29.664 118.902 C-43.861 111.882 -54.602 99.982 -59.871 85.151 C-65.119 69.455 -64.418 55.833 -59.75 40.188 C-59.473 39.257 -59.196 38.326 -58.91 37.367 C-53.929 23.089 -42.537 12.368 -29.258 5.769 C-19.353 1.026 -10.973 0.007 0 0 Z " fill="#FCFDFE" transform="translate(341.75,313.8125)"/>
<path d="M0 0 C11.851 10.105 19.374 23.863 20.88 39.399 C21.034 42.772 21.081 46.123 21.062 49.5 C21.058 50.685 21.053 51.87 21.047 53.092 C20.869 62.046 19.777 69.112 15.562 77.125 C14.946 78.426 14.946 78.426 14.316 79.754 C6.201 95.141 -7.949 104 -24.125 109.062 C-25.555 109.446 -26.993 109.802 -28.438 110.125 C-29.172 110.308 -29.907 110.491 -30.664 110.68 C-48.828 113.596 -67.671 109.62 -82.75 99.062 C-95.586 88.787 -104.183 74.445 -106.438 58.125 C-108.106 39.312 -104.269 22.01 -92.082 7.277 C-67.647 -18.478 -28.077 -21.345 0 0 Z " fill="#FDFDFE" transform="translate(477.4375,497.875)"/>
<path d="M0 0 C11.111 8.97 18.713 24.258 20.576 38.272 C20.857 43.635 20.783 48.909 20.576 54.272 C20.58 55.157 20.584 56.041 20.588 56.952 C20.208 68.842 13.237 80.6 5.576 89.272 C4.854 90.283 4.132 91.294 3.389 92.335 C-3.973 100.939 -14.883 105.12 -25.424 108.272 C-26.179 108.519 -26.935 108.765 -27.713 109.019 C-42.472 113.15 -60.68 110.612 -74.135 103.535 C-80.454 99.958 -86.58 95.732 -91.424 90.272 C-91.424 89.612 -91.424 88.952 -91.424 88.272 C-92.084 88.272 -92.744 88.272 -93.424 88.272 C-105.183 72.491 -107.757 55.524 -106.424 36.272 C-105.745 31.692 -104.261 27.514 -102.424 23.272 C-102.073 22.409 -101.723 21.545 -101.361 20.655 C-97.979 13.115 -92.39 3.452 -84.424 0.272 C-84.424 -0.388 -84.424 -1.048 -84.424 -1.728 C-56.894 -18.214 -26.643 -19.615 0 0 Z " fill="#FDFDFE" transform="translate(620.423828125,498.7275390625)"/>
<path d="M0 0 C9.24 0 18.48 0 28 0 C30.31 3.63 32.62 7.26 35 11 C36.7 13.548 38.406 16.09 40.125 18.625 C42.711 22.47 45.256 26.281 47.438 30.375 C49.089 33.424 50.835 36.358 52.742 39.254 C53.244 40.022 53.747 40.791 54.264 41.583 C55.286 43.137 56.313 44.689 57.344 46.238 C57.814 46.952 58.285 47.666 58.77 48.402 C59.199 49.047 59.628 49.691 60.07 50.355 C61 52 61 52 61 54 C61.66 54 62.32 54 63 54 C63.267 53.276 63.534 52.551 63.809 51.805 C65 49.001 66.388 46.666 68.062 44.125 C70.433 40.463 72.763 36.788 74.991 33.037 C75.718 31.825 76.46 30.621 77.214 29.426 C80.293 24.482 82.646 19.413 84.86 14.025 C87.624 8.961 91.449 4.546 95 0 C104.57 0 114.14 0 124 0 C124 40.26 124 80.52 124 122 C115.42 122 106.84 122 98 122 C97.67 96.92 97.34 71.84 97 46 C93.546 51.18 90.207 56.216 87.078 61.566 C86.722 62.039 86.367 62.513 86 63 C85.34 63 84.68 63 84 63 C83.711 63.743 83.423 64.485 83.125 65.25 C82.177 67.567 81.152 69.779 80 72 C79.34 72 78.68 72 78 72 C77.597 73.088 77.597 73.088 77.186 74.198 C75.199 78.894 72.286 82.996 69.5 87.25 C68.906 88.173 68.311 89.096 67.699 90.047 C67.128 90.923 66.557 91.8 65.969 92.703 C65.187 93.904 65.187 93.904 64.389 95.13 C63 97 63 97 61 98 C60.587 97.345 60.175 96.69 59.75 96.016 C54.548 87.795 49.194 79.683 43.715 71.645 C42.984 70.566 42.253 69.487 41.5 68.375 C40.83 67.393 40.159 66.41 39.469 65.398 C38 63 38 63 38 61 C37.34 61 36.68 61 36 61 C35.505 58.525 35.505 58.525 35 56 C34.34 56 33.68 56 33 56 C31.02 52.7 29.04 49.4 27 46 C26.67 71.08 26.34 96.16 26 122 C17.42 122 8.84 122 0 122 C0 81.74 0 41.48 0 0 Z " fill="#FDFEFE" transform="translate(428,315)"/>
<path d="M0 0 C8.91 0 17.82 0 27 0 C34.747 7.817 34.747 7.817 36.52 11.426 C38.961 16.06 41.914 20.062 45.125 24.188 C46.126 25.518 47.125 26.85 48.121 28.184 C50.786 31.725 53.48 35.242 56.188 38.75 C64.64 49.702 72.818 60.842 81 72 C81.33 48.24 81.66 24.48 82 0 C90.58 0 99.16 0 108 0 C108 40.26 108 80.52 108 122 C85 122 85 122 79.062 116.125 C76 110.805 76 110.805 76 108 C75.34 108 74.68 108 74 108 C72.417 105.969 70.95 103.936 69.5 101.812 C68.591 100.509 67.679 99.207 66.766 97.906 C66.302 97.246 65.839 96.586 65.361 95.906 C63.395 93.153 61.328 90.483 59.25 87.812 C54.564 81.789 50.032 75.659 45.524 69.501 C39.746 61.618 33.866 53.822 28 46 C27.67 71.08 27.34 96.16 27 122 C18.09 122 9.18 122 0 122 C0 81.74 0 41.48 0 0 Z " fill="#FEFEFE" transform="translate(633,315)"/>
<path d="M0 0 C27 0 27 0 32.625 5.25 C33.799 7.475 34.924 9.726 36 12 C37.476 14.054 38.998 16.076 40.562 18.062 C43.39 21.829 46.181 25.618 48.938 29.438 C52.788 34.757 56.78 39.96 60.801 45.152 C61.527 46.092 62.252 47.032 63 48 C63.888 49.116 63.888 49.116 64.793 50.254 C66 52 66 52 66 54 C66.66 54 67.32 54 68 54 C68 54.99 68 55.98 68 57 C69.485 57.495 69.485 57.495 71 58 C74.96 63.445 74.96 63.445 79 69 C79.33 46.23 79.66 23.46 80 0 C88.91 0 97.82 0 107 0 C107 39.93 107 79.86 107 121 C99.41 121 91.82 121 84 121 C75.488 111.581 75.488 111.581 73.129 107.301 C70.226 102.276 66.914 97.79 63.312 93.25 C62.234 91.853 61.158 90.453 60.086 89.051 C59.31 88.037 59.31 88.037 58.519 87.002 C55.665 83.24 52.886 79.424 50.104 75.608 C44.81 68.35 39.401 61.179 34 54 C32.02 51.36 30.04 48.72 28 46 C27.67 70.75 27.34 95.5 27 121 C18.09 121 9.18 121 0 121 C0 81.07 0 41.14 0 0 Z " fill="#FDFDFE" transform="translate(663,487)"/>
<path d="M0 0 C1.088 -0.01 2.176 -0.02 3.296 -0.03 C18.895 0.134 35.18 5.246 46.758 16.152 C47.147 16.576 47.536 17.001 47.938 17.438 C46.568 20.387 45.059 22.962 42.938 25.438 C42.278 25.438 41.618 25.438 40.938 25.438 C40.672 26.01 40.406 26.582 40.133 27.172 C38.881 29.545 37.444 31.56 35.812 33.688 C35.274 34.394 34.735 35.1 34.18 35.828 C33.77 36.359 33.36 36.89 32.938 37.438 C29.403 36.13 26.406 34.55 23.25 32.5 C18.327 29.483 13.521 27.799 7.938 26.438 C7.253 26.254 6.569 26.071 5.863 25.883 C-2.755 23.89 -11.836 26.641 -19.465 30.723 C-26.267 35.41 -31.268 42.677 -33.59 50.602 C-35.741 63.506 -34.799 76.686 -27.438 87.812 C-23.246 92.947 -17.3 96.358 -11.062 98.438 C-7.047 98.75 -3.026 98.762 1 98.812 C2.643 98.869 2.643 98.869 4.318 98.926 C12.234 99.011 17.117 97.467 23.938 93.438 C24.268 87.827 24.597 82.217 24.938 76.438 C16.688 76.438 8.438 76.438 -0.062 76.438 C-0.062 68.517 -0.062 60.597 -0.062 52.438 C16.768 52.438 33.597 52.438 50.938 52.438 C51.214 59.969 51.452 67.482 51.597 75.014 C51.657 77.573 51.739 80.13 51.843 82.687 C52.733 105.123 52.733 105.123 48.422 110.05 C45.322 112.404 42.518 113.94 38.938 115.438 C37.952 116.002 36.967 116.566 35.952 117.148 C24.455 123.631 12.441 124.951 -0.562 124.875 C-1.778 124.895 -2.994 124.915 -4.246 124.936 C-19.141 124.928 -34.465 120.09 -45.438 109.625 C-58.286 95.529 -64.218 77.85 -63.473 58.723 C-62.272 42.582 -56.055 26.587 -44.062 15.438 C-38.508 11.003 -32.633 7.166 -26.062 4.438 C-25.247 4.065 -24.431 3.692 -23.59 3.309 C-15.773 0.289 -8.312 0.045 0 0 Z " fill="#FDFDFE" transform="translate(825.0625,313.5625)"/>
<path d="M0 0 C0.495 0.392 0.99 0.784 1.5 1.188 C0.605 5.458 -1.555 8.659 -3.938 12.25 C-4.345 12.875 -4.753 13.499 -5.174 14.143 C-6.935 16.834 -8.716 19.511 -10.5 22.188 C-13.933 21.529 -16.444 20.153 -19.438 18.375 C-29.166 12.999 -40.503 8.788 -51.668 11.766 C-55.067 13.083 -56.45 14.112 -58.5 17.188 C-58.811 21.457 -58.875 24.573 -56.5 28.188 C-51.506 31.159 -45.496 32.511 -39.938 34.062 C-6.047 43.55 -6.047 43.55 2.5 58.188 C6.465 68.359 5.677 81.182 1.5 91.188 C-3.33 100.209 -11.605 105.59 -21.188 108.625 C-43.929 113.987 -63.707 108.985 -83.379 97.508 C-87.608 94.819 -90.443 92.212 -93.5 88.188 C-91.772 86.29 -90.043 84.395 -88.312 82.5 C-87.83 81.97 -87.347 81.439 -86.85 80.893 C-83.813 77.57 -80.706 74.347 -77.5 71.188 C-74.558 72.576 -71.971 74.193 -69.312 76.062 C-58.903 83.008 -46.349 87.61 -33.691 85.629 C-32.968 85.483 -32.245 85.338 -31.5 85.188 C-30.808 85.073 -30.116 84.958 -29.402 84.84 C-26.376 84.2 -24.806 83.621 -23 81.062 C-22.297 77.018 -22.589 74.223 -23.5 70.188 C-29.488 64.517 -39.349 62.787 -47.113 60.555 C-75.836 52.272 -75.836 52.272 -82.5 41.188 C-87.206 32.288 -87.648 19.779 -84.913 10.111 C-83.357 6.347 -81.12 3.275 -78.5 0.188 C-77.925 -0.515 -77.35 -1.218 -76.758 -1.941 C-72.932 -6.164 -68.713 -8.621 -63.5 -10.812 C-62.654 -11.204 -61.809 -11.596 -60.938 -12 C-40.128 -18.937 -17.063 -12.371 0 0 Z " fill="#FCFDFE" transform="translate(349.5,498.8125)"/>
<path d="M0 0 C4.218 3.081 8.138 6.485 12 10 C10.416 13.96 7.648 16.546 4.625 19.438 C1.157 22.78 -2.065 26.168 -5 30 C-7.856 28.699 -9.922 27.284 -12.188 25.125 C-16.125 21.696 -20.099 19.738 -25 18 C-25.907 17.676 -26.815 17.353 -27.75 17.02 C-37.664 14 -47.169 14.916 -56.562 19.312 C-65.119 24.122 -70.658 32.05 -73.5 41.383 C-75.929 54.097 -73.727 65.377 -67.055 76.258 C-62.36 82.523 -55.487 85.99 -48 88 C-44.366 88.455 -40.785 88.525 -37.125 88.5 C-36.147 88.494 -35.169 88.487 -34.161 88.48 C-22.024 88.171 -15.535 83.308 -7 75 C-3.957 76.358 -1.877 77.885 0.453 80.258 C1.072 80.883 1.691 81.508 2.328 82.152 C2.962 82.803 3.597 83.454 4.25 84.125 C4.9 84.784 5.549 85.442 6.219 86.121 C7.817 87.743 9.411 89.369 11 91 C6.005 101.294 -4.73 107.843 -15.246 111.617 C-34.183 117.743 -54.332 116.339 -72.125 107.25 C-74.094 106.187 -76.058 105.112 -78 104 C-78 103.34 -78 102.68 -78 102 C-78.735 101.759 -79.47 101.518 -80.227 101.27 C-89.373 97.083 -95.248 85.874 -99 77 C-101.998 68.61 -102.545 60.612 -102.5 51.75 C-102.496 50.47 -102.491 49.191 -102.487 47.872 C-102.257 35.076 -99.857 24.405 -92 14 C-91.34 14 -90.68 14 -90 14 C-89.752 13.443 -89.505 12.886 -89.25 12.312 C-83.599 1.858 -71.849 -4.28 -60.812 -7.688 C-40.956 -13.43 -17.468 -11.317 0 0 Z " fill="#FCFDFE" transform="translate(256,324)"/>
<path d="M0 0 C2.297 2.448 4.309 4.926 6.254 7.66 C6.704 8.285 7.154 8.911 7.617 9.555 C12.605 17.879 13.296 29.744 11.148 39.027 C8.706 46.215 5.092 52.72 -0.746 57.66 C-1.468 58.341 -2.19 59.021 -2.934 59.723 C-12.461 66.286 -22.489 66.913 -33.746 65.66 C-43.066 63.571 -51.034 57.721 -56.426 49.898 C-62.451 39.685 -63.544 28.544 -60.934 17.098 C-57.398 6.688 -51.361 -0.758 -41.621 -5.902 C-27.943 -12.001 -11.561 -9.85 0 0 Z " fill="#0F54B7" transform="translate(367.74609375,347.33984375)"/>
<path d="M0 0 C7.907 7.457 12.71 17.388 13.125 28.277 C12.733 39.768 9.611 49.272 1.75 58.062 C-6.234 65.23 -16.522 67.555 -26.926 67.352 C-35.399 66.874 -43.296 63.037 -50 58 C-57.561 49.208 -61.513 39.623 -60.938 28 C-59.516 16.557 -55.841 6.798 -46.898 -0.781 C-32.186 -11.387 -14.747 -9.711 0 0 Z " fill="#184DB6" transform="translate(459,517)"/>
<path d="M0 0 C6.262 5.308 11.478 13.557 13 21.695 C14.065 35.206 11.947 45.987 3.023 56.723 C-3.803 63.378 -12.254 66.976 -21.75 67.008 C-32.217 66.832 -41.125 64.178 -48.875 56.945 C-56.704 48.576 -60.325 39.514 -60.152 28.121 C-59.467 17.201 -55.829 8.838 -48.414 0.812 C-33.935 -11.886 -15.073 -10.712 0 0 Z " fill="#2145B4" transform="translate(601,517.3046875)"/>
<path d="M0 0 C8.58 0 17.16 0 26 0 C26 40.26 26 80.52 26 122 C17.42 122 8.84 122 0 122 C0 81.74 0 41.48 0 0 Z " fill="#FEFEFE" transform="translate(580,315)"/>
<path d="M0 0 C2.583 2.19 4.484 3.968 6 7 C6.442 12.639 5.511 16.074 3 21 C0.259 23.741 -1.975 23.683 -5.734 24.047 C-8.818 23.983 -10.63 22.911 -13 21 C-13.33 24.3 -13.66 27.6 -14 31 C-15.32 31 -16.64 31 -18 31 C-18 20.77 -18 10.54 -18 0 C-16.68 0 -15.36 0 -14 0 C-13.67 0.66 -13.34 1.32 -13 2 C-12.154 1.484 -11.309 0.969 -10.438 0.438 C-6.278 -1.302 -4.308 -1.253 0 0 Z " fill="#EEEFF9" transform="translate(397,700)"/>
<path d="M0 0 C0.99 0 1.98 0 3 0 C3 10.89 3 21.78 3 33 C2.01 33 1.02 33 0 33 C-0.33 32.34 -0.66 31.68 -1 31 C-1.516 31.495 -2.031 31.99 -2.562 32.5 C-5.913 34.562 -8.124 34.408 -12 34 C-16.152 32.207 -18.272 30.185 -20 26 C-20.564 21.748 -20.429 18.161 -18.938 14.125 C-16.335 11.271 -13.82 9.546 -10 9 C-6.75 9.646 -4.088 10.717 -1 12 C-0.67 8.04 -0.34 4.08 0 0 Z " fill="#F8F7FC" transform="translate(532,690)"/>
<path d="M0 0 C1.67 0.659 3.337 1.325 5 2 C5.66 2 6.32 2 7 2 C7 2.66 7 3.32 7 4 C7.99 3.67 8.98 3.34 10 3 C10.495 4.485 10.495 4.485 11 6 C13.31 6.33 15.62 6.66 18 7 C18 7.99 18 8.98 18 10 C18.722 10.248 19.444 10.495 20.188 10.75 C23.276 12.123 25.51 13.724 28 16 C28 16.66 28 17.32 28 18 C28.99 18 29.98 18 31 18 C34 22.222 34 22.222 34 25 C33.34 25.33 32.68 25.66 32 26 C32.495 26.99 32.495 26.99 33 28 C31 30 31 30 29.188 30.375 C25.294 31.487 22.703 34.063 20.312 37.25 C19.879 37.827 19.446 38.405 19 39 C18.34 39 17.68 39 17 39 C16.67 40.32 16.34 41.64 16 43 C14.68 43.33 13.36 43.66 12 44 C11.629 43.381 11.257 42.762 10.875 42.125 C9.094 39.744 9.094 39.744 5.938 39 C4.968 38.67 3.999 38.34 3 38 C2.711 37.361 2.423 36.721 2.125 36.062 C0.486 33.058 -1.738 32.652 -4.891 31.594 C-7.571 30.839 -10.238 30.345 -13 30 C-13 29.34 -13 28.68 -13 28 C-14.65 28 -16.3 28 -18 28 C-18 27.34 -18 26.68 -18 26 C-5.74 26.512 3.525 31.027 12 40 C15.25 38.605 17.074 37.032 19.312 34.312 C22.68 30.325 26.26 26.637 30 23 C27.605 15.814 18.597 11.558 12.25 8.188 C-3.538 0.542 -24.716 -1.135 -41.574 4.086 C-48.75 6.79 -55.359 10.169 -62 14 C-61.438 11.125 -61.438 11.125 -60 8 C-56.7 6.692 -53.609 6.106 -50.125 5.5 C-49.424 5.335 -48.722 5.17 -48 5 C-47.67 4.34 -47.34 3.68 -47 3 C-46.34 2.67 -45.68 2.34 -45 2 C-44.34 2.33 -43.68 2.66 -43 3 C-43 2.34 -43 1.68 -43 1 C-42.34 1 -41.68 1 -41 1 C-40.67 0.34 -40.34 -0.32 -40 -1 C-40 -0.34 -40 0.32 -40 1 C-38.68 1 -37.36 1 -36 1 C-35.67 0.34 -35.34 -0.32 -35 -1 C-34.051 -0.979 -33.102 -0.959 -32.125 -0.938 C-5.969 -1.461 -5.969 -1.461 0 0 Z " fill="#0948B2" transform="translate(237,313)"/>
<path d="M0 0 C2.751 2.047 4.735 3.616 5.402 7.096 C5.492 9.52 5.437 11.891 5.312 14.312 C5.29 15.148 5.267 15.984 5.244 16.846 C5.186 18.898 5.096 20.949 5 23 C4.103 22.691 4.103 22.691 3.188 22.375 C0.715 21.693 0.715 21.693 -2 24 C-6.022 24.57 -9.769 24.48 -13.562 23 C-15.41 20.43 -15.483 18.15 -15.531 15.035 C-14.741 12.008 -13.506 10.846 -11 9 C-7.766 8.609 -7.766 8.609 -4.25 8.75 C-3.08 8.786 -1.909 8.822 -0.703 8.859 C0.189 8.906 1.081 8.952 2 9 C1.67 7.35 1.34 5.7 1 4 C-6.54 2.921 -6.54 2.921 -14 4 C-14 3.01 -14 2.02 -14 1 C-4.954 -1.651 -4.954 -1.651 0 0 Z " fill="#F0EEF9" transform="translate(720,700)"/>
<path d="M0 0 C2.875 1.5 2.875 1.5 5 4 C5.33 6.97 5.66 9.94 6 13 C-0.27 13 -6.54 13 -13 13 C-9.753 18.88 -9.753 18.88 -6.125 20.562 C-2.15 21.119 -0.397 20.007 3 18 C3.66 18 4.32 18 5 18 C4.812 19.875 4.812 19.875 4 22 C0.217 24.482 -3.524 24.211 -7.844 23.613 C-11.234 22.649 -12.907 20.747 -15 18 C-16.511 13.466 -16.774 9.623 -14.688 5.25 C-10.338 -0.549 -7.297 -1.636 0 0 Z " fill="#F1EDF9" transform="translate(788,700)"/>
<path d="M0 0 C2.47 2.058 4.493 4.151 6 7 C6 8.98 6 10.96 6 13 C0.06 13.33 -5.88 13.66 -12 14 C-9.632 19.254 -9.632 19.254 -5.562 19.938 C-2.082 19.999 -0.866 19.74 2 18 C2.99 18 3.98 18 5 18 C4.042 20.395 3.411 21.739 1.203 23.141 C-2.578 24.615 -6.132 23.983 -10 23 C-13.385 20.57 -14.862 17.982 -16 14 C-16.495 10.119 -16.167 8.327 -14.375 4.812 C-10.301 -0.011 -6.152 -2.307 0 0 Z " fill="#F1F2F9" transform="translate(304,700)"/>
<path d="M0 0 C0.33 0.99 0.66 1.98 1 3 C0.443 3.082 -0.114 3.165 -0.688 3.25 C-3.71 4.23 -5.587 5.959 -8 8 C-8.99 8.66 -9.98 9.32 -11 10 C-12.012 11.659 -13.013 13.326 -14 15 C-14.99 15.495 -14.99 15.495 -16 16 C-20.169 26.234 -21.887 38.506 -18 49 C-16.722 51.036 -15.393 53.041 -14 55 C-12.415 57.774 -12 58.737 -12 62 C-11.237 61.938 -10.474 61.876 -9.688 61.812 C-7 62 -7 62 -5.188 63.375 C-4 65 -4 65 -4 67 C-3.072 67.217 -3.072 67.217 -2.125 67.438 C0 68 0 68 2 69 C2.33 68.34 2.66 67.68 3 67 C3.66 67 4.32 67 5 67 C5 67.66 5 68.32 5 69 C7.875 69.054 10.749 69.094 13.625 69.125 C14.837 69.15 14.837 69.15 16.074 69.176 C20.848 69.215 24.477 68.685 29 67 C30.32 67 31.64 67 33 67 C33 66.34 33 65.68 33 65 C34.32 65.33 35.64 65.66 37 66 C35.732 66.816 34.46 67.628 33.188 68.438 C32.48 68.89 31.772 69.342 31.043 69.809 C23.449 74.237 10.284 73.235 1.89 71.585 C-8.473 68.553 -14.433 62.269 -19.52 53.039 C-23.92 44.007 -24.609 33.201 -22.09 23.492 C-18.772 14.296 -11.731 0 0 0 Z " fill="#0D51B5" transform="translate(204,341)"/>
<path d="M0 0 C0.66 0.413 1.32 0.825 2 1.25 C2.66 1.497 3.32 1.745 4 2 C4.949 1.526 5.898 1.051 6.875 0.562 C10 -1 10 -1 13.125 -1 C16.911 0.317 17.916 1.573 20 5 C20.475 8.123 20.379 11.163 20.25 14.312 C20.232 15.148 20.214 15.984 20.195 16.846 C20.148 18.898 20.077 20.949 20 23 C19.01 23 18.02 23 17 23 C16.939 21.88 16.879 20.76 16.816 19.605 C16.732 18.133 16.647 16.66 16.562 15.188 C16.523 14.45 16.484 13.712 16.443 12.951 C16.256 9.769 16.013 7.038 15 4 C12.2 3.143 12.2 3.143 9 3 C6.668 4.411 6.668 4.411 5 7 C4.551 9.866 4.306 12.382 4.25 15.25 C4.206 16.368 4.206 16.368 4.16 17.508 C4.09 19.338 4.043 21.169 4 23 C3.01 23 2.02 23 1 23 C0.963 21.808 0.925 20.615 0.887 19.387 C0.821 17.82 0.755 16.254 0.688 14.688 C0.665 13.902 0.642 13.116 0.619 12.307 C0.566 11.171 0.566 11.171 0.512 10.012 C0.486 9.315 0.459 8.619 0.432 7.901 C-0.124 5.457 -1.046 4.531 -3 3 C-5.5 2.5 -5.5 2.5 -8 3 C-9.954 4.531 -10.876 5.457 -11.432 7.901 C-11.459 8.598 -11.485 9.294 -11.512 10.012 C-11.547 10.769 -11.583 11.526 -11.619 12.307 C-11.642 13.092 -11.664 13.878 -11.688 14.688 C-11.722 15.485 -11.756 16.282 -11.791 17.104 C-11.873 19.069 -11.938 21.034 -12 23 C-13.32 23 -14.64 23 -16 23 C-16 15.41 -16 7.82 -16 0 C-13.525 0.495 -13.525 0.495 -11 1 C-10.196 0.67 -9.391 0.34 -8.562 0 C-5.275 -1.283 -3.385 -0.864 0 0 Z " fill="#FAF8FD" transform="translate(747,700)"/>
<path d="M0 0 C1.021 0.619 1.021 0.619 2.062 1.25 C2.702 1.497 3.341 1.745 4 2 C4.763 1.526 5.526 1.051 6.312 0.562 C9.96 -1.558 11.988 -1.04 16 0 C18.585 1.895 18.963 2.888 20 6 C20.08 7.335 20.108 8.674 20.098 10.012 C20.094 10.769 20.091 11.526 20.088 12.307 C20.075 13.485 20.075 13.485 20.062 14.688 C20.058 15.485 20.053 16.282 20.049 17.104 C20.037 19.069 20.019 21.035 20 23 C19.01 23 18.02 23 17 23 C16.939 21.808 16.879 20.615 16.816 19.387 C16.732 17.82 16.647 16.254 16.562 14.688 C16.523 13.902 16.484 13.116 16.443 12.307 C16.401 11.549 16.36 10.792 16.316 10.012 C16.28 9.315 16.243 8.619 16.205 7.901 C16.044 5.778 16.044 5.778 15 3 C11.626 2.693 9.676 2.53 6.844 4.5 C4.315 7.929 4.33 11.14 4.25 15.25 C4.206 16.368 4.206 16.368 4.16 17.508 C4.09 19.338 4.043 21.169 4 23 C3.01 23 2.02 23 1 23 C0.963 21.808 0.925 20.615 0.887 19.387 C0.821 17.82 0.755 16.254 0.688 14.688 C0.665 13.902 0.642 13.116 0.619 12.307 C0.584 11.549 0.548 10.792 0.512 10.012 C0.486 9.315 0.459 8.619 0.432 7.901 C-0.127 5.442 -0.995 4.5 -3 3 C-6.083 3 -6.083 3 -9 4 C-11.48 7.721 -11.444 10.865 -11.625 15.188 C-11.664 15.937 -11.702 16.687 -11.742 17.459 C-11.836 19.306 -11.919 21.153 -12 23 C-12.99 23 -13.98 23 -15 23 C-15 15.41 -15 7.82 -15 0 C-12.525 0.495 -12.525 0.495 -10 1 C-9.361 0.67 -8.721 0.34 -8.062 0 C-5.086 -1.443 -3.151 -0.788 0 0 Z " fill="#F1F1FA" transform="translate(472,700)"/>
<path d="M0 0 C0.99 0.66 1.98 1.32 3 2 C3.866 1.484 4.733 0.969 5.625 0.438 C9.502 -1.214 11.063 -1.455 15 0 C19.254 4.938 19.523 8.684 19.25 14.875 C19.232 15.659 19.214 16.442 19.195 17.25 C19.149 19.167 19.077 21.084 19 23 C18.01 23 17.02 23 16 23 C15.939 21.975 15.879 20.95 15.816 19.895 C15.732 18.534 15.647 17.173 15.562 15.812 C15.523 15.139 15.484 14.465 15.443 13.771 C15.211 10.103 14.828 6.583 14 3 C10.626 2.693 8.676 2.53 5.844 4.5 C3.315 7.929 3.33 11.14 3.25 15.25 C3.206 16.368 3.206 16.368 3.16 17.508 C3.09 19.338 3.043 21.169 3 23 C2.01 23 1.02 23 0 23 C-0.049 21.724 -0.098 20.448 -0.148 19.133 C-0.223 17.464 -0.299 15.794 -0.375 14.125 C-0.406 13.283 -0.437 12.441 -0.469 11.574 C-0.507 10.769 -0.546 9.963 -0.586 9.133 C-0.617 8.389 -0.649 7.646 -0.681 6.879 C-0.854 4.76 -0.854 4.76 -3 3 C-6.033 3.089 -6.033 3.089 -9 4 C-11.48 7.721 -11.444 10.865 -11.625 15.188 C-11.664 15.937 -11.702 16.687 -11.742 17.459 C-11.836 19.306 -11.919 21.153 -12 23 C-12.99 23 -13.98 23 -15 23 C-15 15.41 -15 7.82 -15 0 C-14.01 0 -13.02 0 -12 0 C-12 0.66 -12 1.32 -12 2 C-11.134 1.484 -10.267 0.969 -9.375 0.438 C-5.553 -1.191 -3.933 -1.136 0 0 Z " fill="#F6F6FC" transform="translate(330,700)"/>
<path d="M0 0 C3.348 1.237 4.805 2.148 6.875 5.062 C8.149 9.361 8.238 11.293 6.312 15.375 C3.525 18.448 1.975 19.477 -2.125 20.062 C-5.291 18.811 -6.83 17.417 -9 14.812 C-10.549 11.026 -10.31 8.967 -9.125 5.062 C-6.634 1.763 -4.247 0.085 0 0 Z " fill="#2A46B8" transform="translate(257.125,701.9375)"/>
<path d="M0 0 C3.842 1.361 5.576 2.783 8 6.062 C8.622 9.481 8.682 11.693 7.113 14.844 C4.842 18.043 3.287 19.012 -0.562 19.688 C-4.451 18.98 -5.635 18.156 -8 15.062 C-9.755 11.552 -8.954 7.774 -8 4.062 C-5.368 0.905 -4.112 0.086 0 0 Z " fill="#373CB4" transform="translate(524,701.9375)"/>
<path d="M0 0 C3.055 2.734 3.899 4.383 4.562 8.438 C3.797 13.284 2.702 14.77 -1 18 C-5.394 18.863 -7.2 18.528 -10.938 16.062 C-13.356 12.472 -13.726 10.341 -13.5 6.09 C-13 4 -13 4 -10.625 1.5 C-6.432 -0.896 -4.782 -1.339 0 0 Z " fill="#2E41B7" transform="translate(396,703)"/>
<path d="M0 0 C5.084 2.841 11.334 6.667 14 12 C14.66 12 15.32 12 16 12 C16 12.66 16 13.32 16 14 C16.99 14 17.98 14 19 14 C21.182 19.333 21.182 19.333 20.438 22.062 C13.357 31.606 0.659 41.085 -11 44 C-11.99 43.67 -12.98 43.34 -14 43 C-14.99 43.495 -14.99 43.495 -16 44 C-18.362 44.086 -20.726 44.107 -23.09 44.098 C-23.79 44.096 -24.491 44.095 -25.212 44.093 C-27.454 44.088 -29.696 44.075 -31.938 44.062 C-33.445 44.057 -34.952 44.053 -36.459 44.049 C-40.306 44.037 -44.153 44.019 -48 44 C-48.99 44 -49.98 44 -51 44 C-53.688 42.625 -53.688 42.625 -56 41 C-56 40.34 -56 39.68 -56 39 C-49.761 39.832 -49.761 39.832 -46.684 40.512 C-30.054 44.091 -12.526 42.668 2.5 34.25 C7.697 30.755 12.924 26.769 17 22 C17.396 18.176 17.396 18.176 15.715 16.261 C15.128 15.695 14.542 15.13 13.938 14.547 C13.306 13.928 12.674 13.309 12.023 12.672 C11.356 12.038 10.688 11.403 10 10.75 C9.332 10.1 8.665 9.451 7.977 8.781 C6.326 7.178 4.667 5.585 3 4 C0.452 5.183 -1.105 6.105 -3.125 8.125 C-3.744 8.744 -4.363 9.363 -5 10 C-5.66 10 -6.32 10 -7 10 C-6.427 7.133 -6.139 6.139 -4 4 C-3.34 4.33 -2.68 4.66 -2 5 C-1.34 3.35 -0.68 1.7 0 0 Z " fill="#0C45B2" transform="translate(248,396)"/>
<path d="M0 0 C0 3.325 -0.908 4.683 -2.643 7.427 C-12.261 22.719 -14.341 40.158 -10.938 57.812 C-7.742 69.628 -0.986 78.964 7 88 C4 88 4 88 1 87 C0 85 -1 83 -2 81 C-2.66 80.546 -3.32 80.092 -4 79.625 C-7.065 77.135 -8.001 73.752 -9 70 C-9 69.01 -9 68.02 -9 67 C-9.66 67 -10.32 67 -11 67 C-11.289 65.866 -11.577 64.731 -11.875 63.562 C-12.246 62.387 -12.618 61.211 -13 60 C-13.66 59.67 -14.32 59.34 -15 59 C-14.794 58.464 -14.587 57.928 -14.375 57.375 C-13.791 54.927 -13.791 54.927 -14.938 52.438 C-18.377 41.311 -15.676 26.836 -12 16 C-11.34 15.67 -10.68 15.34 -10 15 C-9.67 14.01 -9.34 13.02 -9 12 C-8.34 12 -7.68 12 -7 12 C-7.33 11.01 -7.66 10.02 -8 9 C-7.34 9 -6.68 9 -6 9 C-6 8.01 -6 7.02 -6 6 C-5.34 5.67 -4.68 5.34 -4 5 C-3.67 4.01 -3.34 3.02 -3 2 C-2.01 1.34 -1.02 0.68 0 0 Z " fill="#1340B2" transform="translate(384,505)"/>
<path d="M0 0 C3.546 3.546 4.945 5.87 5.188 10.875 C5.066 16.485 5.066 16.485 3 19 C-0.683 21.6 -3.07 22.834 -7.5 23.625 C-12.221 22.782 -14.806 20.483 -18 17 C-19.536 13.928 -19.227 11.398 -19 8 C-17.401 3.842 -15.853 1.288 -12 -1 C-7.692 -2.436 -4.21 -1.568 0 0 Z M-13.793 4.41 C-15.954 7.257 -16.123 9.493 -16 13 C-14.2 16.816 -12.799 18.548 -9.125 20.625 C-5.868 21.307 -5.868 21.307 -2.75 19.375 C0.492 16.692 0.492 16.692 2 13 C1.863 9.156 1.555 6.782 -0.688 3.625 C-5.652 0.137 -9.266 0.098 -13.793 4.41 Z " fill="#F1F2FA" transform="translate(263,701)"/>
<path d="M0 0 C2.725 2.169 4.202 3.579 5.316 6.922 C5.662 12.274 5.792 15.577 2.316 19.922 C-0.332 22.766 -1.658 22.919 -5.621 23.297 C-10.704 23.08 -13.388 21.182 -16.996 17.672 C-19.187 14.101 -19.191 12.055 -18.684 7.922 C-17.092 3.782 -15.559 1.153 -11.684 -1.078 C-7.694 -2.674 -3.651 -2.338 0 0 Z M-13.684 4.922 C-16.018 7.79 -16.018 7.79 -15.559 11.297 C-14.595 15.289 -13.698 17.152 -10.684 19.922 C-7.837 21.257 -7.837 21.257 -4.684 20.922 C-1.703 19.158 0.746 17.063 2.316 13.922 C2.442 9.283 2.179 5.904 -0.934 2.359 C-6.518 -0.56 -9.229 0.708 -13.684 4.922 Z " fill="#F4F4FB" transform="translate(598.68359375,701.078125)"/>
<path d="M0 0 C0 0.66 0 1.32 0 2 C0.908 1.794 1.815 1.587 2.75 1.375 C6.11 0.987 7.241 1.196 10 3 C10 3.66 10 4.32 10 5 C10.908 4.959 11.815 4.918 12.75 4.875 C15.878 4.995 17.386 5.391 20 7 C20 7.99 20 8.98 20 10 C20.949 10.289 21.897 10.577 22.875 10.875 C26 12 26 12 28 14 C28.66 14 29.32 14 30 14 C31.312 16 31.312 16 32 19 C30.679 21.915 28.879 24.419 27 27 C26.34 27.99 25.68 28.98 25 30 C24.34 30 23.68 30 23 30 C22.67 31.65 22.34 33.3 22 35 C21.01 35.33 20.02 35.66 19 36 C18.67 36.99 18.34 37.98 18 39 C16.68 38.67 15.36 38.34 14 38 C14.99 37.67 15.98 37.34 17 37 C18.511 34.919 18.511 34.919 19.875 32.375 C21.726 29.148 23.601 26.055 25.812 23.062 C28.108 20.166 28.108 20.166 29 17 C28.421 16.728 27.842 16.456 27.246 16.176 C25.011 15.006 23.1 13.67 21.062 12.188 C9.486 4.393 -2.467 3.007 -16 2.438 C-16.966 2.394 -17.931 2.351 -18.926 2.307 C-21.284 2.202 -23.642 2.099 -26 2 C-19.818 -4.182 -7.673 -1.999 0 0 Z " fill="#1042B2" transform="translate(322,483)"/>
<path d="M0 0 C2.562 1.938 2.562 1.938 4 5 C4.604 10.286 4.96 15.382 2 20 C-2.335 23.066 -5.786 23.417 -10.879 22.652 C-14.194 21.633 -15.908 19.68 -18 17 C-19.746 13.508 -19.57 9.81 -19 6 C-17.307 2.662 -14.859 0.573 -11.75 -1.5 C-7.527 -2.268 -3.984 -1.531 0 0 Z M-15 5 C-16.465 8.906 -16.417 11.958 -14.875 15.812 C-12.745 18.297 -10.999 19.683 -8 21 C-4.149 20.88 -1.582 18.721 1 16 C2.07 13.257 2.376 10.922 2 8 C0.264 4.315 -2.112 2.34 -5.938 0.875 C-10.173 1.048 -11.938 2.08 -15 5 Z " fill="#F4F4FB" transform="translate(560,701)"/>
<path d="M0 0 C0.495 1.98 0.495 1.98 1 4 C0.34 4 -0.32 4 -1 4 C-1.33 5.65 -1.66 7.3 -2 9 C-2.99 9 -3.98 9 -5 9 C-5.309 10.279 -5.619 11.558 -5.938 12.875 C-6.476 15.101 -6.974 16.947 -8 19 C-8.99 19.33 -9.98 19.66 -11 20 C-12.67 22.954 -13.927 25.781 -15 29 C-15.66 29 -16.32 29 -17 29 C-17.281 29.565 -17.562 30.129 -17.852 30.711 C-19.012 33.024 -20.172 35.334 -21.375 37.625 C-21.974 38.789 -21.974 38.789 -22.586 39.977 C-24.174 42.249 -25.452 42.992 -28 44 C-28.619 43.051 -29.238 42.103 -29.875 41.125 C-31.82 38.056 -31.82 38.056 -34 36 C-33.67 35.34 -33.34 34.68 -33 34 C-34.485 33.505 -34.485 33.505 -36 33 C-37.098 31.293 -37.098 31.293 -38.062 29.188 C-38.544 28.157 -38.544 28.157 -39.035 27.105 C-39.688 25.68 -40.321 24.244 -40.934 22.801 C-41.938 20.657 -41.938 20.657 -45 20 C-45.719 18.355 -46.37 16.681 -47 15 C-48.606 11.966 -50.298 8.982 -52 6 C-51.34 6 -50.68 6 -50 6 C-48.718 7.697 -47.526 9.462 -46.375 11.25 C-45.662 12.346 -44.949 13.441 -44.215 14.57 C-43.664 15.425 -43.664 15.425 -43.101 16.298 C-41.403 18.923 -39.671 21.524 -37.938 24.125 C-37.348 25.014 -36.759 25.904 -36.152 26.82 C-33.154 31.25 -30.077 35.624 -27 40 C-24.519 36.209 -22.041 32.417 -19.562 28.625 C-18.855 27.545 -18.148 26.465 -17.42 25.352 C-16.746 24.32 -16.073 23.289 -15.379 22.227 C-14.756 21.273 -14.133 20.32 -13.49 19.338 C-12.006 17.099 -12.006 17.099 -11 15 C-10.34 15 -9.68 15 -9 15 C-8.897 14.443 -8.794 13.886 -8.688 13.312 C-7.858 10.523 -6.657 8.386 -5 6 C-4.34 6 -3.68 6 -3 6 C-2.691 5.196 -2.381 4.391 -2.062 3.562 C-1 1 -1 1 0 0 Z " fill="#153FB0" transform="translate(517,372)"/>
<path d="M0 0 C0.99 0 1.98 0 3 0 C3.061 1.192 3.121 2.385 3.184 3.613 C3.268 5.18 3.353 6.746 3.438 8.312 C3.477 9.098 3.516 9.884 3.557 10.693 C3.599 11.451 3.64 12.208 3.684 12.988 C3.72 13.685 3.757 14.381 3.795 15.099 C3.956 17.222 3.956 17.222 5 20 C8.3 20 11.6 20 15 20 C15.864 17.407 16.176 15.66 16.316 12.988 C16.358 12.231 16.4 11.474 16.443 10.693 C16.483 9.908 16.522 9.122 16.562 8.312 C16.606 7.515 16.649 6.718 16.693 5.896 C16.799 3.931 16.9 1.966 17 0 C17.99 0 18.98 0 20 0 C20 7.59 20 15.18 20 23 C18.68 22.67 17.36 22.34 16 22 C15.34 22.66 14.68 23.32 14 24 C9.704 24.713 6.111 24.778 2.5 22.25 C-0.511 17.734 -0.123 13.02 -0.062 7.75 C-0.058 7.005 -0.053 6.26 -0.049 5.492 C-0.037 3.661 -0.019 1.831 0 0 Z " fill="#F6F6FC" transform="translate(430,700)"/>
<path d="M0 0 C1.472 2.944 1.082 5.89 1.022 9.112 C1.012 9.844 1.003 10.575 0.993 11.329 C0.96 13.754 0.919 16.178 0.879 18.602 C0.855 20.28 0.831 21.959 0.807 23.638 C0.744 28.06 0.675 32.482 0.605 36.904 C0.534 41.415 0.47 45.926 0.404 50.438 C0.275 59.292 0.14 68.146 0 77 C-0.66 77 -1.32 77 -2 77 C-3.194 30.616 -3.194 30.616 -3 10 C-3.99 11.485 -3.99 11.485 -5 13 C-5.66 12.67 -6.32 12.34 -7 12 C-5.639 6.802 -3.533 3.905 0 0 Z " fill="#123BAF" transform="translate(525,360)"/>
<path d="M0 0 C0.99 0.66 1.98 1.32 3 2 C2.67 2.99 2.34 3.98 2 5 C1.113 4.649 0.226 4.299 -0.688 3.938 C-4.071 2.98 -5.714 2.873 -9 4 C-9.33 4.66 -9.66 5.32 -10 6 C-8.596 8.808 -6.969 8.933 -4.062 10 C0.786 11.786 0.786 11.786 3 14 C3.345 18.053 3.302 19.548 1 23 C-3.439 24.48 -7.371 24.46 -11.875 23.188 C-14 22 -14 22 -15 19 C-14.01 18.67 -13.02 18.34 -12 18 C-11.01 18.66 -10.02 19.32 -9 20 C-6.668 20.079 -4.332 20.088 -2 20 C-1.34 18.35 -0.68 16.7 0 15 C-0.603 14.818 -1.207 14.636 -1.828 14.449 C-10.856 11.61 -10.856 11.61 -13 9 C-13.562 5.5 -13.562 5.5 -13 2 C-8.973 -2.027 -5.156 -1.081 0 0 Z " fill="#F0F1FA" transform="translate(422,700)"/>
<path d="M0 0 C0.808 0.195 1.616 0.389 2.449 0.59 C3.372 0.824 3.372 0.824 4.312 1.062 C4.312 2.383 4.312 3.702 4.312 5.062 C3.591 4.732 2.869 4.403 2.125 4.062 C-0.704 3.056 -2.716 2.893 -5.688 3.062 C-6.347 4.712 -7.008 6.362 -7.688 8.062 C-7.084 8.256 -6.481 8.449 -5.859 8.648 C-5.06 8.909 -4.261 9.169 -3.438 9.438 C-2.649 9.693 -1.86 9.948 -1.047 10.211 C1.211 11.026 3.259 11.816 5.312 13.062 C6.375 15.875 6.375 15.875 6.312 19.062 C4.312 21.938 4.312 21.938 1.312 24.062 C-3.921 24.824 -7.175 23.704 -11.688 21.062 C-11.688 20.072 -11.688 19.082 -11.688 18.062 C-11.007 18.393 -10.326 18.722 -9.625 19.062 C-6.179 20.236 -3.304 20.204 0.312 20.062 C0.972 18.413 1.633 16.763 2.312 15.062 C1.709 14.881 1.106 14.699 0.484 14.512 C-8.435 11.706 -8.435 11.706 -10.688 9.062 C-11.161 5.816 -11.333 3.954 -9.375 1.25 C-5.998 -1.126 -3.824 -0.942 0 0 Z " fill="#F2F0FA" transform="translate(651.6875,699.9375)"/>
<path d="M0 0 C0.66 0.99 1.32 1.98 2 3 C1.257 4.072 0.515 5.145 -0.25 6.25 C-8.511 19.496 -11.03 36.435 -7.75 51.562 C-6.441 56.794 -4.714 61.77 -2.672 66.758 C-2 69 -2 69 -3 72 C-3.66 70.68 -4.32 69.36 -5 68 C-5.66 68 -6.32 68 -7 68 C-7.133 67.397 -7.266 66.793 -7.402 66.172 C-7.579 65.373 -7.756 64.573 -7.938 63.75 C-8.112 62.961 -8.286 62.172 -8.465 61.359 C-9.21 58.075 -10.033 54.897 -11.062 51.688 C-12.703 45.309 -12.153 38.537 -12 32 C-11.34 32 -10.68 32 -10 32 C-10.206 31.196 -10.413 30.391 -10.625 29.562 C-11.306 23.094 -9.174 17.057 -7 11 C-6.34 11 -5.68 11 -5 11 C-5.33 10.01 -5.66 9.02 -6 8 C-5.01 7.67 -4.02 7.34 -3 7 C-3 5.35 -3 3.7 -3 2 C-2.01 2 -1.02 2 0 2 C0 1.34 0 0.68 0 0 Z " fill="#0B44B2" transform="translate(288,337)"/>
<path d="M0 0 C0.33 0 0.66 0 1 0 C1.098 1.221 1.196 2.441 1.297 3.699 C2.904 22.047 6.947 39.003 21 52 C21.906 52.536 22.812 53.072 23.746 53.625 C24.49 54.079 25.234 54.533 26 55 C26 55.66 26 56.32 26 57 C26.639 57.248 27.279 57.495 27.938 57.75 C32 59.408 35.997 61.204 40 63 C37 64 37 64 34 64 C34 63.34 34 62.68 34 62 C33.278 61.876 32.556 61.752 31.812 61.625 C27.209 60.602 24.677 60.015 22 56 C20.672 54.993 19.338 53.994 18 53 C15.25 50.5 15.25 50.5 13 48 C13 47.01 13 46.02 13 45 C12.34 45 11.68 45 11 45 C10.876 44.361 10.752 43.721 10.625 43.062 C10.419 42.382 10.213 41.701 10 41 C9.34 40.67 8.68 40.34 8 40 C6.742 38.022 5.567 35.991 4.438 33.938 C3.817 32.833 3.197 31.728 2.559 30.59 C-0.461 23.635 -0.137 16.454 -0.062 9 C-0.058 8.13 -0.053 7.26 -0.049 6.363 C-0.037 4.242 -0.019 2.121 0 0 Z " fill="#0B48B3" transform="translate(152,371)"/>
<path d="M0 0 C1.32 0 2.64 0 4 0 C4 2.64 4 5.28 4 8 C6.64 8 9.28 8 12 8 C12 8.66 12 9.32 12 10 C9.36 10 6.72 10 4 10 C4.33 15.94 4.66 21.88 5 28 C6.98 28.33 8.96 28.66 11 29 C11 29.66 11 30.32 11 31 C3.58 31.487 3.58 31.487 1.25 29.531 C-0.599 25.787 -0.32 22.362 -0.188 18.25 C-0.174 17.457 -0.16 16.664 -0.146 15.848 C-0.111 13.898 -0.057 11.949 0 10 C-0.66 10 -1.32 10 -2 10 C-2 9.34 -2 8.68 -2 8 C-1.34 8 -0.68 8 0 8 C0 5.36 0 2.72 0 0 Z " fill="#ECE9F7" transform="translate(675,692)"/>
<path d="M0 0 C0.99 0 1.98 0 3 0 C3 9.24 3 18.48 3 28 C9.27 28 15.54 28 22 28 C22 28.99 22 29.98 22 31 C14.74 31 7.48 31 0 31 C0 20.77 0 10.54 0 0 Z " fill="#E6E9F7" transform="translate(218,692)"/>
<path d="M0 0 C2.55 1.342 4.581 2.467 6.375 4.75 C7.317 8.141 6.848 10.61 6 14 C3.43 17.855 -0.144 19.239 -4.453 20.527 C-16.084 22.686 -29.299 18.198 -39 12 C-37.68 11.67 -36.36 11.34 -35 11 C-35 11.66 -35 12.32 -35 13 C-33.931 13.182 -33.931 13.182 -32.84 13.367 C-27.448 14.311 -22.228 15.374 -17 17 C-17 17.66 -17 18.32 -17 19 C-15.742 18.814 -14.484 18.629 -13.188 18.438 C-10.173 17.993 -8.995 18.002 -6 19 C-6 18.34 -6 17.68 -6 17 C-4.35 17.33 -2.7 17.66 -1 18 C-1 17.01 -1 16.02 -1 15 C1.5 12.312 1.5 12.312 4 10 C3.711 9.446 3.423 8.891 3.125 8.32 C2.754 7.596 2.382 6.871 2 6.125 C1.629 5.406 1.257 4.686 0.875 3.945 C0 2 0 2 0 0 Z " fill="#0B3CAF" transform="translate(321,565)"/>
<path d="M0 0 C0.33 0 0.66 0 1 0 C1 1.65 1 3.3 1 5 C0.34 5 -0.32 5 -1 5 C-0.656 5.837 -0.656 5.837 -0.305 6.691 C0.24 10.817 -2.737 13.412 -5.09 16.598 C-7.224 19.282 -9.475 21.68 -12 24 C-12.909 24.961 -12.909 24.961 -13.836 25.941 C-16.077 28.073 -18.264 29.518 -20.938 31.062 C-22.189 31.791 -22.189 31.791 -23.465 32.535 C-24.72 33.26 -24.72 33.26 -26 34 C-26.842 34.51 -27.684 35.021 -28.551 35.547 C-35.543 39.695 -40.812 41.52 -49 41 C-45.601 39.154 -42.108 38.014 -38.438 36.812 C-22.07 31.006 -9.635 20.248 -1.836 4.676 C-1.169 3.14 -0.572 1.574 0 0 Z " fill="#1446B4" transform="translate(403,398)"/>
<path d="M0 0 C0.99 0 1.98 0 3 0 C3 2.64 3 5.28 3 8 C5.64 8 8.28 8 11 8 C11 8.66 11 9.32 11 10 C8.36 10 5.72 10 3 10 C3 15.94 3 21.88 3 28 C5.64 28 8.28 28 11 28 C11 28.99 11 29.98 11 31 C5.043 32.074 5.043 32.074 3 32 C0.915 30.411 0.087 29.533 -0.341 26.915 C-0.325 26.135 -0.309 25.355 -0.293 24.551 C-0.283 23.703 -0.274 22.856 -0.264 21.982 C-0.239 21.101 -0.213 20.22 -0.188 19.312 C-0.174 18.42 -0.16 17.527 -0.146 16.607 C-0.111 14.404 -0.062 12.202 0 10 C-1.32 10 -2.64 10 -4 10 C-4 9.34 -4 8.68 -4 8 C-2.68 8 -1.36 8 0 8 C0 5.36 0 2.72 0 0 Z " fill="#F4F0F9" transform="translate(802,692)"/>
<path d="M0 0 C1.375 2.062 1.375 2.062 2 4 C0.68 4 -0.64 4 -2 4 C-2.33 3.67 -2.66 3.34 -3 3 C-6.578 2.61 -6.578 2.61 -9.632 4.265 C-11.264 6.335 -11.414 7.404 -11.512 10.012 C-11.547 10.769 -11.583 11.526 -11.619 12.307 C-11.642 13.092 -11.664 13.878 -11.688 14.688 C-11.722 15.485 -11.756 16.282 -11.791 17.104 C-11.873 19.069 -11.938 21.034 -12 23 C-13.32 23 -14.64 23 -16 23 C-16 15.41 -16 7.82 -16 0 C-13.525 0.495 -13.525 0.495 -11 1 C-10.196 0.67 -9.391 0.34 -8.562 0 C-5.256 -1.29 -3.365 -1.047 0 0 Z " fill="#EAE6F6" transform="translate(747,700)"/>
<path d="M0 0 C2.931 2.842 5.634 5.74 8.25 8.875 C19.984 22.332 35.845 28.151 53.32 29.469 C57.879 29.743 62.435 29.9 67 30 C67 30.33 67 30.66 67 31 C57.1 31 47.2 31 37 31 C37 30.34 37 29.68 37 29 C35.608 29.062 35.608 29.062 34.188 29.125 C31 29 31 29 28 27 C28 26.34 28 25.68 28 25 C26.68 25 25.36 25 24 25 C24 24.34 24 23.68 24 23 C22.35 23 20.7 23 19 23 C19 22.01 19 21.02 19 20 C18.278 19.773 17.556 19.546 16.812 19.312 C13.423 17.731 11.575 15.701 9 13 C5.808 9.684 5.808 9.684 2 8 C2 6.35 2 4.7 2 3 C1.34 3 0.68 3 0 3 C0 2.01 0 1.02 0 0 Z " fill="#0837AD" transform="translate(286,409)"/>
<path d="M0 0 C3.212 1.772 6.148 3.695 9 6 C7 7 7 7 3.938 6.188 C1 5 1 5 0 3 C-2.319 2.286 -4.655 1.625 -7 1 C-7.804 0.649 -8.609 0.299 -9.438 -0.062 C-12.932 -1.341 -16.304 -1.576 -20 -2 C-20.66 -2.33 -21.32 -2.66 -22 -3 C-26.972 -1.987 -29.624 -0.751 -33 3 C-33.66 3 -34.32 3 -35 3 C-34.794 3.949 -34.587 4.898 -34.375 5.875 C-34.251 6.906 -34.127 7.938 -34 9 C-34.66 9.66 -35.32 10.32 -36 11 C-37.569 7.861 -37.352 5.461 -37 2 C-27.739 -9.907 -11.895 -5.066 0 0 Z " fill="#0C40B0" transform="translate(327,514)"/>
<path d="M0 0 C5.875 8.812 6.871 18.638 6 29 C5.67 29.66 5.34 30.32 5 31 C4.34 31 3.68 31 3 31 C3.035 31.629 3.07 32.258 3.105 32.906 C3.3 39.059 2.5 43.375 0 49 C-0.66 49 -1.32 49 -2 49 C-2.66 50.98 -3.32 52.96 -4 55 C-4.81 52.674 -5.169 51.452 -4.293 49.105 C-3.928 48.473 -3.563 47.84 -3.188 47.188 C1.395 39.163 1.281 31.676 1.188 22.625 C1.187 21.444 1.186 20.263 1.186 19.047 C1.153 12.619 0.853 6.372 0 0 Z " fill="#2B4FB7" transform="translate(496,525)"/>
<path d="M0 0 C2.474 2.052 4.494 4.153 6 7 C6.164 10.238 6.164 10.238 6 13 C3.917 13.054 1.834 13.093 -0.25 13.125 C-1.99 13.16 -1.99 13.16 -3.766 13.195 C-6.828 13.01 -8.442 12.608 -11 11 C-7.985 9.995 -5.958 9.897 -2.812 9.938 C-1.911 9.947 -1.01 9.956 -0.082 9.965 C0.605 9.976 1.292 9.988 2 10 C0.75 6.347 0.329 5.219 -3 3 C-6.125 2.833 -6.125 2.833 -9 3 C-9.433 3.928 -9.433 3.928 -9.875 4.875 C-11 7 -11 7 -13 9 C-13 8.34 -13 7.68 -13 7 C-13.66 6.67 -14.32 6.34 -15 6 C-10.927 0.267 -7.032 -2.44 0 0 Z " fill="#F4F5FB" transform="translate(304,700)"/>
<path d="M0 0 C0.75 2.25 0.75 2.25 1 5 C-0.905 7.638 -2.405 8.771 -5.438 9.938 C-8.872 10.021 -10.405 9.224 -13 7 C-13.438 4.438 -13.438 4.438 -13 2 C-9.023 -1.977 -5.287 -0.915 0 0 Z " fill="#4831B0" transform="translate(721,712)"/>
<path d="M0 0 C1.258 -0.024 2.516 -0.049 3.812 -0.074 C11.119 -0.097 17.106 0.38 23.375 4.375 C24.035 5.035 24.695 5.695 25.375 6.375 C24.138 6.086 22.9 5.798 21.625 5.5 C2.296 1.272 -16.701 0.157 -34.367 10.266 C-35.112 10.632 -35.857 10.998 -36.625 11.375 C-37.285 11.045 -37.945 10.715 -38.625 10.375 C-38.295 9.715 -37.965 9.055 -37.625 8.375 C-36.635 8.375 -35.645 8.375 -34.625 8.375 C-34.625 7.715 -34.625 7.055 -34.625 6.375 C-31.655 5.715 -28.685 5.055 -25.625 4.375 C-25.625 3.715 -25.625 3.055 -25.625 2.375 C-17.054 0.453 -8.766 0.009 0 0 Z " fill="#1C3AB1" transform="translate(579.625,482.625)"/>
<path d="M0 0 C1.32 0 2.64 0 4 0 C4.33 0.66 4.66 1.32 5 2 C5.99 2 6.98 2 8 2 C7.526 2.639 7.051 3.279 6.562 3.938 C4.783 7.425 4.483 10.156 4.211 14.012 C4 16 4 16 3 18 C2.34 18 1.68 18 1 18 C1 21.96 1 25.92 1 30 C1.66 30 2.32 30 3 30 C3 26.37 3 22.74 3 19 C3.33 19 3.66 19 4 19 C4 22.96 4 26.92 4 31 C2.68 31 1.36 31 0 31 C0 20.77 0 10.54 0 0 Z " fill="#D0D4EE" transform="translate(379,700)"/>
<path d="M0 0 C0.99 0 1.98 0 3 0 C3.33 0.99 3.66 1.98 4 3 C4.371 2.505 4.743 2.01 5.125 1.5 C7.747 -0.598 9.738 -0.217 13 0 C13 0.99 13 1.98 13 3 C11.886 3.433 10.772 3.866 9.625 4.312 C5.825 5.699 5.825 5.699 4 9 C3.705 11.387 3.507 13.786 3.375 16.188 C3.3 17.46 3.225 18.732 3.148 20.043 C3.099 21.019 3.05 21.995 3 23 C2.01 23 1.02 23 0 23 C0 15.41 0 7.82 0 0 Z " fill="#F6F7FC" transform="translate(273,700)"/>
<path d="M0 0 C0.99 0 1.98 0 3 0 C3.33 0.99 3.66 1.98 4 3 C4.742 2.505 5.485 2.01 6.25 1.5 C9 0 9 0 13 0 C13 0.99 13 1.98 13 3 C11.886 3.433 10.773 3.866 9.625 4.312 C5.825 5.699 5.825 5.699 4 9 C3.705 11.387 3.507 13.786 3.375 16.188 C3.3 17.46 3.225 18.732 3.148 20.043 C3.099 21.019 3.05 21.995 3 23 C2.01 23 1.02 23 0 23 C0 15.41 0 7.82 0 0 Z " fill="#F1F0FB" transform="translate(610,700)"/>
<path d="M0 0 C0.99 0 1.98 0 3 0 C3 10.89 3 21.78 3 33 C2.01 33 1.02 33 0 33 C0 22.11 0 11.22 0 0 Z " fill="#FEFDFE" transform="translate(571,690)"/>
<path d="M0 0 C1.32 0 2.64 0 4 0 C4 7.59 4 15.18 4 23 C2.68 23 1.36 23 0 23 C0 15.41 0 7.82 0 0 Z " fill="#E3E5F5" transform="translate(369,700)"/>
<path d="M0 0 C2.625 -0.054 5.249 -0.094 7.875 -0.125 C8.621 -0.142 9.368 -0.159 10.137 -0.176 C12.092 -0.193 14.047 -0.103 16 0 C16.66 0.66 17.32 1.32 18 2 C17.34 3.32 16.68 4.64 16 6 C16 5.34 16 4.68 16 4 C15.469 4.3 14.938 4.601 14.391 4.91 C13.684 5.29 12.978 5.671 12.25 6.062 C11.554 6.445 10.858 6.828 10.141 7.223 C7.639 8.131 6.467 7.883 4 7 C3.67 5.02 3.34 3.04 3 1 C2.01 0.67 1.02 0.34 0 0 Z " fill="#5532B1" transform="translate(777,714)"/>
<path d="M0 0 C3 0.812 3 0.812 6 2.812 C6.33 4.462 6.66 6.112 7 7.812 C1.72 7.812 -3.56 7.812 -9 7.812 C-4.157 -0.26 -4.157 -0.26 0 0 Z " fill="#4727AC" transform="translate(784,702.1875)"/>
<path d="M0 0 C1.875 1.312 1.875 1.312 3 3 C3 4.32 3 5.64 3 7 C-1.95 7 -6.9 7 -12 7 C-7.218 -1.768 -7.218 -1.768 0 0 Z " fill="#233AB2" transform="translate(303,703)"/>
<path d="M0 0 C3.729 0.293 6.542 0.761 9.875 2.5 C13.015 6.194 12.789 9.209 13 14 C7.39 13.67 1.78 13.34 -4 13 C-1.411 10.411 0.027 10.626 3.625 10.375 C4.628 10.3 5.631 10.225 6.664 10.148 C7.82 10.075 7.82 10.075 9 10 C8.482 6.906 8.482 6.906 6.312 4.812 C3.565 3.847 0.881 3.393 -2 3 C-1.34 2.01 -0.68 1.02 0 0 Z " fill="#F8F6FC" transform="translate(781,699)"/>
<path d="M0 0 C0.99 0.33 1.98 0.66 3 1 C2.67 1.866 2.34 2.732 2 3.625 C0.77 7.778 0.51 11.04 1.562 15.25 C3.783 17.953 6.699 18.116 10 19 C10.66 19.99 11.32 20.98 12 22 C7.015 22.293 3.952 22.183 0 19 C-3.187 15.263 -3.447 11.895 -3.305 7.16 C-2.896 4.264 -1.777 2.295 0 0 Z " fill="#E8E8F7" transform="translate(515,702)"/>
<path d="M0 0 C1.63 -0.002 1.63 -0.002 3.293 -0.004 C4.996 0.002 4.996 0.002 6.734 0.008 C7.855 0.004 8.975 0 10.129 -0.004 C19.336 0.007 19.336 0.007 23.594 0.703 C26.544 1.364 26.544 1.364 29.484 0.133 C30.474 0.793 31.464 1.453 32.484 2.133 C32.484 2.793 32.484 3.453 32.484 4.133 C31.878 4.061 31.272 3.99 30.647 3.916 C22.19 3.024 13.787 3.018 5.297 3.07 C3.854 3.075 2.41 3.08 0.967 3.084 C-2.527 3.095 -6.021 3.112 -9.516 3.133 C-7.612 -0.675 -3.785 0.004 0 0 Z " fill="#1953B8" transform="translate(332.515625,311.8671875)"/>
<path d="M0 0 C3.855 -0.359 5.578 -0.275 8.875 1.875 C9.576 2.576 10.278 3.278 11 4 C11 4.66 11 5.32 11 6 C11.99 6.33 12.98 6.66 14 7 C14 7.66 14 8.32 14 9 C14.66 9 15.32 9 16 9 C16.33 8.34 16.66 7.68 17 7 C16.988 7.664 16.977 8.328 16.965 9.012 C16.881 15.563 16.881 15.563 18 22 C17.34 21.67 16.68 21.34 16 21 C14.842 17.527 14.931 14.639 15 11 C14.34 11 13.68 11 13 11 C13 15.95 13 20.9 13 26 C11.35 26.33 9.7 26.66 8 27 C8.33 26.34 8.66 25.68 9 25 C9.66 25 10.32 25 11 25 C10.913 22.082 10.806 19.167 10.688 16.25 C10.665 15.425 10.642 14.6 10.619 13.75 C10.463 10.23 10.341 7.65 8.688 4.5 C6.123 2.221 3.289 1.745 0 1 C0 0.67 0 0.34 0 0 Z " fill="#4123AA" transform="translate(756,698)"/>
<path d="M0 0 C2.475 0.495 2.475 0.495 5 1 C5.99 1 6.98 1 8 1 C7.355 1.817 6.711 2.635 6.047 3.477 C3.481 7.325 3.34 10.848 3.25 15.375 C3.206 16.479 3.206 16.479 3.16 17.605 C3.09 19.403 3.043 21.202 3 23 C2.01 23 1.02 23 0 23 C0 15.41 0 7.82 0 0 Z " fill="#F9F9FD" transform="translate(457,700)"/>
<path d="M0 0 C0.99 0 1.98 0 3 0 C3.33 0.66 3.66 1.32 4 2 C5.238 2.464 5.238 2.464 6.5 2.938 C7.325 3.288 8.15 3.639 9 4 C9.33 4.99 9.66 5.98 10 7 C10.66 7.33 11.32 7.66 12 8 C12 8.99 12 9.98 12 11 C12.66 11 13.32 11 14 11 C16.153 14.858 17.393 17.551 17 22 C17.66 22.33 18.32 22.66 19 23 C18.886 24.772 18.758 26.542 18.625 28.312 C18.555 29.299 18.486 30.285 18.414 31.301 C18 34 18 34 16 37 C15.963 36.094 15.925 35.188 15.887 34.254 C15.282 23.056 13.908 14.363 6 6 C4.064 4.52 2.076 3.285 0 2 C0 1.34 0 0.68 0 0 Z " fill="#103EB0" transform="translate(338,542)"/>
<path d="M0 0 C1.244 3.733 0.54 4.841 -0.875 8.438 C-3.083 14.112 -4.126 18.382 -4.098 24.516 C-4.094 25.766 -4.091 27.016 -4.088 28.305 C-4.08 29.607 -4.071 30.909 -4.062 32.25 C-4.058 33.567 -4.053 34.885 -4.049 36.242 C-4.037 39.495 -4.021 42.747 -4 46 C-4.99 45.34 -5.98 44.68 -7 44 C-7.341 41.111 -7.341 41.111 -7.293 37.461 C-7.283 36.159 -7.274 34.857 -7.264 33.516 C-7.239 32.135 -7.213 30.755 -7.188 29.375 C-7.172 27.987 -7.159 26.599 -7.146 25.211 C-7.111 21.807 -7.062 18.404 -7 15 C-6.34 15 -5.68 15 -5 15 C-4.67 12.03 -4.34 9.06 -4 6 C-3.34 6 -2.68 6 -2 6 C-1.34 4.02 -0.68 2.04 0 0 Z " fill="#1639AF" transform="translate(519,517)"/>
<path d="M0 0 C5.084 2.841 11.334 6.667 14 12 C14.66 12 15.32 12 16 12 C16 12.66 16 13.32 16 14 C16.99 14 17.98 14 19 14 C19.66 15.98 20.32 17.96 21 20 C17.957 18.642 15.877 17.115 13.547 14.742 C12.928 14.117 12.309 13.492 11.672 12.848 C11.038 12.197 10.403 11.546 9.75 10.875 C9.1 10.216 8.451 9.558 7.781 8.879 C6.183 7.257 4.589 5.631 3 4 C0.452 5.183 -1.105 6.105 -3.125 8.125 C-3.744 8.744 -4.363 9.363 -5 10 C-5.66 10 -6.32 10 -7 10 C-6.427 7.133 -6.139 6.139 -4 4 C-3.34 4.33 -2.68 4.66 -2 5 C-1.34 3.35 -0.68 1.7 0 0 Z " fill="#1A52B8" transform="translate(248,396)"/>
<path d="M0 0 C7.75 1.875 7.75 1.875 10 3 C9.125 7.875 9.125 7.875 8 9 C2.747 9.412 -0.461 8.657 -5 6 C-2 4 -2 4 0 4 C0 2.68 0 1.36 0 0 Z " fill="#1E2DAE" transform="translate(412,712)"/>
<path d="M0 0 C3.737 0.423 7.377 0.985 11 2 C10.67 4.31 10.34 6.62 10 9 C8.374 8.691 6.749 8.378 5.125 8.062 C4.22 7.888 3.315 7.714 2.383 7.535 C0 7 0 7 -2 6 C-1.125 1.125 -1.125 1.125 0 0 Z " fill="#4137B3" transform="translate(646,702)"/>
<path d="M0 0 C7.018 -0.319 7.018 -0.319 10 2 C10.33 3.65 10.66 5.3 11 7 C6.05 7.33 1.1 7.66 -4 8 C-3.67 6.68 -3.34 5.36 -3 4 C-2.34 4 -1.68 4 -1 4 C-0.67 2.68 -0.34 1.36 0 0 Z " fill="#442FAF" transform="translate(711,702)"/>
<path d="M0 0 C0 0.66 0 1.32 0 2 C1.423 1.691 1.423 1.691 2.875 1.375 C3.906 1.251 4.938 1.127 6 1 C6.66 1.66 7.32 2.32 8 3 C-3.359 3.19 -14.661 2.605 -26 2 C-19.818 -4.182 -7.673 -1.999 0 0 Z " fill="#184FB6" transform="translate(322,483)"/>
<path d="M0 0 C1.031 0.247 2.062 0.495 3.125 0.75 C4.074 0.936 5.022 1.121 6 1.312 C6.701 1.457 7.402 1.601 8.125 1.75 C7.816 2.348 7.506 2.946 7.188 3.562 C6.023 5.84 6.023 5.84 5.125 8.75 C3.663 8.521 2.205 8.266 0.75 8 C-0.062 7.861 -0.874 7.722 -1.711 7.578 C-3.875 6.75 -3.875 6.75 -5.164 4.672 C-5.399 4.038 -5.633 3.403 -5.875 2.75 C-3.959 0.089 -3.355 -0.292 0 0 Z " fill="#2B3CB5" transform="translate(416.875,702.25)"/>
<path d="M0 0 C6.239 0.832 6.239 0.832 9.316 1.512 C20.639 3.949 32.828 4.25 44 1 C44 1.66 44 2.32 44 3 C40.285 5.375 37.05 5.23 32.715 5.195 C32.017 5.192 31.32 5.19 30.601 5.187 C28.38 5.176 26.159 5.151 23.938 5.125 C22.439 5.115 20.941 5.106 19.443 5.098 C15.629 5.075 11.814 5.038 8 5 C7.01 5 6.02 5 5 5 C2.312 3.625 2.312 3.625 0 2 C0 1.34 0 0.68 0 0 Z " fill="#0524A5" transform="translate(192,435)"/>
<path d="M0 0 C0.99 0 1.98 0 3 0 C3 7.59 3 15.18 3 23 C2.01 23 1.02 23 0 23 C0 22.01 0 21.02 0 20 C-0.66 20 -1.32 20 -2 20 C-1.67 19.01 -1.34 18.02 -1 17 C-0.856 15.666 -0.754 14.328 -0.684 12.988 C-0.642 12.231 -0.6 11.474 -0.557 10.693 C-0.517 9.908 -0.478 9.122 -0.438 8.312 C-0.394 7.515 -0.351 6.718 -0.307 5.896 C-0.201 3.931 -0.1 1.966 0 0 Z " fill="#FCFBFD" transform="translate(447,700)"/>
<path d="M0 0 C-2.69 2.69 -5.369 3.027 -9 4 C-9.99 4.495 -9.99 4.495 -11 5 C-14.088 5.07 -17.162 4.997 -20.25 4.938 C-22.963 4.803 -22.963 4.803 -25 6 C-25 5.34 -25 4.68 -25 4 C-26.217 4.041 -27.434 4.082 -28.688 4.125 C-32.219 4.138 -34.8 3.6 -38 2 C-38 1.67 -38 1.34 -38 1 C-37.173 1.005 -36.345 1.01 -35.493 1.016 C-31.745 1.037 -27.998 1.05 -24.25 1.062 C-22.297 1.075 -22.297 1.075 -20.305 1.088 C-19.054 1.091 -17.804 1.094 -16.516 1.098 C-15.364 1.103 -14.211 1.108 -13.024 1.114 C-8.555 0.946 -4.539 -0.103 0 0 Z " fill="#1136AF" transform="translate(330,607)"/>
<path d="M0 0 C5.61 0 11.22 0 17 0 C17 0.99 17 1.98 17 3 C16.01 2.67 15.02 2.34 14 2 C13.34 3.32 12.68 4.64 12 6 C8.812 6.312 8.812 6.312 5 6 C2.062 3.562 2.062 3.562 0 1 C0 0.67 0 0.34 0 0 Z " fill="#324DB9" transform="translate(293,714)"/>
<path d="M0 0 C0.33 0 0.66 0 1 0 C1 6.6 1 13.2 1 20 C0.34 19.34 -0.32 18.68 -1 18 C-1.33 19.32 -1.66 20.64 -2 22 C-2.33 22 -2.66 22 -3 22 C-3 15.4 -3 8.8 -3 2 C-2.01 2 -1.02 2 0 2 C0 1.34 0 0.68 0 0 Z " fill="#583DB6" transform="translate(729,702)"/>
<path d="M0 0 C6.856 1.124 13.379 2.934 20 5 C21.274 5.392 21.274 5.392 22.573 5.792 C23.775 6.173 23.775 6.173 25 6.562 C25.722 6.791 26.444 7.019 27.188 7.254 C29 8 29 8 31 10 C29.02 10.33 27.04 10.66 25 11 C25 10.34 25 9.68 25 9 C24.336 8.879 23.672 8.758 22.988 8.633 C15.543 7.22 15.543 7.22 12.375 5.938 C8.961 4.59 5.647 4.371 2 4 C2 3.34 2 2.68 2 2 C1.34 1.34 0.68 0.68 0 0 Z " fill="#0C3FAF" transform="translate(288,555)"/>
<path d="M0 0 C0.99 0 1.98 0 3 0 C3 7.59 3 15.18 3 23 C2.01 23 1.02 23 0 23 C0 15.41 0 7.82 0 0 Z " fill="#FEFDFE" transform="translate(664,700)"/>
<path d="M0 0 C0 3 0 3 -1.863 5.086 C-2.672 5.841 -3.48 6.597 -4.312 7.375 C-7.518 10.379 -9.89 13.135 -12 17 C-9.36 19.31 -6.72 21.62 -4 24 C-4.66 24.33 -5.32 24.66 -6 25 C-9.837 23.721 -11.829 21.334 -14 18 C-14.25 15.188 -14.25 15.188 -14 13 C-13.34 13 -12.68 13 -12 13 C-12 12.34 -12 11.68 -12 11 C-11.34 10.34 -10.68 9.68 -10 9 C-9.67 8.01 -9.34 7.02 -9 6 C-7.018 4.966 -5.016 3.968 -3 3 C-1.184 1.439 -1.184 1.439 0 0 Z " fill="#0E3BB1" transform="translate(269,571)"/>
<path d="M0 0 C2.468 1.152 4.048 2.048 6 4 C7.988 4.398 9.989 4.738 12 5 C11.01 6.485 11.01 6.485 10 8 C5.809 7.418 4.625 6.718 1 4 C0.67 7.3 0.34 10.6 0 14 C-0.66 14 -1.32 14 -2 14 C-2 10.04 -2 6.08 -2 2 C-1.34 2 -0.68 2 0 2 C0 1.34 0 0.68 0 0 Z " fill="#F6F6FC" transform="translate(382,716)"/>
<path d="M0 0 C0.66 0 1.32 0 2 0 C2 0.66 2 1.32 2 2 C2.66 2 3.32 2 4 2 C4.387 2.771 4.773 3.542 5.172 4.336 C5.693 5.339 6.213 6.342 6.75 7.375 C7.26 8.373 7.771 9.37 8.297 10.398 C10.043 13.066 11.053 13.937 14 15 C14.227 13.928 14.454 12.855 14.688 11.75 C16.13 7.628 17.419 6.356 21 4 C19.63 7.656 17.99 10.955 16 14.312 C15.484 15.196 14.969 16.079 14.438 16.988 C13.726 17.984 13.726 17.984 13 19 C12.34 19 11.68 19 11 19 C9.763 17.364 9.763 17.364 8.398 15.098 C7.909 14.29 7.419 13.482 6.914 12.65 C6.406 11.796 5.898 10.942 5.375 10.062 C4.602 8.787 4.602 8.787 3.812 7.486 C0 1.157 0 1.157 0 0 Z " fill="#0B31A9" transform="translate(478,350)"/>
<path d="M0 0 C3.044 3.805 4.523 5.693 6 10 C5.01 10.33 4.02 10.66 3 11 C2.34 10.67 1.68 10.34 1 10 C1 16.93 1 23.86 1 31 C0.67 31 0.34 31 0 31 C0 20.77 0 10.54 0 0 Z " fill="#1954B8" transform="translate(455,361)"/>
<path d="M0 0 C0.99 0.33 1.98 0.66 3 1 C1.732 2.361 1.732 2.361 0.438 3.75 C-3.819 8.678 -6.852 14.328 -10 20 C-10.847 16.941 -11.245 15.009 -10 12 C-9.01 11.67 -8.02 11.34 -7 11 C-7.33 10.01 -7.66 9.02 -8 8 C-7.01 8 -6.02 8 -5 8 C-5 7.01 -5 6.02 -5 5 C-4.34 5 -3.68 5 -3 5 C-3 4.34 -3 3.68 -3 3 C-2.01 3 -1.02 3 0 3 C0 2.01 0 1.02 0 0 Z " fill="#1A4EB7" transform="translate(275,491)"/>
<path d="M0 0 C2.55 1.342 4.581 2.467 6.375 4.75 C7.305 8.099 6.792 10.649 6 14 C4.688 15.938 4.688 15.938 3 17 C1.68 17 0.36 17 -1 17 C-1 15 -1 15 1.5 12.375 C2.325 11.591 3.15 10.808 4 10 C3.711 9.446 3.423 8.891 3.125 8.32 C2.568 7.234 2.568 7.234 2 6.125 C1.629 5.406 1.257 4.686 0.875 3.945 C0 2 0 2 0 0 Z " fill="#0D3EAF" transform="translate(321,565)"/>
<path d="M0 0 C3.812 -0.117 7.624 -0.188 11.438 -0.25 C12.507 -0.284 13.576 -0.317 14.678 -0.352 C21.609 -0.436 27.028 0.319 33 4 C33.66 4.66 34.32 5.32 35 6 C33.763 5.711 32.525 5.423 31.25 5.125 C20.866 2.841 10.616 1.597 0 1 C0 0.67 0 0.34 0 0 Z " fill="#142BA9" transform="translate(570,483)"/>
<path d="M0 0 C1.375 0.071 1.375 0.071 2.777 0.143 C3.766 0.191 4.756 0.24 5.775 0.289 C7.337 0.373 7.337 0.373 8.929 0.459 C10.497 0.538 10.497 0.538 12.095 0.617 C14.686 0.748 17.277 0.883 19.867 1.022 C19.867 1.352 19.867 1.682 19.867 2.022 C18.658 2.059 17.449 2.096 16.203 2.135 C7.02 2.483 -1.519 3.203 -10.446 5.498 C-13.133 6.022 -13.133 6.022 -16.133 5.022 C-11.781 1.894 -8.331 1.542 -3.133 1.022 C-2.133 0.022 -2.133 0.022 0 0 Z " fill="#0A2CA8" transform="translate(426.133056640625,481.978271484375)"/>
<path d="M0 0 C1.32 0.33 2.64 0.66 4 1 C2.732 1.816 1.46 2.628 0.188 3.438 C-0.874 4.116 -0.874 4.116 -1.957 4.809 C-5.033 6.603 -7.518 7.124 -11.012 7.098 C-12.148 7.093 -12.148 7.093 -13.307 7.088 C-14.092 7.08 -14.878 7.071 -15.688 7.062 C-16.485 7.058 -17.282 7.053 -18.104 7.049 C-20.069 7.037 -22.035 7.019 -24 7 C-24 6.67 -24 6.34 -24 6 C-19.38 6 -14.76 6 -10 6 C-10 5.34 -10 4.68 -10 4 C-6.38 2.684 -3.904 2 0 2 C0 1.34 0 0.68 0 0 Z " fill="#0C3FAE" transform="translate(237,406)"/>
<path d="M0 0 C0.66 0 1.32 0 2 0 C2.33 1.32 2.66 2.64 3 4 C3.66 4 4.32 4 5 4 C11.888 16.301 11.888 16.301 11 24 C8.974 20.961 7.883 18.231 6.625 14.812 C4.691 9.683 2.563 4.842 0 0 Z " fill="#1041B1" transform="translate(395,338)"/>
<path d="M0 0 C0.33 0.66 0.66 1.32 1 2 C1.66 2 2.32 2 3 2 C3.195 11.867 3.382 21.343 1 31 C0.67 31 0.34 31 0 31 C0 20.77 0 10.54 0 0 Z " fill="#2331AD" transform="translate(640,532)"/>
<path d="M0 0 C0.33 0 0.66 0 1 0 C2.063 5.173 2.117 10.124 2.062 15.375 C2.058 16.206 2.053 17.038 2.049 17.895 C2.037 19.93 2.019 21.965 2 24 C1.01 24.33 0.02 24.66 -1 25 C-1.027 21.958 -1.047 18.917 -1.062 15.875 C-1.071 15.019 -1.079 14.163 -1.088 13.281 C-1.105 8.733 -0.932 4.476 0 0 Z " fill="#256AC0" transform="translate(152,360)"/>
<path d="M0 0 C0.66 1.32 1.32 2.64 2 4 C1.01 4.495 1.01 4.495 0 5 C0.33 5.66 0.66 6.32 1 7 C-1 9 -1 9 -2.812 9.375 C-7.433 10.695 -10.74 14.62 -14 18 C-14.33 17.01 -14.66 16.02 -15 15 C-14.319 14.464 -13.639 13.928 -12.938 13.375 C-11.968 12.591 -10.999 11.808 -10 11 C-9.411 10.529 -8.822 10.059 -8.215 9.574 C-4.692 6.679 -2.077 4.154 0 0 Z " fill="#1158B9" transform="translate(269,334)"/>
<path d="M0 0 C0.33 0 0.66 0 1 0 C1.376 6.802 0.775 11.757 -2 18 C-2.66 18 -3.32 18 -4 18 C-4.66 19.98 -5.32 21.96 -6 24 C-6.609 22.219 -6.609 22.219 -7 20 C-6.067 18.133 -5.124 16.27 -4.125 14.438 C-2.012 9.86 -1.079 4.905 0 0 Z " fill="#1537AF" transform="translate(498,556)"/>
<path d="M0 0 C2.31 0 4.62 0 7 0 C7 0.66 7 1.32 7 2 C7.908 1.959 8.815 1.918 9.75 1.875 C12.878 1.995 14.386 2.391 17 4 C17 4.99 17 5.98 17 7 C18.98 7.66 20.96 8.32 23 9 C23 9.66 23 10.32 23 11 C18.159 9.152 13.635 6.812 9.035 4.438 C6.07 3.033 3.131 1.971 0 1 C0 0.67 0 0.34 0 0 Z " fill="#0D3FB0" transform="translate(325,486)"/>
<path d="M0 0 C0.66 0 1.32 0 2 0 C3.322 1.76 4.558 3.587 5.75 5.438 C8.758 10.089 11.839 14.658 15.066 19.16 C15.374 19.767 15.683 20.374 16 21 C15.67 21.99 15.34 22.98 15 24 C14.161 22.879 13.329 21.753 12.5 20.625 C12.036 19.999 11.572 19.372 11.094 18.727 C10 17 10 17 10 15 C9.01 14.67 8.02 14.34 7 14 C6.281 12.355 5.63 10.681 5 9 C3.394 5.966 1.702 2.982 0 0 Z " fill="#0D38AC" transform="translate(465,378)"/>
<path d="M0 0 C1.318 1.977 2.571 3.999 3.75 6.062 C6.319 9.417 7.951 10.08 12 11 C10.312 12.125 10.312 12.125 8 13 C4.643 12.245 3.127 11.127 0.688 8.688 C-1.149 5.763 -1.469 4.379 -1 1 C-0.67 0.67 -0.34 0.34 0 0 Z " fill="#FAFAFD" transform="translate(582,711)"/>
<path d="M0 0 C0.66 0.33 1.32 0.66 2 1 C-0.161 4.875 -2.318 8.464 -5 12 C-5.696 13.318 -6.372 14.648 -7 16 C-7.315 10.756 -6.839 7.461 -4 3 C-1.812 1.125 -1.812 1.125 0 0 Z " fill="#EEECF8" transform="translate(587,700)"/>
<path d="M0 0 C5.75 -0.125 5.75 -0.125 8 1 C8 1.66 8 2.32 8 3 C8.99 2.67 9.98 2.34 11 2 C11.66 2.33 12.32 2.66 13 3 C13 3.99 13 4.98 13 6 C13.743 6.227 14.485 6.454 15.25 6.688 C18.511 8.244 19.929 10.085 22 13 C18.702 11.448 15.731 9.564 12.688 7.562 C8.549 4.9 4.597 2.736 0 1 C0 0.67 0 0.34 0 0 Z " fill="#1038AF" transform="translate(458,487)"/>
<path d="M0 0 C0.99 0.66 1.98 1.32 3 2 C5.049 2.451 5.049 2.451 7.188 2.625 C8.446 2.749 9.704 2.872 11 3 C11 3.66 11 4.32 11 5 C13.31 5.66 15.62 6.32 18 7 C18 7.66 18 8.32 18 9 C13.184 8.238 8.754 6.587 4.188 4.938 C3.399 4.656 2.611 4.374 1.799 4.084 C-0.135 3.392 -2.068 2.697 -4 2 C-2.68 1.34 -1.36 0.68 0 0 Z " fill="#0A39AC" transform="translate(319,533)"/>
<path d="M0 0 C1.32 0.66 2.64 1.32 4 2 C3.383 2.219 2.765 2.438 2.129 2.664 C-4.204 5.035 -9.53 8.036 -15 12 C-15 9 -15 9 -14 6 C-10.726 4.867 -7.536 4.093 -4.125 3.5 C-3.424 3.335 -2.722 3.17 -2 3 C-1.67 2.34 -1.34 1.68 -1 1 C-0.67 0.67 -0.34 0.34 0 0 Z " fill="#053EAE" transform="translate(191,315)"/>
<path d="M0 0 C0.382 0.472 0.763 0.944 1.156 1.43 C3.555 3.472 5.404 3.667 8.5 4.125 C11.49 4.583 14.124 5.041 17 6 C17 6.66 17 7.32 17 8 C17.66 8.33 18.32 8.66 19 9 C12.27 8.492 6.139 6.859 0 4 C-0.33 3.34 -0.66 2.68 -1 2 C-0.67 1.34 -0.34 0.68 0 0 Z " fill="#083BAD" transform="translate(295,525)"/>
<path d="M0 0 C1.118 0.003 2.237 0.006 3.389 0.01 C4.556 0.018 5.723 0.027 6.926 0.035 C8.105 0.04 9.283 0.044 10.498 0.049 C13.412 0.061 16.325 0.077 19.238 0.098 C19.238 0.428 19.238 0.758 19.238 1.098 C18.069 1.158 16.9 1.219 15.695 1.281 C14.147 1.366 12.599 1.45 11.051 1.535 C10.282 1.574 9.513 1.614 8.721 1.654 C4.793 1.873 1.093 2.272 -2.762 3.098 C-5.095 3.136 -7.429 3.143 -9.762 3.098 C-7.821 -0.783 -3.843 -0.02 0 0 Z " fill="#083FB1" transform="translate(332.76171875,311.90234375)"/>
<path d="M0 0 C0.66 0 1.32 0 2 0 C2 2.97 2 5.94 2 9 C0.68 8.67 -0.64 8.34 -2 8 C-4.681 8.386 -4.681 8.386 -7 9 C-5.625 7 -5.625 7 -4 5 C-3.34 5 -2.68 5 -2 5 C-1.34 3.35 -0.68 1.7 0 0 Z " fill="#F7F4FB" transform="translate(723,714)"/>
<path d="M0 0 C0.33 0 0.66 0 1 0 C1 4.95 1 9.9 1 15 C-0.32 14.67 -1.64 14.34 -3 14 C-2.886 12.228 -2.758 10.458 -2.625 8.688 C-2.555 7.701 -2.486 6.715 -2.414 5.699 C-2 3 -2 3 0 0 Z " fill="#324FBB" transform="translate(271,705)"/>
<path d="M0 0 C3 1 3 1 4.422 3.836 C4.86 5.004 5.298 6.172 5.75 7.375 C6.199 8.538 6.647 9.7 7.109 10.898 C8 14 8 14 7 17 C6.34 15.68 5.68 14.36 5 13 C4.34 13 3.68 13 3 13 C2.867 12.397 2.734 11.793 2.598 11.172 C2.421 10.373 2.244 9.573 2.062 8.75 C1.888 7.961 1.714 7.172 1.535 6.359 C1.052 4.231 0.538 2.115 0 0 Z " fill="#124DB5" transform="translate(278,392)"/>
<path d="M0 0 C0.66 0.33 1.32 0.66 2 1 C0.883 2.506 -0.244 4.004 -1.375 5.5 C-2.001 6.335 -2.628 7.171 -3.273 8.031 C-3.843 8.681 -4.413 9.331 -5 10 C-5.66 10 -6.32 10 -7 10 C-7.268 10.763 -7.536 11.526 -7.812 12.312 C-8.944 14.874 -9.912 16.197 -12 18 C-12 16.68 -12 15.36 -12 14 C-11.34 14 -10.68 14 -10 14 C-9.917 13.443 -9.835 12.886 -9.75 12.312 C-8.1 7.224 -3.75 3.646 0 0 Z " fill="#0C49B2" transform="translate(171,328)"/>
<path d="M0 0 C0.66 0 1.32 0 2 0 C0.333 6.667 -1.333 13.333 -3 20 C-3.33 20 -3.66 20 -4 20 C-4.229 13.828 -3.791 7.947 -2 2 C-1.34 1.34 -0.68 0.68 0 0 Z " fill="#0C47B2" transform="translate(157,346)"/>
<path d="M0 0 C1.485 0.99 1.485 0.99 3 2 C3 2.66 3 3.32 3 4 C3.66 4 4.32 4 5 4 C6.171 5.438 7.339 6.879 8.492 8.332 C10.979 11.083 13.923 12.948 17 15 C16.01 15.495 16.01 15.495 15 16 C9.918 13.69 6.259 10.513 3 6 C2.34 5.67 1.68 5.34 1 5 C0.375 2.438 0.375 2.438 0 0 Z " fill="#1931AF" transform="translate(524,583)"/>
<path d="M0 0 C2.31 0.66 4.62 1.32 7 2 C6.34 3.32 5.68 4.64 5 6 C2.69 5.67 0.38 5.34 -2 5 C-2 2 -2 2 0 0 Z " fill="#3849BA" transform="translate(414,714)"/>
<path d="M0 0 C0.33 0 0.66 0 1 0 C1 5.61 1 11.22 1 17 C-0.65 17 -2.3 17 -4 17 C-3.67 16.34 -3.34 15.68 -3 15 C-2.34 15 -1.68 15 -1 15 C-1.012 14.001 -1.023 13.002 -1.035 11.973 C-1.049 10.037 -1.049 10.037 -1.062 8.062 C-1.074 6.775 -1.086 5.487 -1.098 4.16 C-1 1 -1 1 0 0 Z " fill="#1A35AF" transform="translate(277,708)"/>
<path d="M0 0 C1.258 0.124 2.516 0.247 3.812 0.375 C4.874 0.479 4.874 0.479 5.957 0.586 C8 1 8 1 11 3 C10.67 3.99 10.34 4.98 10 6 C9.113 5.67 8.226 5.34 7.312 5 C4.291 4.088 2.116 3.817 -1 4 C-0.67 2.68 -0.34 1.36 0 0 Z " fill="#E4E6F5" transform="translate(414,699)"/>
<path d="M0 0 C2.31 0 4.62 0 7 0 C3.701 2.698 0.232 4.456 -3.625 6.25 C-5.346 7.062 -5.346 7.062 -7.102 7.891 C-8.058 8.257 -9.015 8.623 -10 9 C-10.66 8.67 -11.32 8.34 -12 8 C-9.776 5.443 -8.25 4.758 -5 4 C-4.67 3.34 -4.34 2.68 -4 2 C-2.68 2 -1.36 2 0 2 C0 1.34 0 0.68 0 0 Z " fill="#0D45B2" transform="translate(316,315)"/>
<path d="M0 0 C0.33 0 0.66 0 1 0 C1.037 1.123 1.075 2.246 1.113 3.402 C1.444 11.426 1.862 18.497 5 26 C3.062 25.375 3.062 25.375 1 24 C-0.457 19.041 -0.116 13.757 -0.062 8.625 C-0.058 7.794 -0.053 6.962 -0.049 6.105 C-0.037 4.07 -0.019 2.035 0 0 Z " fill="#315FBD" transform="translate(263,516)"/>
<path d="M0 0 C6.27 0 12.54 0 19 0 C19 0.33 19 0.66 19 1 C14.38 1.33 9.76 1.66 5 2 C5.33 3.65 5.66 5.3 6 7 C4.125 6.312 4.125 6.312 2 5 C1.34 3.35 0.68 1.7 0 0 Z " fill="#3315A1" transform="translate(775,713)"/>
<path d="M0 0 C1.052 0.464 1.052 0.464 2.125 0.938 C4.997 2.116 4.997 2.116 8.188 2.438 C9.58 2.716 9.58 2.716 11 3 C11.99 4.485 11.99 4.485 13 6 C7.739 6.316 4.554 5.666 0 3 C0 2.01 0 1.02 0 0 Z " fill="#E4E1F5" transform="translate(640,718)"/>
<path d="M0 0 C2.245 2.432 2.971 3.718 3.312 7.062 C3 10 3 10 1 13 C0.34 13 -0.32 13 -1 13 C-1 12.34 -1 11.68 -1 11 C-1.99 11 -2.98 11 -4 11 C-3.67 10.01 -3.34 9.02 -3 8 C-2.34 8 -1.68 8 -1 8 C-0.67 5.36 -0.34 2.72 0 0 Z " fill="#263EB5" transform="translate(310,707)"/>
<path d="M0 0 C4.972 1.764 9.434 4.394 14 7 C14 7.33 14 7.66 14 8 C12.02 8 10.04 8 8 8 C7.67 7.01 7.34 6.02 7 5 C6.216 5.041 5.433 5.082 4.625 5.125 C2 5 2 5 0 3 C0 2.01 0 1.02 0 0 Z " fill="#0E43B2" transform="translate(273,547)"/>
<path d="M0 0 C0.33 0 0.66 0 1 0 C1 6.6 1 13.2 1 20 C0.67 20 0.34 20 0 20 C-0.33 17.69 -0.66 15.38 -1 13 C-1.33 13 -1.66 13 -2 13 C-2 10.69 -2 8.38 -2 6 C-1.34 6 -0.68 6 0 6 C-0.278 4.793 -0.278 4.793 -0.562 3.562 C-0.707 2.717 -0.851 1.871 -1 1 C-0.67 0.67 -0.34 0.34 0 0 Z " fill="#3A54BD" transform="translate(313,700)"/>
<path d="M0 0 C0.66 0.33 1.32 0.66 2 1 C1.553 1.496 1.105 1.993 0.645 2.504 C-3.209 6.834 -6.716 11.223 -10 16 C-10.66 14.68 -11.32 13.36 -12 12 C-11.01 11.34 -10.02 10.68 -9 10 C-7.967 8.884 -6.968 7.735 -6 6.562 C-4.091 4.261 -2.144 2.087 0 0 Z " fill="#1133AD" transform="translate(532,499)"/>
<path d="M0 0 C1.65 0 3.3 0 5 0 C6.188 2.125 6.188 2.125 7 5 C5.625 8.312 5.625 8.312 4 11 C3.01 11 2.02 11 1 11 C1.309 10.237 1.619 9.474 1.938 8.688 C2.679 6.812 3.362 4.913 4 3 C2.68 2.34 1.36 1.68 0 1 C0 0.67 0 0.34 0 0 Z " fill="#184CB5" transform="translate(347,497)"/>
<path d="M0 0 C4.03 0.553 8.02 1.156 12 2 C12.33 2.99 12.66 3.98 13 5 C11.907 4.835 10.814 4.67 9.688 4.5 C6.125 3.933 6.125 3.933 3 4 C2.01 3.34 1.02 2.68 0 2 C0 1.34 0 0.68 0 0 Z " fill="#0F4AB4" transform="translate(192,435)"/>
<path d="M0 0 C1.32 0.33 2.64 0.66 4 1 C3.01 1 2.02 1 1 1 C1 5.62 1 10.24 1 15 C-0.32 14.01 -1.64 13.02 -3 12 C-2.34 12 -1.68 12 -1 12 C-1.012 11.301 -1.023 10.603 -1.035 9.883 C-1.044 8.973 -1.053 8.063 -1.062 7.125 C-1.074 6.22 -1.086 5.315 -1.098 4.383 C-1 2 -1 2 0 0 Z " fill="#2228AD" transform="translate(531,688)"/>
<path d="M0 0 C1.32 0.66 2.64 1.32 4 2 C3 4 3 4 1.188 4.875 C-1.156 5.939 -1.156 5.939 -3.125 8.125 C-3.744 8.744 -4.363 9.363 -5 10 C-5.66 10 -6.32 10 -7 10 C-6.427 7.133 -6.139 6.139 -4 4 C-3.34 4.33 -2.68 4.66 -2 5 C-1.34 3.35 -0.68 1.7 0 0 Z " fill="#0748B3" transform="translate(248,396)"/>
<path d="M0 0 C0.887 0.825 1.774 1.65 2.688 2.5 C5.013 4.461 5.748 4.973 8.875 5.312 C9.576 5.209 10.278 5.106 11 5 C11.33 4.01 11.66 3.02 12 2 C12.99 2.33 13.98 2.66 15 3 C12.875 5.562 12.875 5.562 10 8 C6.938 8.125 6.938 8.125 4 7 C0 2.895 0 2.895 0 0 Z " fill="#3631B1" transform="translate(584,714)"/>
<path d="M0 0 C3 1 3 1 4.387 3.215 C4.816 4.113 5.245 5.012 5.688 5.938 C6.343 7.281 6.343 7.281 7.012 8.652 C8 11 8 11 8 13 C8.66 13 9.32 13 10 13 C10 14.65 10 16.3 10 18 C7.473 14.781 5.381 11.404 3.312 7.875 C2.69 6.821 2.067 5.766 1.426 4.68 C0 2 0 2 0 0 Z " fill="#0B30AC" transform="translate(486,506)"/>
<path d="M0 0 C1.226 2.453 0.96 3.617 0.625 6.312 C0.526 7.112 0.426 7.911 0.324 8.734 C-0.026 11.179 -0.456 13.591 -1 16 C-1.66 15.67 -2.32 15.34 -3 15 C-3.351 9.158 -3.167 5.147 0 0 Z " fill="#164CB7" transform="translate(373,522)"/>
<path d="M0 0 C2.621 0 4.509 0.313 7 1 C5.048 2.197 3.088 3.382 1.125 4.562 C0.034 5.224 -1.056 5.885 -2.18 6.566 C-3.576 7.276 -3.576 7.276 -5 8 C-5.66 7.67 -6.32 7.34 -7 7 C-6.67 6.34 -6.34 5.68 -6 5 C-3.438 4.375 -3.438 4.375 -1 4 C-0.67 2.68 -0.34 1.36 0 0 Z " fill="#113EB2" transform="translate(402,488)"/>
<path d="M0 0 C2.97 0.99 5.94 1.98 9 3 C8.01 4.485 8.01 4.485 7 6 C1.462 5.385 1.462 5.385 -0.875 3.438 C-1.246 2.963 -1.618 2.489 -2 2 C-1.34 1.34 -0.68 0.68 0 0 Z " fill="#E4E4F6" transform="translate(409,718)"/>
<path d="M0 0 C0.66 0 1.32 0 2 0 C2.474 0.495 2.949 0.99 3.438 1.5 C5 3.346 5 3.346 8 3 C8 5.64 8 8.28 8 11 C4.33 7.723 2.307 4.285 0 0 Z " fill="#2830AD" transform="translate(706,376)"/>
<path d="M0 0 C0.33 0 0.66 0 1 0 C1.366 3.938 1.302 5.565 -1 8.875 C-1.66 9.576 -2.32 10.277 -3 11 C-3.66 10.67 -4.32 10.34 -5 10 C-3.85 6.108 -2.708 3.061 0 0 Z " fill="#1D47B5" transform="translate(523,362)"/>
<path d="M0 0 C0.33 0 0.66 0 1 0 C1 2.31 1 4.62 1 7 C0.34 7 -0.32 7 -1 7 C-1.33 7.66 -1.66 8.32 -2 9 C-2.33 8.01 -2.66 7.02 -3 6 C-4.5 4.333 -4.5 4.333 -6 3 C-5.381 2.876 -4.763 2.753 -4.125 2.625 C-1.809 2.128 -1.809 2.128 0 0 Z " fill="#E8E3F5" transform="translate(724,707)"/>
<path d="M0 0 C2.625 -0.054 5.249 -0.094 7.875 -0.125 C8.621 -0.142 9.368 -0.159 10.137 -0.176 C12.092 -0.193 14.047 -0.103 16 0 C16.66 0.66 17.32 1.32 18 2 C17.34 3.32 16.68 4.64 16 6 C15.817 5.355 15.634 4.711 15.445 4.047 C14.092 1.626 14.092 1.626 10.742 1.391 C8.828 1.321 8.828 1.321 6.875 1.25 C4.953 1.165 4.953 1.165 2.992 1.078 C2.005 1.052 1.017 1.027 0 1 C0 0.67 0 0.34 0 0 Z " fill="#603DB5" transform="translate(777,714)"/>
<path d="M0 0 C4.747 2.312 4.747 2.312 5.875 5.375 C6.005 8.109 5.68 10.356 5 13 C4.918 12.484 4.835 11.969 4.75 11.438 C4.039 9.126 3.161 7.445 1.938 5.375 C0 2 0 2 0 0 Z " fill="#1751B7" transform="translate(321,565)"/>
<path d="M0 0 C4.875 4.625 4.875 4.625 6 8 C6.66 8 7.32 8 8 8 C8.66 9.65 9.32 11.3 10 13 C2.37 8.206 2.37 8.206 1 3 C0.67 2.01 0.34 1.02 0 0 Z " fill="#2129AB" transform="translate(701,415)"/>
<path d="M0 0 C0.66 0.33 1.32 0.66 2 1 C1.34 2.98 0.68 4.96 0 7 C-0.66 7 -1.32 7 -2 7 C-2.33 7.99 -2.66 8.98 -3 10 C-3.66 9.67 -4.32 9.34 -5 9 C-3.751 5.541 -2.325 2.853 0 0 Z " fill="#1C47B5" transform="translate(502,394)"/>
<path d="M0 0 C-1 2 -1 2 -3.812 3.125 C-7 4 -7 4 -11 4 C-11.33 3.01 -11.66 2.02 -12 1 C-7.947 0.018 -4.161 -0.082 0 0 Z " fill="#0B4EB4" transform="translate(217,339)"/>
<path d="M0 0 C2.475 0.495 2.475 0.495 5 1 C5 1.66 5 2.32 5 3 C5.598 3.206 6.196 3.413 6.812 3.625 C9.81 5.509 10.614 7.811 12 11 C8.167 9.494 6.462 7.232 4 4 C2.685 2.649 1.357 1.309 0 0 Z " fill="#0B3CAF" transform="translate(382,325)"/>
<path d="M0 0 C0.66 0 1.32 0 2 0 C2.33 0.66 2.66 1.32 3 2 C6.029 2.658 6.029 2.658 9 3 C9 3.66 9 4.32 9 5 C6.36 5 3.72 5 1 5 C0.34 3.68 -0.32 2.36 -1 1 C-0.67 0.67 -0.34 0.34 0 0 Z " fill="#F9F7FC" transform="translate(677,718)"/>
<path d="M0 0 C2.875 0.25 2.875 0.25 6 1 C7.375 3.062 7.375 3.062 8 5 C3.775 5 2.955 4.744 0 2 C0 1.34 0 0.68 0 0 Z " fill="#F2EFF9" transform="translate(741,699)"/>
<path d="M0 0 C1.459 0.087 2.918 0.195 4.375 0.312 C5.593 0.4 5.593 0.4 6.836 0.488 C9 1 9 1 11 4 C7.37 3.67 3.74 3.34 0 3 C0 2.01 0 1.02 0 0 Z " fill="#1859B9" transform="translate(228,312)"/>
<path d="M0 0 C0.33 1.32 0.66 2.64 1 4 C0.67 3.34 0.34 2.68 0 2 C-5.322 1.704 -5.322 1.704 -10 4 C-7.535 -1.459 -5.69 -1.113 0 0 Z " fill="#3D22AB" transform="translate(762,703)"/>
<path d="M0 0 C3.536 1.911 5.79 3.626 8 7 C7.67 7.66 7.34 8.32 7 9 C5.5 7.625 5.5 7.625 4 6 C4 5.34 4 4.68 4 4 C2.68 4.99 1.36 5.98 0 7 C0 4.69 0 2.38 0 0 Z " fill="#2035AE" transform="translate(661,363)"/>
<path d="M0 0 C0.66 0 1.32 0 2 0 C0.681 4.615 -1.214 8.099 -4 12 C-4.33 11.34 -4.66 10.68 -5 10 C-4.67 9.01 -4.34 8.02 -4 7 C-3.34 7 -2.68 7 -2 7 C-2.33 6.01 -2.66 5.02 -3 4 C-1.688 1.812 -1.688 1.812 0 0 Z " fill="#0F3AAE" transform="translate(507,337)"/>
<path d="M0 0 C-1.32 0.33 -2.64 0.66 -4 1 C-4 1.66 -4 2.32 -4 3 C-7.3 3.33 -10.6 3.66 -14 4 C-11.586 2.391 -9.66 1.345 -7 0.312 C-5.979 -0.095 -5.979 -0.095 -4.938 -0.512 C-3 -1 -3 -1 0 0 Z " fill="#1936AF" transform="translate(465,604)"/>
<path d="M0 0 C2.475 0.495 2.475 0.495 5 1 C5.33 1.99 5.66 2.98 6 4 C6.99 4 7.98 4 9 4 C9.33 5.32 9.66 6.64 10 8 C9.092 7.381 8.185 6.763 7.25 6.125 C4.851 4.556 2.59 3.196 0 2 C0 1.34 0 0.68 0 0 Z " fill="#1346B3" transform="translate(271,568)"/>
<path d="M0 0 C0 0.66 0 1.32 0 2 C0.99 2.33 1.98 2.66 3 3 C0.03 3 -2.94 3 -6 3 C-6 2.34 -6 1.68 -6 1 C-7.32 0.67 -8.64 0.34 -10 0 C-6.424 -1.238 -3.663 -0.749 0 0 Z " fill="#1854B9" transform="translate(329,437)"/>
<path d="M0 0 C1.044 3.133 0.934 3.99 0 7 C-0.66 7 -1.32 7 -2 7 C-2.33 9.31 -2.66 11.62 -3 14 C-3.33 14 -3.66 14 -4 14 C-3.533 8.586 -2.757 4.795 0 0 Z " fill="#2422A7" transform="translate(795,355)"/>
<path d="M0 0 C-0.998 2.494 -1.686 3.787 -3.938 5.312 C-6 6 -6 6 -9 5 C-4 0 -4 0 0 0 Z " fill="#E9EAF8" transform="translate(309,718)"/>
<path d="M0 0 C0.66 0.66 1.32 1.32 2 2 C1.01 3.485 1.01 3.485 0 5 C-0.451 7.049 -0.451 7.049 -0.625 9.188 C-0.749 10.446 -0.873 11.704 -1 13 C-1.33 13 -1.66 13 -2 13 C-2.33 9.37 -2.66 5.74 -3 2 C-2.01 1.34 -1.02 0.68 0 0 Z " fill="#1934B0" transform="translate(270,703)"/>
<path d="M0 0 C0.66 0.33 1.32 0.66 2 1 C0.02 1.99 0.02 1.99 -2 3 C-2 3.66 -2 4.32 -2 5 C-5.228 7.152 -6.284 7.201 -10 7 C-8.721 4.441 -7.557 4.139 -5 2.938 C-2.301 1.755 -2.301 1.755 0 0 Z " fill="#0E36B0" transform="translate(341,600)"/>
<path d="M0 0 C1.062 1.812 1.062 1.812 2 4 C1.67 4.99 1.34 5.98 1 7 C0.34 7 -0.32 7 -1 7 C-1.66 8.98 -2.32 10.96 -3 13 C-4.236 9.292 -3.568 8.325 -2.062 4.812 C-1.682 3.911 -1.302 3.01 -0.91 2.082 C-0.61 1.395 -0.309 0.708 0 0 Z " fill="#212FAC" transform="translate(639,563)"/>
<path d="M0 0 C0.66 0.33 1.32 0.66 2 1 C1.4 4.683 0.752 8.345 0 12 C-2 10 -2 10 -2.25 6.562 C-2 3 -2 3 0 0 Z " fill="#0737AB" transform="translate(292,513)"/>
<path d="M0 0 C0.66 0.33 1.32 0.66 2 1 C1.266 2.321 0.512 3.632 -0.25 4.938 C-0.668 5.668 -1.085 6.399 -1.516 7.152 C-3.256 9.319 -4.296 9.636 -7 10 C-5.332 6.059 -2.773 3.211 0 0 Z " fill="#0A3DB0" transform="translate(393,415)"/>
<path d="M0 0 C0.66 0 1.32 0 2 0 C2.33 1.65 2.66 3.3 3 5 C-0.3 4.67 -3.6 4.34 -7 4 C-7 3.67 -7 3.34 -7 3 C-4.69 2.34 -2.38 1.68 0 1 C0 0.67 0 0.34 0 0 Z " fill="#341FA7" transform="translate(719,704)"/>
<path d="M0 0 C4.308 1.566 8.062 3.683 12 6 C10 7 10 7 8.055 6.441 C7.335 6.151 6.616 5.861 5.875 5.562 C5.151 5.275 4.426 4.988 3.68 4.691 C3.125 4.463 2.571 4.235 2 4 C2 3.34 2 2.68 2 2 C1.34 2 0.68 2 0 2 C0 1.34 0 0.68 0 0 Z " fill="#0F38AF" transform="translate(265,596)"/>
<path d="M0 0 C2.64 0 5.28 0 8 0 C8.33 0.99 8.66 1.98 9 3 C6.03 2.67 3.06 2.34 0 2 C0 1.34 0 0.68 0 0 Z " fill="#1944B3" transform="translate(446,483)"/>
<path d="M0 0 C2.788 1.394 3.304 3.175 4.688 5.938 C5.145 6.833 5.603 7.729 6.074 8.652 C6.38 9.427 6.685 10.202 7 11 C6.67 11.66 6.34 12.32 6 13 C3 9.25 3 9.25 3 7 C2.01 6.67 1.02 6.34 0 6 C0 4.02 0 2.04 0 0 Z " fill="#201FA6" transform="translate(765,401)"/>
<path d="M0 0 C2.64 0 5.28 0 8 0 C8.33 0.66 8.66 1.32 9 2 C4.545 2.495 4.545 2.495 0 3 C0 2.01 0 1.02 0 0 Z " fill="#523DB5" transform="translate(711,704)"/>
<path d="M0 0 C1.98 0 3.96 0 6 0 C6 0.99 6 1.98 6 3 C3.69 3.66 1.38 4.32 -1 5 C-0.67 3.35 -0.34 1.7 0 0 Z " fill="#ECEEFA" transform="translate(280,700)"/>
<path d="M0 0 C-0.33 0.66 -0.66 1.32 -1 2 C-4.146 2.262 -5.618 2.248 -8.312 0.5 C-8.869 0.005 -9.426 -0.49 -10 -1 C-6.063 -2.312 -3.875 -1.243 0 0 Z " fill="#144EB5" transform="translate(327,514)"/>
<path d="M0 0 C1.376 1.29 2.708 2.627 4 4 C4 4.66 4 5.32 4 6 C3.01 6.33 2.02 6.66 1 7 C0.34 6.67 -0.32 6.34 -1 6 C-0.67 4.02 -0.34 2.04 0 0 Z " fill="#0A41B1" transform="translate(457,365)"/>
<path d="M0 0 C2.97 0.495 2.97 0.495 6 1 C2.812 3.125 0.735 3.502 -3 4 C-2.01 2.68 -1.02 1.36 0 0 Z " fill="#4224AB" transform="translate(781,702)"/>
<path d="M0 0 C4.95 0.99 4.95 0.99 10 2 C8 4 8 4 4.875 4.125 C3.926 4.084 2.978 4.043 2 4 C2 3.34 2 2.68 2 2 C1.34 1.34 0.68 0.68 0 0 Z " fill="#1146B3" transform="translate(288,555)"/>
<path d="M0 0 C0.99 0.66 1.98 1.32 3 2 C1.35 3.65 -0.3 5.3 -2 7 C-2.66 6.67 -3.32 6.34 -4 6 C-3.688 4.125 -3.688 4.125 -3 2 C-2.01 1.34 -1.02 0.68 0 0 Z " fill="#1453B7" transform="translate(296,510)"/>
<path d="M0 0 C0 0.66 0 1.32 0 2 C-1.98 2.66 -3.96 3.32 -6 4 C-6.33 2.68 -6.66 1.36 -7 0 C-3.867 -1.044 -3.01 -0.934 0 0 Z " fill="#1353B8" transform="translate(243,436)"/>
<path d="M0 0 C1.461 0.451 2.918 0.911 4.375 1.375 C5.187 1.63 5.999 1.885 6.836 2.148 C9 3 9 3 11 5 C9.02 5 7.04 5 5 5 C5 4.34 5 3.68 5 3 C3.35 2.67 1.7 2.34 0 2 C0 1.34 0 0.68 0 0 Z " fill="#083FB0" transform="translate(181,430)"/>
<path d="M0 0 C-1.312 1.5 -1.312 1.5 -3 3 C-3.99 3 -4.98 3 -6 3 C-6 2.34 -6 1.68 -6 1 C-6.99 0.67 -7.98 0.34 -9 0 C-5.622 -0.845 -3.325 -1.108 0 0 Z " fill="#D8D9F1" transform="translate(447,721)"/>
<path d="M0 0 C1.32 0 2.64 0 4 0 C4 0.66 4 1.32 4 2 C4.66 2.33 5.32 2.66 6 3 C4.68 3.99 3.36 4.98 2 6 C2 4.68 2 3.36 2 2 C1.01 1.67 0.02 1.34 -1 1 C-0.67 0.67 -0.34 0.34 0 0 Z " fill="#1B35B1" transform="translate(274,698)"/>
<path d="M0 0 C0.33 0.66 0.66 1.32 1 2 C1.66 2 2.32 2 3 2 C2.67 5.96 2.34 9.92 2 14 C1.67 14 1.34 14 1 14 C0.67 9.38 0.34 4.76 0 0 Z " fill="#101FA6" transform="translate(640,532)"/>
<path d="M0 0 C0.66 1.32 1.32 2.64 2 4 C-0.31 4.33 -2.62 4.66 -5 5 C-3.35 3.35 -1.7 1.7 0 0 Z " fill="#1036AE" transform="translate(557,515)"/>
<path d="M0 0 C1.485 0.99 1.485 0.99 3 2 C2.67 4.64 2.34 7.28 2 10 C-0.094 6.598 -0.179 3.947 0 0 Z " fill="#0344AF" transform="translate(181,376)"/>
<path d="M0 0 C0.66 0.33 1.32 0.66 2 1 C1.67 3.31 1.34 5.62 1 8 C0.01 8 -0.98 8 -2 8 C-1.125 1.125 -1.125 1.125 0 0 Z " fill="#1859BA" transform="translate(281,348)"/>
<path d="M0 0 C0.33 0 0.66 0 1 0 C1 3.3 1 6.6 1 10 C-0.65 10 -2.3 10 -4 10 C-3.526 9.649 -3.051 9.299 -2.562 8.938 C-0.321 6.158 -0.329 3.486 0 0 Z " fill="#233EB5" transform="translate(277,715)"/>
<path d="M0 0 C0.33 0 0.66 0 1 0 C1 2.97 1 5.94 1 9 C0.01 8.67 -0.98 8.34 -2 8 C-2 6.35 -2 4.7 -2 3 C-1.34 3 -0.68 3 0 3 C0 2.01 0 1.02 0 0 Z " fill="#5143B8" transform="translate(661,712)"/>
<path d="M0 0 C1.32 0 2.64 0 4 0 C4 0.99 4 1.98 4 3 C1.69 3.33 -0.62 3.66 -3 4 C-1.75 2 -1.75 2 0 0 Z " fill="#FDFCFE" transform="translate(619,700)"/>
<path d="M0 0 C0.33 0.66 0.66 1.32 1 2 C-2.135 3.858 -4.375 4.201 -8 4 C-8 3.34 -8 2.68 -8 2 C-5.36 1.34 -2.72 0.68 0 0 Z " fill="#073BAF" transform="translate(235,436)"/>
<path d="M0 0 C-1.477 4.677 -1.477 4.677 -4.125 6.312 C-5.053 6.653 -5.053 6.653 -6 7 C-5.398 4.98 -4.727 2.979 -4 1 C-2 0 -2 0 0 0 Z " fill="#0F58B9" transform="translate(181,320)"/>
<path d="M0 0 C3.63 0.33 7.26 0.66 11 1 C9.68 1.99 8.36 2.98 7 4 C4.69 3.01 2.38 2.02 0 1 C0 0.67 0 0.34 0 0 Z " fill="#361FAA" transform="translate(707,723)"/>
<path d="M0 0 C2.475 0.99 2.475 0.99 5 2 C5 3.65 5 5.3 5 7 C4.34 7 3.68 7 3 7 C0 2.615 0 2.615 0 0 Z " fill="#0D3BB0" transform="translate(459,319)"/>
<path d="M0 0 C4.75 0.875 4.75 0.875 7 2 C7 2.66 7 3.32 7 4 C7.66 4.33 8.32 4.66 9 5 C4.686 4.521 2.834 3.254 0 0 Z " fill="#1243B2" transform="translate(371,318)"/>
</svg>
