<?xml version="1.0" encoding="UTF-8"?>
<!-- Generator: visioncortex VTracer 0.6.4 -->
<svg version="1.1" xmlns="http://www.w3.org/2000/svg" width="1024" height="1024">
<path d="M0 0 C337.92 0 675.84 0 1024 0 C1024 337.92 1024 675.84 1024 1024 C686.08 1024 348.16 1024 0 1024 C0 686.08 0 348.16 0 0 Z " fill="#F6F6F7" transform="translate(0,0)"/>
<path d="M0 0 C74.196 0 74.196 0 91.781 16.723 C103.3 28.546 107.373 43.027 107.375 59.249 C106.927 77.373 100.742 90.435 88 103 C64.163 123.774 28.795 117 0 117 C0 78.39 0 39.78 0 0 Z " fill="#0278FE" transform="translate(459,70)"/>
<path d="M0 0 C47.101 0 47.101 0 57.23 8.977 C66.25 18.554 70.501 29.488 70.246 42.598 C69.399 54.306 65.337 65.23 56.75 73.438 C40.744 86.632 19.654 82 0 82 C0 54.94 0 27.88 0 0 Z " fill="#F7F7F8" transform="translate(478,87)"/>
<path d="M0 0 C2.469 1.662 4.241 3.075 6.25 5.188 C6.58 3.207 6.91 1.228 7.25 -0.812 C13.19 -0.812 19.13 -0.812 25.25 -0.812 C25.341 8.011 25.414 16.835 25.457 25.659 C25.478 29.757 25.506 33.855 25.552 37.953 C25.596 41.915 25.619 45.876 25.63 49.838 C25.637 51.343 25.651 52.847 25.673 54.352 C25.824 65.272 24.984 75.227 17.219 83.586 C7.414 91.562 -3.532 92.966 -15.75 92.188 C-22.791 91.007 -29.494 88.104 -34.75 83.188 C-36 80.492 -36 80.492 -36.75 78.188 C-34.11 75.877 -31.47 73.567 -28.75 71.188 C-24.75 73.188 -24.75 73.188 -22.312 74.688 C-16.418 78.138 -11.537 78.886 -4.75 78.188 C-1.415 77.146 -1.415 77.146 1.25 75.188 C2.199 74.548 3.148 73.909 4.125 73.25 C7.405 68.523 6.651 63.769 6.25 58.188 C5.596 58.802 5.596 58.802 4.93 59.43 C-1.087 64.873 -6.038 66.649 -14.168 66.43 C-22.297 65.667 -28.439 62.413 -33.75 56.188 C-40.714 44.955 -41.062 32.912 -39.324 20.031 C-37.213 11.846 -32.079 5.477 -25.25 0.625 C-17.737 -3.499 -7.764 -3.681 0 0 Z " fill="#0278FE" transform="translate(721.75,330.8125)"/>
<path d="M0 0 C3.473 2.504 6.277 5.39 8.688 8.938 C8.688 9.598 8.688 10.257 8.688 10.938 C9.792 9.998 9.792 9.998 10.918 9.039 C11.894 8.222 12.87 7.405 13.875 6.562 C14.838 5.75 15.801 4.938 16.793 4.102 C21.969 0.232 26.257 -0.426 32.625 -0.438 C33.66 -0.474 33.66 -0.474 34.717 -0.512 C39.884 -0.541 42.708 0.722 46.688 3.938 C53.896 11.473 53.974 18.171 53.883 28.117 C53.88 29.285 53.877 30.453 53.874 31.656 C53.863 35.375 53.838 39.094 53.812 42.812 C53.802 45.339 53.793 47.865 53.785 50.391 C53.763 56.573 53.729 62.755 53.688 68.938 C48.077 68.938 42.467 68.938 36.688 68.938 C36.673 67.54 36.658 66.142 36.643 64.702 C36.585 59.512 36.508 54.322 36.425 49.132 C36.392 46.886 36.364 44.641 36.341 42.395 C36.307 39.165 36.255 35.936 36.199 32.707 C36.193 31.705 36.186 30.703 36.18 29.67 C36.064 22.804 36.064 22.804 32.688 16.938 C29.219 15.203 25.48 15.465 21.688 15.938 C18.301 17.611 18.301 17.611 15.688 19.938 C15.147 20.384 14.607 20.83 14.05 21.289 C12.265 23.448 12.293 24.721 12.255 27.501 C12.235 28.421 12.216 29.342 12.195 30.291 C12.189 31.282 12.182 32.272 12.176 33.293 C12.158 34.31 12.14 35.327 12.121 36.374 C12.067 39.624 12.033 42.874 12 46.125 C11.967 48.327 11.932 50.53 11.896 52.732 C11.811 58.134 11.745 63.536 11.688 68.938 C6.077 68.938 0.467 68.938 -5.312 68.938 C-5.327 67.57 -5.342 66.203 -5.357 64.794 C-5.415 59.715 -5.492 54.637 -5.575 49.559 C-5.608 47.362 -5.636 45.165 -5.659 42.968 C-5.693 39.808 -5.745 36.648 -5.801 33.488 C-5.807 32.508 -5.814 31.528 -5.82 30.517 C-5.954 23.729 -5.954 23.729 -9.312 17.938 C-13.37 15.232 -16.545 15.161 -21.312 15.938 C-25.161 17.698 -28.327 19.952 -31.312 22.938 C-31.642 24.997 -31.642 24.997 -31.631 27.387 C-31.651 28.308 -31.671 29.229 -31.692 30.178 C-31.703 31.173 -31.715 32.169 -31.727 33.195 C-31.746 34.214 -31.765 35.232 -31.785 36.281 C-31.845 39.541 -31.891 42.802 -31.938 46.062 C-31.976 48.27 -32.015 50.477 -32.055 52.684 C-32.151 58.101 -32.235 63.519 -32.312 68.938 C-37.923 68.938 -43.533 68.938 -49.312 68.938 C-49.312 46.498 -49.312 24.058 -49.312 0.938 C-43.702 0.938 -38.092 0.938 -32.312 0.938 C-31.983 3.577 -31.652 6.217 -31.312 8.938 C-30.756 8.467 -30.199 7.996 -29.625 7.512 C-20.604 0.152 -11.707 -3.755 0 0 Z " fill="#0178FE" transform="translate(500.3125,329.0625)"/>
<path d="M0 0 C7.714 4.626 13.447 10.988 16.25 19.562 C18.793 30.078 18.283 41.903 13.25 51.562 C7.904 59.196 0.713 65.887 -8.75 67.562 C-26.881 68.702 -26.881 68.702 -34.75 63.562 C-35.444 63.15 -36.137 62.738 -36.852 62.312 C-44.198 57.47 -48.506 49.976 -50.75 41.562 C-50.963 38.745 -51.084 36.063 -51.062 33.25 C-51.057 32.495 -51.051 31.741 -51.045 30.963 C-50.836 21.358 -47.957 13.986 -41.75 6.562 C-30.676 -3.769 -13.9 -6.391 0 0 Z " fill="#0378FE" transform="translate(419.75,331.4375)"/>
<path d="M0 0 C9.337 5.682 14.606 12.998 18.016 23.227 C18.911 35.758 18.278 47.612 9.953 57.727 C2.844 64.953 -6.076 68.255 -16.109 68.539 C-25.567 68.424 -34.213 64.849 -40.984 58.227 C-47.478 50.936 -49.877 41.805 -50.359 32.164 C-49.272 20.742 -46.029 11.046 -36.895 3.5 C-26.99 -3.001 -11.121 -4.685 0 0 Z " fill="#0378FE" transform="translate(489.984375,470.7734375)"/>
<path d="M0 0 C8.353 4.733 14.32 11.294 17.922 20.172 C20.689 30.318 19.744 42.159 14.812 51.438 C10.016 59.776 2.483 65.284 -6.746 67.965 C-16.76 69.904 -25.722 68.266 -34.477 63.082 C-41.261 58.343 -45.54 52.603 -47.68 44.574 C-49.563 32.94 -49.601 21.153 -42.645 11.238 C-38.851 6.542 -34.568 3.159 -29.188 0.438 C-28.473 0.071 -27.759 -0.295 -27.023 -0.672 C-19.232 -3.119 -7.582 -3.105 0 0 Z " fill="#0378FE" transform="translate(566.1875,470.5625)"/>
<path d="M0 0 C5.113 3.761 9.494 8.291 12 14.188 C12 15.178 12 16.168 12 17.188 C9.877 18.192 7.752 19.191 5.625 20.188 C4.442 20.744 3.258 21.301 2.039 21.875 C-1 23.188 -1 23.188 -3 23.188 C-3.619 22.156 -4.238 21.125 -4.875 20.062 C-8.579 14.713 -13.977 12.276 -20 10.188 C-29.072 8.573 -36.706 11.38 -44.25 16.312 C-51.297 23.679 -54.855 31.784 -55.375 41.875 C-55.172 50.66 -52.479 60.915 -46 67.188 C-39.575 72.341 -32.339 74.759 -24.07 74.5 C-16.921 73.421 -10.927 69.32 -6 64.188 C-5.67 63.528 -5.34 62.868 -5 62.188 C0.76 62.794 5.72 64.944 11 67.188 C9.551 74.771 3.111 80.87 -3 85.188 C-14.132 91.725 -28.827 92.425 -41.281 89.281 C-53.206 85.237 -63.19 77.573 -69.312 66.375 C-75.253 52.937 -76.155 38.019 -71.258 24.148 C-65.79 11.277 -57.803 1.968 -45 -3.812 C-44.305 -4.153 -43.61 -4.493 -42.895 -4.844 C-29.79 -10.319 -11.7 -7.274 0 0 Z " fill="#0278FE" transform="translate(348,308.8125)"/>
<path d="M0 0 C3.61 2.529 6.636 5.395 9.562 8.688 C9.562 9.348 9.562 10.007 9.562 10.688 C7.781 12.289 5.937 13.821 4.062 15.312 C3.042 16.13 2.021 16.947 0.969 17.789 C0.175 18.416 -0.619 19.042 -1.438 19.688 C-3.862 18.544 -5.596 17.547 -7.625 15.75 C-13.672 11.315 -20.354 10.063 -27.777 10.262 C-31.988 10.936 -35.349 12.756 -38.438 15.688 C-39.65 19.325 -39.833 21.865 -39.438 25.688 C-35.924 30.003 -32.698 31.674 -27.438 33.312 C-26.455 33.625 -26.455 33.625 -25.453 33.943 C-21.198 35.262 -16.924 36.274 -12.562 37.188 C-2.877 39.336 3.812 43.506 9.562 51.688 C11.638 57.913 11.858 67.535 9.375 73.75 C4.283 82.003 -2.09 86.946 -11.8 89.248 C-25.605 91.55 -39.643 90.736 -51.812 83.75 C-55.971 80.483 -59.195 77.498 -61.438 72.688 C-53.176 65.02 -53.176 65.02 -48.438 63.688 C-47.71 64.393 -47.71 64.393 -46.969 65.113 C-39.486 72.064 -33.669 74.253 -23.414 73.98 C-17.698 73.418 -12.235 72.251 -8.438 67.688 C-7.225 64.05 -7.042 61.51 -7.438 57.688 C-11.528 52.234 -17.122 49.95 -23.672 48.879 C-25.176 48.664 -26.682 48.455 -28.188 48.25 C-47.229 45.308 -47.229 45.308 -54.066 37.602 C-58.165 31.88 -59.461 25.631 -58.438 18.688 C-55.86 9.191 -50.941 2.882 -42.66 -2.27 C-30.29 -8.074 -11.793 -6.911 0 0 Z " fill="#0377FE" transform="translate(419.4375,448.3125)"/>
<path d="M0 0 C5.61 0 11.22 0 17 0 C17.33 2.64 17.66 5.28 18 8 C18.531 7.59 19.062 7.18 19.609 6.758 C20.669 5.95 20.669 5.95 21.75 5.125 C22.794 4.324 22.794 4.324 23.859 3.508 C29.084 -0.172 33.124 -0.365 39.375 -0.375 C40.213 -0.399 41.051 -0.424 41.914 -0.449 C47.457 -0.475 50.609 0.311 55 4 C59.229 8.699 61.256 12.147 61.227 18.503 C61.227 19.604 61.227 20.705 61.227 21.839 C61.216 23.021 61.206 24.204 61.195 25.422 C61.192 26.637 61.19 27.852 61.187 29.104 C61.176 32.986 61.15 36.868 61.125 40.75 C61.115 43.382 61.106 46.013 61.098 48.645 C61.076 55.096 61.041 61.548 61 68 C55.39 68 49.78 68 44 68 C43.975 66.597 43.95 65.194 43.924 63.749 C43.83 58.546 43.73 53.342 43.628 48.139 C43.584 45.887 43.543 43.635 43.503 41.382 C43.445 38.145 43.381 34.909 43.316 31.672 C43.3 30.664 43.283 29.657 43.266 28.619 C43.236 27.208 43.236 27.208 43.205 25.769 C43.182 24.529 43.182 24.529 43.158 23.265 C43.001 21.019 42.769 19.118 42 17 C37.239 14.561 33.05 14.768 28 16 C23.832 17.683 20.676 19.366 18 23 C17.374 26.404 17.395 29.781 17.391 33.234 C17.374 34.228 17.358 35.221 17.341 36.244 C17.292 39.413 17.271 42.581 17.25 45.75 C17.222 47.9 17.192 50.05 17.16 52.199 C17.086 57.466 17.037 62.733 17 68 C11.39 68 5.78 68 0 68 C0 45.56 0 23.12 0 0 Z " fill="#0278FE" transform="translate(599,469)"/>
<path d="M0 0 C0.764 -0.011 1.529 -0.021 2.316 -0.032 C7.523 0.097 10.545 1.249 14.688 4.625 C18.953 9.365 20.943 12.811 20.915 19.22 C20.914 20.341 20.914 21.461 20.914 22.616 C20.904 23.821 20.893 25.025 20.883 26.266 C20.88 27.503 20.877 28.74 20.874 30.015 C20.865 33.297 20.847 36.578 20.825 39.859 C20.804 43.211 20.795 46.562 20.785 49.914 C20.763 56.484 20.729 63.055 20.688 69.625 C15.077 69.625 9.467 69.625 3.688 69.625 C3.673 68.192 3.658 66.759 3.643 65.282 C3.585 59.967 3.508 54.652 3.425 49.337 C3.392 47.036 3.364 44.735 3.341 42.435 C3.308 39.128 3.255 35.822 3.199 32.516 C3.193 31.486 3.186 30.457 3.18 29.397 C3.15 27.956 3.15 27.956 3.12 26.485 C3.103 25.22 3.103 25.22 3.086 23.928 C2.594 21.086 1.656 19.711 -0.312 17.625 C-5.489 15.899 -10.435 15.939 -15.562 17.812 C-21.021 21.232 -21.021 21.232 -23.788 26.812 C-23.988 29.537 -24.031 32.224 -24.02 34.957 C-24.035 35.949 -24.05 36.941 -24.065 37.962 C-24.108 41.121 -24.117 44.279 -24.125 47.438 C-24.148 49.583 -24.174 51.728 -24.201 53.873 C-24.264 59.124 -24.296 64.374 -24.312 69.625 C-29.592 69.625 -34.872 69.625 -40.312 69.625 C-40.312 47.185 -40.312 24.745 -40.312 1.625 C-35.033 1.625 -29.753 1.625 -24.312 1.625 C-24.312 4.595 -24.312 7.565 -24.312 10.625 C-23.653 10.625 -22.992 10.625 -22.312 10.625 C-22.075 10.032 -21.838 9.439 -21.594 8.828 C-17.196 1.266 -7.978 0.055 0 0 Z " fill="#0176FE" transform="translate(646.3125,328.375)"/>
<path d="M0 0 C5.61 0 11.22 0 17 0 C17 22.44 17 44.88 17 68 C11.39 68 5.78 68 0 68 C0 45.56 0 23.12 0 0 Z " fill="#0077FF" transform="translate(571,330)"/>
<path d="M0 0 C4.588 3.495 7.536 8.321 8.625 14 C9.135 21.522 7.954 28.338 3.25 34.438 C-0.62 38.215 -3.522 39.091 -8.812 39.375 C-13.36 39.262 -15.881 38.006 -19.375 35 C-24.098 29.766 -24.6 25.607 -24.688 18.75 C-24.717 18.011 -24.746 17.273 -24.775 16.512 C-24.84 10.851 -23.592 7.667 -20.375 3 C-14.571 -2.521 -7.322 -2.17 0 0 Z " fill="#F5F7F8" transform="translate(411.375,345)"/>
<path d="M0 0 C4.255 2.775 6.919 5.964 9.188 10.5 C10.723 18.037 11.062 25.455 7.09 32.254 C4.839 35.257 2.201 37.212 -1.125 38.875 C-5.954 39.279 -10.532 39.519 -15.062 37.688 C-19.829 33.499 -22.705 29.248 -23.496 22.895 C-23.654 15.248 -23.006 9.017 -18.125 2.875 C-12.634 -1.547 -6.646 -2.392 0 0 Z " fill="#F5F7F8" transform="translate(481.125,484.125)"/>
<path d="M0 0 C4.099 2.424 7.386 5.46 9 10 C9.338 12.941 9.37 15.854 9.375 18.812 C9.399 19.594 9.424 20.376 9.449 21.182 C9.478 26.956 8.298 30.249 5 35 C1.294 38.525 -1.589 39.277 -6.562 39.438 C-10.843 39.269 -13.646 38.846 -17 36 C-17.722 35.402 -18.444 34.804 -19.188 34.188 C-23.675 28.771 -23.482 22.14 -23.383 15.422 C-22.683 9.163 -19.868 5.735 -15.375 1.562 C-10.375 -1.727 -5.646 -1.403 0 0 Z " fill="#F6F7F8" transform="translate(558,484)"/>
<path d="M0 0 C3.506 1.875 5.906 3.875 7.973 7.238 C8.609 10.84 8.482 14.461 8.473 18.113 C8.501 19.094 8.529 20.075 8.559 21.086 C8.58 29.16 8.58 29.16 5.754 32.809 C0.635 37.281 -3.752 37.698 -10.367 37.547 C-14.238 37.098 -16.248 35.948 -19.027 33.238 C-21.609 28.224 -22.58 23.973 -22.527 18.301 C-22.522 17.599 -22.517 16.898 -22.512 16.175 C-22.317 10.389 -21.237 6.281 -17.027 2.238 C-12.004 -1.415 -5.848 -2.197 0 0 Z " fill="#F6F7F8" transform="translate(721.02734375,344.76171875)"/>
<path d="M0 0 C42.9 0 85.8 0 130 0 C130.33 1.32 130.66 2.64 131 4 C88.1 4 45.2 4 1 4 C0.67 2.68 0.34 1.36 0 0 Z " fill="#B7B7B8" transform="translate(453,792)"/>
<path d="M0 0 C0.66 0.33 1.32 0.66 2 1 C2 1.66 2 2.32 2 3 C2.66 3 3.32 3 4 3 C4 2.01 4 1.02 4 0 C5.32 0.33 6.64 0.66 8 1 C8.087 4.562 8.141 8.124 8.188 11.688 C8.213 12.695 8.238 13.702 8.264 14.74 C8.357 24.158 8.357 24.158 5 28 C1.89 30.073 1.109 30.274 -2.438 30.25 C-3.199 30.255 -3.961 30.26 -4.746 30.266 C-7.214 29.975 -8.858 29.23 -11 28 C-10.67 27.01 -10.34 26.02 -10 25 C-9.01 25.33 -8.02 25.66 -7 26 C-5.272 26.068 -3.542 26.085 -1.812 26.062 C-0.911 26.053 -0.01 26.044 0.918 26.035 C1.949 26.018 1.949 26.018 3 26 C3 24.02 3 22.04 3 20 C2.484 20.351 1.969 20.701 1.438 21.062 C-2.136 22.437 -4.345 22.044 -8 21 C-11.211 17.707 -12.267 14.935 -12.5 10.438 C-12.314 6.197 -11.144 3.959 -8 1 C-5.261 -0.37 -3.029 -0.126 0 0 Z " fill="#121212" transform="translate(587,633)"/>
<path d="M0 0 C3.812 0.5 3.812 0.5 5.812 2.5 C6.143 1.84 6.472 1.18 6.812 0.5 C8.133 0.5 9.452 0.5 10.812 0.5 C10.9 4.229 10.953 7.958 11 11.688 C11.025 12.743 11.05 13.798 11.076 14.885 C11.086 15.906 11.096 16.928 11.105 17.98 C11.121 18.918 11.137 19.855 11.153 20.821 C10.745 24.028 9.674 25.883 7.812 28.5 C4.391 31.066 0.966 30.864 -3.188 30.5 C-6.125 29 -6.125 29 -8.188 27.5 C-7.857 26.84 -7.528 26.18 -7.188 25.5 C-6.5 25.595 -5.813 25.691 -5.105 25.789 C-4.204 25.9 -3.303 26.011 -2.375 26.125 C-1.482 26.241 -0.588 26.357 0.332 26.477 C3.069 26.735 3.069 26.735 5.812 24.5 C6.063 21.916 6.063 21.916 5.812 19.5 C5.153 20.16 4.492 20.82 3.812 21.5 C-3.294 22.188 -3.294 22.188 -6.625 19.625 C-9.729 15.404 -9.926 11.627 -9.188 6.5 C-7.333 2.229 -4.677 0.145 0 0 Z " fill="#0F0F0F" transform="translate(655.1875,688.5)"/>
<path d="M0 0 C0.66 0.66 1.32 1.32 2 2 C2.33 1.34 2.66 0.68 3 0 C3.99 0 4.98 0 6 0 C6.116 3.896 6.187 7.791 6.25 11.688 C6.284 12.79 6.317 13.893 6.352 15.029 C6.45 23.21 6.45 23.21 4.172 27.207 C0.334 30.376 -3.171 30.339 -8 30 C-10.438 28.5 -10.438 28.5 -12 27 C-11.67 26.01 -11.34 25.02 -11 24 C-10.257 24.526 -10.257 24.526 -9.5 25.062 C-5.773 26.46 -2.902 25.65 1 25 C1.33 23.02 1.66 21.04 2 19 C1.34 19.66 0.68 20.32 0 21 C-4.724 21.542 -6.91 21.659 -11 19.188 C-13.93 14.517 -13.982 10.368 -13 5 C-9.489 -0.595 -6.11 -0.701 0 0 Z " fill="#09090A" transform="translate(353,689)"/>
<path d="M0 0 C1.32 0 2.64 0 4 0 C4 9.9 4 19.8 4 30 C2.68 30 1.36 30 0 30 C-0.33 29.34 -0.66 28.68 -1 28 C-1.99 28.66 -2.98 29.32 -4 30 C-7.858 30.503 -9.509 30.317 -12.812 28.188 C-15.824 25.176 -15.976 23.37 -16.25 19.125 C-16.194 15.316 -15.475 13.006 -13 10 C-10.205 7.804 -8.939 8.005 -5.312 8.312 C-2 9 -2 9 -1 10 C-0.67 6.7 -0.34 3.4 0 0 Z " fill="#0D0D0D" transform="translate(615,876)"/>
<path d="M0 0 C1.32 0.33 2.64 0.66 4 1 C4.841 3.894 5.673 6.79 6.5 9.688 C6.738 10.504 6.977 11.321 7.223 12.162 C8.365 16.192 9.345 19.765 9 24 C9.66 24 10.32 24 11 24 C11.11 23.417 11.219 22.835 11.332 22.234 C12.649 15.425 14.269 8.715 16 2 C17.32 1.67 18.64 1.34 20 1 C26 16.143 26 16.143 26 24 C26.66 24 27.32 24 28 24 C28.082 22.804 28.165 21.607 28.25 20.375 C28.964 13.711 31.047 7.386 33 1 C34.32 1 35.64 1 37 1 C35.87 7.47 34.293 13.707 32.438 20 C32.216 20.754 31.994 21.508 31.765 22.285 C30.138 27.723 30.138 27.723 29 30 C27.35 30 25.7 30 24 30 C21.525 20.1 21.525 20.1 19 10 C17.071 13.859 15.975 17.541 14.938 21.688 C13.13 28.87 13.13 28.87 12 30 C10.334 30.041 8.666 30.043 7 30 C4.41 25.434 3.478 21.641 2.938 16.438 C2.455 11.874 1.74 8.223 0 4 C0 2.68 0 1.36 0 0 Z " fill="#0E0E0E" transform="translate(278,624)"/>
<path d="M0 0 C0.99 0 1.98 0 3 0 C3.33 3.63 3.66 7.26 4 11 C4.99 10.34 5.98 9.68 7 9 C11.209 8.454 13.298 8.567 16.938 10.812 C19.951 15.47 19.987 19.604 19 25 C17 28.188 17 28.188 14 30 C9.705 30.769 6.705 30.47 3 28 C3 28.66 3 29.32 3 30 C2.01 30 1.02 30 0 30 C0 20.1 0 10.2 0 0 Z " fill="#060606" transform="translate(265,680)"/>
<path d="M0 0 C2.995 1.997 4.491 3.451 5.625 6.902 C6.515 11.73 5.775 14.838 3 19 C-1.034 21.689 -4.263 21.781 -9 21 C-12.155 18.962 -13.574 17.473 -14.625 13.84 C-15.235 10.031 -15.277 7.651 -13.75 4.062 C-9.792 -0.602 -5.756 -0.959 0 0 Z " fill="#0F0F0F" transform="translate(413,689)"/>
<path d="M0 0 C2.929 1.813 5.436 3.873 7 7 C7.378 12.004 7.112 14.999 4 19 C2.375 20.875 2.375 20.875 0 22 C-4.534 22.284 -7.906 21.827 -11.562 19.062 C-13.623 14.674 -13.93 10.76 -13 6 C-9.184 1.079 -6.213 -0.717 0 0 Z " fill="#0B0B0B" transform="translate(742,633)"/>
<path d="M0 0 C3.281 0.848 4.9 2.912 6.934 5.5 C8.798 9.229 8.477 13.439 7.934 17.5 C6.121 20.125 6.121 20.125 2.934 21.5 C-0.76 21.801 -4.371 21.733 -8.066 21.5 C-8.066 20.51 -8.066 19.52 -8.066 18.5 C-8.726 18.5 -9.386 18.5 -10.066 18.5 C-11.519 14.142 -11.689 10.05 -11.066 5.5 C-8.127 0.907 -5.266 -0.319 0 0 Z " fill="#EFEFEF" transform="translate(489.06640625,688.5)"/>
<path d="M0 0 C1.676 -0.006 1.676 -0.006 3.387 -0.013 C4.623 -0.012 5.86 -0.012 7.135 -0.012 C8.429 -0.015 9.723 -0.018 11.056 -0.022 C14.616 -0.031 18.176 -0.033 21.736 -0.034 C24.703 -0.034 27.671 -0.038 30.638 -0.042 C37.637 -0.05 44.635 -0.052 51.633 -0.052 C58.863 -0.051 66.092 -0.062 73.321 -0.077 C79.519 -0.09 85.717 -0.096 91.915 -0.095 C95.621 -0.095 99.326 -0.098 103.032 -0.108 C107.163 -0.12 111.293 -0.115 115.424 -0.109 C117.276 -0.118 117.276 -0.118 119.166 -0.126 C120.847 -0.12 120.847 -0.12 122.561 -0.114 C123.539 -0.114 124.516 -0.115 125.524 -0.115 C127.844 0.134 127.844 0.134 129.844 2.134 C129.514 3.454 129.184 4.774 128.844 6.134 C84.624 6.134 40.404 6.134 -5.156 6.134 C-5.651 3.659 -5.651 3.659 -6.156 1.134 C-4.462 -0.561 -2.32 0.004 0 0 Z M-3.156 1.134 C-2.826 2.454 -2.496 3.774 -2.156 5.134 C40.744 5.134 83.644 5.134 127.844 5.134 C127.514 3.814 127.184 2.494 126.844 1.134 C83.944 1.134 41.044 1.134 -3.156 1.134 Z " fill="#D6D6D7" transform="translate(456.15599060058594,790.8662872314453)"/>
<path d="M0 0 C0.66 0.33 1.32 0.66 2 1 C2 1.66 2 2.32 2 3 C2.66 3 3.32 3 4 3 C5.622 6.244 5.702 9.505 5 13 C2.112 16.3 0.288 17.79 -4.062 18.5 C-7.381 17.935 -9.315 17.014 -12 15 C-14.5 11.25 -14.536 9.441 -14 5 C-9.318 -0.667 -7.099 -1.268 0 0 Z " fill="#0377FE" transform="translate(584,304)"/>
<path d="M0 0 C0.764 0.064 1.529 0.129 2.316 0.195 C4.438 0.875 4.438 0.875 6.203 2.414 C7.969 5.935 7.757 9.285 7.625 13.125 C7.605 14.243 7.605 14.243 7.584 15.383 C7.549 17.214 7.495 19.045 7.438 20.875 C6.489 20.854 5.54 20.834 4.562 20.812 C1.531 20.649 1.531 20.649 -0.562 21.875 C-4.144 22.264 -5.925 22.311 -8.938 20.25 C-11.05 17.163 -11.174 15.547 -10.562 11.875 C-8.938 9.5 -8.938 9.5 -6.562 7.875 C-2.597 7.379 0.033 7.78 3.438 9.875 C2.942 7.4 2.942 7.4 2.438 4.875 C-2.34 3.858 -2.34 3.858 -7 4.812 C-7.516 5.163 -8.031 5.514 -8.562 5.875 C-8.562 4.555 -8.562 3.235 -8.562 1.875 C-5.508 0.08 -3.519 -0.369 0 0 Z " fill="#0F0F0F" transform="translate(671.5625,633.125)"/>
<path d="M0 0 C3.438 1.5 3.438 1.5 6 3 C6 4.32 6 5.64 6 7 C5.154 6.67 4.309 6.34 3.438 6 C-0.21 4.939 -3.223 4.849 -7 5 C-8.573 7.842 -8.573 7.842 -9 11 C-8.264 11.17 -7.528 11.34 -6.77 11.516 C4.114 14.219 4.114 14.219 7 18 C7.623 21.122 7.651 23.881 7 27 C3.957 30.357 0.637 30.948 -3.812 31.312 C-8.303 31.288 -10.546 29.763 -14 27 C-13.67 26.01 -13.34 25.02 -13 24 C-12.295 24.327 -11.59 24.655 -10.863 24.992 C-7.761 26.084 -5.46 26.204 -2.188 26.125 C-1.212 26.107 -0.236 26.089 0.77 26.07 C1.506 26.047 2.242 26.024 3 26 C3.167 23.584 3.167 23.584 3 21 C-0.105 17.895 -4.102 17.329 -8.25 16.098 C-11 15 -11 15 -13 12 C-13.671 5.85 -13.671 5.85 -11.125 2.625 C-7.313 -0.29 -4.797 -0.32 0 0 Z " fill="#111112" transform="translate(422,875)"/>
<path d="M0 0 C2.723 2.007 4.715 3.572 5.4 7.005 C5.492 9.293 5.437 11.526 5.312 13.812 C5.29 14.601 5.267 15.389 5.244 16.201 C5.186 18.135 5.096 20.068 5 22 C4.01 22 3.02 22 2 22 C2 21.34 2 20.68 2 20 C1.484 20.33 0.969 20.66 0.438 21 C-2.948 22.389 -5.375 22.453 -9 22 C-11.5 19.875 -11.5 19.875 -13 17 C-13 13.528 -12.621 11.77 -10.438 9.062 C-6.684 7.426 -3.999 8.226 0 9 C0.66 9.33 1.32 9.66 2 10 C0.912 6.75 0.912 6.75 -1 4 C-2.691 4.09 -4.38 4.246 -6.062 4.438 C-6.982 4.539 -7.901 4.641 -8.848 4.746 C-9.913 4.872 -9.913 4.872 -11 5 C-10.188 3.062 -10.188 3.062 -9 1 C-5.636 -0.121 -3.525 -0.423 0 0 Z " fill="#141414" transform="translate(460,884)"/>
<path d="M0 0 C3.494 1.668 4.827 2.74 7 6 C7 7.98 7 9.96 7 12 C1.72 12 -3.56 12 -9 12 C-7.231 15.181 -7.231 15.181 -5 18 C-3.309 17.91 -1.62 17.754 0.062 17.562 C1.441 17.41 1.441 17.41 2.848 17.254 C3.913 17.128 3.913 17.128 5 17 C5 17.99 5 18.98 5 20 C1.328 22.35 -1.712 22.518 -6 22 C-9.584 19.943 -11.425 18.777 -12.699 14.84 C-13.281 11.094 -13.272 8.658 -11.812 5.125 C-8.135 0.813 -5.819 -0.713 0 0 Z " fill="#111111" transform="translate(502,633)"/>
<path d="M0 0 C2.438 1.625 2.438 1.625 4 4 C4.33 6.31 4.66 8.62 5 11 C-2.92 11.495 -2.92 11.495 -11 12 C-9.5 16 -9.5 16 -7 17 C-3.47 17.153 -0.385 17.041 3 16 C3 16.99 3 17.98 3 19 C-0.167 21.111 -3.255 21.472 -7.031 21.395 C-10.387 20.722 -11.959 18.597 -14 16 C-15.614 12.771 -15.596 9.49 -15 6 C-11.242 -0.549 -7.143 -1.796 0 0 Z " fill="#0B0B0B" transform="translate(589,885)"/>
<path d="M0 0 C3.312 2.062 3.312 2.062 6 5 C6.33 7.31 6.66 9.62 7 12 C1.39 12 -4.22 12 -10 12 C-7.677 16.885 -7.677 16.885 -5 18 C-1.47 18.153 1.615 18.041 5 17 C5 17.99 5 18.98 5 20 C1.332 22.347 -1.717 22.443 -6 22 C-11.538 18.923 -11.538 18.923 -13 16 C-13.645 10.793 -13.917 7.183 -10.625 2.938 C-6.812 0.123 -4.771 -0.55 0 0 Z " fill="#0E0E0E" transform="translate(406,633)"/>
<path d="M0 0 C3.312 2.062 3.312 2.062 6 5 C6.33 7.31 6.66 9.62 7 12 C-0.92 12.495 -0.92 12.495 -9 13 C-8.34 14.32 -7.68 15.64 -7 17 C-2.712 18.052 0.744 18.161 5 17 C5 17.99 5 18.98 5 20 C1.162 21.806 -1.764 22.519 -6 22 C-11.579 18.842 -11.579 18.842 -13 16 C-13.645 10.793 -13.917 7.183 -10.625 2.938 C-6.812 0.123 -4.771 -0.55 0 0 Z " fill="#131313" transform="translate(649,633)"/>
<path d="M0 0 C2.845 1.293 4.518 2.312 6.312 4.875 C7 7 7 7 7 12 C1.72 12 -3.56 12 -9 12 C-7.231 15.181 -7.231 15.181 -5 18 C-1.474 18.157 1.619 18.04 5 17 C5 17.99 5 18.98 5 20 C0.538 22.617 -3.09 22.21 -8 21 C-10.841 19.296 -11.708 18.092 -12.559 14.91 C-13.167 11.141 -13.286 8.692 -11.812 5.125 C-8.135 0.813 -5.819 -0.713 0 0 Z " fill="#111111" transform="translate(331,633)"/>
<path d="M0 0 C2.761 1.017 3.681 1.362 5 4 C5.072 6.884 5.093 9.742 5.062 12.625 C5.058 13.427 5.053 14.229 5.049 15.055 C5.037 17.036 5.019 19.018 5 21 C4.196 20.979 3.391 20.959 2.562 20.938 C0.066 20.704 0.066 20.704 -1 22 C-4.189 22.284 -6.382 22.284 -9.312 20.938 C-11.816 18.063 -11.934 15.752 -12 12 C-11.062 9.562 -11.062 9.562 -9 8 C-4.558 7.27 -1.783 7.478 2 10 C1.505 7.525 1.505 7.525 1 5 C-3.316 4.238 -6.744 3.839 -11 5 C-8.487 -0.565 -5.951 -0.308 0 0 Z " fill="#0B0B0B" transform="translate(366,633)"/>
<path d="M0 0 C2.164 0.531 2.164 0.531 4.727 2.156 C6.164 4.531 6.164 4.531 6.164 11.531 C1.214 11.531 -3.736 11.531 -8.836 11.531 C-7.383 16.115 -7.383 16.115 -5.836 17.531 C-4.15 17.603 -2.461 17.615 -0.773 17.594 C0.146 17.585 1.065 17.576 2.012 17.566 C2.722 17.555 3.432 17.543 4.164 17.531 C3.834 18.521 3.504 19.511 3.164 20.531 C-4.801 21.972 -4.801 21.972 -8.773 20.281 C-11.156 18.26 -12.68 16.61 -13.137 13.445 C-13.161 8.648 -13.001 5.4 -9.836 1.531 C-6.068 -0.98 -4.324 -0.62 0 0 Z " fill="#1A1A1A" transform="translate(463.8359375,633.46875)"/>
<path d="M0 0 C2.938 1.562 2.938 1.562 5 4 C5.33 6.31 5.66 8.62 6 11 C0.72 11 -4.56 11 -10 11 C-9.01 12.98 -8.02 14.96 -7 17 C-5.113 17.031 -5.113 17.031 -3.188 17.062 C-2.48 17.074 -1.772 17.086 -1.043 17.098 C1.203 17.083 1.203 17.083 4 16 C4 17.32 4 18.64 4 20 C0.267 21.866 -3.935 21.543 -8 21 C-11.223 18.961 -12.563 17.52 -13.621 13.84 C-14.238 10.031 -14.277 7.651 -12.75 4.062 C-9.089 -0.252 -5.392 -0.83 0 0 Z " fill="#0C0C0C" transform="translate(562,689)"/>
<path d="M0 0 C4.809 3.479 4.98 4.883 6 11 C0.39 11 -5.22 11 -11 11 C-9.664 15.945 -9.664 15.945 -7 17 C-4.324 17.042 -1.673 17.048 1 17 C1.99 17 2.98 17 4 17 C3.67 17.99 3.34 18.98 3 20 C-0.73 21.865 -4.938 21.549 -9 21 C-12.072 18.994 -13.456 17.577 -14.656 14.098 C-15.456 10.091 -15.177 8.341 -13.25 4.625 C-9.384 0.115 -5.808 -1.098 0 0 Z " fill="#0E0E0E" transform="translate(722,689)"/>
<path d="M0 0 C4.809 3.479 4.98 4.883 6 11 C0.39 11 -5.22 11 -11 11 C-9.664 15.945 -9.664 15.945 -7 17 C-4.324 17.042 -1.673 17.048 1 17 C1.99 17 2.98 17 4 17 C3.67 17.99 3.34 18.98 3 20 C-0.752 21.876 -4.924 21.653 -9 21 C-12.404 18.345 -13.622 16.944 -14.434 12.773 C-14.659 8.684 -14.328 6.525 -12.125 3 C-8.483 -0.428 -4.861 -0.82 0 0 Z " fill="#090909" transform="translate(761,689)"/>
<path d="M0 0 C2.938 0.75 2.938 0.75 4.938 2.75 C5.494 2.255 6.051 1.76 6.625 1.25 C9.379 -0.536 10.715 -0.746 13.938 -0.25 C16.031 1.346 16.849 2.207 17.278 4.835 C17.262 5.615 17.247 6.395 17.23 7.199 C17.221 8.047 17.211 8.894 17.201 9.768 C17.176 10.649 17.151 11.53 17.125 12.438 C17.105 13.777 17.105 13.777 17.084 15.143 C17.049 17.346 16.999 19.548 16.938 21.75 C15.947 21.75 14.957 21.75 13.938 21.75 C13.607 16.14 13.278 10.53 12.938 4.75 C10.957 4.75 8.977 4.75 6.938 4.75 C4.091 7.596 4.482 10.554 4.312 14.375 C4.254 15.435 4.254 15.435 4.195 16.516 C4.101 18.26 4.018 20.005 3.938 21.75 C3.278 21.75 2.617 21.75 1.938 21.75 C1.607 15.81 1.278 9.87 0.938 3.75 C-1.372 4.08 -3.683 4.41 -6.062 4.75 C-6.393 10.36 -6.722 15.97 -7.062 21.75 C-8.383 21.75 -9.702 21.75 -11.062 21.75 C-11.062 14.82 -11.062 7.89 -11.062 0.75 C-8.587 1.245 -8.587 1.245 -6.062 1.75 C-3.062 -0.25 -3.062 -0.25 0 0 Z " fill="#111111" transform="translate(551.0625,884.25)"/>
<path d="M0 0 C5.61 0 11.22 0 17 0 C17 2.97 17 5.94 17 9 C16.67 9 16.34 9 16 9 C15.67 6.69 15.34 4.38 15 2 C10.71 2 6.42 2 2 2 C2 23.12 2 44.24 2 66 C6.29 66 10.58 66 15 66 C15.33 50.82 15.66 35.64 16 20 C16.66 20 17.32 20 18 20 C17.67 35.84 17.34 51.68 17 68 C11.39 68 5.78 68 0 68 C0 45.56 0 23.12 0 0 Z " fill="#1876FF" transform="translate(451,330)"/>
<path d="M0 0 C6.757 6.401 6.757 6.401 7.241 11.569 C7.234 13.021 7.234 13.021 7.227 14.503 C7.227 15.604 7.227 16.705 7.227 17.839 C7.216 19.021 7.206 20.204 7.195 21.422 C7.192 22.637 7.19 23.852 7.187 25.104 C7.176 28.986 7.15 32.868 7.125 36.75 C7.115 39.382 7.106 42.013 7.098 44.645 C7.076 51.096 7.041 57.548 7 64 C1.39 64 -4.22 64 -10 64 C-10 48.16 -10 32.32 -10 16 C-9.34 16.33 -8.68 16.66 -8 17 C-8 32.18 -8 47.36 -8 63 C-3.71 63 0.58 63 5 63 C4.882 55.562 4.757 48.124 4.628 40.686 C4.584 38.156 4.543 35.626 4.503 33.097 C4.445 29.458 4.381 25.819 4.316 22.18 C4.3 21.051 4.283 19.923 4.266 18.76 C4.246 17.7 4.226 16.639 4.205 15.546 C4.19 14.618 4.174 13.69 4.158 12.734 C3.987 9.768 3.536 6.92 3 4 C2.34 4 1.68 4 1 4 C0.67 2.68 0.34 1.36 0 0 Z " fill="#0E70FE" transform="translate(653,473)"/>
<path d="M0 0 C0.99 0 1.98 0 3 0 C3 0.66 3 1.32 3 2 C3.536 1.67 4.072 1.34 4.625 1 C7.672 -0.283 9.72 -0.41 13 0 C15.172 1.477 15.172 1.477 17 4 C17.486 6.933 17.378 9.787 17.25 12.75 C17.232 13.543 17.214 14.336 17.195 15.152 C17.148 17.102 17.077 19.051 17 21 C16.01 21 15.02 21 14 21 C13.67 15.39 13.34 9.78 13 4 C10.36 4.33 7.72 4.66 5 5 C2.891 10.382 2.891 10.382 3 16 C5.942 18.212 5.942 18.212 9 20 C9 20.66 9 21.32 9 22 C5.125 21.125 5.125 21.125 4 20 C3.67 21.98 3.34 23.96 3 26 C1.68 26 0.36 26 -1 26 C-1.029 21.854 -1.047 17.708 -1.062 13.562 C-1.071 12.378 -1.079 11.194 -1.088 9.975 C-1.091 8.85 -1.094 7.725 -1.098 6.566 C-1.103 5.524 -1.108 4.482 -1.114 3.408 C-1 1 -1 1 0 0 Z " fill="#151515" transform="translate(516,633)"/>
<path d="M0 0 C1.32 0 2.64 0 4 0 C4.33 5.61 4.66 11.22 5 17 C7.31 17 9.62 17 12 17 C14.059 14.941 13.414 10.783 13.562 7.938 C13.606 7.179 13.649 6.42 13.693 5.639 C13.8 3.759 13.9 1.88 14 0 C15.32 0 16.64 0 18 0 C18 6.93 18 13.86 18 21 C16.35 20.67 14.7 20.34 13 20 C12.34 20.33 11.68 20.66 11 21 C3.687 21.58 3.687 21.58 1.258 19.527 C-0.604 15.787 -0.321 12.363 -0.188 8.25 C-0.174 7.457 -0.16 6.664 -0.146 5.848 C-0.111 3.898 -0.057 1.949 0 0 Z " fill="#181818" transform="translate(424,689)"/>
<path d="M0 0 C1.32 0.33 2.64 0.66 4 1 C6.075 1.149 6.075 1.149 8 0 C10.875 -0.375 10.875 -0.375 14 0 C16.28 2.097 17.798 3.786 18.318 6.911 C18.393 9.059 18.35 11.166 18.25 13.312 C18.232 14.053 18.214 14.794 18.195 15.557 C18.148 17.372 18.077 19.186 18 21 C16.68 21 15.36 21 14 21 C13.939 19.857 13.879 18.713 13.816 17.535 C13.732 16.044 13.647 14.553 13.562 13.062 C13.523 12.308 13.484 11.553 13.443 10.775 C13.56 7.081 13.56 7.081 12 4 C8.935 3.839 6.945 4.018 4 5 C4 10.28 4 15.56 4 21 C2.68 21 1.36 21 0 21 C0 14.07 0 7.14 0 0 Z " fill="#131313" transform="translate(551,633)"/>
<path d="M0 0 C1.828 0.586 1.828 0.586 4 2 C5.484 5.039 5.484 5.039 6.75 8.625 C7.178 9.814 7.606 11.002 8.047 12.227 C8.361 13.142 8.676 14.057 9 15 C11.488 12.512 12.308 10.132 13.625 6.875 C14.071 5.779 14.517 4.684 14.977 3.555 C15.314 2.712 15.652 1.869 16 1 C17.32 1 18.64 1 20 1 C18.225 6.751 15.866 12.225 13.5 17.75 C13.097 18.708 12.693 19.666 12.277 20.652 C11.887 21.566 11.496 22.48 11.094 23.422 C10.74 24.253 10.386 25.084 10.021 25.94 C9 28 9 28 7 30 C3.875 30.125 3.875 30.125 1 30 C1 29.01 1 28.02 1 27 C1.804 26.773 2.609 26.546 3.438 26.312 C6.207 25.272 6.207 25.272 6.763 22.708 C7.03 19.654 6.578 18.139 5.348 15.355 C4.983 14.514 4.619 13.673 4.244 12.807 C3.854 11.942 3.464 11.078 3.062 10.188 C2.483 8.862 2.483 8.862 1.893 7.51 C0.94 5.334 -0.024 3.165 -1 1 C-0.67 0.67 -0.34 0.34 0 0 Z " fill="#121212" transform="translate(470,884)"/>
<path d="M0 0 C0.99 0 1.98 0 3 0 C3.33 3.63 3.66 7.26 4 11 C4.99 10.34 5.98 9.68 7 9 C13.245 8.442 13.245 8.442 15.7 10.255 C17.316 12.424 17.35 13.55 17.293 16.23 C17.283 17.033 17.274 17.835 17.264 18.662 C17.239 19.495 17.213 20.329 17.188 21.188 C17.167 22.455 17.167 22.455 17.146 23.748 C17.111 25.832 17.057 27.916 17 30 C16.01 30 15.02 30 14 30 C13.939 28.94 13.879 27.881 13.816 26.789 C13.732 25.401 13.647 24.013 13.562 22.625 C13.523 21.926 13.484 21.228 13.443 20.508 C13.257 16.626 13.257 16.626 12 13 C9.083 12.833 9.083 12.833 6 13 C3.154 15.846 3.544 18.804 3.375 22.625 C3.336 23.331 3.298 24.038 3.258 24.766 C3.164 26.51 3.081 28.255 3 30 C2.01 30 1.02 30 0 30 C0 20.1 0 10.2 0 0 Z " fill="#050404" transform="translate(588,680)"/>
<path d="M0 0 C0.99 0 1.98 0 3 0 C3.33 3.63 3.66 7.26 4 11 C4.99 10.34 5.98 9.68 7 9 C13.245 8.442 13.245 8.442 15.7 10.255 C17.316 12.424 17.35 13.55 17.293 16.23 C17.283 17.033 17.274 17.835 17.264 18.662 C17.239 19.495 17.213 20.329 17.188 21.188 C17.167 22.455 17.167 22.455 17.146 23.748 C17.111 25.832 17.057 27.916 17 30 C16.01 30 15.02 30 14 30 C13.939 28.857 13.879 27.713 13.816 26.535 C13.732 25.044 13.647 23.553 13.562 22.062 C13.523 21.308 13.484 20.553 13.443 19.775 C13.56 16.081 13.56 16.081 12 13 C9.042 12.75 9.042 12.75 6 13 C3.154 15.846 3.544 18.804 3.375 22.625 C3.336 23.331 3.298 24.038 3.258 24.766 C3.164 26.51 3.081 28.255 3 30 C2.01 30 1.02 30 0 30 C0 20.1 0 10.2 0 0 Z " fill="#040404" transform="translate(684,680)"/>
<path d="M0 0 C0.99 0 1.98 0 3 0 C3 3.63 3 7.26 3 11 C3.681 10.484 4.361 9.969 5.062 9.438 C8.845 7.586 10.967 8.011 15 9 C17 11 17 11 17.227 12.879 C17.217 13.623 17.206 14.367 17.195 15.133 C17.189 15.938 17.182 16.744 17.176 17.574 C17.159 18.416 17.142 19.258 17.125 20.125 C17.116 20.974 17.107 21.824 17.098 22.699 C17.074 24.8 17.038 26.9 17 29 C16.01 29 15.02 29 14 29 C13.939 27.857 13.879 26.713 13.816 25.535 C13.732 24.044 13.647 22.553 13.562 21.062 C13.523 20.308 13.484 19.553 13.443 18.775 C13.56 15.081 13.56 15.081 12 12 C7.659 12.142 7.659 12.142 4 14 C3.763 16.526 3.578 19.031 3.438 21.562 C3.394 22.273 3.351 22.984 3.307 23.717 C3.2 25.478 3.1 27.239 3 29 C2.01 29 1.02 29 0 29 C0 19.43 0 9.86 0 0 Z " fill="#010101" transform="translate(612,625)"/>
<path d="M0 0 C1.832 0.094 1.832 0.094 4 1 C5.449 3.906 5.449 3.906 6.688 7.5 C7.826 11.544 7.826 11.544 10 15 C11.98 10.05 13.96 5.1 16 0 C17.32 0 18.64 0 20 0 C17.95 6.439 15.602 12.702 13 18.938 C12.486 20.211 12.486 20.211 11.961 21.51 C11.623 22.32 11.285 23.13 10.938 23.965 C10.637 24.693 10.337 25.421 10.027 26.172 C9 28 9 28 6 30 C5.01 30 4.02 30 3 30 C3 29.34 3 28.68 3 28 C3.681 27.423 4.361 26.845 5.062 26.25 C7.325 24.157 7.325 24.157 6.812 21.34 C5.871 17.47 4.496 13.968 2.938 10.312 C0 3.396 0 3.396 0 0 Z " fill="#131313" transform="translate(375,689)"/>
<path d="M0 0 C5.28 0 10.56 0 16 0 C16 22.44 16 44.88 16 68 C9.07 67.505 9.07 67.505 2 67 C2 66.67 2 66.34 2 66 C5.96 66 9.92 66 14 66 C14 44.88 14 23.76 14 2 C9.38 2 4.76 2 0 2 C0 1.34 0 0.68 0 0 Z " fill="#1478FF" transform="translate(572,330)"/>
<path d="M0 0 C2.375 1.562 2.375 1.562 4 4 C4.457 7.654 4.413 10.053 2.938 13.438 C-0.012 15.816 -2.334 15.393 -6 15 C-6.99 14.34 -7.98 13.68 -9 13 C-9.398 10.723 -9.398 10.723 -9.375 8.062 C-9.383 7.187 -9.39 6.312 -9.398 5.41 C-8.498 -0.037 -5.022 -0.717 0 0 Z " fill="#F0F1F1" transform="translate(277,692)"/>
<path d="M0 0 C0.99 0 1.98 0 3 0 C3 0.99 3 1.98 3 3 C3.516 2.505 4.031 2.01 4.562 1.5 C7.888 -0.546 10.163 -0.419 14 0 C16.104 1.543 16.841 2.681 18 5 C18.072 7.718 18.093 10.409 18.062 13.125 C18.058 13.879 18.053 14.633 18.049 15.41 C18.037 17.273 18.019 19.137 18 21 C16.68 21 15.36 21 14 21 C13.939 19.857 13.879 18.713 13.816 17.535 C13.732 16.044 13.647 14.553 13.562 13.062 C13.523 12.308 13.484 11.553 13.443 10.775 C13.56 7.081 13.56 7.081 12 4 C9.042 3.75 9.042 3.75 6 4 C3.154 6.846 3.544 9.804 3.375 13.625 C3.336 14.331 3.298 15.038 3.258 15.766 C3.164 17.51 3.081 19.255 3 21 C2.01 21 1.02 21 0 21 C0 14.07 0 7.14 0 0 Z " fill="#161616" transform="translate(623,689)"/>
<path d="M0 0 C5.61 0 11.22 0 17 0 C17 22.77 17 45.54 17 69 C16.34 69 15.68 69 15 69 C15 46.89 15 24.78 15 2 C12.03 2 9.06 2 6 2 C2.938 1.5 2.938 1.5 1 1 C1 3.64 1 6.28 1 9 C0.67 9 0.34 9 0 9 C0 6.03 0 3.06 0 0 Z " fill="#2886FE" transform="translate(730,330)"/>
<path d="M0 0 C3.415 0.768 4.535 1.652 6.5 4.562 C7.064 7.343 7.064 9.782 6.5 12.562 C4.535 15.473 3.415 16.357 0 17.125 C-2.5 16.562 -2.5 16.562 -4.812 14.438 C-6.806 11.041 -7.145 9.435 -6.5 5.562 C-4.634 2.384 -3.651 0.821 0 0 Z " fill="#F2F2F2" transform="translate(738.5,635.4375)"/>
<path d="M0 0 C3.375 0.875 3.375 0.875 5.375 2.875 C5.676 5.188 5.676 5.188 5.688 7.875 C5.704 8.762 5.721 9.649 5.738 10.562 C5.618 11.326 5.499 12.089 5.375 12.875 C1.66 15.352 -0.234 15.424 -4.625 14.875 C-7.049 12.217 -7.556 10.355 -8.062 6.812 C-7.625 3.875 -7.625 3.875 -6.062 1.438 C-3.625 -0.125 -3.625 -0.125 0 0 Z " fill="#F2F3F2" transform="translate(350.625,692.125)"/>
<path d="M0 0 C2 2 2 2 2.195 4.602 C2.172 5.599 2.149 6.597 2.125 7.625 C2.107 8.628 2.089 9.631 2.07 10.664 C2.047 11.435 2.024 12.206 2 13 C-1.754 15.112 -3.788 15.099 -8 14 C-10.501 11.499 -10.324 10.522 -10.375 7.062 C-10.403 6.187 -10.432 5.312 -10.461 4.41 C-10 2 -10 2 -8.172 0.172 C-5.114 -1.478 -3.277 -0.926 0 0 Z " fill="#F4F5F5" transform="translate(613,888)"/>
<path d="M0 0 C2.473 3.71 2.385 5.611 2 10 C0.938 12.438 0.938 12.438 -1 14 C-4.5 14.5 -4.5 14.5 -8 14 C-10.299 12.22 -10.855 10.903 -11.312 8.059 C-11.505 4.788 -11.445 2.588 -9.438 -0.062 C-5.949 -1.404 -3.575 -0.927 0 0 Z " fill="#F5F5F6" transform="translate(413,693)"/>
<path d="M0 0 C1.32 0 2.64 0 4 0 C4.33 0.66 4.66 1.32 5 2 C5.66 1.34 6.32 0.68 7 0 C10.132 -0.494 11.517 -0.332 14.148 1.477 C16.852 5.161 16.442 8.308 16.25 12.75 C16.232 13.543 16.214 14.336 16.195 15.152 C16.148 17.102 16.077 19.051 16 21 C14.68 21 13.36 21 12 21 C11.67 15.39 11.34 9.78 11 4 C5.484 4.322 5.484 4.322 4 6 C3.763 8.526 3.578 11.031 3.438 13.562 C3.394 14.273 3.351 14.984 3.307 15.717 C3.2 17.478 3.1 19.239 3 21 C2.01 21 1.02 21 0 21 C0 14.07 0 7.14 0 0 Z " fill="#505050" transform="translate(502,689)"/>
<path d="M0 0 C0.99 0.66 1.98 1.32 3 2 C3.398 4.531 3.398 4.531 3.375 7.5 C3.383 8.48 3.39 9.459 3.398 10.469 C3.267 11.304 3.135 12.139 3 13 C-0.496 15.33 -1.887 15.588 -6 15 C-8.438 12.938 -8.438 12.938 -10 10 C-9.939 6.48 -9.662 4.081 -7.812 1.062 C-5.119 -0.516 -3.06 -0.319 0 0 Z " fill="#F4F4F4" transform="translate(659,692)"/>
<path d="M0 0 C3.438 0.812 3.438 0.812 5.438 2.812 C5.773 5.09 5.773 5.09 5.812 7.75 C5.841 8.625 5.869 9.501 5.898 10.402 C5.438 12.812 5.438 12.812 3.609 14.641 C0.551 16.291 -1.286 15.739 -4.562 14.812 C-7.073 12.302 -6.86 11.344 -6.875 7.875 C-6.892 7 -6.909 6.124 -6.926 5.223 C-6.562 2.812 -6.562 2.812 -5.266 0.984 C-3.562 -0.188 -3.562 -0.188 0 0 Z " fill="#F1F2F2" transform="translate(585.5625,636.1875)"/>
<path d="M0 0 C1.125 3.75 1.125 3.75 0 6 C-0.66 6 -1.32 6 -2 6 C-2 5.34 -2 4.68 -2 4 C-5.417 3.833 -5.417 3.833 -9 4 C-11.189 5.781 -11.189 5.781 -11.266 8.094 C-11.258 9.285 -11.258 9.285 -11.25 10.5 C-11.255 11.294 -11.26 12.088 -11.266 12.906 C-11.189 15.219 -11.189 15.219 -9 17 C-5.604 17.217 -3.242 17.081 0 16 C0.33 17.32 0.66 18.64 1 20 C-3.124 22.062 -5.591 22.441 -10 21 C-13.204 18.899 -16.236 16.659 -19 14 C-19 13.34 -19 12.68 -19 12 C-18.01 12 -17.02 12 -16 12 C-15.918 10.948 -15.835 9.896 -15.75 8.812 C-13.838 -0.904 -8.699 -0.675 0 0 Z " fill="#706F6F" transform="translate(475,689)"/>
<path d="M0 0 C2.64 0 5.28 0 8 0 C9.533 3.065 9.103 6.268 9.062 9.625 C9.058 10.331 9.053 11.038 9.049 11.766 C9.037 13.51 9.019 15.255 9 17 C7.373 16.55 5.748 16.089 4.125 15.625 C3.22 15.37 2.315 15.115 1.383 14.852 C-1 14 -1 14 -3 12 C-2.713 7.546 -2.406 3.849 0 0 Z " fill="#ECECED" transform="translate(521,637)"/>
<path d="M0 0 C0.99 0 1.98 0 3 0 C3.061 1.06 3.121 2.119 3.184 3.211 C3.268 4.599 3.353 5.987 3.438 7.375 C3.477 8.074 3.516 8.772 3.557 9.492 C3.743 13.374 3.743 13.374 5 17 C7.917 17.167 7.917 17.167 11 17 C13.846 14.154 13.456 11.196 13.625 7.375 C13.683 6.315 13.683 6.315 13.742 5.234 C13.836 3.49 13.919 1.745 14 0 C14.99 0 15.98 0 17 0 C17 6.93 17 13.86 17 21 C16.01 21 15.02 21 14 21 C13.67 20.34 13.34 19.68 13 19 C12.01 19.66 11.02 20.32 10 21 C3.755 21.558 3.755 21.558 1.3 19.745 C-0.316 17.576 -0.35 16.45 -0.293 13.77 C-0.283 12.967 -0.274 12.165 -0.264 11.338 C-0.239 10.505 -0.213 9.671 -0.188 8.812 C-0.174 7.968 -0.16 7.123 -0.146 6.252 C-0.111 4.168 -0.057 2.084 0 0 Z " fill="#060606" transform="translate(516,885)"/>
<path d="M0 0 C0.99 0 1.98 0 3 0 C3 0.99 3 1.98 3 3 C3.66 3 4.32 3 5 3 C5 2.34 5 1.68 5 1 C8.05 -0.525 10.642 -0.236 14 0 C16.1 1.542 16.898 2.404 17.341 4.993 C17.325 5.731 17.309 6.47 17.293 7.23 C17.283 8.033 17.274 8.835 17.264 9.662 C17.239 10.495 17.213 11.329 17.188 12.188 C17.167 13.455 17.167 13.455 17.146 14.748 C17.111 16.832 17.057 18.916 17 21 C16.01 21 15.02 21 14 21 C13.939 19.857 13.879 18.713 13.816 17.535 C13.732 16.044 13.647 14.553 13.562 13.062 C13.523 12.308 13.484 11.553 13.443 10.775 C13.56 7.081 13.56 7.081 12 4 C9.042 3.75 9.042 3.75 6 4 C3.154 6.846 3.544 9.804 3.375 13.625 C3.336 14.331 3.298 15.038 3.258 15.766 C3.164 17.51 3.081 19.255 3 21 C2.01 21 1.02 21 0 21 C0 14.07 0 7.14 0 0 Z " fill="#030303" transform="translate(316,689)"/>
<path d="M0 0 C1.32 0 2.64 0 4 0 C4 1.98 4 3.96 4 6 C5.32 6 6.64 6 8 6 C8 6.99 8 7.98 8 9 C6.68 9 5.36 9 4 9 C4.33 13.62 4.66 18.24 5 23 C6.32 23.33 7.64 23.66 9 24 C8.67 24.99 8.34 25.98 8 27 C5.125 27.188 5.125 27.188 2 27 C-0.454 23.319 -0.228 20.556 -0.125 16.312 C-0.116 15.611 -0.107 14.909 -0.098 14.186 C-0.074 12.457 -0.038 10.728 0 9 C-0.99 9 -1.98 9 -3 9 C-3 8.01 -3 7.02 -3 6 C-2.01 6 -1.02 6 0 6 C0 4.02 0 2.04 0 0 Z " fill="#121212" transform="translate(436,879)"/>
<path d="M0 0 C1.32 0 2.64 0 4 0 C4 1.65 4 3.3 4 5 C5.32 5.33 6.64 5.66 8 6 C8 6.99 8 7.98 8 9 C6.68 9 5.36 9 4 9 C4.33 13.62 4.66 18.24 5 23 C5.99 23 6.98 23 8 23 C7.67 24.32 7.34 25.64 7 27 C4.062 26.625 4.062 26.625 1 26 C-0.533 22.935 -0.103 19.732 -0.062 16.375 C-0.058 15.669 -0.053 14.962 -0.049 14.234 C-0.037 12.49 -0.019 10.745 0 9 C-0.99 9 -1.98 9 -3 9 C-3 8.01 -3 7.02 -3 6 C-2.01 6 -1.02 6 0 6 C0 4.02 0 2.04 0 0 Z " fill="#161616" transform="translate(717,628)"/>
<path d="M0 0 C1.208 0.102 1.208 0.102 2.441 0.207 C3.646 0.29 3.646 0.29 4.875 0.375 C7.004 1.02 7.004 1.02 8.289 3.07 C8.525 3.714 8.761 4.357 9.004 5.02 C6.004 5.02 6.004 5.02 2.504 4.332 C-0.838 3.719 -0.838 3.719 -2.934 5.02 C-4.604 8.164 -4.425 10.528 -3.996 14.02 C-2.536 16.647 -2.536 16.647 0.004 18.02 C3.074 17.855 3.074 17.855 6.004 17.02 C6.994 17.02 7.984 17.02 9.004 17.02 C7.254 20.895 7.254 20.895 5.004 22.02 C0.542 22.14 -2.956 21.806 -6.559 19.082 C-8.617 14.697 -8.933 10.776 -7.996 6.02 C-5.559 2.957 -5.559 2.957 -2.996 1.02 C-1.996 0.02 -1.996 0.02 0 0 Z " fill="#0C0B0B" transform="translate(436.99609375,632.98046875)"/>
<path d="M0 0 C0.99 0.33 1.98 0.66 3 1 C3 2.65 3 4.3 3 6 C4.32 6 5.64 6 7 6 C7 6.99 7 7.98 7 9 C5.68 9 4.36 9 3 9 C3 13.95 3 18.9 3 24 C4.32 24 5.64 24 7 24 C7 24.99 7 25.98 7 27 C4.125 27.125 4.125 27.125 1 27 C-1 25 -1 25 -1.195 21.305 C-1.182 19.828 -1.158 18.351 -1.125 16.875 C-1.116 16.121 -1.107 15.367 -1.098 14.59 C-1.074 12.726 -1.038 10.863 -1 9 C-1.99 9 -2.98 9 -4 9 C-4 8.01 -4 7.02 -4 6 C-3.01 6 -2.02 6 -1 6 C-1.021 5.196 -1.041 4.391 -1.062 3.562 C-1 1 -1 1 0 0 Z " fill="#161616" transform="translate(576,683)"/>
<path d="M0 0 C1.32 0 2.64 0 4 0 C4 1.65 4 3.3 4 5 C5.32 5 6.64 5 8 5 C7.67 5.99 7.34 6.98 7 8 C6.01 8 5.02 8 4 8 C4 12.95 4 17.9 4 23 C5.32 23.33 6.64 23.66 8 24 C8 24.66 8 25.32 8 26 C5.125 26.125 5.125 26.125 2 26 C0 24 0 24 -0.195 20.305 C-0.182 18.828 -0.158 17.351 -0.125 15.875 C-0.116 15.121 -0.107 14.367 -0.098 13.59 C-0.074 11.726 -0.038 9.863 0 8 C-0.99 8 -1.98 8 -3 8 C-3 7.01 -3 6.02 -3 5 C-2.01 5 -1.02 5 0 5 C0 3.35 0 1.7 0 0 Z " fill="#181818" transform="translate(537,684)"/>
<path d="M0 0 C3.281 0.848 4.9 2.912 6.934 5.5 C8.412 8.457 7.994 11.242 7.934 14.5 C6.614 14.83 5.294 15.16 3.934 15.5 C3.801 14.79 3.668 14.079 3.531 13.348 C3.355 12.429 3.178 11.509 2.996 10.562 C2.822 9.646 2.648 8.729 2.469 7.785 C2.156 5.547 2.156 5.547 0.934 4.5 C-2.584 4.752 -2.584 4.752 -6.066 5.5 C-7.329 8.025 -7.165 9.812 -7.129 12.625 C-7.12 13.535 -7.111 14.445 -7.102 15.383 C-7.09 16.081 -7.078 16.78 -7.066 17.5 C-8.056 17.5 -9.046 17.5 -10.066 17.5 C-11.932 13.77 -11.615 9.563 -11.066 5.5 C-8.127 0.907 -5.266 -0.319 0 0 Z " fill="#232223" transform="translate(489.06640625,688.5)"/>
<path d="M0 0 C1.32 0 2.64 0 4 0 C4 9.9 4 19.8 4 30 C2.68 30 1.36 30 0 30 C0 29.01 0 28.02 0 27 C-0.66 26.67 -1.32 26.34 -2 26 C-1.67 25.67 -1.34 25.34 -1 25 C-0.952 22.876 -0.963 20.75 -1 18.625 C-1.051 12.35 -0.712 6.231 0 0 Z " fill="#131313" transform="translate(615,876)"/>
<path d="M0 0 C0.99 0 1.98 0 3 0 C3 1.65 3 3.3 3 5 C4.32 5 5.64 5 7 5 C7 6.32 7 7.64 7 9 C5.68 9 4.36 9 3 9 C3.33 13.62 3.66 18.24 4 23 C4.99 23.33 5.98 23.66 7 24 C7 24.99 7 25.98 7 27 C4.625 27.125 4.625 27.125 2 27 C0 25 0 25 -0.195 21.305 C-0.182 19.828 -0.158 18.351 -0.125 16.875 C-0.116 16.121 -0.107 15.367 -0.098 14.59 C-0.074 12.726 -0.038 10.863 0 9 C-1.32 9 -2.64 9 -4 9 C-3.67 7.68 -3.34 6.36 -3 5 C-2.01 5 -1.02 5 0 5 C0 3.35 0 1.7 0 0 Z " fill="#131313" transform="translate(694,628)"/>
<path d="M0 0 C2.723 2.007 4.715 3.572 5.4 7.005 C5.492 9.293 5.437 11.526 5.312 13.812 C5.29 14.601 5.267 15.389 5.244 16.201 C5.186 18.135 5.096 20.068 5 22 C4.01 22 3.02 22 2 22 C2 21.34 2 20.68 2 20 C0.02 20.33 -1.96 20.66 -4 21 C-3.175 20.567 -2.35 20.134 -1.5 19.688 C1.934 15.996 1.482 13.335 1.371 8.461 C1.223 5.827 1.223 5.827 -1 4 C-3.45 3.977 -3.45 3.977 -6.125 4.375 C-7.035 4.486 -7.945 4.597 -8.883 4.711 C-9.931 4.854 -9.931 4.854 -11 5 C-10.188 3.062 -10.188 3.062 -9 1 C-5.636 -0.121 -3.525 -0.423 0 0 Z " fill="#0A0A0A" transform="translate(460,884)"/>
<path d="M0 0 C1.32 0.33 2.64 0.66 4 1 C4.841 3.894 5.673 6.79 6.5 9.688 C6.738 10.504 6.977 11.321 7.223 12.162 C8.365 16.192 9.345 19.765 9 24 C9.66 24.33 10.32 24.66 11 25 C10.01 25 9.02 25 8 25 C8 26.65 8 28.3 8 30 C3.835 26.197 3.689 21.992 3.062 16.625 C2.523 12.025 1.751 8.264 0 4 C0 2.68 0 1.36 0 0 Z " fill="#2B2A2A" transform="translate(278,624)"/>
<path d="M0 0 C1.32 0 2.64 0 4 0 C4.33 0.66 4.66 1.32 5 2 C5.99 1.34 6.98 0.68 8 0 C8.99 0 9.98 0 11 0 C10.812 1.875 10.812 1.875 10 4 C8.35 4.66 6.7 5.32 5 6 C4.67 10.95 4.34 15.9 4 21 C2.68 21 1.36 21 0 21 C0 14.07 0 7.14 0 0 Z " fill="#191818" transform="translate(475,633)"/>
<path d="M0 0 C1.32 0 2.64 0 4 0 C4 0.66 4 1.32 4 2 C4.99 1.34 5.98 0.68 7 0 C8.32 0 9.64 0 11 0 C11 0.99 11 1.98 11 3 C8.69 3.66 6.38 4.32 4 5 C4 10.28 4 15.56 4 21 C2.68 21 1.36 21 0 21 C0 14.07 0 7.14 0 0 Z " fill="#161616" transform="translate(290,689)"/>
<path d="M0 0 C0.99 0 1.98 0 3 0 C3 0.99 3 1.98 3 3 C3.598 2.505 4.196 2.01 4.812 1.5 C7 0 7 0 10 0 C10 1.32 10 2.64 10 4 C8.35 4.66 6.7 5.32 5 6 C4.67 10.95 4.34 15.9 4 21 C2.68 21 1.36 21 0 21 C0 14.07 0 7.14 0 0 Z " fill="#1A1A1A" transform="translate(379,633)"/>
<path d="M0 0 C0.99 0 1.98 0 3 0 C3 0.99 3 1.98 3 3 C3.598 2.505 4.196 2.01 4.812 1.5 C7 0 7 0 10 0 C10 0.99 10 1.98 10 3 C8.35 3.66 6.7 4.32 5 5 C4.67 10.28 4.34 15.56 4 21 C2.68 21 1.36 21 0 21 C0 14.07 0 7.14 0 0 Z " fill="#141314" transform="translate(733,689)"/>
<path d="M0 0 C1.32 0 2.64 0 4 0 C4.33 5.61 4.66 11.22 5 17 C6.98 17.99 8.96 18.98 11 20 C11 20.33 11 20.66 11 21 C3.58 21.487 3.58 21.487 1.25 19.531 C-0.599 15.787 -0.32 12.362 -0.188 8.25 C-0.174 7.457 -0.16 6.664 -0.146 5.848 C-0.111 3.898 -0.057 1.949 0 0 Z " fill="#090909" transform="translate(424,689)"/>
<path d="M0 0 C2.667 0.667 5.333 1.333 8 2 C7.01 3.485 7.01 3.485 6 5 C5.34 5 4.68 5 4 5 C4 10.28 4 15.56 4 21 C2.68 21 1.36 21 0 21 C0 14.07 0 7.14 0 0 Z " fill="#191919" transform="translate(551,633)"/>
<path d="M0 0 C0.99 0 1.98 0 3 0 C3 9.9 3 19.8 3 30 C2.01 30 1.02 30 0 30 C0 20.1 0 10.2 0 0 Z " fill="#030303" transform="translate(505,876)"/>
<path d="M0 0 C2.97 0.495 2.97 0.495 6 1 C5.67 1.99 5.34 2.98 5 4 C4.856 5.334 4.754 6.672 4.684 8.012 C4.642 8.769 4.6 9.526 4.557 10.307 C4.517 11.092 4.478 11.878 4.438 12.688 C4.373 13.883 4.373 13.883 4.307 15.104 C4.201 17.069 4.1 19.034 4 21 C2.68 21 1.36 21 0 21 C0 14.07 0 7.14 0 0 Z " fill="#1B1C1C" transform="translate(540,885)"/>
<path d="M0 0 C7.959 0.34 7.959 0.34 11.562 2.625 C13.496 5.819 13.098 8.329 13 12 C10.709 12.054 8.417 12.093 6.125 12.125 C4.211 12.16 4.211 12.16 2.258 12.195 C-1 12 -1 12 -3 10 C0.96 10 4.92 10 9 10 C7.547 5.416 7.547 5.416 6 4 C3.672 3.632 1.338 3.298 -1 3 C-0.67 2.01 -0.34 1.02 0 0 Z " fill="#141414" transform="translate(457,633)"/>
<path d="M0 0 C3.303 0.275 4.73 0.742 7.156 3.062 C9.454 6.723 9.458 9.642 9.25 13.812 C9.232 14.505 9.214 15.198 9.195 15.912 C9.149 17.609 9.077 19.305 9 21 C7.68 21 6.36 21 5 21 C4.67 15.06 4.34 9.12 4 3 C2.68 3 1.36 3 0 3 C0 2.01 0 1.02 0 0 Z " fill="#161616" transform="translate(521,689)"/>
<path d="M0 0 C3.367 -0.306 5.333 -0.448 8.188 1.469 C10.835 5.166 10.441 8.326 10.25 12.75 C10.232 13.543 10.214 14.336 10.195 15.152 C10.148 17.102 10.077 19.051 10 21 C9.01 21 8.02 21 7 21 C6.939 19.94 6.879 18.881 6.816 17.789 C6.732 16.401 6.647 15.013 6.562 13.625 C6.523 12.926 6.484 12.228 6.443 11.508 C6.257 7.626 6.257 7.626 5 4 C2.473 3.344 2.473 3.344 0 3 C0 2.01 0 1.02 0 0 Z " fill="#141414" transform="translate(523,633)"/>
<path d="M0 0 C4.511 -0.366 4.511 -0.366 6.65 1.234 C8.359 3.47 8.349 4.659 8.293 7.449 C8.283 8.297 8.274 9.144 8.264 10.018 C8.239 10.899 8.213 11.78 8.188 12.688 C8.174 13.58 8.16 14.473 8.146 15.393 C8.111 17.596 8.062 19.798 8 22 C7.01 22 6.02 22 5 22 C4.67 16.39 4.34 10.78 4 5 C1.525 4.01 1.525 4.01 -1 3 C-0.67 2.01 -0.34 1.02 0 0 Z " fill="#050505" transform="translate(560,884)"/>
<path d="M0 0 C0.99 0.33 1.98 0.66 3 1 C1.689 8.111 -0.017 15.047 -2 22 C-2.66 21.34 -3.32 20.68 -4 20 C-4.66 20.33 -5.32 20.66 -6 21 C-5.383 18.061 -4.757 15.124 -4.125 12.188 C-3.951 11.354 -3.777 10.521 -3.598 9.662 C-3.424 8.86 -3.25 8.057 -3.07 7.23 C-2.913 6.492 -2.756 5.754 -2.594 4.993 C-2 3 -2 3 0 0 Z " fill="#1A1A1A" transform="translate(312,624)"/>
<path d="M0 0 C3.5 0.25 3.5 0.25 5.5 2.25 C4.944 6.806 4.944 6.806 3.5 8.25 C-3.025 8.487 -3.025 8.487 -5.5 7.25 C-5.625 4.875 -5.625 4.875 -5.5 2.25 C-3.5 0.25 -3.5 0.25 0 0 Z " fill="#F2F2F2" transform="translate(362.5,643.75)"/>
<path d="M0 0 C4.088 -0.487 5.762 -0.148 9.312 2.062 C12.44 5.481 12.821 7.444 13 12 C10.896 12.054 8.792 12.093 6.688 12.125 C4.93 12.16 4.93 12.16 3.137 12.195 C0 12 0 12 -3 10 C1.29 10 5.58 10 10 10 C8.495 6.866 8.495 6.866 6 4 C2.331 3.499 2.331 3.499 -1 4 C-0.67 2.68 -0.34 1.36 0 0 Z " fill="#080807" transform="translate(643,633)"/>
<path d="M0 0 C-0.33 0.99 -0.66 1.98 -1 3 C-4.062 4.188 -4.062 4.188 -7 5 C-7.33 6.65 -7.66 8.3 -8 10 C-4.7 10 -1.4 10 2 10 C2.33 10.66 2.66 11.32 3 12 C-0.489 14.326 -1.897 14.419 -6 14 C-8.312 12.938 -8.312 12.938 -10 11 C-10.985 7.388 -11.42 5.091 -10.062 1.562 C-6.81 -0.902 -4.006 -0.263 0 0 Z " fill="#181819" transform="translate(365,641)"/>
<path d="M0 0 C3.125 0.188 3.125 0.188 6.125 2.188 C5.25 7.062 5.25 7.062 4.125 8.188 C0.688 8.375 0.688 8.375 -2.875 8.188 C-3.535 7.528 -4.195 6.867 -4.875 6.188 C-4.153 0.271 -4.153 0.271 0 0 Z " fill="#F4F4F3" transform="translate(455.875,894.8125)"/>
<path d="M0 0 C3.024 0.819 4.239 1.268 6 3.812 C6 4.803 6 5.793 6 6.812 C1.71 6.812 -2.58 6.812 -7 6.812 C-5.568 -0.348 -5.568 -0.348 0 0 Z " fill="#DEDEDE" transform="translate(585,887.1875)"/>
<path d="M0 0 C3.562 0.188 3.562 0.188 5.562 2.188 C5.688 4.812 5.688 4.812 5.562 7.188 C2.58 8.679 -0.154 8.307 -3.438 8.188 C-4.438 7.188 -4.438 7.188 -4.562 4.188 C-4.385 -0.078 -4.343 0.237 0 0 Z " fill="#F6F6F6" transform="translate(669.4375,643.8125)"/>
<path d="M0 0 C4.645 -0.324 7.291 0.115 11 3 C13.31 6.3 13 7.651 13 12 C8.05 11.67 3.1 11.34 -2 11 C-2 10.67 -2 10.34 -2 10 C1.96 10 5.92 10 10 10 C9.34 8.35 8.68 6.7 8 5 C2.95 4.062 2.95 4.062 -2 5 C-1.34 3.35 -0.68 1.7 0 0 Z " fill="#070707" transform="translate(325,633)"/>
<path d="M0 0 C0.99 0 1.98 0 3 0 C3 0.99 3 1.98 3 3 C3.99 2.67 4.98 2.34 6 2 C5.524 2.75 5.524 2.75 5.039 3.516 C3.635 6.872 3.538 10.163 3.375 13.75 C3.336 14.447 3.298 15.145 3.258 15.863 C3.164 17.575 3.081 19.288 3 21 C2.01 21 1.02 21 0 21 C0 14.07 0 7.14 0 0 Z " fill="#010101" transform="translate(623,689)"/>
<path d="M0 0 C1.875 1.312 1.875 1.312 3 3 C3 3.99 3 4.98 3 6 C-1.29 6 -5.58 6 -10 6 C-7.487 -0.283 -6.452 -0.527 0 0 Z " fill="#F7F7F7" transform="translate(760,692)"/>
<path d="M0 0 C3.625 0.25 3.625 0.25 5.562 1.562 C6.625 3.25 6.625 3.25 6.625 6.25 C2.335 6.25 -1.955 6.25 -6.375 6.25 C-3.993 0.296 -3.993 0.296 0 0 Z " fill="#F7F7F7" transform="translate(717.375,691.75)"/>
<path d="M0 0 C3.562 0.375 3.562 0.375 5.5 2.25 C6.562 4.375 6.562 4.375 6.562 6.375 C2.273 6.375 -2.018 6.375 -6.438 6.375 C-4.98 0.543 -4.98 0.543 0 0 Z " fill="#F7F7F7" transform="translate(558.4375,691.625)"/>
<path d="M0 0 C3.125 0.375 3.125 0.375 5.5 2.25 C7.125 4.375 7.125 4.375 7.125 6.375 C2.835 6.375 -1.455 6.375 -5.875 6.375 C-4.426 0.577 -4.426 0.577 0 0 Z " fill="#DDDDDD" transform="translate(498.875,635.625)"/>
<path d="M0 0 C0.99 0 1.98 0 3 0 C3 6.93 3 13.86 3 21 C2.01 21 1.02 21 0 21 C0 14.07 0 7.14 0 0 Z " fill="#000000" transform="translate(305,689)"/>
<path d="M0 0 C0.99 0 1.98 0 3 0 C3 6.93 3 13.86 3 21 C2.01 21 1.02 21 0 21 C0 14.07 0 7.14 0 0 Z " fill="#000000" transform="translate(613,689)"/>
<path d="M0 0 C0.99 0 1.98 0 3 0 C3 6.93 3 13.86 3 21 C2.01 21 1.02 21 0 21 C0 14.07 0 7.14 0 0 Z " fill="#030304" transform="translate(541,633)"/>
<path d="M0 0 C3.188 0.375 3.188 0.375 5.562 2.812 C7.188 5.375 7.188 5.375 7.188 6.375 C2.567 6.375 -2.053 6.375 -6.812 6.375 C-3.247 0.433 -3.247 0.433 0 0 Z " fill="#F2F3F2" transform="translate(402.8125,635.625)"/>
<path d="M0 0 C0.66 1.65 1.32 3.3 2 5 C-2.29 5 -6.58 5 -11 5 C-8.156 -2.11 -6.994 -1.166 0 0 Z " fill="#F3F3F2" transform="translate(333,637)"/>
<path d="M0 0 C0.99 0 1.98 0 3 0 C3 0.66 3 1.32 3 2 C4.32 1.67 5.64 1.34 7 1 C7 1.66 7 2.32 7 3 C8.65 3 10.3 3 12 3 C12 3.33 12 3.66 12 4 C10.886 4.103 9.773 4.206 8.625 4.312 C7.429 4.539 6.232 4.766 5 5 C4.01 6.485 4.01 6.485 3 8 C2.34 7.34 1.68 6.68 1 6 C0.67 12.27 0.34 18.54 0 25 C0.99 25.33 1.98 25.66 3 26 C1.68 26 0.36 26 -1 26 C-1.029 21.854 -1.047 17.708 -1.062 13.562 C-1.071 12.378 -1.079 11.194 -1.088 9.975 C-1.091 8.85 -1.094 7.725 -1.098 6.566 C-1.103 5.524 -1.108 4.482 -1.114 3.408 C-1 1 -1 1 0 0 Z " fill="#5C5C5D" transform="translate(516,633)"/>
<path d="M0 0 C3.125 0.25 3.125 0.25 5 1.562 C6.125 3.25 6.125 3.25 6.125 6.25 C1.835 6.25 -2.455 6.25 -6.875 6.25 C-3.297 0.287 -3.297 0.287 0 0 Z " fill="#F3F3F3" transform="translate(645.875,635.75)"/>
<path d="M0 0 C3.653 1.25 4.781 1.671 7 5 C7.125 8.188 7.125 8.188 7 11 C4.709 11.054 2.417 11.093 0.125 11.125 C-1.789 11.16 -1.789 11.16 -3.742 11.195 C-7 11 -7 11 -9 9 C-4.71 9 -0.42 9 4 9 C2.46 4.197 2.46 4.197 0 2 C0 1.34 0 0.68 0 0 Z " fill="#090909" transform="translate(502,634)"/>
<path d="M0 0 C0.866 0.33 1.733 0.66 2.625 1 C7.141 2.338 10.528 2.491 15 1 C15.33 2.32 15.66 3.64 16 5 C11.926 7.037 9.384 7.279 5 6 C2.125 4.062 2.125 4.062 0 2 C0 1.34 0 0.68 0 0 Z " fill="#242424" transform="translate(460,704)"/>
<path d="M0 0 C0.66 0 1.32 0 2 0 C3.139 4.345 2.931 8.386 2.562 12.812 C2.51 13.505 2.458 14.198 2.404 14.912 C2.276 16.609 2.139 18.304 2 20 C1.01 20 0.02 20 -1 20 C-1.027 17.792 -1.046 15.583 -1.062 13.375 C-1.074 12.145 -1.086 10.915 -1.098 9.648 C-1.009 6.323 -0.637 3.26 0 0 Z " fill="#050505" transform="translate(503,690)"/>
<path d="M0 0 C6.055 -0.195 6.055 -0.195 8 0 C10 2 10 2 10 5 C6.37 5 2.74 5 -1 5 C-0.67 3.35 -0.34 1.7 0 0 Z " fill="#F8F9F9" transform="translate(456,637)"/>
<path d="M0 0 C0.99 0.33 1.98 0.66 3 1 C4.332 1.067 5.667 1.085 7 1.062 C7.681 1.053 8.361 1.044 9.062 1.035 C10.022 1.018 10.022 1.018 11 1 C11.99 1 12.98 1 14 1 C13.67 1.99 13.34 2.98 13 4 C10.556 5.222 8.79 5.236 6.062 5.312 C4.75 5.369 4.75 5.369 3.41 5.426 C1 5 1 5 -0.816 2.98 C-1.207 2.327 -1.598 1.673 -2 1 C-1.34 0.67 -0.68 0.34 0 0 Z " fill="#0F0F0F" transform="translate(751,705)"/>
<path d="M0 0 C0.99 0 1.98 0 3 0 C3 5.28 3 10.56 3 16 C2.01 16 1.02 16 0 16 C0 10.72 0 5.44 0 0 Z " fill="#000000" transform="translate(514,694)"/>
<path d="M0 0 C0.66 0.66 1.32 1.32 2 2 C-3.846 4.579 -9.397 5.151 -15.75 5.188 C-16.879 5.202 -18.008 5.216 -19.172 5.23 C-22 5 -22 5 -24 3 C-22.854 2.951 -21.708 2.902 -20.527 2.852 C-18.997 2.776 -17.467 2.701 -15.938 2.625 C-15.185 2.594 -14.433 2.563 -13.658 2.531 C-8.81 2.279 -4.617 1.508 0 0 Z " fill="#2278FF" transform="translate(728,418)"/>
<path d="M0 0 C0 0.66 0 1.32 0 2 C-0.641 2.049 -1.281 2.098 -1.941 2.148 C-6.047 2.503 -9.94 2.856 -13.875 4.125 C-17.033 5.009 -18.007 4.92 -21 4 C-13.819 0.511 -7.959 -0.545 0 0 Z " fill="#2381FE" transform="translate(497,328)"/>
<path d="M0 0 C0.33 0 0.66 0 1 0 C1.315 3.372 1.569 6.747 1.812 10.125 C1.902 11.076 1.992 12.028 2.084 13.008 C2.609 20.967 2.609 20.967 -0.301 24.617 C-3 27 -3 27 -6 28 C-4.985 25.814 -4.011 24.013 -2.458 22.157 C-0.76 19.645 -0.585 18.237 -0.488 15.234 C-0.435 13.9 -0.435 13.9 -0.381 12.539 C-0.358 11.619 -0.336 10.698 -0.312 9.75 C-0.278 8.814 -0.244 7.878 -0.209 6.914 C-0.127 4.609 -0.057 2.305 0 0 Z " fill="#1882FF" transform="translate(729,354)"/>
<path d="M0 0 C-1.75 3.875 -1.75 3.875 -4 5 C-5.54 5.07 -7.083 5.085 -8.625 5.062 C-9.851 5.049 -9.851 5.049 -11.102 5.035 C-12.041 5.018 -12.041 5.018 -13 5 C-13.33 4.34 -13.66 3.68 -14 3 C-4.59 -0.444 -4.59 -0.444 0 0 Z " fill="#373737" transform="translate(496,705)"/>
<path d="M0 0 C2 2 2 2 2 5 C-0.291 5.054 -2.583 5.093 -4.875 5.125 C-6.789 5.16 -6.789 5.16 -8.742 5.195 C-12 5 -12 5 -14 3 C-13.157 2.951 -12.314 2.902 -11.445 2.852 C-10.35 2.777 -9.254 2.702 -8.125 2.625 C-6.489 2.521 -6.489 2.521 -4.82 2.414 C-1.87 2.267 -1.87 2.267 0 0 Z " fill="#020202" transform="translate(468,640)"/>
<path d="M0 0 C0.66 0 1.32 0 2 0 C3.39 2.78 3.185 4.919 3 8 C2 10.375 2 10.375 1 12 C0.01 11.67 -0.98 11.34 -2 11 C-1.34 7.37 -0.68 3.74 0 0 Z " fill="#767575" transform="translate(686,625)"/>
<path d="M0 0 C3.323 0 5.392 0.471 7.922 2.672 C11.295 6.38 13.318 8.93 14 14 C13.01 14.495 13.01 14.495 12 15 C12 14.01 12 13.02 12 12 C11.34 11.67 10.68 11.34 10 11 C9.794 10.257 9.587 9.515 9.375 8.75 C7.552 5.104 5.163 3.974 1.68 2.016 C1.125 1.68 0.571 1.345 0 1 C0 0.67 0 0.34 0 0 Z " fill="#066CFF" transform="translate(539,330)"/>
<path d="M0 0 C0.66 1.32 1.32 2.64 2 4 C2.66 3.01 3.32 2.02 4 1 C4.33 3.64 4.66 6.28 5 9 C2.69 8.67 0.38 8.34 -2 8 C-2.33 7.01 -2.66 6.02 -3 5 C-2.01 5 -1.02 5 0 5 C0 3.35 0 1.7 0 0 Z " fill="#999898" transform="translate(459,696)"/>
<path d="M0 0 C2.018 0.065 4.036 0.13 6.055 0.195 C5.725 1.185 5.395 2.175 5.055 3.195 C3.277 3.855 3.277 3.855 1.117 4.258 C-2.296 4.898 -2.296 4.898 -4.945 7.195 C-3.871 0.389 -3.871 0.389 0 0 Z " fill="#303030" transform="translate(358.9453125,640.8046875)"/>
<path d="M0 0 C1.32 0.33 2.64 0.66 4 1 C3.67 1.33 3.34 1.66 3 2 C3.99 2.66 4.98 3.32 6 4 C5 5 5 5 2.934 5.098 C2.11 5.086 1.286 5.074 0.438 5.062 C-0.389 5.053 -1.215 5.044 -2.066 5.035 C-2.704 5.024 -3.343 5.012 -4 5 C-2.68 3.35 -1.36 1.7 0 0 Z " fill="#FCFCFB" transform="translate(497,637)"/>
<path d="M0 0 C0 0.66 0 1.32 0 2 C-1.956 3.005 -3.915 4.004 -5.875 5 C-6.966 5.557 -8.056 6.114 -9.18 6.688 C-12 8 -12 8 -14 8 C-13.67 7.01 -13.34 6.02 -13 5 C-11.019 4.28 -9.015 3.62 -7 3 C-1.923 0 -1.923 0 0 0 Z " fill="#0B70FF" transform="translate(422,529)"/>
<path d="M0 0 C6.875 0.875 6.875 0.875 8 2 C8.041 3.666 8.043 5.334 8 7 C5.69 6.34 3.38 5.68 1 5 C1.99 4.01 2.98 3.02 4 2 C2.68 1.34 1.36 0.68 0 0 Z " fill="#E3E3E3" transform="translate(667,636)"/>
<path d="M0 0 C4.965 0.15 7.206 2.831 10.449 6.211 C12 8 12 8 14 11 C13.67 11.99 13.34 12.98 13 14 C12.648 13.481 12.296 12.961 11.934 12.426 C8.43 7.477 5.05 4.333 0 1 C0 0.67 0 0.34 0 0 Z " fill="#0569FE" transform="translate(567,473)"/>
<path d="M0 0 C0.33 0 0.66 0 1 0 C1.061 1.013 1.121 2.026 1.184 3.07 C1.268 4.422 1.353 5.773 1.438 7.125 C1.477 7.79 1.516 8.455 1.557 9.141 C1.812 13.15 2.268 17.05 3 21 C2.01 20.67 1.02 20.34 0 20 C-1.41 13.262 -0.666 6.81 0 0 Z " fill="#BDDFFC" transform="translate(681,358)"/>
<path d="M0 0 C0.66 0.33 1.32 0.66 2 1 C2 1.66 2 2.32 2 3 C-1.3 2.34 -4.6 1.68 -8 1 C-8.33 1.99 -8.66 2.98 -9 4 C-9.99 3.34 -10.98 2.68 -12 2 C-7.723 -1.24 -5.163 -1.169 0 0 Z " fill="#1C7DFE" transform="translate(584,304)"/>
<path d="M0 0 C0 0.66 0 1.32 0 2 C-0.969 2.804 -1.939 3.609 -2.938 4.438 C-6.194 6.707 -6.194 6.707 -7 10 C-7.99 9.67 -8.98 9.34 -10 9 C-8.512 4.984 -4.568 0 0 0 Z " fill="#0368FF" transform="translate(695,402)"/>
<path d="M0 0 C4.105 0.524 6.215 1.652 9.25 4.438 C9.936 5.055 10.622 5.672 11.328 6.309 C13 8 13 8 14 10 C11.022 8.611 8.488 6.987 5.875 5 C5.192 4.484 4.509 3.969 3.805 3.438 C2 2 2 2 0 0 Z " fill="#0566FF" transform="translate(414,447)"/>
<path d="M0 0 C0.66 0 1.32 0 2 0 C2 0.66 2 1.32 2 2 C3.65 2 5.3 2 7 2 C7 2.33 7 2.66 7 3 C5.886 3.103 4.773 3.206 3.625 3.312 C2.429 3.539 1.232 3.766 0 4 C-0.99 5.485 -0.99 5.485 -2 7 C-2.66 6.34 -3.32 5.68 -4 5 C-4 4.01 -4 3.02 -4 2 C-2.68 2 -1.36 2 0 2 C0 1.34 0 0.68 0 0 Z " fill="#4F4F4F" transform="translate(521,634)"/>
<path d="M0 0 C6.4 -0.369 6.4 -0.369 9.438 1.5 C9.953 1.995 10.469 2.49 11 3 C6.749 4.417 4.281 3.193 0 2 C0 1.34 0 0.68 0 0 Z " fill="#0E74FF" transform="translate(648,329)"/>
<path d="M0 0 C1.32 0.33 2.64 0.66 4 1 C4 2.32 4 3.64 4 5 C2.02 4.34 0.04 3.68 -2 3 C-1.34 2.01 -0.68 1.02 0 0 Z " fill="#19191A" transform="translate(424,877)"/>
<path d="M0 0 C0.33 0.66 0.66 1.32 1 2 C3.31 2 5.62 2 8 2 C5.014 3.991 2.403 4.941 -1 6 C-1 5.01 -1 4.02 -1 3 C-1.66 2.67 -2.32 2.34 -3 2 C-2.01 2 -1.02 2 0 2 C0 1.34 0 0.68 0 0 Z " fill="#AAAAAA" transform="translate(482,704)"/>
<path d="M0 0 C0.99 0 1.98 0 3 0 C3.33 1.32 3.66 2.64 4 4 C2.35 4.33 0.7 4.66 -1 5 C-0.67 3.35 -0.34 1.7 0 0 Z " fill="#151415" transform="translate(774,705)"/>
<path d="M0 0 C2.97 0 5.94 0 9 0 C8.67 1.32 8.34 2.64 8 4 C5.36 3.01 2.72 2.02 0 1 C0 0.67 0 0.34 0 0 Z " fill="#323132" transform="translate(465,690)"/>
<path d="M0 0 C1.98 0.495 1.98 0.495 4 1 C3.67 2.32 3.34 3.64 3 5 C1.68 4.67 0.36 4.34 -1 4 C-0.67 2.68 -0.34 1.36 0 0 Z " fill="#242324" transform="translate(541,626)"/>
<path d="M0 0 C0.66 0.33 1.32 0.66 2 1 C1.01 2.485 1.01 2.485 0 4 C-0.33 5.031 -0.66 6.062 -1 7.125 C-2 10 -2 10 -4 11 C-3.49 6.611 -2.478 3.663 0 0 Z " fill="#E8F3FB" transform="translate(539,489)"/>
<path d="M0 0 C0.66 0 1.32 0 2 0 C2.33 1.32 2.66 2.64 3 4 C-0.623 5.208 -1.641 4.543 -5 3 C-4.361 2.691 -3.721 2.381 -3.062 2.062 C-1.064 1.165 -1.064 1.165 0 0 Z " fill="#6B6B6A" transform="translate(473,705)"/>
<path d="M0 0 C-0.866 0.619 -0.866 0.619 -1.75 1.25 C-4.029 3.023 -5.994 4.927 -8 7 C-8.66 7.66 -9.32 8.32 -10 9 C-9.655 5.899 -9.152 4.201 -7.25 1.688 C-4.588 -0.309 -3.25 -0.361 0 0 Z " fill="#0F73FE" transform="translate(710,344)"/>
<path d="M0 0 C0.66 0.33 1.32 0.66 2 1 C-0.335 4.502 -2.202 5.338 -6 7 C-6.66 7 -7.32 7 -8 7 C-8 6.34 -8 5.68 -8 5 C-6.32 3.676 -6.32 3.676 -4.125 2.312 C-3.406 1.855 -2.686 1.397 -1.945 0.926 C-1.303 0.62 -0.661 0.315 0 0 Z " fill="#056DFF" transform="translate(534,160)"/>
<path d="M0 0 C0.33 0.99 0.66 1.98 1 3 C-1.312 5.5 -1.312 5.5 -4 8 C-4.99 8 -5.98 8 -7 8 C-4.69 5.36 -2.38 2.72 0 0 Z " fill="#0C70FE" transform="translate(343,371)"/>
<path d="M0 0 C1.65 0 3.3 0 5 0 C5.33 0.99 5.66 1.98 6 3 C4.02 3 2.04 3 0 3 C0 2.01 0 1.02 0 0 Z " fill="#3A3A39" transform="translate(539,707)"/>
<path d="M0 0 C1.98 0.495 1.98 0.495 4 1 C3.67 2.32 3.34 3.64 3 5 C1.68 4.34 0.36 3.68 -1 3 C-0.67 2.01 -0.34 1.02 0 0 Z " fill="#171717" transform="translate(305,682)"/>
<path d="M0 0 C2.97 0.33 5.94 0.66 9 1 C9 1.33 9 1.66 9 2 C6.69 2 4.38 2 2 2 C1.67 2.66 1.34 3.32 1 4 C0.01 3.67 -0.98 3.34 -2 3 C-1.34 2.01 -0.68 1.02 0 0 Z " fill="#474848" transform="translate(454,635)"/>
<path d="M0 0 C1.98 0.495 1.98 0.495 4 1 C3.34 2.32 2.68 3.64 2 5 C1.01 4.34 0.02 3.68 -1 3 C-0.67 2.01 -0.34 1.02 0 0 Z " fill="#0F0E0E" transform="translate(613,682)"/>
<path d="M0 0 C-0.33 1.32 -0.66 2.64 -1 4 C-2.65 3.67 -4.3 3.34 -6 3 C-3.375 0 -3.375 0 0 0 Z " fill="#252626" transform="translate(486,633)"/>
<path d="M0 0 C0.99 0 1.98 0 3 0 C3 0.66 3 1.32 3 2 C3.66 2.33 4.32 2.66 5 3 C3.68 3 2.36 3 1 3 C0.67 4.65 0.34 6.3 0 8 C-0.33 8 -0.66 8 -1 8 C-1.042 5.667 -1.041 3.333 -1 1 C-0.67 0.67 -0.34 0.34 0 0 Z " fill="#686868" transform="translate(516,633)"/>
<path d="M0 0 C0.66 0.66 1.32 1.32 2 2 C-1.371 3.498 -3.204 4 -7 4 C-7 3.34 -7 2.68 -7 2 C-4.69 1.34 -2.38 0.68 0 0 Z " fill="#1575FE" transform="translate(728,418)"/>
<path d="M0 0 C6.75 1.75 6.75 1.75 9 4 C8.01 4.495 8.01 4.495 7 5 C4.64 4.064 2.304 3.067 0 2 C0 1.34 0 0.68 0 0 Z " fill="#1176FF" transform="translate(328,317)"/>
</svg>
