<?xml version="1.0" encoding="UTF-8"?>
<!-- Generator: visioncortex VTracer 0.6.4 -->
<svg version="1.1" xmlns="http://www.w3.org/2000/svg" width="1024" height="1024">
<path d="M0 0 C337.92 0 675.84 0 1024 0 C1024 337.92 1024 675.84 1024 1024 C686.08 1024 348.16 1024 0 1024 C0 686.08 0 348.16 0 0 Z " fill="#353FE4" transform="translate(0,0)"/>
<path d="M0 0 C0.79 -0.008 1.58 -0.015 2.395 -0.023 C17.464 0.026 30.533 5.726 41.398 16.055 C52.53 27.77 56.106 42.991 55.719 58.75 C54.939 71.223 50.781 82.775 42.5 92.25 C42.023 92.843 41.546 93.436 41.055 94.047 C31.976 104.357 17.298 108.705 4.023 109.598 C-11.367 110.264 -24.374 107.163 -36.5 97.25 C-37.387 96.652 -38.274 96.054 -39.188 95.438 C-49.098 86.062 -54.292 73.232 -54.836 59.762 C-55.119 41.586 -52.006 28.431 -39.562 14.562 C-28.829 4.326 -14.562 -0.143 0 0 Z " fill="#FCFCFE" transform="translate(356.5,348.75)"/>
<path d="M0 0 C10.481 8.457 17.649 20.724 20 34 C21.355 50.395 20.359 66.438 9.859 79.832 C9.246 80.547 8.632 81.263 8 82 C7.428 82.705 6.855 83.41 6.266 84.137 C-1.386 92.72 -13.349 98.325 -24.783 99.217 C-43.454 99.945 -57.404 98.304 -72.254 86.156 C-81.386 77.7 -87.252 65.061 -88.177 52.619 C-88.647 33.712 -86.7 19.251 -73.312 4.75 C-52.972 -14.338 -22.702 -14.989 0 0 Z " fill="#FCFCFE" transform="translate(477,518)"/>
<path d="M0 0 C11.466 9.806 18.459 21.912 20.402 37.027 C21.652 54.353 17.904 70.299 6.59 83.84 C-3.583 94.567 -15.992 99.131 -30.56 99.571 C-47.341 99.673 -60.74 96.47 -73.41 84.715 C-85.9 71.299 -88.288 54.866 -87.729 37.315 C-86.925 23.347 -79.718 11.367 -69.598 2.027 C-49.977 -13.146 -20.261 -15.386 0 0 Z " fill="#FCFCFE" transform="translate(602.59765625,517.97265625)"/>
<path d="M0 0 C1.241 -0.046 2.483 -0.092 3.762 -0.139 C4.959 -0.153 6.157 -0.168 7.391 -0.184 C8.489 -0.209 9.588 -0.234 10.72 -0.26 C14.159 0.532 15.537 1.738 17.612 4.564 C19.727 8.046 21.242 11.722 22.746 15.5 C23.28 16.803 23.28 16.803 23.825 18.131 C24.956 20.896 26.072 23.666 27.188 26.438 C28.299 29.171 29.415 31.903 30.53 34.635 C31.253 36.409 31.974 38.185 32.693 39.961 C35.263 46.299 37.952 52.575 40.739 58.82 C41.75 61.438 41.75 61.438 41.75 64.438 C42.41 64.438 43.07 64.438 43.75 64.438 C43.87 63.725 43.99 63.012 44.113 62.278 C44.777 59.318 45.748 56.778 46.943 53.992 C47.624 52.395 47.624 52.395 48.319 50.766 C48.81 49.626 49.302 48.487 49.809 47.312 C50.579 45.51 51.35 43.708 52.12 41.905 C53.199 39.387 54.281 36.87 55.364 34.353 C56.994 30.56 58.618 26.765 60.243 22.97 C61.508 20.015 62.774 17.062 64.042 14.109 C64.728 12.512 64.728 12.512 65.427 10.883 C66.029 9.483 66.029 9.483 66.643 8.055 C67.712 5.528 68.74 2.989 69.75 0.438 C73.833 0.292 77.915 0.203 82 0.125 C83.159 0.083 84.318 0.041 85.512 -0.002 C94.106 -0.126 94.106 -0.126 97.484 2.832 C97.902 3.692 98.32 4.552 98.75 5.438 C99.245 6.428 99.245 6.428 99.75 7.438 C99.841 8.768 99.872 10.103 99.87 11.436 C99.872 12.69 99.872 12.69 99.874 13.969 C99.869 15.347 99.869 15.347 99.864 16.752 C99.864 17.718 99.864 18.684 99.864 19.679 C99.863 22.883 99.855 26.086 99.848 29.289 C99.846 31.506 99.844 33.723 99.843 35.939 C99.84 41.782 99.83 47.625 99.819 53.467 C99.808 59.426 99.804 65.385 99.799 71.344 C99.788 83.042 99.77 94.74 99.75 106.438 C92.82 106.438 85.89 106.438 78.75 106.438 C78.75 81.358 78.75 56.277 78.75 30.438 C78.09 30.438 77.43 30.438 76.75 30.438 C76.591 31.706 76.591 31.706 76.428 32.999 C75.692 36.73 74.425 39.993 72.898 43.449 C72.607 44.123 72.316 44.798 72.016 45.492 C71.058 47.706 70.092 49.915 69.125 52.125 C68.456 53.667 67.788 55.209 67.121 56.751 C65.722 59.982 64.32 63.212 62.917 66.441 C59.688 73.875 56.504 81.328 53.316 88.779 C51.714 92.524 50.109 96.268 48.504 100.012 C47.966 101.268 47.427 102.524 46.889 103.78 C46.513 104.657 46.137 105.534 45.75 106.438 C43.5 106.75 43.5 106.75 40.75 106.438 C36.874 102.74 35.073 98.081 33.062 93.219 C32.719 92.407 32.376 91.595 32.022 90.758 C30.924 88.154 29.837 85.546 28.75 82.938 C28.051 81.278 27.352 79.619 26.652 77.961 C20.282 62.815 14.032 47.62 7.75 32.438 C7.42 56.858 7.09 81.278 6.75 106.438 C0.15 106.438 -6.45 106.438 -13.25 106.438 C-14.4 104.138 -14.376 102.85 -14.377 100.293 C-14.38 99.425 -14.383 98.558 -14.386 97.663 C-14.384 96.709 -14.381 95.755 -14.379 94.771 C-14.381 93.768 -14.383 92.765 -14.385 91.731 C-14.389 88.403 -14.386 85.074 -14.383 81.746 C-14.383 79.442 -14.384 77.138 -14.386 74.834 C-14.387 70.001 -14.385 65.168 -14.38 60.335 C-14.375 54.125 -14.378 47.915 -14.384 41.705 C-14.388 36.946 -14.386 32.188 -14.384 27.429 C-14.383 25.139 -14.384 22.848 -14.386 20.557 C-14.389 17.363 -14.385 14.169 -14.379 10.974 C-14.381 10.018 -14.383 9.062 -14.386 8.076 C-14.383 7.211 -14.38 6.346 -14.377 5.455 C-14.377 4.699 -14.376 3.942 -14.376 3.164 C-14.002 -1.965 -3.781 0.056 0 0 Z " fill="#FDFDFE" transform="translate(449.25,349.5625)"/>
<path d="M0 0 C9.353 5.121 13.501 15.898 18.108 25.004 C19.737 28.222 21.384 31.432 23.031 34.641 C23.361 35.283 23.69 35.925 24.029 36.587 C27.065 42.487 30.228 48.313 33.43 54.125 C34.394 55.889 35.357 57.653 36.32 59.418 C37.578 61.722 38.838 64.024 40.119 66.315 C47.729 79.961 47.729 79.961 45.93 88.188 C43.879 94.405 40.728 97.746 35.242 101.272 C31.995 102.558 28.867 102.474 25.427 102.462 C24.676 102.467 23.926 102.472 23.153 102.478 C20.676 102.492 18.2 102.491 15.723 102.488 C13.996 102.492 12.27 102.497 10.544 102.501 C6.925 102.509 3.306 102.508 -0.313 102.503 C-4.94 102.497 -9.566 102.514 -14.193 102.538 C-17.759 102.552 -21.325 102.553 -24.892 102.55 C-26.597 102.551 -28.302 102.556 -30.007 102.566 C-32.398 102.578 -34.788 102.571 -37.179 102.56 C-37.877 102.567 -38.575 102.575 -39.294 102.583 C-45.559 102.516 -50.054 100.929 -54.82 96.812 C-59.421 91.445 -60.813 87.605 -60.619 80.573 C-59.558 74.025 -56.143 68.545 -52.883 62.875 C-52.149 61.556 -51.417 60.235 -50.687 58.914 C-48.855 55.608 -46.993 52.32 -45.121 49.036 C-43.543 46.26 -41.987 43.471 -40.43 40.684 C-37.81 36.007 -35.159 31.35 -32.497 26.697 C-31.117 24.27 -29.758 21.833 -28.406 19.391 C-27.793 18.285 -27.793 18.285 -27.168 17.158 C-26.428 15.821 -25.691 14.483 -24.959 13.143 C-19.734 3.737 -11.485 -4.507 0 0 Z " fill="#FDFCFE" transform="translate(518.0703125,155.8125)"/>
<path d="M0 0 C3.395 -0.146 6.79 -0.234 10.188 -0.312 C11.147 -0.354 12.107 -0.396 13.096 -0.439 C20.276 -0.564 20.276 -0.564 24.072 2.392 C24.708 3.253 25.344 4.113 26 5 C26.549 5.674 27.097 6.348 27.662 7.042 C28.388 8.034 28.388 8.034 29.129 9.047 C29.96 10.177 29.96 10.177 30.807 11.33 C31.386 12.129 31.966 12.927 32.562 13.75 C33.176 14.589 33.79 15.428 34.422 16.293 C38.847 22.364 43.2 28.485 47.516 34.634 C51.264 39.971 55.057 45.275 58.875 50.562 C59.398 51.288 59.922 52.014 60.461 52.762 C63.924 57.55 67.453 62.271 71 67 C71.33 44.89 71.66 22.78 72 0 C78.6 0 85.2 0 92 0 C93 1 93 1 93.123 2.763 C93.122 3.536 93.121 4.31 93.12 5.106 C93.122 6.434 93.122 6.434 93.124 7.788 C93.119 9.255 93.119 9.255 93.114 10.752 C93.114 11.776 93.114 12.801 93.114 13.856 C93.113 17.26 93.105 20.663 93.098 24.066 C93.096 26.419 93.094 28.772 93.093 31.124 C93.09 37.331 93.08 43.537 93.069 49.743 C93.058 56.07 93.054 62.397 93.049 68.725 C93.038 81.15 93.021 93.575 93 106 C89.936 106.135 86.878 106.234 83.812 106.312 C82.948 106.354 82.084 106.396 81.193 106.439 C76.618 106.527 74.678 106.539 70.984 103.601 C70.329 102.743 69.675 101.884 69 101 C68.487 100.362 67.974 99.723 67.445 99.066 C67.01 98.452 66.574 97.839 66.125 97.207 C65.622 96.504 65.118 95.801 64.6 95.076 C64.072 94.329 63.544 93.582 63 92.812 C61.844 91.194 60.688 89.575 59.531 87.957 C58.945 87.133 58.358 86.309 57.754 85.459 C55.021 81.627 52.26 77.814 49.5 74 C48.423 72.509 47.346 71.018 46.27 69.527 C45.734 68.786 45.199 68.045 44.647 67.281 C42.956 64.939 41.265 62.596 39.574 60.254 C39.007 59.468 38.44 58.683 37.855 57.873 C36.792 56.399 35.728 54.925 34.664 53.451 C30.457 47.624 26.228 41.813 22 36 C21.67 59.1 21.34 82.2 21 106 C14.4 106 7.8 106 1 106 C0 105 0 105 -0.123 103.237 C-0.122 102.464 -0.121 101.69 -0.12 100.894 C-0.122 100.009 -0.123 99.124 -0.124 98.212 C-0.121 97.234 -0.117 96.256 -0.114 95.248 C-0.114 94.224 -0.114 93.199 -0.114 92.144 C-0.113 88.74 -0.105 85.337 -0.098 81.934 C-0.096 79.581 -0.094 77.228 -0.093 74.876 C-0.09 68.669 -0.08 62.463 -0.069 56.257 C-0.058 49.93 -0.054 43.603 -0.049 37.275 C-0.038 24.85 -0.021 12.425 0 0 Z " fill="#FDFCFE" transform="translate(623,350)"/>
<path d="M0 0 C0.851 -0.037 1.703 -0.075 2.58 -0.113 C6.923 -0.174 9.26 0.038 13.039 2.344 C16.598 5.86 19.274 10.081 22 14.25 C23.148 15.968 24.297 17.684 25.449 19.398 C26.301 20.668 26.301 20.668 27.169 21.964 C29.465 25.333 31.874 28.609 34.312 31.875 C39.636 39.036 44.663 46.387 49.672 53.77 C53.011 58.666 56.414 63.52 59.812 68.375 C60.143 45.935 60.472 23.495 60.812 0.375 C66.092 0.375 71.372 0.375 76.812 0.375 C81.812 5.375 81.812 5.375 82.428 7.568 C82.423 8.308 82.419 9.048 82.414 9.811 C82.421 10.667 82.428 11.524 82.435 12.407 C82.417 13.333 82.399 14.26 82.38 15.214 C82.381 16.2 82.382 17.186 82.382 18.202 C82.379 21.454 82.34 24.705 82.301 27.957 C82.291 30.214 82.284 32.472 82.279 34.729 C82.26 40.666 82.211 46.602 82.156 52.538 C82.105 58.598 82.082 64.657 82.057 70.717 C82.003 82.603 81.918 94.489 81.812 106.375 C78.749 106.51 75.691 106.609 72.625 106.688 C71.761 106.729 70.896 106.771 70.006 106.814 C65.428 106.902 63.49 106.914 59.795 103.974 C58.814 102.688 58.814 102.688 57.812 101.375 C57.051 100.433 57.051 100.433 56.274 99.472 C55.844 98.872 55.415 98.271 54.973 97.652 C54.475 96.96 53.976 96.267 53.463 95.553 C52.677 94.444 52.677 94.444 51.875 93.312 C51.032 92.134 51.032 92.134 50.172 90.931 C44.263 82.65 38.435 74.31 32.618 65.964 C29.5 61.494 26.375 57.028 23.25 52.562 C22.678 51.745 22.107 50.927 21.518 50.084 C20.974 49.308 20.431 48.531 19.871 47.73 C19.4 47.057 18.929 46.383 18.443 45.688 C16.248 42.573 14.027 39.476 11.812 36.375 C11.482 59.475 11.153 82.575 10.812 106.375 C4.872 106.375 -1.067 106.375 -7.188 106.375 C-10.188 103.375 -10.188 103.375 -10.559 101.416 C-10.558 100.668 -10.557 99.919 -10.555 99.149 C-10.561 98.288 -10.566 97.427 -10.572 96.54 C-10.563 95.598 -10.553 94.657 -10.544 93.687 C-10.547 92.196 -10.547 92.196 -10.55 90.676 C-10.553 87.385 -10.535 84.095 -10.516 80.805 C-10.513 78.525 -10.511 76.244 -10.51 73.964 C-10.505 69.184 -10.491 64.404 -10.469 59.625 C-10.44 53.483 -10.43 47.341 -10.425 41.199 C-10.421 36.491 -10.411 31.783 -10.399 27.076 C-10.393 24.81 -10.389 22.545 -10.385 20.279 C-10.378 17.121 -10.364 13.962 -10.349 10.804 C-10.348 9.859 -10.346 8.913 -10.345 7.939 C-10.285 -1.046 -8.082 0.132 0 0 Z " fill="#FCFCFE" transform="translate(653.1875,509.625)"/>
<path d="M0 0 C12.587 9.691 12.587 9.691 13.395 15.844 C10.98 16.994 8.563 18.139 6.145 19.281 C5.122 19.769 5.122 19.769 4.078 20.268 C3.414 20.58 2.75 20.893 2.066 21.215 C1.155 21.647 1.155 21.647 0.226 22.088 C-1.694 22.88 -3.581 23.389 -5.605 23.844 C-6.08 23.122 -6.554 22.4 -7.043 21.656 C-12.001 16.215 -19.582 12.386 -26.883 11.402 C-38.046 11.033 -46.191 13.436 -54.895 20.773 C-62.357 28.681 -64.937 37.997 -64.82 48.613 C-64.166 58.446 -60.79 66.562 -53.918 73.594 C-45.397 80.162 -34.987 81.496 -24.605 80.844 C-21.071 80.217 -17.919 79.208 -14.605 77.844 C-13.438 77.438 -13.438 77.438 -12.246 77.023 C-9.692 75.873 -8.327 75.073 -6.605 72.844 C-5.631 68.158 -5.502 63.619 -5.605 58.844 C-6.388 58.849 -7.17 58.854 -7.976 58.86 C-11.499 58.88 -15.021 58.893 -18.543 58.906 C-19.775 58.915 -21.006 58.923 -22.275 58.932 C-23.445 58.935 -24.615 58.938 -25.82 58.941 C-27.446 58.949 -27.446 58.949 -29.105 58.957 C-31.605 58.844 -31.605 58.844 -32.605 57.844 C-32.605 52.234 -32.605 46.624 -32.605 40.844 C-17.425 40.844 -2.245 40.844 13.395 40.844 C13.477 47.155 13.56 53.466 13.645 59.969 C13.681 61.95 13.717 63.932 13.755 65.973 C13.767 67.558 13.777 69.142 13.785 70.727 C13.806 71.538 13.826 72.349 13.847 73.185 C13.851 79.57 11.936 82.973 7.676 87.785 C2.199 92.77 -3.671 95.375 -10.605 97.844 C-11.572 98.198 -12.539 98.553 -13.535 98.918 C-28.469 103.421 -45.911 101.819 -59.922 95.301 C-72.974 88.162 -80.285 78.752 -84.809 64.773 C-89.019 49.293 -87.775 31.475 -80.18 17.289 C-72.258 4.984 -60.604 -3.785 -46.363 -7.273 C-30.725 -10.541 -13.54 -8.802 0 0 Z " fill="#FDFBFE" transform="translate(824.60546875,357.15625)"/>
<path d="M0 0 C1.05 0.504 1.05 0.504 2.122 1.018 C6.112 3.053 7.299 3.911 9.375 8.062 C5.745 12.352 2.115 16.643 -1.625 21.062 C-5.061 20.203 -7.262 19.281 -10.312 17.625 C-19.535 12.953 -29.527 11.285 -39.562 14.375 C-42.609 15.42 -44.642 16.481 -46.625 19.062 C-47.209 21.162 -47.209 21.162 -47.188 23.438 C-47.23 24.188 -47.273 24.938 -47.316 25.711 C-46.231 29.404 -43.85 31.223 -40.625 33.062 C-37.225 34.274 -33.782 35.026 -30.25 35.75 C-28.43 36.149 -26.609 36.549 -24.789 36.949 C-23.915 37.136 -23.04 37.323 -22.14 37.516 C-10.454 40.056 -0.451 43.285 6.984 53.211 C11.737 61.247 11.656 70.274 9.676 79.223 C6.773 88.127 2.194 93.496 -5.988 97.922 C-14.253 101.497 -21.275 102.583 -30.312 102.5 C-32.04 102.489 -32.04 102.489 -33.803 102.477 C-47.431 102.213 -59.403 99.28 -69.895 90.07 C-71.625 88.062 -71.625 88.062 -71.688 84.938 C-70.665 79.947 -68.043 75.497 -65.625 71.062 C-61.832 71.611 -59.551 72.584 -56.5 74.875 C-45.932 82.053 -35.16 83.539 -22.625 82.062 C-18.388 81.011 -14.84 79.961 -12.418 76.176 C-10.804 71.874 -11.183 67.389 -12.625 63.062 C-19.396 58.817 -28.271 57.318 -36.004 55.66 C-47.171 53.242 -58.671 49.805 -65.625 40.062 C-70.128 32.334 -71.175 23.949 -68.895 15.289 C-65.023 4.766 -58.281 -0.254 -48.457 -4.98 C-32.851 -10.864 -14.42 -6.951 0 0 Z " fill="#FBFBFE" transform="translate(362.625,514.9375)"/>
<path d="M0 0 C0.73 0.277 1.459 0.554 2.211 0.84 C11.078 4.642 17.559 11.637 22 20 C19.23 21.315 16.459 22.627 13.688 23.938 C12.902 24.311 12.116 24.684 11.307 25.068 C10.171 25.605 10.171 25.605 9.012 26.152 C8.315 26.482 7.619 26.812 6.901 27.152 C5 28 5 28 2 29 C1.599 28.469 1.198 27.938 0.785 27.391 C-4.384 20.967 -9.903 17.622 -18 16 C-28.436 15.215 -36.883 16.538 -45.148 23.207 C-52.813 30.629 -56.102 39.441 -56.375 49.938 C-56.117 59.936 -53.712 68.383 -47 76 C-39.478 82.38 -31.659 85.608 -21.797 85.281 C-13.429 84.44 -6.482 81.364 0 76 C0.99 74.515 0.99 74.515 2 73 C4.917 73.611 7.134 74.513 9.672 76.066 C10.336 76.469 11 76.872 11.684 77.287 C12.366 77.708 13.047 78.129 13.75 78.562 C14.447 78.987 15.145 79.412 15.863 79.85 C17.578 80.895 19.29 81.947 21 83 C14.548 94.316 4.794 100.142 -7.5 103.875 C-23.891 107.436 -41.156 105.905 -55.428 96.786 C-67.266 88.69 -74.427 77.701 -77.527 63.594 C-79.967 45.046 -77.585 29.501 -66.633 14.074 C-51.524 -5.175 -21.662 -9.17 0 0 Z " fill="#FBFCFE" transform="translate(266,353)"/>
<path d="M0 0 C9.77 6.89 14.918 15.293 17 27 C18.196 37.315 15.441 46.803 9 55 C2.829 62.028 -4.582 66.453 -13.977 67.254 C-24.27 67.628 -31.275 65.549 -39.25 59 C-45.936 52.651 -50.519 44.191 -51.238 34.934 C-51.48 23.527 -49.391 14.868 -41.992 6.008 C-30.731 -5.342 -14.123 -7.747 0 0 Z " fill="#2E34ED" transform="translate(374,372)"/>
<path d="M0 0 C8.197 4.824 13.852 12.194 16.527 21.359 C18.625 33.081 16.821 42.905 11.25 53.25 C4.678 61.282 -2.371 66.286 -12.844 67.414 C-21.238 67.849 -27.923 66.821 -35 62 C-35.908 61.423 -36.815 60.845 -37.75 60.25 C-45.94 52.06 -49.079 42.984 -49.438 31.562 C-49.172 20.576 -45.789 11.85 -38 4 C-26.673 -5.196 -13.013 -7.165 0 0 Z " fill="#2A37EC" transform="translate(459,531)"/>
<path d="M0 0 C8.647 6.137 14.702 14.176 16.809 24.711 C17.778 35.124 16.113 45.56 9.934 54.211 C4.618 60.521 -1.693 65.866 -10.099 66.959 C-20.804 67.845 -28.765 66.747 -37.395 59.984 C-44.007 54.034 -48.803 45.267 -49.43 36.305 C-49.736 25.085 -48.333 15.574 -41.027 6.562 C-29.764 -4.796 -14.259 -8.388 0 0 Z " fill="#312EE9" transform="translate(585.19140625,531.2890625)"/>
<path d="M0 0 C3.125 -0.087 6.249 -0.14 9.375 -0.188 C10.709 -0.225 10.709 -0.225 12.07 -0.264 C13.346 -0.278 13.346 -0.278 14.648 -0.293 C15.827 -0.317 15.827 -0.317 17.029 -0.341 C17.679 -0.228 18.33 -0.116 19 0 C21.078 3.117 21.249 3.777 21.241 7.309 C21.243 8.188 21.246 9.067 21.249 9.973 C21.242 10.935 21.234 11.897 21.227 12.887 C21.227 13.902 21.228 14.917 21.228 15.963 C21.227 19.323 21.211 22.683 21.195 26.043 C21.192 28.37 21.189 30.698 21.187 33.025 C21.179 39.156 21.159 45.286 21.137 51.416 C21.117 57.67 21.108 63.924 21.098 70.178 C21.076 82.452 21.042 94.726 21 107 C17.896 107.087 14.792 107.14 11.688 107.188 C10.806 107.213 9.925 107.238 9.018 107.264 C8.17 107.273 7.322 107.283 6.449 107.293 C5.669 107.309 4.889 107.324 4.085 107.341 C2 107 2 107 0.245 105.743 C-1.289 103.595 -1.373 102.449 -1.367 99.825 C-1.376 98.551 -1.376 98.551 -1.384 97.25 C-1.375 96.322 -1.366 95.393 -1.356 94.436 C-1.358 93.455 -1.361 92.474 -1.363 91.464 C-1.366 88.215 -1.347 84.967 -1.328 81.719 C-1.325 79.466 -1.323 77.213 -1.322 74.96 C-1.318 70.235 -1.303 65.511 -1.281 60.787 C-1.253 54.723 -1.242 48.66 -1.238 42.597 C-1.233 37.944 -1.224 33.291 -1.212 28.638 C-1.206 26.402 -1.201 24.166 -1.197 21.93 C-1.191 18.808 -1.177 15.686 -1.161 12.564 C-1.16 11.636 -1.159 10.707 -1.158 9.75 C-1.152 8.9 -1.146 8.05 -1.14 7.175 C-1.137 6.437 -1.134 5.699 -1.131 4.938 C-1 3 -1 3 0 0 Z " fill="#F7F5FD" transform="translate(576,350)"/>
<path d="M0 0 C2.658 2.374 4.107 4.821 5.715 7.988 C6.231 8.995 6.747 10.001 7.278 11.038 C7.826 12.119 8.373 13.199 8.938 14.312 C13.882 23.962 18.955 33.524 24.217 43.005 C24.685 43.854 25.154 44.703 25.637 45.578 C26.046 46.315 26.456 47.051 26.878 47.81 C28.069 50.135 29.03 52.574 30 55 C10.2 55 -9.6 55 -30 55 C-28.591 51.479 -27.207 48.371 -25.418 45.07 C-24.904 44.121 -24.39 43.171 -23.861 42.192 C-23.308 41.18 -22.756 40.168 -22.188 39.125 C-21.618 38.077 -21.048 37.03 -20.462 35.95 C-4.685 7.027 -4.685 7.027 0 0 Z " fill="#4E1EE8" transform="translate(511,182)"/>
<path d="M0 0 C6.705 2.98 9.749 8.782 12.312 15.375 C14.143 25.027 13.12 33.853 7.539 42.18 C4.495 45.904 1.766 48.567 -3.148 49.336 C-8.628 49.432 -11.698 48.702 -16 45 C-22.011 38.646 -24.349 30.864 -24.219 22.246 C-23.428 14.131 -20.441 7.19 -14.438 1.625 C-9.559 -0.681 -5.305 -0.76 0 0 Z " fill="#F5F5FD" transform="translate(584,714)"/>
<path d="M0 0 C2.31 0 4.62 0 7 0 C7.33 1.32 7.66 2.64 8 4 C8.969 3.34 9.939 2.68 10.938 2 C15.286 -0.474 19.097 -0.726 24 0 C29.273 1.825 31.797 4.607 35 9 C36.918 14.754 36.893 20.806 34.375 26.375 C32.132 30.182 30.168 32.245 26 34 C21.596 34.533 17.382 34.746 13 34 C11.35 32.68 9.7 31.36 8 30 C7.67 36.27 7.34 42.54 7 49 C4.69 49 2.38 49 0 49 C0 32.83 0 16.66 0 0 Z " fill="#FAFAFE" transform="translate(396,728)"/>
<path d="M0 0 C2.051 0.033 4.102 0.065 6.152 0.098 C10.518 8.626 14.541 17.268 18.402 26.035 C18.931 27.227 19.459 28.419 20.004 29.646 C22.792 35.947 22.792 35.947 24.152 39.098 C24.536 39.984 24.92 40.87 25.315 41.783 C26.152 44.098 26.152 44.098 26.152 47.098 C23.842 47.098 21.532 47.098 19.152 47.098 C17.502 43.798 15.852 40.498 14.152 37.098 C6.232 37.098 -1.688 37.098 -9.848 37.098 C-11.828 42.048 -11.828 42.048 -13.848 47.098 C-16.818 47.098 -19.788 47.098 -22.848 47.098 C-17.84 34.87 -12.752 22.69 -7.285 10.66 C-6.642 9.241 -6.642 9.241 -5.985 7.792 C-2.476 0.131 -2.476 0.131 0 0 Z " fill="#F6F8FD" transform="translate(363.84765625,714.90234375)"/>
<path d="M0 0 C3.93 3.275 5.676 5.372 6.562 10.438 C6.97 15.495 5.585 19.12 2.625 23.188 C-2.418 28.489 -7.95 33.285 -13.375 38.188 C-6.775 38.518 -0.175 38.847 6.625 39.188 C7.12 42.653 7.12 42.653 7.625 46.188 C-3.925 46.188 -15.475 46.188 -27.375 46.188 C-25.454 36.584 -18.701 31.459 -11.402 25.488 C-4.81 20.229 -4.81 20.229 -1.875 12.625 C-2.132 9.197 -2.132 9.197 -3.938 6.75 C-7.385 4.54 -9.356 4.482 -13.375 5.188 C-16.026 7.411 -17.827 10.091 -19.375 13.188 C-22.312 12.375 -22.312 12.375 -25.375 11.188 C-25.705 10.197 -26.035 9.207 -26.375 8.188 C-20.246 -1.812 -10.493 -5.635 0 0 Z " fill="#F4F4FD" transform="translate(629.375,715.8125)"/>
<path d="M0 0 C4.483 2.957 8.294 5.901 9.453 11.371 C9.728 17.814 7.881 22.67 3.549 27.479 C2.051 28.933 0.514 30.318 -1.062 31.688 C-1.583 32.155 -2.104 32.623 -2.641 33.105 C-5.352 35.522 -8.116 37.813 -11.062 39.938 C-10.162 39.975 -10.162 39.975 -9.242 40.013 C-6.536 40.129 -3.831 40.252 -1.125 40.375 C-0.179 40.414 0.766 40.454 1.74 40.494 C3.089 40.557 3.089 40.557 4.465 40.621 C5.297 40.658 6.13 40.694 6.988 40.732 C8.938 40.938 8.938 40.938 9.938 41.938 C9.938 43.918 9.938 45.898 9.938 47.938 C-1.283 47.938 -12.503 47.938 -24.062 47.938 C-24.062 41.485 -22.155 40.209 -17.918 35.695 C-14.291 32.192 -10.472 28.966 -6.493 25.869 C-2.841 22.942 -0.756 20.306 0.938 15.938 C0.868 12.418 0.616 10.692 -1.75 8.062 C-4.847 6.556 -6.654 6.381 -10.062 6.938 C-12.635 9.11 -14.552 10.917 -16.062 13.938 C-19.033 13.442 -19.033 13.442 -22.062 12.938 C-23.062 9.938 -23.062 9.938 -21.688 7.062 C-16.523 -0.085 -8.271 -2.87 0 0 Z " fill="#F5F5FD" transform="translate(543.0625,714.0625)"/>
<path d="M0 0 C3.813 1.47 5.724 3.586 8 7 C8.301 9.34 8.301 9.34 8.312 11.938 C8.329 12.792 8.346 13.647 8.363 14.527 C7.93 17.476 7.042 18.858 5 21 C4.34 21 3.68 21 3 21 C3.763 21.722 4.526 22.444 5.312 23.188 C9.342 27.404 11.304 29.947 11.188 35.875 C10.496 41.195 8.122 43.497 4.008 46.723 C-0.443 49.554 -4.904 49.454 -10 49 C-15.597 47.733 -19.304 45.504 -23 41 C-23 40.34 -23 39.68 -23 39 C-18.529 35 -18.529 35 -16 35 C-14.646 36.65 -13.313 38.317 -12 40 C-8.801 41.599 -5.479 41.357 -2 41 C0.618 40.204 0.618 40.204 2 38 C2.612 35.2 2.665 32.794 2 30 C-1.477 26.734 -5.367 26.454 -10 26 C-10 23.69 -10 21.38 -10 19 C-7.03 18.34 -4.06 17.68 -1 17 C0.133 12.428 0.133 12.428 -1 8.062 C-4.155 6.386 -6.489 6.576 -10 7 C-11.693 8.299 -13.364 9.629 -15 11 C-17.188 11 -17.188 11 -19 10 C-19.708 8.688 -20.38 7.355 -21 6 C-14.726 -0.369 -8.74 -1.352 0 0 Z " fill="#F6F6FD" transform="translate(666,714)"/>
<path d="M0 0 C3.95 0.553 5.387 1.551 8.125 4.438 C12.18 10.869 11.894 18.036 11.125 25.438 C9.742 30.358 8.425 33.571 4.125 36.438 C-0.233 37.002 -2.135 36.997 -5.688 34.312 C-10.857 27.518 -10.651 19.642 -9.875 11.438 C-8.279 6.241 -5.699 0.867 0 0 Z " fill="#2434E8" transform="translate(577.875,719.5625)"/>
<path d="M0 0 C-2.074 1.69 -3.855 2.944 -6.363 3.91 C-14.497 7.272 -19.52 13.09 -23 21 C-23.371 21.789 -23.742 22.578 -24.125 23.391 C-25.153 26.456 -25.163 28.901 -25.062 32.125 C-24.965 35.522 -24.92 37.759 -26 41 C-25.34 41.33 -24.68 41.66 -24 42 C-23.586 44.066 -23.586 44.066 -23.375 46.562 C-23.3 47.389 -23.225 48.215 -23.148 49.066 C-23.075 50.024 -23.075 50.024 -23 51 C-22.01 51.33 -21.02 51.66 -20 52 C-19.641 53.327 -19.31 54.661 -19 56 C-14.499 61.662 -7.9 64.478 -1 66 C9.498 67.11 19.019 65.861 28.316 60.719 C30.261 59.072 30.261 59.072 30.391 56.301 C30.344 55.315 30.298 54.329 30.25 53.312 C30.196 51.822 30.196 51.822 30.141 50.301 C30.094 49.542 30.048 48.782 30 48 C29.138 48.016 29.138 48.016 28.259 48.032 C25.631 48.074 23.003 48.099 20.375 48.125 C19.471 48.142 18.568 48.159 17.637 48.176 C12.689 48.212 8.619 48.018 4 46 C1.899 43.899 2.815 39.459 2.812 36.562 C2.8 35.773 2.788 34.983 2.775 34.17 C2.77 32.112 2.878 30.054 3 28 C6.086 24.914 9.804 25.621 13.953 25.551 C14.846 25.529 15.739 25.507 16.659 25.485 C18.552 25.441 20.445 25.402 22.338 25.367 C25.225 25.313 28.11 25.243 30.996 25.17 C32.836 25.129 34.676 25.089 36.516 25.051 C37.375 25.03 38.235 25.009 39.12 24.988 C43.516 24.914 47.706 24.908 52 26 C54.607 31.214 53.441 39.376 53.515 45.174 C53.546 47.087 53.594 49.001 53.658 50.914 C54.254 68.851 54.254 68.851 49.207 74.625 C47.109 76.48 47.109 76.48 45 78 C44.338 78.512 43.677 79.024 42.995 79.551 C41.37 80.756 39.689 81.885 38 83 C37.34 83.66 36.68 84.32 36 85 C35.34 85 34.68 85 34 85 C32.597 85.48 31.202 85.983 29.812 86.5 C25.648 87.935 22.377 88.279 18 88 C20.797 86.136 23.34 85.127 26.497 84.047 C36.494 80.597 44.648 76.59 50 67 C50.58 63.959 50.605 60.973 50.609 57.883 C50.625 57.122 50.641 56.362 50.657 55.578 C50.709 52.761 50.728 49.943 50.75 47.125 C50.832 40.814 50.915 34.502 51 28 C35.82 28 20.64 28 5 28 C5.495 36.415 5.495 36.415 6 45 C18.87 45.495 18.87 45.495 32 46 C32.488 56.547 32.488 56.547 32 60 C29.053 63.099 25.903 64.686 21.938 66.188 C21.101 66.511 20.264 66.835 19.402 67.168 C9.039 70.757 -1.177 69.685 -11 65 C-19.705 60.237 -24.085 53.299 -27 44 C-29.567 33.252 -28.267 23.285 -22.68 13.746 C-18.447 7.651 -8.08 -3.419 0 0 Z " fill="#5617DE" transform="translate(787,370)"/>
<path d="M0 0 C2.938 0.114 5.875 0.241 8.812 0.375 C10.063 0.421 10.063 0.421 11.338 0.469 C12.542 0.527 12.542 0.527 13.77 0.586 C14.877 0.633 14.877 0.633 16.007 0.681 C18 1 18 1 21 3 C21 3.66 21 4.32 21 5 C21.99 5.495 21.99 5.495 23 6 C22.67 39.99 22.34 73.98 22 109 C21.67 109 21.34 109 21 109 C20.985 107.071 20.985 107.071 20.969 105.103 C20.871 93.007 20.768 80.911 20.661 68.815 C20.605 62.596 20.552 56.377 20.503 50.157 C20.455 44.16 20.403 38.162 20.347 32.165 C20.327 29.872 20.308 27.579 20.291 25.287 C20.267 22.085 20.237 18.884 20.205 15.682 C20.2 14.726 20.194 13.77 20.188 12.785 C20.178 11.916 20.168 11.047 20.158 10.151 C20.152 9.393 20.145 8.635 20.139 7.855 C20.111 5.906 20.111 5.906 19 4 C12.4 3.67 5.8 3.34 -1 3 C-1 25.44 -1 47.88 -1 71 C-6.624 65.376 -6.624 65.376 -8.875 62.207 C-9.378 61.504 -9.882 60.801 -10.4 60.076 C-10.928 59.329 -11.456 58.582 -12 57.812 C-13.156 56.194 -14.312 54.575 -15.469 52.957 C-16.055 52.133 -16.642 51.309 -17.246 50.459 C-19.979 46.627 -22.74 42.814 -25.5 39 C-28.86 34.351 -32.217 29.7 -35.566 25.043 C-36.152 24.23 -36.737 23.417 -37.34 22.58 C-38.457 21.029 -39.573 19.477 -40.688 17.924 C-42.852 14.919 -45.019 11.977 -47.371 9.113 C-49 7 -49 7 -49 5 C-56.931 2.356 -65.649 3.38 -74 3 C-74 37.32 -74 71.64 -74 107 C-74.33 107 -74.66 107 -75 107 C-75.023 93.327 -75.041 79.654 -75.052 65.981 C-75.057 59.633 -75.064 53.284 -75.075 46.936 C-75.086 40.816 -75.092 34.695 -75.095 28.574 C-75.097 26.233 -75.1 23.892 -75.106 21.551 C-75.113 18.285 -75.114 15.019 -75.114 11.752 C-75.117 10.774 -75.121 9.796 -75.124 8.788 C-75.122 7.461 -75.122 7.461 -75.12 6.106 C-75.121 5.333 -75.122 4.56 -75.123 3.763 C-75 2 -75 2 -74 1 C-70.216 0.72 -66.418 0.768 -62.625 0.75 C-61.024 0.719 -61.024 0.719 -59.391 0.688 C-58.367 0.682 -57.344 0.677 -56.289 0.672 C-55.348 0.663 -54.406 0.653 -53.436 0.644 C-50.533 1.068 -49.855 1.807 -48 4 C-47.01 4.66 -46.02 5.32 -45 6 C-43.987 7.993 -42.99 9.995 -42 12 C-40.261 14.633 -38.386 17.158 -36.5 19.688 C-36.014 20.351 -35.528 21.014 -35.027 21.697 C-32.424 25.258 -32.424 25.258 -29.455 28.507 C-27.556 30.456 -26.414 32.727 -25.105 35.094 C-22.989 38.744 -20.639 42.437 -17.574 45.359 C-15.482 47.54 -13.988 49.947 -12.375 52.5 C-11.458 53.939 -11.458 53.939 -10.523 55.406 C-9 58 -9 58 -8 61 C-6.35 61.66 -4.7 62.32 -3 63 C-2.67 42.87 -2.34 22.74 -2 2 C-1.34 2 -0.68 2 0 2 C0 1.34 0 0.68 0 0 Z " fill="#3F11E3" transform="translate(696,347)"/>
<path d="M0 0 C2.64 0 5.28 0 8 0 C8 17.16 8 34.32 8 52 C5.36 52 2.72 52 0 52 C0 34.84 0 17.68 0 0 Z " fill="#E7EAFC" transform="translate(483,710)"/>
<path d="M0 0 C3.022 1.745 5.417 3.833 7 7 C7.398 11.773 7.475 14.085 5.25 18.375 C2.267 21.855 0.634 22.71 -3.812 23.5 C-8.354 22.788 -10.905 20.291 -14 17 C-15.555 13.89 -15.286 11.437 -15 8 C-11.433 1.482 -7.572 -1.443 0 0 Z " fill="#1A4CEB" transform="translate(418,734)"/>
<path d="M0 0 C1.044 3.133 0.934 3.99 0 7 C-1.887 7.124 -1.887 7.124 -3.812 7.25 C-7.26 7.669 -7.26 7.669 -9.938 9.875 C-11.605 13.211 -12.152 15.989 -12.316 19.668 C-12.358 20.561 -12.4 21.453 -12.443 22.373 C-12.483 23.302 -12.522 24.231 -12.562 25.188 C-12.627 26.598 -12.627 26.598 -12.693 28.037 C-12.799 30.358 -12.901 32.679 -13 35 C-15.31 35 -17.62 35 -20 35 C-20 23.78 -20 12.56 -20 1 C-17.69 1 -15.38 1 -13 1 C-12.67 1.66 -12.34 2.32 -12 3 C-11.319 2.505 -10.639 2.01 -9.938 1.5 C-6.405 -0.304 -3.914 -0.23 0 0 Z " fill="#F8F9FE" transform="translate(460,727)"/>
<path d="M0 0 C0.33 0.66 0.66 1.32 1 2 C2.093 2.082 3.186 2.165 4.312 2.25 C8 3 8 3 10.312 6 C10.869 6.99 11.426 7.98 12 9 C12.66 9.33 13.32 9.66 14 10 C15.652 14.675 16.553 19.222 15 24 C14.836 24.69 14.673 25.379 14.504 26.09 C13.168 31.078 11.432 34.754 7.316 37.98 C2.494 40.103 -2.855 39.418 -8 39 C-8 38.67 -8 38.34 -8 38 C-7.443 37.986 -6.886 37.972 -6.312 37.957 C-0.191 37.574 4.389 36.167 9 32 C12.385 26.605 12.749 21.204 12 15 C10.333 10.262 8.146 7.799 4 5 C-1.303 3.232 -6.247 3.299 -11.438 5.375 C-14.041 6.895 -14.041 6.895 -16 9 C-16 7.02 -16 5.04 -16 3 C-18.31 3 -20.62 3 -23 3 C-23 19.17 -23 35.34 -23 52 C-20.69 52 -18.38 52 -16 52 C-16 45.4 -16 38.8 -16 32 C-15.34 32.33 -14.68 32.66 -14 33 C-13.516 35.949 -13.516 35.949 -13.25 39.688 C-13.152 40.908 -13.054 42.129 -12.953 43.387 C-13.001 47.069 -13.555 49.63 -15 53 C-16.812 54.438 -16.812 54.438 -19 55 C-23.526 54.474 -23.526 54.474 -25 53 C-26.411 40.164 -26.163 26.947 -25.75 14.062 C-25.724 12.985 -25.697 11.908 -25.67 10.799 C-25.63 9.804 -25.589 8.81 -25.547 7.785 C-25.514 6.907 -25.482 6.03 -25.448 5.125 C-25 3 -25 3 -22 1 C-19.919 1.269 -17.839 1.541 -15.762 1.84 C-10.439 2.149 -5.216 0.976 0 0 Z " fill="#0E44EA" transform="translate(419,725)"/>
<path d="M0 0 C0.755 -0.012 1.511 -0.024 2.289 -0.037 C7.495 -0.051 11.397 0.447 15.625 3.75 C19.144 8.039 21.87 12.924 23.625 18.188 C24.285 18.188 24.945 18.188 25.625 18.188 C26.949 19.867 26.949 19.867 28.312 22.062 C28.77 22.782 29.228 23.501 29.699 24.242 C30.005 24.884 30.31 25.526 30.625 26.188 C30.295 26.847 29.965 27.508 29.625 28.188 C26.695 24.281 23.766 20.375 20.836 16.469 C20.045 15.417 20.045 15.417 19.237 14.344 C18.136 12.871 17.043 11.391 15.958 9.906 C15.428 9.184 14.898 8.462 14.352 7.719 C13.875 7.065 13.399 6.41 12.909 5.736 C11.687 4.051 11.687 4.051 9.625 3.188 C3.355 3.188 -2.915 3.188 -9.375 3.188 C-9.375 37.178 -9.375 71.168 -9.375 106.188 C-10.365 106.683 -10.365 106.683 -11.375 107.188 C-12.283 104.464 -12.501 102.893 -12.502 100.095 C-12.505 99.264 -12.508 98.433 -12.511 97.576 C-12.509 96.667 -12.506 95.759 -12.504 94.823 C-12.506 93.863 -12.508 92.903 -12.51 91.915 C-12.514 88.736 -12.511 85.557 -12.508 82.379 C-12.508 80.173 -12.509 77.967 -12.511 75.762 C-12.512 71.136 -12.51 66.51 -12.505 61.884 C-12.5 55.951 -12.503 50.018 -12.509 44.085 C-12.513 39.528 -12.511 34.972 -12.509 30.416 C-12.508 28.229 -12.509 26.041 -12.511 23.853 C-12.514 20.796 -12.51 17.739 -12.504 14.682 C-12.506 13.775 -12.508 12.869 -12.511 11.935 C-12.506 10.683 -12.506 10.683 -12.502 9.407 C-12.502 8.684 -12.501 7.962 -12.501 7.217 C-12.366 5.04 -12.148 3.233 -11.375 1.188 C-7.565 -0.082 -3.969 0.003 0 0 Z " fill="#301FE6" transform="translate(653.375,507.8125)"/>
<path d="M0 0 C0.779 -0.005 1.557 -0.011 2.359 -0.017 C6.187 0.032 8.058 0.143 11.312 2.312 C10.679 2.327 10.045 2.342 9.392 2.357 C-10.771 2.875 -27.083 4.34 -42.395 18.824 C-54.549 32.014 -56.363 46.789 -55.824 63.973 C-55.009 77.967 -49.113 90.009 -38.688 99.312 C-34.814 101.916 -30.81 104.134 -26.688 106.312 C-25.697 106.972 -24.707 107.632 -23.688 108.312 C-24.678 108.808 -24.678 108.808 -25.688 109.312 C-32.383 106.646 -38.467 103.278 -43.688 98.312 C-44.513 97.632 -45.337 96.951 -46.188 96.25 C-50 91.77 -52.224 86.622 -54.688 81.312 C-55.021 80.658 -55.355 80.003 -55.699 79.328 C-61.783 66.863 -59.202 48.423 -56.688 35.312 C-56.028 35.312 -55.367 35.312 -54.688 35.312 C-54.531 34.479 -54.531 34.479 -54.371 33.629 C-53.55 30.848 -52.271 28.716 -50.75 26.25 C-50.225 25.393 -49.701 24.536 -49.16 23.652 C-48.029 21.855 -46.865 20.079 -45.688 18.312 C-45.028 18.312 -44.367 18.312 -43.688 18.312 C-43.626 17.714 -43.564 17.116 -43.5 16.5 C-42.35 13.403 -40.548 12.873 -37.688 11.312 C-36.574 10.353 -36.574 10.353 -35.438 9.375 C-25.263 1.744 -12.391 0.065 0 0 Z " fill="#4D18E0" transform="translate(794.6875,346.6875)"/>
<path d="M0 0 C7.811 9.764 15.178 19.627 22.179 29.984 C26.075 35.721 30.165 41.213 34.453 46.664 C38.097 51.36 41.447 56.274 44.803 61.178 C49.252 68.401 49.252 68.401 56.172 72.475 C58.73 72.715 61.243 72.795 63.812 72.812 C64.696 72.838 65.58 72.863 66.49 72.889 C68.66 72.947 70.83 72.977 73 73 C73 73.33 73 73.66 73 74 C66.07 74 59.14 74 52 74 C52 73.34 52 72.68 52 72 C51.435 71.805 50.871 71.611 50.289 71.41 C47.065 69.424 45.388 66.555 43.375 63.438 C40.814 59.074 40.814 59.074 37 56 C34 51.5 34 51.5 34 49 C33.34 49 32.68 49 32 49 C31.546 48.031 31.092 47.061 30.625 46.062 C29.342 42.929 29.342 42.929 27 42 C24 37.5 24 37.5 24 35 C23.34 35 22.68 35 22 35 C21.423 33.969 20.845 32.938 20.25 31.875 C17.055 25.523 17.055 25.523 12 21 C11.014 19.291 10.031 17.58 9.078 15.852 C7.226 12.67 5.336 9.668 2 8 C2.036 8.614 2.071 9.228 2.108 9.861 C2.267 12.699 2.415 15.537 2.562 18.375 C2.619 19.341 2.675 20.306 2.732 21.301 C3.004 26.688 2.904 31.786 2.274 37.138 C1.655 43.607 1.614 50.131 1.438 56.625 C1.394 58.121 1.351 59.617 1.307 61.113 C1.201 64.742 1.099 68.371 1 72 C0.67 72 0.34 72 0 72 C0 48.24 0 24.48 0 0 Z " fill="#3B13E3" transform="translate(644,384)"/>
<path d="M0 0 C2.64 0 5.28 0 8 0 C8 11.22 8 22.44 8 34 C5.36 34 2.72 34 0 34 C0 22.78 0 11.56 0 0 Z " fill="#E6EAFC" transform="translate(466,728)"/>
<path d="M0 0 C3.387 3.037 5.096 5.887 7 10 C9.817 15.774 12.77 21.467 15.812 27.125 C19.064 33.171 22.162 39.281 25.206 45.433 C26.93 48.904 28.699 52.322 30.625 55.688 C32.641 59.285 34.545 62.928 36.375 66.625 C37.16 68.191 37.16 68.191 37.961 69.789 C39.585 74.809 38.664 79.374 36.375 84.062 C33.64 89.166 29.837 92.762 24.528 95.078 C19.793 96.315 15.436 96.141 10.57 95.977 C9.58 95.952 8.59 95.927 7.569 95.901 C4.421 95.819 1.273 95.722 -1.875 95.625 C-4.016 95.567 -6.156 95.509 -8.297 95.453 C-13.532 95.313 -18.766 95.161 -24 95 C-24 94.67 -24 94.34 -24 94 C-23.429 93.999 -22.858 93.997 -22.27 93.996 C-16.299 93.976 -10.329 93.922 -4.359 93.847 C-2.134 93.824 0.091 93.81 2.316 93.804 C5.524 93.795 8.73 93.754 11.938 93.707 C12.924 93.711 13.911 93.715 14.928 93.719 C21.406 93.584 26.079 92.381 31 88 C35.192 82.413 35.807 76.833 35 70 C33.939 66.706 32.411 63.779 30.75 60.75 C30.302 59.894 29.854 59.039 29.392 58.157 C27.951 55.425 26.48 52.711 25 50 C24.524 49.122 24.048 48.245 23.558 47.34 C21.615 43.758 19.664 40.179 17.701 36.607 C13.642 29.215 9.669 21.78 5.75 14.312 C5.177 13.231 4.603 12.149 4.012 11.034 C3.225 9.527 3.225 9.527 2.422 7.988 C1.954 7.097 1.485 6.205 1.003 5.286 C0 3 0 3 0 0 Z " fill="#5C2EEA" transform="translate(528,164)"/>
<path d="M0 0 C1.32 0.33 2.64 0.66 4 1 C-1.279 13.357 -6.589 25.7 -12 38 C-8.04 38.495 -8.04 38.495 -4 39 C-3.897 38.299 -3.794 37.597 -3.688 36.875 C-3 34 -3 34 0 28 C7.92 28 15.84 28 24 28 C26.475 32.95 26.475 32.95 29 38 C32.66 39.301 32.66 39.301 36 39 C35.627 38.169 35.255 37.337 34.871 36.48 C34.398 35.394 33.925 34.307 33.438 33.188 C32.962 32.109 32.486 31.03 31.996 29.918 C31 27 31 27 32 24 C34.624 27.061 35 27.732 35 32 C35.99 32.495 35.99 32.495 37 33 C37.594 35.649 37.742 38.292 38 41 C34.7 41 31.4 41 28 41 C27.67 40.01 27.34 39.02 27 38 C26.34 38 25.68 38 25 38 C24.34 35.69 23.68 33.38 23 31 C19.563 30.855 16.127 30.766 12.688 30.688 C11.711 30.646 10.735 30.604 9.729 30.561 C7.066 30.515 4.621 30.524 2 31 C-0.226 33.202 -0.226 33.202 -1 36 C-2.312 38.75 -2.312 38.75 -4 41 C-7.307 42.055 -9.127 42.345 -12.375 41.062 C-13.179 40.537 -13.179 40.537 -14 40 C-14.55 35.596 -13.143 32.927 -11.137 29.16 C-9.636 26.309 -8.363 23.379 -7.078 20.426 C-6.303 18.682 -5.497 16.951 -4.672 15.23 C-2.22 10.079 -0.381 5.714 0 0 Z " fill="#1150EB" transform="translate(354,723)"/>
<path d="M0 0 C2.938 0.114 5.875 0.241 8.812 0.375 C10.063 0.421 10.063 0.421 11.338 0.469 C12.14 0.507 12.943 0.546 13.77 0.586 C14.877 0.633 14.877 0.633 16.007 0.681 C18 1 18 1 21 3 C21 3.66 21 4.32 21 5 C21.66 5.33 22.32 5.66 23 6 C22.67 39.99 22.34 73.98 22 109 C21.67 109 21.34 109 21 109 C20.99 107.714 20.979 106.428 20.969 105.103 C20.871 93.007 20.768 80.911 20.661 68.815 C20.605 62.596 20.552 56.377 20.503 50.157 C20.455 44.16 20.403 38.162 20.347 32.165 C20.327 29.872 20.308 27.579 20.291 25.287 C20.267 22.085 20.237 18.884 20.205 15.682 C20.197 14.248 20.197 14.248 20.188 12.785 C20.178 11.916 20.168 11.047 20.158 10.151 C20.152 9.393 20.145 8.635 20.139 7.855 C20.111 5.906 20.111 5.906 19 4 C12.4 3.67 5.8 3.34 -1 3 C-1 25.44 -1 47.88 -1 71 C-1.66 70.67 -2.32 70.34 -3 70 C-2.67 47.56 -2.34 25.12 -2 2 C-1.34 2 -0.68 2 0 2 C0 1.34 0 0.68 0 0 Z " fill="#3501DF" transform="translate(696,347)"/>
<path d="M0 0 C1.721 -0.008 1.721 -0.008 3.477 -0.016 C6.375 0.25 6.375 0.25 8.375 2.25 C2.765 2.25 -2.845 2.25 -8.625 2.25 C-8.625 25.02 -8.625 47.79 -8.625 71.25 C-11.611 68.264 -13.643 65.95 -15.875 62.5 C-16.656 61.301 -16.656 61.301 -17.453 60.078 C-17.84 59.475 -18.227 58.872 -18.625 58.25 C-18.295 57.59 -17.965 56.93 -17.625 56.25 C-16.821 57.075 -16.016 57.9 -15.188 58.75 C-13.102 61.366 -13.102 61.366 -11.625 61.25 C-11.295 41.78 -10.965 22.31 -10.625 2.25 C-6.472 0.174 -4.535 -0.02 0 0 Z " fill="#4024E4" transform="translate(722.625,507.75)"/>
<path d="M0 0 C0.66 0 1.32 0 2 0 C4.64 6.6 7.28 13.2 10 20 C4.06 20 -1.88 20 -8 20 C-5.36 13.4 -2.72 6.8 0 0 Z " fill="#1651EA" transform="translate(365,724)"/>
<path d="M0 0 C0.675 0.205 1.351 0.41 2.047 0.621 C2.939 0.891 3.831 1.16 4.75 1.438 C5.632 1.704 6.513 1.971 7.422 2.246 C9.928 3.028 9.928 3.028 12.266 3.41 C13.124 3.702 13.124 3.702 14 4 C14.495 5.485 14.495 5.485 15 7 C16.409 7.906 17.82 8.809 19.242 9.695 C23.609 12.937 27.005 17.508 30 22 C29.984 24.031 29.984 24.031 29 26 C26.453 27.344 26.453 27.344 23.25 28.5 C18.803 30.121 15.574 31.876 12 35 C8.456 33.582 7.662 32.324 6 29 C4.269 27.841 4.269 27.841 2 27 C-4.904 24.191 -4.904 24.191 -6 22 C-7.835 21.533 -7.835 21.533 -10.035 21.367 C-11.248 21.242 -11.248 21.242 -12.486 21.113 C-13.336 21.035 -14.187 20.956 -15.062 20.875 C-15.917 20.789 -16.771 20.702 -17.65 20.613 C-19.766 20.401 -21.883 20.199 -24 20 C-24 19.67 -24 19.34 -24 19 C-11.37 18.401 -3.716 19.917 6.469 27.535 C8 29 8 29 9 32 C9.785 31.59 10.57 31.18 11.379 30.758 C16.852 27.951 21.989 25.366 28 24 C21.727 13.545 12.622 6.067 0.812 2.625 C-0.116 2.419 -1.044 2.212 -2 2 C-1.34 1.34 -0.68 0.68 0 0 Z " fill="#621DE0" transform="translate(810,349)"/>
<path d="M0 0 C-2.841 1.894 -5.6 3.245 -8.688 4.688 C-21.646 11.182 -28.648 20.936 -33.273 34.59 C-34.968 40.21 -35.192 45.203 -35.188 51.062 C-35.188 52.002 -35.189 52.942 -35.189 53.911 C-35.14 60.439 -34.663 66.66 -33 73 C-33.99 73.495 -33.99 73.495 -35 74 C-35 72.68 -35 71.36 -35 70 C-35.66 70 -36.32 70 -37 70 C-37.061 69.252 -37.121 68.505 -37.184 67.734 C-37.267 66.75 -37.351 65.765 -37.438 64.75 C-37.519 63.775 -37.6 62.801 -37.684 61.797 C-37.917 59.101 -37.917 59.101 -38.555 56.949 C-39.518 52.732 -38.51 48.246 -38 44 C-37.865 42.867 -37.729 41.734 -37.59 40.566 C-36.601 33.247 -35.051 28.929 -30.812 22.875 C-28.733 20.143 -28.733 20.143 -29 17 C-27.609 15.535 -27.609 15.535 -25.75 14.062 C-23.748 12.458 -21.911 10.906 -20.145 9.039 C-17.611 6.63 -14.971 5.045 -11.938 3.312 C-10.373 2.41 -10.373 2.41 -8.777 1.488 C-3.699 -1.233 -3.699 -1.233 0 0 Z " fill="#1049E9" transform="translate(224,351)"/>
<path d="M0 0 C0.33 0 0.66 0 1 0 C1.15 4.228 0.693 7.639 -0.5 11.688 C-3.072 21.716 -2.555 28.882 1.418 38.469 C3.258 41.413 5.031 42.295 8 44 C8.317 44.665 8.634 45.33 8.961 46.016 C10.501 48.956 12.619 49.492 15.625 50.75 C16.628 51.178 17.631 51.606 18.664 52.047 C19.82 52.519 19.82 52.519 21 53 C21 53.33 21 53.66 21 54 C13.633 53.686 8.214 50.445 3.199 45.07 C-4.417 35.356 -5.985 25.161 -5 13 C-3.807 8.432 -2.108 4.216 0 0 Z " fill="#1C52EA" transform="translate(214,383)"/>
<path d="M0 0 C0.33 0 0.66 0 1 0 C1 24.75 1 49.5 1 75 C0.67 75 0.34 75 0 75 C-0.025 73.69 -0.05 72.381 -0.076 71.031 C-0.171 66.096 -0.271 61.161 -0.372 56.226 C-0.415 54.104 -0.457 51.982 -0.497 49.86 C-0.733 37.549 -1.08 25.282 -2 13 C-2.66 14.32 -3.32 15.64 -4 17 C-4.66 17 -5.32 17 -6 17 C-6.33 18.32 -6.66 19.64 -7 21 C-8.131 17.607 -7.929 17.158 -6.602 14.023 C-6.287 13.271 -5.972 12.518 -5.648 11.742 C-5.142 10.57 -5.142 10.57 -4.625 9.375 C-4.295 8.586 -3.965 7.797 -3.625 6.984 C-1.165 1.165 -1.165 1.165 0 0 Z " fill="#2613E7" transform="translate(526,382)"/>
<path d="M0 0 C1 3 1 3 -0.073 5.562 C-0.63 6.579 -1.188 7.596 -1.762 8.645 C-2.381 9.786 -3 10.927 -3.638 12.103 C-3.973 12.707 -4.307 13.312 -4.652 13.936 C-5.694 15.824 -6.72 17.721 -7.742 19.62 C-10.943 25.544 -14.21 31.407 -17.672 37.184 C-24.156 48.145 -28 56.073 -26 69 C-26.99 68.34 -27.98 67.68 -29 67 C-29.884 60.203 -29.389 53.421 -27 47 C-26.34 47 -25.68 47 -25 47 C-24.752 46.34 -24.505 45.68 -24.25 45 C-21.912 39.388 -19.137 34.169 -15.938 29 C-14.042 25.91 -12.506 22.985 -11.312 19.562 C-10.045 16.123 -9.44 15.397 -7 13 C-5.801 11.072 -5.801 11.072 -4.812 9 C-4.468 8.319 -4.124 7.639 -3.77 6.938 C-2.815 4.883 -2.815 4.883 -3 2 C-2.01 2 -1.02 2 0 2 C0 1.34 0 0.68 0 0 Z " fill="#4019E9" transform="translate(485,180)"/>
<path d="M0 0 C1.021 0.979 2.021 1.98 3 3 C3 3.33 3 3.66 3 4 C-16.8 4 -36.6 4 -57 4 C-57 3.34 -57 2.68 -57 2 C-38.19 2 -19.38 2 0 2 C0 1.34 0 0.68 0 0 Z " fill="#592EEA" transform="translate(538,233)"/>
<path d="M0 0 C0.797 0.524 0.797 0.524 1.609 1.059 C2.316 1.514 3.022 1.969 3.75 2.438 C4.446 2.89 5.142 3.342 5.859 3.809 C10.193 6.221 14.564 6.192 19.431 6.297 C20.543 6.327 20.543 6.327 21.679 6.357 C24.124 6.42 26.57 6.478 29.016 6.535 C30.714 6.578 32.412 6.622 34.11 6.665 C38.575 6.779 43.04 6.888 47.505 6.996 C52.064 7.107 56.622 7.222 61.18 7.338 C70.12 7.564 79.06 7.784 88 8 C88 8.33 88 8.66 88 9 C80.314 9.169 72.627 9.329 64.941 9.482 C62.328 9.535 59.715 9.591 57.102 9.648 C53.339 9.731 49.576 9.805 45.812 9.879 C44.651 9.906 43.489 9.933 42.292 9.961 C36.394 10.069 30.832 9.866 25 9 C22.396 8.959 19.791 8.958 17.188 9 C10.33 9.11 10.33 9.11 7 8 C7 7.34 7 6.68 7 6 C6.216 5.752 5.433 5.505 4.625 5.25 C1.608 3.813 1.284 2.953 0 0 Z " fill="#2F06E6" transform="translate(461,251)"/>
<path d="M0 0 C1.313 -0.056 1.313 -0.056 2.652 -0.113 C5.062 0.312 5.062 0.312 6.879 2.332 C7.465 3.312 7.465 3.312 8.062 4.312 C7.402 5.633 6.743 6.952 6.062 8.312 C5.733 8.312 5.402 8.312 5.062 8.312 C4.733 6.332 4.402 4.352 4.062 2.312 C-1.198 1.997 -4.383 2.647 -8.938 5.312 C-8.938 4.322 -8.938 3.332 -8.938 2.312 C-11.248 2.312 -13.558 2.312 -15.938 2.312 C-15.938 13.862 -15.938 25.413 -15.938 37.312 C-16.598 36.982 -17.257 36.653 -17.938 36.312 C-17.962 31.489 -17.98 26.665 -17.992 21.841 C-17.997 20.199 -18.004 18.557 -18.013 16.914 C-18.025 14.559 -18.031 12.203 -18.035 9.848 C-18.04 9.109 -18.045 8.371 -18.051 7.61 C-18.051 5.844 -17.999 4.078 -17.938 2.312 C-16.938 1.312 -16.938 1.312 -14.723 1.25 C-12.91 1.292 -11.098 1.333 -9.285 1.375 C-6.06 1.289 -3.37 0.094 0 0 Z " fill="#0D38E8" transform="translate(455.9375,725.6875)"/>
<path d="M0 0 C4.062 -0.116 8.124 -0.187 12.188 -0.25 C13.338 -0.284 14.488 -0.317 15.674 -0.352 C16.786 -0.364 17.897 -0.377 19.043 -0.391 C20.064 -0.412 21.085 -0.433 22.137 -0.454 C25.711 0.113 27.384 1.571 30 4 C29.67 4.99 29.34 5.98 29 7 C28.461 6.353 27.922 5.705 27.366 5.038 C24.432 2.511 22.966 2.469 19.141 2.391 C18.026 2.358 16.911 2.326 15.762 2.293 C14.023 2.272 14.023 2.272 12.25 2.25 C11.076 2.22 9.901 2.191 8.691 2.16 C5.794 2.089 2.898 2.037 0 2 C-0.18 2.645 -0.359 3.29 -0.544 3.955 C-2.028 9.116 -3.688 13.848 -6.188 18.625 C-6.717 19.649 -7.247 20.672 -7.793 21.727 C-8.191 22.477 -8.59 23.227 -9 24 C-10.333 21.333 -9.671 19.833 -9 17 C-8.34 17 -7.68 17 -7 17 C-6.67 14.03 -6.34 11.06 -6 8 C-5.01 8 -4.02 8 -3 8 C-3.33 6.68 -3.66 5.36 -4 4 C-3.34 4 -2.68 4 -2 4 C-1.34 2.68 -0.68 1.36 0 0 Z " fill="#421FE9" transform="translate(519,348)"/>
<path d="M0 0 C0.779 -0.005 1.557 -0.011 2.359 -0.017 C6.187 0.032 8.058 0.143 11.312 2.312 C10.679 2.327 10.045 2.342 9.392 2.357 C-11.044 2.882 -27.358 4.466 -42.688 19.312 C-43.018 18.322 -43.347 17.332 -43.688 16.312 C-42.3 13.538 -40.345 12.883 -37.688 11.312 C-36.945 10.673 -36.202 10.034 -35.438 9.375 C-25.263 1.744 -12.391 0.065 0 0 Z " fill="#5C18E2" transform="translate(794.6875,346.6875)"/>
<path d="M0 0 C0.66 0.33 1.32 0.66 2 1 C1.954 2.039 1.907 3.078 1.859 4.148 C1.56 13.545 1.516 21.644 7.848 29.207 C16.141 37.32 26.981 40.332 38 43 C38 43.33 38 43.66 38 44 C27.049 43.728 16.6 40.508 8.648 32.758 C8.104 32.178 7.56 31.598 7 31 C6.497 30.482 5.995 29.964 5.477 29.43 C0.457 23.888 -0.325 17.964 -0.688 10.812 C-0.735 10.102 -0.782 9.391 -0.83 8.658 C-1.015 5.439 -1.029 3.088 0 0 Z " fill="#113EEB" transform="translate(292,528)"/>
<path d="M0 0 C1.98 0 3.96 0 6 0 C6 0.66 6 1.32 6 2 C6.66 2.33 7.32 2.66 8 3 C8.538 3.37 9.075 3.74 9.629 4.121 C14.078 7.15 17.907 8.73 23.215 9.641 C25 10 25 10 26 11 C33.17 12.175 39.798 11.792 47 11 C46.67 11.66 46.34 12.32 46 13 C36.467 16.178 24.499 14.834 15.621 10.5 C10.123 7.353 5.051 3.811 0 0 Z " fill="#1945ED" transform="translate(297,584)"/>
<path d="M0 0 C0 0.66 0 1.32 0 2 C0.763 2.227 1.526 2.454 2.312 2.688 C5.547 4.267 6.416 5.833 8 9 C7.34 9.33 6.68 9.66 6 10 C5.464 9.237 4.928 8.474 4.375 7.688 C0.698 3.526 -2.372 2.184 -7.875 1.562 C-12.553 1.795 -16.286 3.13 -20 6 C-22.372 8.799 -24.182 11.821 -26 15 C-27.079 16.857 -28.163 18.711 -29.25 20.562 C-29.73 21.409 -30.209 22.256 -30.703 23.129 C-31.131 23.746 -31.559 24.364 -32 25 C-32.66 25 -33.32 25 -34 25 C-34 24.34 -34 23.68 -34 23 C-33.34 23 -32.68 23 -32 23 C-31.888 22.448 -31.776 21.897 -31.66 21.328 C-30.886 18.599 -29.732 16.272 -28.438 13.75 C-27.982 12.858 -27.527 11.966 -27.059 11.047 C-26.709 10.371 -26.36 9.696 -26 9 C-25.34 9 -24.68 9 -24 9 C-23.606 8.095 -23.606 8.095 -23.203 7.172 C-18.384 -1.527 -8.685 -0.549 0 0 Z " fill="#4615E9" transform="translate(520,154)"/>
<path d="M0 0 C1.98 0.99 3.96 1.98 6 3 C5.67 3.66 5.34 4.32 5 5 C2.69 5 0.38 5 -2 5 C-2 7.31 -2 9.62 -2 12 C-0.453 11.876 -0.453 11.876 1.125 11.75 C5.746 12.048 7.685 12.766 11 16 C11.815 18.84 11.781 21.155 11 24 C8.456 26.908 7.046 27.907 3.188 28.25 C2.105 28.126 2.105 28.126 1 28 C4 26 4 26 6.125 25.25 C8.338 24.078 8.338 24.078 8.75 21 C9.028 18.17 9.028 18.17 9 16 C8.01 16.33 7.02 16.66 6 17 C5.34 16.34 4.68 15.68 4 15 C1.682 14.281 -0.651 13.609 -3 13 C-4.477 5.738 -4.477 5.738 -2.062 2 C-1.042 1.01 -1.042 1.01 0 0 Z " fill="#1F29E4" transform="translate(658,728)"/>
<path d="M0 0 C2.731 1.044 4.185 2.665 6.125 4.812 C5.362 4.503 4.599 4.194 3.812 3.875 C1.937 3.134 0.038 2.45 -1.875 1.812 C-2.123 2.409 -2.37 3.006 -2.625 3.621 C-5.649 8.922 -12.149 11.799 -17.75 13.688 C-23.116 15.13 -28.357 15.096 -33.875 14.812 C-33.875 14.152 -33.875 13.493 -33.875 12.812 C-32.778 12.68 -31.681 12.547 -30.551 12.41 C-29.096 12.232 -27.642 12.053 -26.188 11.875 C-25.466 11.788 -24.745 11.701 -24.002 11.611 C-20.255 11.149 -16.567 10.621 -12.875 9.812 C-12.875 9.152 -12.875 8.493 -12.875 7.812 C-11.699 7.41 -11.699 7.41 -10.5 7 C-7.594 5.964 -7.594 5.964 -5.875 2.812 C-5.215 2.812 -4.555 2.812 -3.875 2.812 C-3.875 2.152 -3.875 1.493 -3.875 0.812 C-1.875 -0.188 -1.875 -0.188 0 0 Z " fill="#214CED" transform="translate(269.875,424.1875)"/>
<path d="M0 0 C0.66 0.99 1.32 1.98 2 3 C-2.262 8.22 -6.393 12.262 -12 16 C-12.66 16.66 -13.32 17.32 -14 18 C-14.66 18 -15.32 18 -16 18 C-17.403 18.48 -18.798 18.983 -20.188 19.5 C-24.352 20.935 -27.623 21.279 -32 21 C-29.203 19.136 -26.66 18.127 -23.503 17.047 C-13.544 13.61 -5.332 9.505 0 0 Z " fill="#511BDF" transform="translate(837,437)"/>
<path d="M0 0 C3.917 2.938 4.665 3.727 6.312 8 C6.833 9.299 6.833 9.299 7.363 10.625 C8 13 8 13 7 16 C4 10.375 4 10.375 4 7 C3.01 7 2.02 7 1 7 C1.66 9.31 2.32 11.62 3 14 C2.34 14 1.68 14 1 14 C1 24.56 1 35.12 1 46 C0.67 46 0.34 46 0 46 C0 30.82 0 15.64 0 0 Z " fill="#2F22E8" transform="translate(457,386)"/>
<path d="M0 0 C2.209 2.699 3.138 4.489 4.25 7.75 C5.338 10.027 6.432 12.301 7.543 14.566 C8.365 17.107 7.983 18.241 7.25 20.75 C7.023 20.22 6.797 19.691 6.563 19.145 C5.529 16.739 4.483 14.338 3.438 11.938 C3.081 11.104 2.725 10.271 2.357 9.412 C2.006 8.61 1.655 7.807 1.293 6.98 C0.974 6.242 0.654 5.504 0.325 4.743 C-0.864 2.539 -1.716 1.226 -3.75 -0.25 C-6.553 -0.756 -6.553 -0.756 -9.73 -0.762 C-11.476 -0.815 -11.476 -0.815 -13.256 -0.869 C-14.471 -0.892 -15.686 -0.914 -16.938 -0.938 C-18.164 -0.972 -19.391 -1.006 -20.654 -1.041 C-23.686 -1.124 -26.718 -1.193 -29.75 -1.25 C-29.75 -1.58 -29.75 -1.91 -29.75 -2.25 C-26.376 -2.448 -23 -2.632 -19.625 -2.812 C-18.198 -2.897 -18.198 -2.897 -16.742 -2.982 C-4.429 -3.624 -4.429 -3.624 0 0 Z " fill="#422BEC" transform="translate(466.75,351.25)"/>
<path d="M0 0 C2 3 2 3 3.445 5.672 C9.347 16.487 17.425 24.433 29.191 28.816 C30.777 29.275 32.387 29.649 34 30 C33.01 30.66 32.02 31.32 31 32 C17.726 26.052 6.317 18.805 0 5 C-0.18 2.172 -0.18 2.172 0 0 Z " fill="#1655EB" transform="translate(191,425)"/>
<path d="M0 0 C3.387 3.037 5.096 5.887 7 10 C7.766 11.544 8.538 13.085 9.312 14.625 C12.208 20.417 15.104 26.208 18 32 C17.34 32.66 16.68 33.32 16 34 C15.728 33.452 15.457 32.903 15.177 32.339 C13.912 29.787 12.644 27.237 11.375 24.688 C10.921 23.774 10.467 22.861 9.999 21.92 C7.133 16.186 4.175 10.544 0.961 4.996 C0 3 0 3 0 0 Z " fill="#4C17E8" transform="translate(528,164)"/>
<path d="M0 0 C2 1 2 1 2.859 3.188 C3.153 4.116 3.447 5.044 3.75 6 C7.818 17.644 15.177 24.907 25 32 C24.34 32.66 23.68 33.32 23 34 C12.95 26.579 3.515 17.431 0.473 4.812 C0.188 2.875 0.188 2.875 0 0 Z " fill="#1C33EC" transform="translate(302,418)"/>
<path d="M0 0 C4.601 1.489 7.502 3.746 11 7 C11 7.66 11 8.32 11 9 C11.66 9 12.32 9 13 9 C19.092 15.914 24.588 26.661 24 36 C22.352 32.847 21.048 29.623 19.75 26.312 C16.006 17.314 11.086 10.623 4 4 C2.667 2.667 1.333 1.333 0 0 Z " fill="#2126EB" transform="translate(473,515)"/>
<path d="M0 0 C13.365 0.495 13.365 0.495 27 1 C27 5.29 27 9.58 27 14 C26.67 14 26.34 14 26 14 C25.67 10.37 25.34 6.74 25 3 C23.614 3.012 22.229 3.023 20.801 3.035 C18.971 3.045 17.142 3.054 15.312 3.062 C13.944 3.075 13.944 3.075 12.549 3.088 C11.663 3.091 10.776 3.094 9.863 3.098 C9.052 3.103 8.24 3.108 7.404 3.114 C4.851 2.993 2.49 2.56 0 2 C0 1.34 0 0.68 0 0 Z " fill="#4D0FDE" transform="translate(792,415)"/>
<path d="M0 0 C4.54 4.272 7.921 8.961 11.426 14.092 C13.462 17.022 14.997 18.998 18 21 C20.123 21.364 20.123 21.364 22.449 21.414 C23.297 21.453 24.144 21.491 25.018 21.531 C26.339 21.578 26.339 21.578 27.688 21.625 C28.58 21.664 29.473 21.702 30.393 21.742 C32.595 21.836 34.797 21.922 37 22 C37 22.33 37 22.66 37 23 C30.07 23 23.14 23 16 23 C16 22.34 16 21.68 16 21 C15.435 20.805 14.871 20.611 14.289 20.41 C11.065 18.424 9.388 15.555 7.375 12.438 C4.814 8.074 4.814 8.074 1 5 C0.375 2.438 0.375 2.438 0 0 Z " fill="#3B12E2" transform="translate(680,435)"/>
<path d="M0 0 C1 3 1 3 0.188 5.086 C-0.204 5.841 -0.596 6.597 -1 7.375 C-2.201 9.992 -2.982 11.806 -3.25 14.688 C0.143 20.965 7.791 24.117 14 27 C12.41 27.73 12.41 27.73 10 28 C7.648 26.864 5.611 25.723 3.438 24.312 C2.861 23.96 2.284 23.607 1.689 23.244 C-1.535 21.21 -4.074 19.324 -6 16 C-6 10.126 -2.707 5.054 0 0 Z " fill="#1549EC" transform="translate(295,587)"/>
<path d="M0 0 C1 2 1 2 0.328 4.066 C-0.028 4.89 -0.383 5.714 -0.75 6.562 C-2.741 11.311 -4.437 16.097 -6 21 C-6.66 21 -7.32 21 -8 21 C-8.103 21.681 -8.206 22.361 -8.312 23.062 C-9.147 26.629 -10.495 29.662 -12 33 C-13.168 30.158 -12.991 28.971 -12.028 25.991 C-11.275 24.273 -11.275 24.273 -10.508 22.52 C-10.242 21.906 -9.977 21.293 -9.704 20.661 C-8.855 18.706 -7.99 16.76 -7.125 14.812 C-6.55 13.491 -5.976 12.168 -5.402 10.846 C-1.192 1.192 -1.192 1.192 0 0 Z " fill="#2B1BE8" transform="translate(517,404)"/>
<path d="M0 0 C0.247 0.598 0.495 1.196 0.75 1.812 C2.164 4.286 3.651 5.434 6 7 C3.218 6.624 1.412 6.327 -0.812 4.562 C-2 3 -2 3 -2 1 C-2.784 1.66 -3.567 2.32 -4.375 3 C-7 5 -7 5 -9 5 C-5.681 9.393 -3.201 11.823 2 14 C0.262 14.668 0.262 14.668 -2 15 C-4.105 13.926 -4.105 13.926 -6.188 12.312 C-6.882 11.793 -7.577 11.274 -8.293 10.738 C-10.179 8.818 -10.617 7.627 -11 5 C-4.857 -0.714 -4.857 -0.714 0 0 Z " fill="#1B26E5" transform="translate(652,748)"/>
<path d="M0 0 C3.362 1.441 5.592 3.248 8 6 C8 6.66 8 7.32 8 8 C9.663 7.116 9.663 7.116 11.359 6.215 C12.823 5.455 14.286 4.696 15.75 3.938 C16.48 3.548 17.209 3.158 17.961 2.756 C18.67 2.392 19.379 2.028 20.109 1.652 C21.083 1.142 21.083 1.142 22.077 0.621 C24.42 -0.136 25.705 0.212 28 1 C24.739 2.564 21.465 4.097 18.188 5.625 C17.259 6.071 16.33 6.517 15.373 6.977 C14.034 7.595 14.034 7.595 12.668 8.227 C11.846 8.614 11.024 9.002 10.177 9.401 C9.458 9.599 8.74 9.796 8 10 C4.806 7.871 3.906 6.232 2 3 C1.34 2.67 0.68 2.34 0 2 C0 1.34 0 0.68 0 0 Z " fill="#2038ED" transform="translate(260,374)"/>
<path d="M0 0 C3 0.125 3 0.125 4 1.125 C4.188 3.562 4.188 3.562 4 6.125 C3.34 6.785 2.68 7.445 2 8.125 C-2.556 7.569 -2.556 7.569 -4 6.125 C-4.125 3.625 -4.125 3.625 -4 1.125 C-3 0.125 -3 0.125 0 0 Z " fill="#ECEEFC" transform="translate(470,714.875)"/>
<path d="M0 0 C5.551 0.136 9.345 1.593 13.375 5.438 C16.944 10.257 17.866 14.54 17.375 20.438 C16.715 20.768 16.055 21.097 15.375 21.438 C15.371 20.477 15.371 20.477 15.367 19.496 C15.103 13.582 14.199 10.018 9.969 5.777 C4.985 1.587 -0.423 2.221 -6.625 2.438 C-4.186 -0.002 -3.366 0.089 0 0 Z " fill="#1726E8" transform="translate(536.625,711.5625)"/>
<path d="M0 0 C0.33 0.66 0.66 1.32 1 2 C1.66 2.33 2.32 2.66 3 3 C4.13 5.543 5.049 8.136 6 10.75 C6.784 13.157 6.784 13.157 9 14 C10.32 11.03 11.64 8.06 13 5 C14.328 8.985 13.232 10.4 11.562 14.188 C10.853 15.818 10.853 15.818 10.129 17.48 C9.756 18.312 9.384 19.143 9 20 C8.34 20 7.68 20 7 20 C5.827 17.232 4.661 14.461 3.5 11.688 C2.999 10.509 2.999 10.509 2.488 9.307 C2.172 8.549 1.857 7.792 1.531 7.012 C1.238 6.315 0.945 5.619 0.643 4.901 C0 3 0 3 0 0 Z " fill="#2A1AE8" transform="translate(484,394)"/>
<path d="M0 0 C0.681 0.681 1.361 1.361 2.062 2.062 C2.527 2.52 2.991 2.978 3.469 3.449 C4.495 4.489 5.496 5.555 6.469 6.645 C10.915 11.472 15.852 14.426 21.621 17.52 C22.406 18.008 23.191 18.497 24 19 C24 19.66 24 20.32 24 21 C13.829 18.028 5.49 11.032 0 2 C0 1.34 0 0.68 0 0 Z " fill="#1934ED" transform="translate(396,594)"/>
<path d="M0 0 C0.66 0 1.32 0 2 0 C6 5.412 6 5.412 6 8 C6.66 8 7.32 8 8 8 C8 8.66 8 9.32 8 10 C8.99 10.33 9.98 10.66 11 11 C11.356 12.328 11.684 13.662 12 15 C13.13 16.788 14.323 18.537 15.562 20.25 C16.203 21.142 16.844 22.034 17.504 22.953 C17.998 23.629 18.491 24.304 19 25 C18.67 25.66 18.34 26.32 18 27 C7.582 12.871 7.582 12.871 2.812 6.188 C1.987 5.033 1.987 5.033 1.145 3.855 C0 2 0 2 0 0 Z " fill="#341EE4" transform="translate(684,536)"/>
<path d="M0 0 C1.887 0.031 1.887 0.031 3.812 0.062 C3.812 0.393 3.812 0.722 3.812 1.062 C2.942 1.209 2.942 1.209 2.055 1.359 C-3.176 2.361 -7.199 3.34 -11.188 7.062 C-13.444 10.953 -15.365 14.952 -17.188 19.062 C-17.518 19.062 -17.847 19.062 -18.188 19.062 C-18.074 14.318 -17.973 11.044 -14.938 7.25 C-14.03 6.528 -13.122 5.806 -12.188 5.062 C-11.321 4.32 -10.455 3.577 -9.562 2.812 C-6.333 0.433 -3.906 -0.064 0 0 Z " fill="#1927E8" transform="translate(578.1875,711.9375)"/>
<path d="M0 0 C1 1 1 1 1.188 4.438 C1 8 1 8 -1 10 C-4.5 10.312 -4.5 10.312 -8 10 C-10.148 6.779 -10.561 5.74 -10 2 C-6.882 -1.598 -4.387 -1.17 0 0 Z M-8 2 C-8.25 4.458 -8.25 4.458 -8 7 C-7.34 7.66 -6.68 8.32 -6 9 C-2.693 8.71 -2.693 8.71 0 7 C0.167 4.5 0.167 4.5 0 2 C-1.118 0.656 -1.118 0.656 -4 0.875 C-6.882 0.656 -6.882 0.656 -8 2 Z " fill="#1335EB" transform="translate(474,714)"/>
<path d="M0 0 C2.968 2.878 5.679 5.811 8.312 9 C11.334 12.527 14.429 14.785 18.496 16.992 C18.992 17.325 19.489 17.657 20 18 C20 18.66 20 19.32 20 20 C15.339 18.689 12.425 15.924 8.93 12.738 C6.897 10.859 6.897 10.859 4.125 8.812 C1.945 6.953 0.952 5.682 0 3 C0 2.01 0 1.02 0 0 Z " fill="#2229EB" transform="translate(521,592)"/>
<path d="M0 0 C0.66 0.66 1.32 1.32 2 2 C0.719 5.15 -0.576 8.294 -1.875 11.438 C-2.24 12.335 -2.605 13.233 -2.98 14.158 C-3.335 15.012 -3.689 15.866 -4.055 16.746 C-4.379 17.537 -4.704 18.328 -5.039 19.142 C-6 21 -6 21 -8 22 C-7.67 19.69 -7.34 17.38 -7 15 C-6.34 15 -5.68 15 -5 15 C-4.67 12.03 -4.34 9.06 -4 6 C-3.01 6 -2.02 6 -1 6 C-1.33 4.68 -1.66 3.36 -2 2 C-1.34 2 -0.68 2 0 2 C0 1.34 0 0.68 0 0 Z " fill="#3A1FE8" transform="translate(517,350)"/>
<path d="M0 0 C13.365 0.495 13.365 0.495 27 1 C27 1.33 27 1.66 27 2 C18.409 4.279 10.65 4.118 2 2 C1.34 1.34 0.68 0.68 0 0 Z " fill="#4410DF" transform="translate(777,457)"/>
<path d="M0 0 C0.33 0 0.66 0 1 0 C1 8.25 1 16.5 1 25 C-1.357 26.178 -2.526 26.044 -5.133 25.879 C-5.938 25.831 -6.744 25.782 -7.574 25.732 C-8.416 25.676 -9.258 25.62 -10.125 25.562 C-11.399 25.484 -11.399 25.484 -12.699 25.404 C-14.8 25.274 -16.9 25.138 -19 25 C-19 24.67 -19 24.34 -19 24 C-13.06 23.67 -7.12 23.34 -1 23 C-0.67 15.41 -0.34 7.82 0 0 Z " fill="#4E49ED" transform="translate(457,432)"/>
<path d="M0 0 C2.875 2.5 2.875 2.5 5 5 C4.01 5.495 4.01 5.495 3 6 C2.34 5.01 1.68 4.02 1 3 C-1.872 2.332 -1.872 2.332 -5 3 C-7.771 5.354 -7.771 5.354 -10 8 C-10.99 8.495 -10.99 8.495 -12 9 C-11.715 5.585 -11.203 4.215 -8.812 1.688 C-5.437 -0.338 -3.867 -0.725 0 0 Z " fill="#1E30E8" transform="translate(539,720)"/>
<path d="M0 0 C13.365 0.495 13.365 0.495 27 1 C27 1.33 27 1.66 27 2 C17.507 4.934 9.545 3.052 0 1 C0 0.67 0 0.34 0 0 Z " fill="#0A43EA" transform="translate(227,457)"/>
<path d="M0 0 C0.671 0.58 0.671 0.58 1.355 1.172 C2.262 1.953 2.262 1.953 3.188 2.75 C3.828 3.303 4.469 3.856 5.129 4.426 C6.584 5.65 8.095 6.808 9.625 7.938 C12.607 10.527 15.257 13.423 17 17 C16.67 17.99 16.34 18.98 16 20 C15.611 19.443 15.221 18.886 14.82 18.312 C10.275 12.112 5.17 7.556 -1 3 C-0.67 2.01 -0.34 1.02 0 0 Z " fill="#2820EA" transform="translate(387,353)"/>
<path d="M0 0 C0.66 0 1.32 0 2 0 C1.074 5.267 -0.861 9.847 -2.938 14.75 C-3.298 15.625 -3.658 16.501 -4.029 17.402 C-4.379 18.234 -4.729 19.065 -5.09 19.922 C-5.408 20.681 -5.726 21.44 -6.054 22.222 C-7 24 -7 24 -9 25 C-8.727 24.199 -8.727 24.199 -8.449 23.383 C-6.506 17.624 -4.716 11.83 -3 6 C-2.34 6 -1.68 6 -1 6 C-0.67 4.02 -0.34 2.04 0 0 Z " fill="#2B16E9" transform="translate(507,373)"/>
<path d="M0 0 C0.66 0.33 1.32 0.66 2 1 C1.325 1.617 0.649 2.235 -0.047 2.871 C-5.601 8.144 -9.623 12.658 -12 20 C-13.065 17.27 -13.08 16.207 -12.004 13.422 C-11.29 12.099 -11.29 12.099 -10.562 10.75 C-10.089 9.858 -9.616 8.966 -9.129 8.047 C-8.756 7.371 -8.384 6.696 -8 6 C-7.34 6 -6.68 6 -6 6 C-6 5.34 -6 4.68 -6 4 C-4.364 2.951 -2.695 1.951 -1 1 C-0.67 0.67 -0.34 0.34 0 0 Z " fill="#162BE9" transform="translate(530,743)"/>
<path d="M0 0 C-0.99 0.66 -1.98 1.32 -3 2 C-3.33 1.01 -3.66 0.02 -4 -1 C-6.855 -1.952 -8.909 -2.19 -11.887 -2.316 C-12.825 -2.358 -13.762 -2.4 -14.729 -2.443 C-15.705 -2.483 -16.681 -2.522 -17.688 -2.562 C-18.676 -2.606 -19.664 -2.649 -20.682 -2.693 C-23.121 -2.799 -25.56 -2.901 -28 -3 C-28 -3.33 -28 -3.66 -28 -4 C-24.917 -4.197 -21.834 -4.381 -18.75 -4.562 C-17.877 -4.619 -17.005 -4.675 -16.105 -4.732 C-15.261 -4.781 -14.417 -4.829 -13.547 -4.879 C-12.772 -4.926 -11.997 -4.973 -11.198 -5.022 C-6.219 -4.973 -3.748 -3.228 0 0 Z " fill="#5927E8" transform="translate(651,353)"/>
<path d="M0 0 C5.94 0.33 11.88 0.66 18 1 C18 1.66 18 2.32 18 3 C11.4 3 4.8 3 -2 3 C-1.34 2.67 -0.68 2.34 0 2 C0 1.34 0 0.68 0 0 Z " fill="#581BE4" transform="translate(696,347)"/>
<path d="M0 0 C0.66 0 1.32 0 2 0 C0.652 4.345 -1.019 6.195 -4.75 8.75 C-5.59 9.343 -6.431 9.936 -7.297 10.547 C-10.243 12.131 -12.694 12.633 -16 13 C-13.753 10.516 -11.545 9.124 -8.562 7.625 C-4.753 5.59 -2.535 3.549 0 0 Z " fill="#1940ED" transform="translate(367,603)"/>
<path d="M0 0 C2 1.75 2 1.75 4 4 C4 5.32 4 6.64 4 8 C4.66 8.33 5.32 8.66 6 9 C6.594 11.649 6.742 14.292 7 17 C3.7 17 0.4 17 -3 17 C-3 16.67 -3 16.34 -3 16 C-0.03 16 2.94 16 6 16 C5.567 15.096 5.134 14.193 4.688 13.262 C4.131 12.082 3.574 10.903 3 9.688 C2.443 8.516 1.886 7.344 1.312 6.137 C0 3 0 3 0 0 Z " fill="#0E46E9" transform="translate(385,747)"/>
<path d="M0 0 C0.66 0 1.32 0 2 0 C0.125 5.875 0.125 5.875 -1 7 C-1.157 8.486 -1.251 9.979 -1.316 11.473 C-1.358 12.372 -1.4 13.271 -1.443 14.197 C-1.483 15.143 -1.522 16.088 -1.562 17.062 C-1.606 18.012 -1.649 18.961 -1.693 19.939 C-1.8 22.293 -1.902 24.646 -2 27 C-2.33 27 -2.66 27 -3 27 C-3.087 23.25 -3.14 19.501 -3.188 15.75 C-3.213 14.687 -3.238 13.623 -3.264 12.527 C-3.273 11.503 -3.283 10.478 -3.293 9.422 C-3.309 8.479 -3.324 7.537 -3.341 6.565 C-2.94 3.546 -2.103 2.174 0 0 Z " fill="#0B34E9" transform="translate(451,735)"/>
<path d="M0 0 C0.33 0.99 0.66 1.98 1 3 C-2.784 8.901 -8.656 13.558 -14 18 C-14 15 -14 15 -11.699 12.695 C-10.705 11.847 -9.711 10.999 -8.688 10.125 C-5.012 6.983 -2.257 4.299 0 0 Z " fill="#1427E7" transform="translate(551,734)"/>
<path d="M0 0 C0 0.33 0 0.66 0 1 C-9.041 3.688 -17.75 2.794 -27 2 C-27 1.67 -27 1.34 -27 1 C-23.251 0.635 -19.501 0.285 -15.75 -0.062 C-14.687 -0.166 -13.623 -0.27 -12.527 -0.377 C-11.503 -0.47 -10.478 -0.564 -9.422 -0.66 C-8.479 -0.749 -7.537 -0.838 -6.565 -0.93 C-4.135 -0.996 -2.307 -0.724 0 0 Z " fill="#0D3DEB" transform="translate(349,617)"/>
<path d="M0 0 C0 0.99 0 1.98 0 3 C1.016 6.049 1.774 6.867 4 9 C5.262 11.525 5.099 13.312 5.062 16.125 C5.053 17.035 5.044 17.945 5.035 18.883 C5.024 19.581 5.012 20.28 5 21 C4.67 21 4.34 21 4 21 C3.925 20.264 3.85 19.528 3.773 18.77 C3.013 11.999 3.013 11.999 -1.125 6.938 C-2.074 6.298 -3.023 5.659 -4 5 C-4 4.34 -4 3.68 -4 3 C-2 1.375 -2 1.375 0 0 Z " fill="#171EE5" transform="translate(673,732)"/>
<path d="M0 0 C-0.99 0.33 -1.98 0.66 -3 1 C-7.634 3.608 -11.934 6.569 -16 10 C-16 7 -16 7 -14.609 5.465 C-13.996 4.961 -13.382 4.457 -12.75 3.938 C-12.147 3.431 -11.543 2.924 -10.922 2.402 C-6.934 -0.507 -4.855 -1.348 0 0 Z " fill="#1A46EA" transform="translate(234,371)"/>
<path d="M0 0 C0.66 0 1.32 0 2 0 C2 0.66 2 1.32 2 2 C-2.157 5.788 -6.882 8.697 -12 11 C-11.812 9.199 -11.812 9.199 -11 7 C-8.75 5.332 -8.75 5.332 -6 3.812 C-2.807 2.17 -2.807 2.17 0 0 Z " fill="#1F2EEC" transform="translate(479,605)"/>
<path d="M0 0 C1.707 -0.004 1.707 -0.004 3.449 -0.008 C6.312 0.125 6.312 0.125 8.312 1.125 C7.983 1.785 7.652 2.445 7.312 3.125 C0.872 3.232 -5.314 3.087 -11.688 2.125 C-11.688 1.795 -11.688 1.465 -11.688 1.125 C-7.739 0.192 -4.053 -0.009 0 0 Z " fill="#4016E8" transform="translate(497.6875,257.875)"/>
<path d="M0 0 C3.03 0.433 4.95 0.968 7.562 2.625 C9.845 4.216 9.845 4.216 12.125 3.812 C14.268 2.95 14.268 2.95 17 1 C16.25 3.438 16.25 3.438 15 6 C13.281 6.844 13.281 6.844 11 7 C8.203 5.785 8.203 5.785 5.25 4.062 C4.265 3.497 3.28 2.931 2.266 2.348 C1.518 1.903 0.77 1.458 0 1 C0 0.67 0 0.34 0 0 Z " fill="#1933EC" transform="translate(348,531)"/>
<path d="M0 0 C2.731 1.044 4.185 2.665 6.125 4.812 C5.362 4.503 4.599 4.194 3.812 3.875 C1.937 3.134 0.038 2.45 -1.875 1.812 C-2.102 2.431 -2.329 3.05 -2.562 3.688 C-4.254 6.427 -5.867 6.863 -8.875 7.812 C-7.5 5.312 -7.5 5.312 -5.875 2.812 C-5.215 2.812 -4.555 2.812 -3.875 2.812 C-3.875 2.152 -3.875 1.493 -3.875 0.812 C-1.875 -0.188 -1.875 -0.188 0 0 Z " fill="#1C3FED" transform="translate(269.875,424.1875)"/>
<path d="M0 0 C0 3 0 3 -1.688 5.688 C-4.69 8.62 -7.77 8.321 -11.812 8.312 C-13.876 8.232 -15.939 8.136 -18 8 C-18 7.67 -18 7.34 -18 7 C-16.701 6.959 -15.401 6.918 -14.062 6.875 C-8.316 6.282 -4.48 3.463 0 0 Z " fill="#0D3FEA" transform="translate(429,756)"/>
<path d="M0 0 C0.66 0.33 1.32 0.66 2 1 C2.573 4.926 2.75 6.92 0.441 10.246 C-1.317 12.23 -3.109 14.143 -5 16 C-5.66 15.67 -6.32 15.34 -7 15 C-6.361 14.402 -5.721 13.804 -5.062 13.188 C-2.797 11.092 -2.797 11.092 -2 8 C-1.34 8 -0.68 8 0 8 C0 5.36 0 2.72 0 0 Z " fill="#1C27E6" transform="translate(626,724)"/>
<path d="M0 0 C0.99 0.33 1.98 0.66 3 1 C-1.373 5.108 -5.256 8.122 -11 10 C-11.99 9.67 -12.98 9.34 -14 9 C-13.073 8.434 -12.146 7.868 -11.191 7.285 C-9.982 6.544 -8.772 5.803 -7.562 5.062 C-6.951 4.689 -6.339 4.316 -5.709 3.932 C-2.69 2.185 -2.69 2.185 0 0 Z " fill="#2028EC" transform="translate(394,445)"/>
<path d="M0 0 C2.433 2.433 2.321 3.337 2.562 6.688 C2.899 10.828 3.375 14.894 4 19 C-0.863 13.292 -0.125 7.137 0 0 Z " fill="#0F47E9" transform="translate(209,400)"/>
<path d="M0 0 C0.593 0.206 1.186 0.413 1.797 0.625 C0.683 1.326 -0.431 2.028 -1.578 2.75 C-5.105 5.237 -6.303 7.324 -7.203 11.625 C-7.533 11.625 -7.863 11.625 -8.203 11.625 C-8.914 5.584 -8.914 5.584 -7.008 3.012 C-3.049 -0.519 -3.049 -0.519 0 0 Z " fill="#1436EC" transform="translate(323.203125,529.375)"/>
<path d="M0 0 C1.442 -0.021 1.442 -0.021 2.914 -0.043 C5.375 0.188 5.375 0.188 7.375 2.188 C6.758 2.153 6.14 2.118 5.504 2.082 C-0.81 1.88 -5.779 2.815 -11.625 5.188 C-10.875 3.25 -10.875 3.25 -9.625 1.188 C-6.541 -0.096 -3.309 0.022 0 0 Z " fill="#1A25E6" transform="translate(619.625,711.8125)"/>
<path d="M0 0 C0.33 0 0.66 0 1 0 C1.33 6.93 1.66 13.86 2 21 C-1.069 22.534 -3.701 21.55 -7 21 C-7 20.67 -7 20.34 -7 20 C-4.69 20 -2.38 20 0 20 C0 13.4 0 6.8 0 0 Z " fill="#2652EB" transform="translate(447,742)"/>
<path d="M0 0 C0.675 0.205 1.351 0.41 2.047 0.621 C2.939 0.891 3.831 1.16 4.75 1.438 C5.632 1.704 6.513 1.971 7.422 2.246 C9.606 2.885 11.788 3.468 14 4 C13.67 4.99 13.34 5.98 13 7 C8 5.333 3 3.667 -2 2 C-1.34 1.34 -0.68 0.68 0 0 Z " fill="#6923E1" transform="translate(810,349)"/>
<path d="M0 0 C0.33 0.66 0.66 1.32 1 2 C-5.792 6.18 -11.114 6.473 -19 6 C-19 5.67 -19 5.34 -19 5 C-18.131 4.89 -17.262 4.781 -16.367 4.668 C-7.771 3.543 -7.771 3.543 0 0 Z " fill="#161DE4" transform="translate(674,758)"/>
<path d="M0 0 C0.66 0 1.32 0 2 0 C2 0.99 2 1.98 2 3 C2.66 3 3.32 3 4 3 C4.532 4.601 5.05 6.206 5.562 7.812 C5.853 8.706 6.143 9.599 6.441 10.52 C7 13 7 13 6 16 C4.996 13.71 3.996 11.418 3 9.125 C2.714 8.474 2.428 7.823 2.133 7.152 C0 2.227 0 2.227 0 0 Z " fill="#2B19E9" transform="translate(475,373)"/>
<path d="M0 0 C1.418 2.823 2.834 5.646 4.188 8.5 C4.552 9.253 4.917 10.006 5.293 10.781 C6.098 13.306 5.878 14.539 5 17 C3.967 14.734 2.949 12.463 1.938 10.188 C1.643 9.545 1.348 8.902 1.045 8.24 C-1.113 3.34 -1.113 3.34 0 0 Z " fill="#2F1CE9" transform="translate(469,355)"/>
<path d="M0 0 C2 3 2 3 2.688 5.125 C3.98 7.428 3.98 7.428 7.625 7.75 C8.739 7.832 9.853 7.915 11 8 C11.33 7.34 11.66 6.68 12 6 C12 6.99 12 7.98 12 9 C8.7 9 5.4 9 2 9 C2 8.34 2 7.68 2 7 C1.34 7 0.68 7 0 7 C-1.044 3.867 -0.934 3.01 0 0 Z " fill="#2A5FED" transform="translate(379,754)"/>
<path d="M0 0 C-2.882 2.273 -5.797 4.075 -9.062 5.75 C-9.92 6.199 -10.777 6.647 -11.66 7.109 C-14 8 -14 8 -17 7 C-15.112 5.82 -13.215 4.656 -11.312 3.5 C-10.257 2.85 -9.201 2.201 -8.113 1.531 C-5.023 0.011 -3.373 -0.35 0 0 Z " fill="#212AED" transform="translate(427,509)"/>
<path d="M0 0 C0.66 0 1.32 0 2 0 C2 0.66 2 1.32 2 2 C7.94 2 13.88 2 20 2 C20 2.33 20 2.66 20 3 C12.74 3 5.48 3 -2 3 C-1.34 2.01 -0.68 1.02 0 0 Z " fill="#0C1EE5" transform="translate(533,752)"/>
<path d="M0 0 C0.66 0.33 1.32 0.66 2 1 C-3.94 6.445 -3.94 6.445 -10 12 C-10 8.003 -8.679 6.896 -6 4 C-3.312 2.25 -3.312 2.25 -1 1 C-0.67 0.67 -0.34 0.34 0 0 Z " fill="#1927E8" transform="translate(616,741)"/>
<path d="M0 0 C1.32 0.33 2.64 0.66 4 1 C2.68 4.3 1.36 7.6 0 11 C-0.66 10.34 -1.32 9.68 -2 9 C-1.758 6.836 -1.758 6.836 -1.125 4.375 C-0.921 3.558 -0.718 2.74 -0.508 1.898 C-0.34 1.272 -0.173 0.645 0 0 Z " fill="#1652EB" transform="translate(354,723)"/>
<path d="M0 0 C4.116 1.845 6.341 3.51 8.188 7.688 C8.456 8.451 8.724 9.214 9 10 C8.01 10.495 8.01 10.495 7 11 C6.59 10.446 6.18 9.891 5.758 9.32 C5.219 8.596 4.68 7.871 4.125 7.125 C3.591 6.406 3.058 5.686 2.508 4.945 C1.001 2.917 1.001 2.917 -1 1 C-0.67 0.67 -0.34 0.34 0 0 Z " fill="#3A23E6" transform="translate(664,509)"/>
<path d="M0 0 C1.497 1.27 2.995 2.539 4.492 3.809 C6.006 5.088 6.006 5.088 8 6 C7.67 7.65 7.34 9.3 7 11 C4.044 8.248 1.884 5.58 0 2 C0 1.34 0 0.68 0 0 Z " fill="#361FE3" transform="translate(704,564)"/>
<path d="M0 0 C0.66 0.99 1.32 1.98 2 3 C-0.31 5.64 -2.62 8.28 -5 11 C-6.32 10.67 -7.64 10.34 -9 10 C-8.518 9.613 -8.036 9.227 -7.539 8.828 C-6.907 8.307 -6.276 7.787 -5.625 7.25 C-4.685 6.484 -4.685 6.484 -3.727 5.703 C-1.917 3.918 -0.999 2.321 0 0 Z " fill="#5C20DE" transform="translate(837,437)"/>
<path d="M0 0 C1.772 0.114 3.542 0.242 5.312 0.375 C6.792 0.479 6.792 0.479 8.301 0.586 C11 1 11 1 14 3 C4.59 3.369 4.59 3.369 0 1 C0 0.67 0 0.34 0 0 Z " fill="#2341ED" transform="translate(332,550)"/>
<path d="M0 0 C0.66 0.33 1.32 0.66 2 1 C1.01 2.485 1.01 2.485 0 4 C-0.33 4.66 -0.66 5.32 -1 6 C-1.66 6.66 -2.32 7.32 -3 8 C-3.99 7.67 -4.98 7.34 -6 7 C-4.607 3.633 -3.021 2.014 0 0 Z " fill="#212EE8" transform="translate(624,746)"/>
<path d="M0 0 C0 3 0 3 -1.391 4.789 C-2.004 5.395 -2.618 6.001 -3.25 6.625 C-3.853 7.236 -4.457 7.847 -5.078 8.477 C-7.094 10.074 -8.488 10.589 -11 11 C-7.333 7.333 -3.667 3.667 0 0 Z " fill="#1D1CE8" transform="translate(611,599)"/>
<path d="M0 0 C9.595 2.891 9.595 2.891 13 6 C7.577 5.566 4.299 4.355 0 1 C0 0.67 0 0.34 0 0 Z " fill="#1045EC" transform="translate(222,431)"/>
<path d="M0 0 C0.33 0 0.66 0 1 0 C1.66 3.63 2.32 7.26 3 11 C2.01 11.495 2.01 11.495 1 12 C1 10.68 1 9.36 1 8 C0.34 8 -0.32 8 -1 8 C-1.33 6.02 -1.66 4.04 -2 2 C-1.34 2 -0.68 2 0 2 C0 1.34 0 0.68 0 0 Z " fill="#2261EB" transform="translate(188,413)"/>
<path d="M0 0 C3.644 3.297 5.904 6.312 6.188 11.312 C6.126 12.199 6.064 13.086 6 14 C3.074 12.537 2.941 10.597 1.875 7.562 C1.522 6.574 1.169 5.585 0.805 4.566 C0 2 0 2 0 0 Z " fill="#261FEB" transform="translate(405,374)"/>
<path d="M0 0 C0.66 0 1.32 0 2 0 C0.787 3.724 -0.509 7.378 -2 11 C-2.99 10.67 -3.98 10.34 -5 10 C-3.35 6.7 -1.7 3.4 0 0 Z " fill="#2E29E8" transform="translate(617,588)"/>
<path d="M0 0 C0.812 0.476 0.812 0.476 1.641 0.961 C4.416 2.183 6.732 2.409 9.75 2.625 C11.227 2.737 11.227 2.737 12.734 2.852 C13.482 2.901 14.23 2.95 15 3 C15 3.33 15 3.66 15 4 C13.064 4.222 11.126 4.427 9.188 4.625 C7.569 4.799 7.569 4.799 5.918 4.977 C3 5 3 5 0 3 C0 2.01 0 1.02 0 0 Z " fill="#426DEE" transform="translate(405,759)"/>
<path d="M0 0 C1 3 1 3 0.004 5.48 C-0.472 6.374 -0.947 7.267 -1.438 8.188 C-1.911 9.089 -2.384 9.99 -2.871 10.918 C-3.244 11.605 -3.616 12.292 -4 13 C-5.333 10.333 -4.671 8.833 -4 6 C-3.34 6 -2.68 6 -2 6 C-1.34 4.02 -0.68 2.04 0 0 Z " fill="#2E16E8" transform="translate(514,359)"/>
<path d="M0 0 C0.33 0.66 0.66 1.32 1 2 C3.31 2 5.62 2 8 2 C8 2.66 8 3.32 8 4 C5.69 4.33 3.38 4.66 1 5 C0.34 4.01 -0.32 3.02 -1 2 C-0.67 1.34 -0.34 0.68 0 0 Z " fill="#1250EB" transform="translate(395,775)"/>
<path d="M0 0 C-7.286 4.571 -7.286 4.571 -12 4 C-10.72 1.441 -9.758 1.301 -7.125 0.312 C-6.077 -0.095 -6.077 -0.095 -5.008 -0.512 C-3 -1 -3 -1 0 0 Z " fill="#2629EA" transform="translate(599,612)"/>
<path d="M0 0 C0.33 0 0.66 0 1 0 C1.369 5.538 1.369 5.538 -0.5 7.875 C-1.243 8.432 -1.243 8.432 -2 9 C-2.66 8.67 -3.32 8.34 -4 8 C-2.68 5.36 -1.36 2.72 0 0 Z " fill="#202BEC" transform="translate(494,584)"/>
<path d="M0 0 C0.99 0 1.98 0 3 0 C3.33 2.31 3.66 4.62 4 7 C4.66 7 5.32 7 6 7 C6 7.66 6 8.32 6 9 C3 8 3 8 1.312 5.062 C0 2 0 2 0 0 Z " fill="#174CEA" transform="translate(380,737)"/>
<path d="M0 0 C0.66 1.32 1.32 2.64 2 4 C2.66 4 3.32 4 4 4 C4.33 5.98 4.66 7.96 5 10 C4.34 10 3.68 10 3 10 C0 3.375 0 3.375 0 0 Z " fill="#164CEB" transform="translate(375,724)"/>
<path d="M0 0 C0.33 0.66 0.66 1.32 1 2 C-0.98 4.64 -2.96 7.28 -5 10 C-5.33 9.01 -5.66 8.02 -6 7 C-4.785 5.176 -4.785 5.176 -3.062 3.312 C-2.497 2.69 -1.931 2.067 -1.348 1.426 C-0.903 0.955 -0.458 0.485 0 0 Z " fill="#202BEC" transform="translate(489,594)"/>
<path d="M0 0 C2 1 2 1 2.852 3.285 C3.107 4.202 3.362 5.118 3.625 6.062 C3.885 6.982 4.146 7.901 4.414 8.848 C4.607 9.558 4.801 10.268 5 11 C1.877 8.482 1.055 7.274 0.25 3.25 C0.168 2.178 0.085 1.105 0 0 Z " fill="#1A33ED" transform="translate(390,581)"/>
<path d="M0 0 C2.721 2.35 3.967 4.557 5 8 C4.67 8.99 4.34 9.98 4 11 C3.34 9.02 2.68 7.04 2 5 C1.34 5 0.68 5 0 5 C0 3.35 0 1.7 0 0 Z " fill="#271FEA" transform="translate(473,422)"/>
<path d="M0 0 C0.99 0.33 1.98 0.66 3 1 C1.358 3.021 -0.309 5.02 -2 7 C-2.33 7 -2.66 7 -3 7 C-3.188 4.625 -3.188 4.625 -3 2 C-2.01 1.34 -1.02 0.68 0 0 Z " fill="#1B4AEA" transform="translate(406,727)"/>
<path d="M0 0 C0.33 0 0.66 0 1 0 C1.366 4.273 0.408 6.488 -2 10 C-2.688 8.375 -2.688 8.375 -3 6 C-1.562 2.75 -1.562 2.75 0 0 Z " fill="#2F1CE7" transform="translate(526,382)"/>
<path d="M0 0 C0.66 0.99 1.32 1.98 2 3 C1.125 5.688 1.125 5.688 0 8 C-0.66 7.01 -1.32 6.02 -2 5 C-1.125 2.312 -1.125 2.312 0 0 Z " fill="#2351EC" transform="translate(431,750)"/>
</svg>
