<?xml version="1.0" encoding="UTF-8"?>
<!-- Generator: visioncortex VTracer 0.6.4 -->
<svg version="1.1" xmlns="http://www.w3.org/2000/svg" width="1024" height="1024">
<path d="M0 0 C0.818 -0.007 1.637 -0.014 2.48 -0.022 C4.204 -0.029 5.927 -0.024 7.651 -0.008 C10.275 0.012 12.894 -0.028 15.518 -0.072 C17.199 -0.073 18.881 -0.069 20.562 -0.062 C21.339 -0.078 22.115 -0.093 22.915 -0.109 C28.293 0.005 31.085 1.486 35.028 5.121 C37.756 8.384 37.477 11.764 37.488 15.821 C37.494 17.103 37.5 18.384 37.505 19.704 C37.507 21.127 37.508 22.551 37.509 23.974 C37.513 25.47 37.518 26.967 37.524 28.463 C37.537 32.531 37.543 36.6 37.548 40.668 C37.551 43.21 37.555 45.753 37.559 48.295 C37.573 56.251 37.583 64.207 37.587 72.164 C37.591 81.345 37.609 90.525 37.638 99.706 C37.659 106.804 37.669 113.902 37.671 121.001 C37.672 125.239 37.678 129.477 37.695 133.716 C37.712 137.705 37.714 141.694 37.705 145.683 C37.705 147.144 37.709 148.605 37.719 150.067 C37.807 163.917 37.807 163.917 34.348 169.699 C30.308 173.284 25.923 173.167 20.758 173.168 C19.936 173.176 19.114 173.183 18.266 173.191 C16.533 173.202 14.799 173.205 13.065 173.2 C10.422 173.199 7.781 173.241 5.139 173.285 C3.449 173.29 1.76 173.293 0.07 173.293 C-0.714 173.309 -1.499 173.326 -2.307 173.343 C-6.391 173.292 -8.908 172.898 -12.135 170.287 C-15.479 166.849 -15.778 165.406 -15.811 160.754 C-15.82 159.708 -15.83 158.661 -15.84 157.583 C-15.846 156.429 -15.852 155.276 -15.858 154.087 C-15.868 152.875 -15.877 151.664 -15.888 150.415 C-15.914 147.079 -15.936 143.743 -15.956 140.407 C-15.978 136.897 -16.005 133.387 -16.032 129.877 C-16.076 123.959 -16.117 118.042 -16.155 112.124 C-16.208 103.861 -16.268 95.597 -16.329 87.334 C-16.377 80.848 -16.423 74.361 -16.469 67.875 C-16.474 67.194 -16.478 66.514 -16.483 65.812 C-16.533 58.767 -16.579 51.721 -16.613 44.675 C-16.635 40.126 -16.676 35.577 -16.734 31.028 C-16.752 28.977 -16.771 26.926 -16.789 24.876 C-16.805 23.97 -16.821 23.064 -16.838 22.131 C-16.883 15.07 -16.8 8.208 -12.068 2.68 C-7.809 0.21 -4.833 -0.043 0 0 Z " fill="#4481DF" transform="translate(289.65234375,438.30078125)"/>
<path d="M0 0 C2.841 0.008 5.677 0.061 8.517 0.133 C9.844 0.147 9.844 0.147 11.198 0.161 C15.669 0.346 17.583 0.561 21.181 3.438 C24.278 7.497 24.314 9.811 24.458 14.914 C24.479 15.642 24.5 16.37 24.521 17.12 C24.589 19.582 24.647 22.045 24.704 24.508 C24.735 25.784 24.735 25.784 24.766 27.086 C25.142 43.107 25.275 59.13 25.318 75.155 C25.325 77.76 25.336 80.365 25.35 82.969 C25.368 86.661 25.372 90.352 25.372 94.043 C25.383 95.702 25.383 95.702 25.394 97.394 C25.355 110.524 25.355 110.524 20.579 115.883 C19.775 116.584 18.97 117.285 18.142 118.008 C17.812 118.338 17.482 118.668 17.142 119.008 C14.705 119.205 12.294 119.341 9.853 119.43 C9.116 119.458 8.379 119.485 7.62 119.514 C6.055 119.571 4.49 119.624 2.924 119.675 C0.547 119.757 -1.829 119.861 -4.206 119.965 C-5.728 120.017 -7.25 120.068 -8.772 120.117 C-9.477 120.151 -10.181 120.186 -10.907 120.221 C-16.083 120.351 -19.359 119.363 -23.858 117.008 C-27.845 112.916 -28.978 109.562 -28.992 103.967 C-28.996 103.173 -29.001 102.378 -29.005 101.559 C-29.005 100.696 -29.004 99.833 -29.004 98.944 C-29.007 98.028 -29.01 97.112 -29.014 96.169 C-29.023 93.14 -29.025 90.111 -29.026 87.082 C-29.03 84.975 -29.033 82.867 -29.036 80.76 C-29.042 76.341 -29.044 71.921 -29.044 67.502 C-29.044 61.846 -29.057 56.191 -29.074 50.535 C-29.086 46.181 -29.088 41.827 -29.087 37.473 C-29.088 35.389 -29.093 33.304 -29.1 31.219 C-29.11 28.299 -29.107 25.38 -29.101 22.46 C-29.107 21.603 -29.113 20.746 -29.118 19.863 C-29.085 13.57 -28.568 8.361 -24.765 3.125 C-21.013 0.392 -17.846 0.186 -13.358 0.133 C-12.539 0.109 -11.72 0.086 -10.875 0.062 C-7.25 -0.014 -3.626 0.01 0 0 Z " fill="#3689D9" transform="translate(223.8583984375,491.9921875)"/>
<path d="M0 0 C0.688 -0.003 1.375 -0.006 2.083 -0.009 C3.529 -0.011 4.974 -0.005 6.42 0.007 C8.619 0.023 10.816 0.007 13.016 -0.012 C14.427 -0.01 15.839 -0.006 17.25 0 C19.157 0.005 19.157 0.005 21.102 0.01 C25.004 0.44 27.347 1.249 30.625 3.398 C34.751 8.623 34.104 14.028 34.062 20.398 C34.082 21.479 34.102 22.559 34.123 23.672 C34.118 31.528 34.118 31.528 31.816 35.59 C28.783 38.094 26.516 38.329 22.625 38.398 C20.188 37.461 20.188 37.461 18.625 36.398 C18.625 35.738 18.625 35.078 18.625 34.398 C18.006 34.11 17.387 33.821 16.75 33.523 C14.625 32.398 14.625 32.398 12.625 30.398 C9.152 30.713 7.47 32.196 5.094 34.637 C4.125 35.62 4.125 35.62 3.137 36.623 C2.473 37.312 1.809 38.001 1.125 38.711 C0.461 39.388 -0.203 40.066 -0.887 40.764 C-3.518 43.45 -6.136 46.146 -8.719 48.879 C-10.375 50.398 -10.375 50.398 -12.375 50.398 C-12.375 51.058 -12.375 51.718 -12.375 52.398 C-13.035 52.398 -13.695 52.398 -14.375 52.398 C-14.375 53.058 -14.375 53.718 -14.375 54.398 C-15.849 55.852 -15.849 55.852 -17.884 57.538 C-22.212 61.221 -26.233 65.128 -30.234 69.16 C-30.946 69.873 -31.658 70.586 -32.391 71.321 C-34.638 73.574 -36.882 75.83 -39.125 78.086 C-40.644 79.61 -42.164 81.134 -43.684 82.658 C-46.463 85.446 -49.242 88.235 -52.019 91.026 C-52.606 91.614 -53.194 92.202 -53.799 92.808 C-55.12 94.141 -56.417 95.497 -57.708 96.859 C-59.375 98.398 -59.375 98.398 -61.375 98.398 C-61.375 99.058 -61.375 99.718 -61.375 100.398 C-66.239 105.407 -71.234 110.049 -78.312 110.836 C-85.682 110.505 -91.294 104.282 -96.375 99.398 C-97.097 98.45 -97.819 97.501 -98.562 96.523 C-100.211 94.257 -100.211 94.257 -102.676 93.477 C-105.542 93.11 -105.542 93.11 -107.875 95.312 C-108.7 96.207 -109.525 97.102 -110.375 98.023 C-111.2 98.903 -112.025 99.782 -112.875 100.688 C-113.7 101.582 -114.525 102.477 -115.375 103.398 C-117.034 105.073 -118.701 106.74 -120.375 108.398 C-121.272 109.296 -122.169 110.193 -123.094 111.117 C-131.375 119.398 -131.375 119.398 -133.756 121.767 C-136.201 124.224 -138.601 126.717 -140.992 129.227 C-142.744 131.034 -144.497 132.842 -146.25 134.648 C-147.559 136.033 -147.559 136.033 -148.895 137.445 C-156.17 144.885 -156.17 144.885 -160.332 145.555 C-163.532 145.39 -165.594 144.988 -168.375 143.398 C-170.783 139.786 -171.099 138.66 -170.375 134.398 C-168.32 131.454 -165.902 128.941 -163.375 126.398 C-162.468 125.47 -161.56 124.542 -160.625 123.586 C-159.511 122.503 -159.511 122.503 -158.375 121.398 C-157.818 120.8 -157.261 120.202 -156.688 119.586 C-155.375 118.398 -155.375 118.398 -153.375 118.398 C-153.106 117.805 -152.837 117.212 -152.561 116.601 C-151.372 114.393 -150.168 112.933 -148.406 111.164 C-147.835 110.59 -147.264 110.017 -146.676 109.426 C-146.082 108.839 -145.487 108.253 -144.875 107.648 C-144.281 107.046 -143.686 106.444 -143.074 105.824 C-142.503 105.256 -141.932 104.687 -141.344 104.102 C-140.822 103.582 -140.301 103.063 -139.764 102.528 C-138.375 101.398 -138.375 101.398 -136.375 101.398 C-136.375 100.738 -136.375 100.078 -136.375 99.398 C-135.715 99.398 -135.055 99.398 -134.375 99.398 C-134.375 98.738 -134.375 98.078 -134.375 97.398 C-133.715 97.398 -133.055 97.398 -132.375 97.398 C-131.88 95.913 -131.88 95.913 -131.375 94.398 C-130.715 94.398 -130.055 94.398 -129.375 94.398 C-129.169 93.842 -128.963 93.285 -128.75 92.711 C-127.195 90.096 -125.273 88.568 -122.898 86.703 C-121.128 85.269 -121.128 85.269 -119.125 82.586 C-118.259 81.503 -118.259 81.503 -117.375 80.398 C-116.715 80.398 -116.055 80.398 -115.375 80.398 C-115.375 79.738 -115.375 79.078 -115.375 78.398 C-111.283 74.67 -108.811 72.633 -103.125 72.086 C-95.247 72.742 -90.699 77.636 -85.688 83.309 C-85.089 83.957 -84.491 84.605 -83.875 85.273 C-83.328 85.89 -82.782 86.506 -82.219 87.141 C-80.433 88.629 -80.433 88.629 -78.103 88.294 C-74.52 87.118 -72.439 84.977 -69.882 82.328 C-69.358 81.801 -68.834 81.274 -68.294 80.731 C-66.568 78.993 -64.856 77.241 -63.145 75.488 C-61.947 74.278 -60.748 73.069 -59.548 71.86 C-56.396 68.681 -53.254 65.491 -50.116 62.297 C-45.084 57.18 -40.039 52.075 -34.988 46.977 C-33.223 45.192 -31.464 43.399 -29.706 41.606 C-28.631 40.517 -27.556 39.428 -26.48 38.34 C-25.99 37.836 -25.5 37.333 -24.995 36.814 C-23.826 35.637 -22.605 34.512 -21.375 33.398 C-20.715 33.398 -20.055 33.398 -19.375 33.398 C-19.375 32.738 -19.375 32.078 -19.375 31.398 C-17.725 30.045 -16.058 28.712 -14.375 27.398 C-14.045 26.738 -13.715 26.078 -13.375 25.398 C-12.715 25.398 -12.055 25.398 -11.375 25.398 C-10.416 23.203 -10.416 23.203 -10.375 20.398 C-11.991 18.357 -13.661 16.358 -15.375 14.398 C-16.731 11.009 -16.497 9.756 -15.312 6.273 C-11.5 0.616 -6.487 0.017 0 0 Z " fill="#488BEB" transform="translate(293.375,365.6015625)"/>
<path d="M0 0 C4.678 3.356 4.678 3.356 6 6 C10.058 4.051 13.83 1.696 17.66 -0.66 C23.152 -3.805 28.839 -3.548 35 -3 C41.191 -1.296 45.574 2.652 49 8 C52.055 15.857 52.156 24.556 52.168 32.902 C52.173 34.108 52.173 34.108 52.178 35.338 C52.183 37.018 52.185 38.697 52.185 40.377 C52.188 42.955 52.206 45.533 52.225 48.111 C52.228 49.75 52.23 51.389 52.23 53.027 C52.238 53.798 52.245 54.569 52.252 55.363 C52.229 60.771 52.229 60.771 50 63 C47.273 63.172 44.661 63.232 41.938 63.188 C41.192 63.187 40.446 63.186 39.678 63.186 C34.14 63.14 34.14 63.14 33 62 C32.864 58.958 32.789 55.935 32.754 52.891 C32.721 51.003 32.688 49.115 32.654 47.227 C32.607 44.24 32.563 41.253 32.523 38.267 C32.483 35.391 32.432 32.516 32.379 29.641 C32.37 28.751 32.362 27.861 32.353 26.944 C32.267 22.574 32.157 18.925 30 15 C26.899 12.694 24.486 12.883 20.75 13.375 C19.858 13.486 18.966 13.597 18.047 13.711 C17.371 13.806 16.696 13.902 16 14 C16 14.66 16 15.32 16 16 C15.294 16.692 15.294 16.692 14.574 17.398 C9.656 22.403 10.838 31.672 10.893 38.208 C10.922 40.451 10.959 42.694 11 44.938 C11.053 47.926 11.093 50.914 11.125 53.902 C11.148 55.217 11.171 56.532 11.195 57.886 C11 61 11 61 9 63 C6.08 62.983 3.277 62.861 0.375 62.625 C-0.828 62.54 -0.828 62.54 -2.055 62.453 C-4.037 62.312 -6.019 62.157 -8 62 C-8.179 59.709 -8.345 57.418 -8.5 55.125 C-8.55 54.39 -8.6 53.655 -8.651 52.897 C-8.94 48.007 -9.007 43.157 -8.926 38.258 C-8.909 37.1 -8.892 35.942 -8.875 34.75 C-8.834 32.441 -8.776 30.132 -8.699 27.825 C-8.544 21.547 -8.544 21.547 -10.762 15.797 C-13.654 13.475 -15.341 12.893 -19 13.129 C-23.069 14.011 -24.647 14.584 -27.438 17.875 C-30.035 23.069 -30.195 27.738 -30.316 33.484 C-30.337 34.3 -30.358 35.116 -30.379 35.956 C-30.445 38.554 -30.504 41.152 -30.562 43.75 C-30.606 45.514 -30.649 47.279 -30.693 49.043 C-30.8 53.362 -30.902 57.681 -31 62 C-34.457 62.936 -37.533 63.134 -41.125 63.125 C-42.707 63.129 -42.707 63.129 -44.32 63.133 C-47 63 -47 63 -49 62 C-49 42.86 -49 23.72 -49 4 C-49.66 4 -50.32 4 -51 4 C-49.125 -0.875 -49.125 -0.875 -48 -2 C-45.303 -2.073 -42.633 -2.092 -39.938 -2.062 C-39.179 -2.058 -38.42 -2.053 -37.639 -2.049 C-35.759 -2.037 -33.88 -2.019 -32 -2 C-31.67 0.31 -31.34 2.62 -31 5 C-30.492 4.59 -29.984 4.18 -29.461 3.758 C-20.322 -3.396 -10.56 -5.798 0 0 Z " fill="#2E4152" transform="translate(588,441)"/>
<path d="M0 0 C7.872 7.727 11.341 16.943 11.562 27.875 C11.492 37.635 8.591 46.661 2 54 C-5.442 60.094 -12.68 62.487 -22.273 62.328 C-27.349 61.717 -31.409 59.591 -35 56 C-35.33 65.24 -35.66 74.48 -36 84 C-38.764 84.227 -41.528 84.454 -44.375 84.688 C-45.244 84.767 -46.114 84.847 -47.009 84.928 C-49.001 85.068 -51.003 85.038 -53 85 C-55.486 81.271 -55.275 78.402 -55.243 74.088 C-55.245 73.283 -55.247 72.478 -55.249 71.648 C-55.252 68.984 -55.242 66.32 -55.23 63.656 C-55.229 61.807 -55.229 59.957 -55.229 58.108 C-55.228 54.231 -55.219 50.354 -55.206 46.477 C-55.189 41.504 -55.185 36.53 -55.186 31.557 C-55.185 27.737 -55.18 23.918 -55.173 20.099 C-55.17 18.265 -55.168 16.431 -55.167 14.597 C-55.165 12.035 -55.156 9.474 -55.145 6.912 C-55.146 5.771 -55.146 5.771 -55.147 4.607 C-55.127 1.469 -55 -0.999 -54 -4 C-48.72 -4 -43.44 -4 -38 -4 C-37.34 -2.02 -36.68 -0.04 -36 2 C-35.371 1.59 -34.742 1.18 -34.094 0.758 C-22.773 -6.369 -11.596 -8.486 0 0 Z M-37 3 C-36 5 -36 5 -36 5 Z M-30 12 C-34.56 16.677 -36.127 21.297 -36.25 27.75 C-36.167 33.967 -35.011 38.759 -30.812 43.438 C-27.247 45.418 -24.04 46.192 -20 46 C-14.823 44.447 -11.858 42.616 -9 38 C-7.752 34.047 -7.841 30.122 -8 26 C-8.33 25.67 -8.66 25.34 -9 25 C-8.691 24.165 -8.691 24.165 -8.375 23.312 C-7.802 19.779 -9.137 17.98 -11 15 C-16.486 9.361 -22.93 8.858 -30 12 Z " fill="#293C4D" transform="translate(706,443)"/>
<path d="M0 0 C1.25 -0.012 2.501 -0.024 3.789 -0.037 C19.42 -0.062 19.42 -0.062 24.688 4.125 C27.211 7.456 27.384 10.251 27.427 14.298 C27.446 15.86 27.446 15.86 27.466 17.454 C27.473 18.579 27.481 19.704 27.488 20.863 C27.496 22.021 27.504 23.179 27.513 24.372 C27.527 26.824 27.537 29.276 27.545 31.728 C27.562 35.475 27.606 39.22 27.65 42.967 C27.661 45.349 27.669 47.731 27.676 50.113 C27.693 51.232 27.711 52.351 27.729 53.504 C27.712 59.702 27.5 63.526 23.25 68.188 C18.18 71.567 12.153 70.756 6.188 70.938 C4.902 70.993 3.616 71.048 2.291 71.105 C-15.544 71.706 -15.544 71.706 -20.426 67.871 C-24.243 63.581 -24.867 59.753 -24.911 54.223 C-24.921 53.238 -24.93 52.254 -24.94 51.239 C-24.944 50.182 -24.949 49.125 -24.953 48.035 C-24.959 46.943 -24.965 45.851 -24.97 44.725 C-24.98 42.416 -24.986 40.107 -24.99 37.798 C-25 34.267 -25.031 30.736 -25.062 27.205 C-25.069 24.961 -25.074 22.717 -25.078 20.473 C-25.09 19.417 -25.103 18.362 -25.116 17.275 C-25.088 8.158 -25.088 8.158 -21.75 4.188 C-15.635 -1.336 -7.759 0.004 0 0 Z " fill="#4D9B88" transform="translate(150.75,540.8125)"/>
<path d="M0 0 C0.787 0.006 1.574 0.011 2.384 0.017 C12.723 0.232 20.35 2.373 28.188 9.312 C27.655 13.537 26.311 15.853 23.625 19.125 C22.984 19.915 22.344 20.705 21.684 21.52 C21.19 22.111 20.696 22.703 20.188 23.312 C14.188 21.312 14.188 21.312 12.102 20.512 C4.099 17.549 -2.754 17.338 -10.809 20.336 C-13.844 21.815 -15.693 23.709 -17.812 26.312 C-18.895 27.55 -18.895 27.55 -20 28.812 C-23.855 36.257 -24.701 44.906 -22.641 53.027 C-20.22 59.706 -16.464 64.951 -10.035 68.215 C-1.333 71.954 6.535 70.563 15.188 67.312 C17.215 66.369 19.23 65.394 21.188 64.312 C22.177 65.701 23.154 67.099 24.125 68.5 C24.67 69.277 25.216 70.055 25.777 70.855 C27.233 73.392 27.784 75.434 28.188 78.312 C27.573 78.711 26.958 79.109 26.324 79.52 C25.516 80.049 24.708 80.579 23.875 81.125 C23.074 81.647 22.274 82.169 21.449 82.707 C19.195 84.191 19.195 84.191 17.656 85.969 C14.631 88.737 10.097 88.147 6.188 88.312 C4.936 88.377 3.684 88.441 2.395 88.508 C-10.82 88.987 -21.697 86.2 -31.812 77.312 C-41.316 67.335 -45.45 54.992 -45.121 41.301 C-44.044 30.867 -40.562 22.292 -33.812 14.312 C-33.266 13.655 -32.719 12.998 -32.156 12.32 C-23.77 3.103 -12.115 -0.091 0 0 Z " fill="#2D4051" transform="translate(434.8125,416.6875)"/>
<path d="M0 0 C1.119 0.006 1.119 0.006 2.26 0.012 C3.373 0.006 3.373 0.006 4.508 0 C10.069 0.01 10.069 0.01 12.322 1.137 C13.354 4.006 14.274 6.847 15.143 9.766 C15.538 11.062 15.538 11.062 15.941 12.385 C16.784 15.154 17.616 17.926 18.447 20.699 C19.016 22.574 19.585 24.448 20.154 26.322 C21.552 30.925 22.939 35.53 24.322 40.137 C26.523 35.971 27.698 31.722 28.947 27.199 C29.177 26.401 29.406 25.602 29.643 24.779 C30.746 20.814 31.642 17.296 31.322 13.137 C31.982 13.137 32.642 13.137 33.322 13.137 C33.504 12.232 33.504 12.232 33.689 11.309 C33.857 10.509 34.025 9.71 34.197 8.887 C34.36 8.098 34.522 7.309 34.689 6.496 C35.322 4.137 35.322 4.137 37.322 0.137 C42.932 0.137 48.542 0.137 54.322 0.137 C55.442 3.495 55.249 4.073 54.127 7.273 C53.83 8.141 53.532 9.009 53.226 9.903 C52.887 10.867 52.547 11.831 52.197 12.824 C51.455 14.978 50.716 17.133 49.979 19.289 C49.561 20.51 49.143 21.73 48.713 22.988 C47.118 27.707 45.611 32.455 44.104 37.203 C43.536 38.982 42.969 40.76 42.401 42.538 C41.554 45.192 40.71 47.845 39.876 50.503 C30.246 81.135 30.246 81.135 19.76 87.449 C11.437 91.535 2.699 90.969 -5.998 88.184 C-7.678 87.137 -7.678 87.137 -8.498 85.352 C-8.721 82.604 -8.222 80.586 -7.428 77.949 C-7.049 76.629 -7.049 76.629 -6.662 75.281 C-6.337 74.574 -6.012 73.866 -5.678 73.137 C-4.193 72.642 -4.193 72.642 -2.678 72.137 C-2.018 72.467 -1.358 72.797 -0.678 73.137 C4.139 73.799 7.316 73.871 11.322 70.949 C13.396 68.033 14.238 66.682 14.322 63.137 C13.607 59.424 13.607 59.424 12.322 56.137 C11.662 55.807 11.002 55.477 10.322 55.137 C9.611 53.273 9.611 53.273 8.947 50.824 C7.264 44.861 5.309 39.005 3.322 33.137 C2.662 33.137 2.002 33.137 1.322 33.137 C1.219 32.188 1.116 31.239 1.01 30.262 C0.637 26.846 0.637 26.846 -2.678 25.137 C-2.678 24.147 -2.678 23.157 -2.678 22.137 C-2.018 22.137 -1.358 22.137 -0.678 22.137 C-1.111 21.04 -1.544 19.943 -1.99 18.812 C-2.553 17.358 -3.116 15.904 -3.678 14.449 C-3.964 13.728 -4.25 13.007 -4.545 12.264 C-6.003 8.463 -7.185 5.28 -6.678 1.137 C-4.866 -0.675 -2.408 0.004 0 0 Z M-0.678 22.137 C0.322 25.137 0.322 25.137 0.322 25.137 Z M1.322 28.137 C2.322 30.137 2.322 30.137 2.322 30.137 Z " fill="#2D4050" transform="translate(866.677734375,438.86328125)"/>
<path d="M0 0 C0 0.66 0 1.32 0 2 C0.596 2.233 1.191 2.467 1.805 2.707 C6.771 5.632 9.2 12.108 11.375 17.25 C12.929 26.572 12.718 35.272 9 44 C8.67 44.99 8.34 45.98 8 47 C6.391 48.622 4.653 50.005 2.883 51.449 C1.255 52.79 -0.288 54.231 -1.812 55.688 C-9.485 61.254 -17.804 61.495 -27 61 C-27.865 60.969 -28.73 60.938 -29.621 60.906 C-35.325 60.532 -35.325 60.532 -38.062 58.375 C-38.702 57.591 -39.341 56.808 -40 56 C-41.306 54.93 -42.62 53.868 -43.938 52.812 C-49.464 48.018 -52.938 42.275 -54 35 C-54.839 22.961 -53.487 13.452 -45.766 3.82 C-33.571 -8.752 -14.333 -9.555 0 0 Z M-30 12 C-34.449 16.93 -35.172 19.64 -35.25 26.25 C-35.276 27.555 -35.302 28.859 -35.328 30.203 C-34.887 35.312 -33.323 38.56 -29.875 42.312 C-25.969 44.605 -22.512 45.215 -18 45 C-13.337 43.273 -10.114 41.313 -7.941 36.801 C-5.886 30.685 -6.129 23.568 -8.188 17.5 C-10.223 14.693 -12.449 12.344 -15 10 C-15.99 10.33 -16.98 10.66 -18 11 C-18.33 10.67 -18.66 10.34 -19 10 C-23.589 8.427 -25.985 9.438 -30 12 Z " fill="#2C3F50" transform="translate(519,444)"/>
<path d="M0 0 C4.96 3.688 6.5 9.144 7.532 15.04 C8.072 19.61 8.125 24.057 8.098 28.652 C8.096 29.552 8.095 30.453 8.093 31.38 C8.088 34.233 8.075 37.085 8.062 39.938 C8.057 41.881 8.053 43.824 8.049 45.768 C8.038 50.512 8.021 55.256 8 60 C4.787 61.607 1.37 60.825 -2.125 60.562 C-2.879 60.51 -3.633 60.458 -4.41 60.404 C-6.274 60.275 -8.137 60.138 -10 60 C-10.025 58.987 -10.05 57.974 -10.076 56.93 C-10.171 53.133 -10.271 49.337 -10.372 45.541 C-10.415 43.905 -10.457 42.269 -10.497 40.633 C-10.654 28.266 -10.654 28.266 -12 16 C-12.66 15.67 -13.32 15.34 -14 15 C-14.436 14.493 -14.871 13.987 -15.32 13.465 C-18.124 11.02 -20.985 11.534 -24.555 11.648 C-28.052 12.151 -29.707 13.349 -32 16 C-34.414 20.57 -34.344 24.974 -34.414 30.02 C-34.433 30.878 -34.453 31.737 -34.473 32.621 C-34.532 35.352 -34.579 38.082 -34.625 40.812 C-34.663 42.669 -34.702 44.525 -34.742 46.381 C-34.838 50.92 -34.922 55.46 -35 60 C-41.159 61.232 -46.787 60.73 -53 60 C-53.023 51.803 -53.041 43.606 -53.052 35.409 C-53.057 31.603 -53.064 27.798 -53.075 23.992 C-53.086 20.322 -53.092 16.652 -53.095 12.982 C-53.097 11.579 -53.1 10.176 -53.106 8.773 C-53.113 6.814 -53.113 4.856 -53.114 2.897 C-53.116 1.78 -53.118 0.663 -53.12 -0.488 C-53 -3 -53 -3 -52 -4 C-49.47 -4.073 -46.967 -4.092 -44.438 -4.062 C-43.727 -4.058 -43.016 -4.053 -42.283 -4.049 C-40.522 -4.037 -38.761 -4.019 -37 -4 C-36.34 -1.69 -35.68 0.62 -35 3 C-34.564 2.59 -34.129 2.18 -33.68 1.758 C-23.541 -7.415 -11.335 -7.42 0 0 Z " fill="#324555" transform="translate(842,443)"/>
<path d="M0 0 C6.596 5.369 8.742 12.025 9.688 20.188 C9.813 23.333 9.805 26.473 9.785 29.621 C9.784 30.499 9.782 31.377 9.781 32.282 C9.775 35.063 9.763 37.844 9.75 40.625 C9.745 42.52 9.74 44.415 9.736 46.311 C9.725 50.936 9.708 55.562 9.688 60.188 C4.737 60.517 -0.212 60.847 -5.312 61.188 C-7.312 57.188 -7.312 57.188 -7.312 55.188 C-8.326 55.82 -8.326 55.82 -9.359 56.465 C-10.251 57.013 -11.143 57.561 -12.062 58.125 C-12.944 58.67 -13.826 59.216 -14.734 59.777 C-19.712 62.5 -24.725 62.84 -30.312 62.188 C-36.228 60.339 -39.796 57.196 -43.312 52.188 C-45.295 46.241 -45.388 39.511 -42.75 33.812 C-41.543 32.513 -41.543 32.513 -40.312 31.188 C-39.618 30.404 -39.618 30.404 -38.91 29.605 C-33.905 24.575 -28.111 23.475 -21.312 22.188 C-20.445 21.999 -19.577 21.811 -18.684 21.617 C-15.543 21.048 -12.496 21.125 -9.312 21.188 C-10.08 17.122 -10.522 14.82 -13.812 12.188 C-19.309 10.617 -24.495 10.696 -29.629 13.414 C-30.988 14.31 -32.322 15.245 -33.621 16.227 C-34.179 16.544 -34.737 16.861 -35.312 17.188 C-38.312 16.188 -38.312 16.188 -39.699 13.684 C-40.343 12.17 -40.343 12.17 -41 10.625 C-41.437 9.613 -41.874 8.601 -42.324 7.559 C-42.65 6.776 -42.976 5.994 -43.312 5.188 C-30.05 -5.457 -15.39 -8.421 0 0 Z M-17.875 33.5 C-18.825 33.744 -19.775 33.987 -20.754 34.238 C-23.399 35.219 -24.651 35.93 -26.312 38.188 C-26.896 41.688 -26.896 41.688 -26.312 45.188 C-24.058 47.983 -22.488 48.162 -18.938 48.688 C-14.105 48.021 -12.657 46.692 -9.312 43.188 C-7.716 39.767 -8.241 35.91 -8.312 32.188 C-11.905 32.188 -14.445 32.59 -17.875 33.5 Z " fill="#2D4051" transform="translate(768.3125,442.8125)"/>
<path d="M0 0 C0.33 0 0.66 0 1 0 C1.168 2.917 1.334 5.833 1.5 8.75 C1.548 9.575 1.595 10.4 1.645 11.25 C1.69 12.049 1.735 12.848 1.781 13.672 C1.844 14.772 1.844 14.772 1.908 15.894 C1.997 17.927 2 19.964 2 22 C5.125 22.029 8.25 22.047 11.375 22.062 C12.709 22.075 12.709 22.075 14.07 22.088 C14.921 22.091 15.772 22.094 16.648 22.098 C17.827 22.106 17.827 22.106 19.029 22.114 C21.078 22.126 21.078 22.126 23 21 C23 14.73 23 8.46 23 2 C29 1 29 1 32 2 C32.33 1.34 32.66 0.68 33 0 C34.517 3.033 34.261 6.218 34.352 9.551 C34.375 10.313 34.399 11.076 34.423 11.862 C34.497 14.345 34.562 16.829 34.625 19.312 C34.648 20.15 34.671 20.987 34.694 21.849 C35.033 34.61 34.982 47.263 34 60 C32.02 60 30.04 60 28 60 C27.505 60.99 27.505 60.99 27 62 C26.34 62 25.68 62 25 62 C25 61.34 25 60.68 25 60 C24.34 60 23.68 60 23 60 C21.543 57.085 21.868 54.495 21.875 51.25 C21.871 49.432 21.871 49.432 21.867 47.578 C21.989 44.29 22.377 41.226 23 38 C21.68 38 20.36 38 19 38 C19 37.34 19 36.68 19 36 C19.99 36 20.98 36 22 36 C15.019 35.042 8.026 34.51 1 34 C1.036 34.752 1.071 35.504 1.108 36.279 C1.265 39.665 1.414 43.051 1.562 46.438 C1.619 47.622 1.675 48.806 1.732 50.025 C1.781 51.15 1.829 52.275 1.879 53.434 C1.926 54.476 1.973 55.518 2.022 56.592 C2 59 2 59 1 60 C-0.853 60.072 -2.708 60.084 -4.562 60.062 C-5.574 60.053 -6.586 60.044 -7.629 60.035 C-8.803 60.018 -8.803 60.018 -10 60 C-10.89 56.943 -11.126 54.215 -11.129 51.035 C-11.133 50.051 -11.136 49.066 -11.139 48.052 C-11.137 46.994 -11.135 45.937 -11.133 44.848 C-11.134 43.755 -11.135 42.663 -11.136 41.538 C-11.136 39.229 -11.135 36.92 -11.13 34.611 C-11.125 31.08 -11.13 27.549 -11.137 24.018 C-11.136 21.773 -11.135 19.529 -11.133 17.285 C-11.135 16.23 -11.137 15.174 -11.139 14.087 C-11.136 13.099 -11.133 12.112 -11.129 11.094 C-11.129 10.229 -11.128 9.364 -11.127 8.473 C-10.995 5.898 -10.566 3.512 -10 1 C-3.375 0.875 -3.375 0.875 0 2 C0 1.34 0 0.68 0 0 Z " fill="#334352" transform="translate(662,544)"/>
<path d="M0 0 C2.154 0.63 2.154 0.63 5.016 0.508 C5.346 0.178 5.676 -0.152 6.016 -0.492 C7.53 -0.724 9.053 -0.904 10.578 -1.055 C11.404 -1.138 12.231 -1.222 13.082 -1.309 C14.039 -1.399 14.039 -1.399 15.016 -1.492 C16.052 3.617 16.171 8.508 16.141 13.695 C16.136 14.564 16.131 15.434 16.126 16.329 C16.101 19.056 16.061 21.782 16.016 24.508 C16.003 25.385 15.99 26.261 15.978 27.165 C15.931 29.697 15.854 32.227 15.766 34.758 C15.752 35.519 15.738 36.279 15.723 37.063 C15.412 44.075 13.12 49.308 8.266 54.383 C1.386 58.881 -5.111 59.114 -12.984 57.508 C-16.291 56.268 -18.254 55.355 -20.547 52.695 C-21.219 49.334 -19.672 47.363 -17.984 44.508 C-15.994 44.994 -14.019 45.497 -12.055 46.078 C-7.736 47.31 -4.388 47.942 0.016 46.508 C2.037 44.759 2.037 44.759 3.016 42.508 C2.686 41.518 2.356 40.528 2.016 39.508 C0.531 40.003 0.531 40.003 -0.984 40.508 C-1.974 40.508 -2.964 40.508 -3.984 40.508 C-4.314 41.168 -4.644 41.828 -4.984 42.508 C-11.242 41.013 -15.911 39.815 -19.984 34.508 C-24.006 27.71 -23.728 21.208 -22.984 13.508 C-21.461 8.103 -18.388 3.99 -13.984 0.508 C-8.799 -1.786 -5.282 -1.459 0 0 Z M-10.984 12.508 C-12.333 15.204 -12.153 17.374 -12.172 20.383 C-12.186 21.432 -12.2 22.481 -12.215 23.562 C-11.987 26.471 -11.583 28.096 -9.984 30.508 C-6.529 32.235 -2.763 31.986 1.016 31.508 C3.978 29.286 4.042 27.386 4.828 23.758 C5.233 19.244 4.536 15.779 3.016 11.508 C0.882 9.154 -0.319 8.627 -3.422 8.07 C-6.84 8.654 -8.493 10.155 -10.984 12.508 Z " fill="#304251" transform="translate(487.984375,563.4921875)"/>
<path d="M0 0 C1.772 0 3.544 0.006 5.316 0.016 C6.247 0.017 7.178 0.019 8.137 0.02 C11.122 0.026 14.108 0.038 17.094 0.051 C19.112 0.056 21.131 0.061 23.15 0.065 C28.11 0.076 33.071 0.093 38.031 0.114 C39.347 2.746 38.779 3.915 38.094 6.739 C37.899 7.556 37.704 8.373 37.504 9.215 C37.27 10.155 37.27 10.155 37.031 11.114 C36.041 11.114 35.051 11.114 34.031 11.114 C33.701 11.774 33.371 12.434 33.031 13.114 C27.586 12.619 27.586 12.619 22.031 12.114 C22.031 27.624 22.031 43.134 22.031 59.114 C20.711 59.774 19.391 60.434 18.031 61.114 C18.031 60.454 18.031 59.794 18.031 59.114 C15.061 59.114 12.091 59.114 9.031 59.114 C8.701 43.604 8.371 28.094 8.031 12.114 C5.061 12.114 2.091 12.114 -0.969 12.114 C-0.969 12.774 -0.969 13.434 -0.969 14.114 C-2.969 13.114 -2.969 13.114 -4.969 11.114 C-5.199 8.766 -5.199 8.766 -5.156 6.051 C-5.15 5.153 -5.144 4.254 -5.137 3.328 C-4.843 -0.553 -4.136 0.118 0 0 Z " fill="#1F3141" transform="translate(392.968994140625,544.886474609375)"/>
<path d="M0 0 C4.692 3.324 5.706 6.536 7 12 C7.243 15.425 7.243 15.425 7.23 18.957 C7.229 20.234 7.227 21.511 7.225 22.826 C7.206 24.799 7.206 24.799 7.188 26.812 C7.186 28.161 7.185 29.509 7.186 30.857 C7.141 40.719 7.141 40.719 6 43 C2.7 42.34 -0.6 41.68 -4 41 C-4.025 40.198 -4.05 39.396 -4.076 38.569 C-4.192 34.942 -4.315 31.315 -4.438 27.688 C-4.477 26.425 -4.516 25.162 -4.557 23.861 C-4.599 22.653 -4.64 21.444 -4.684 20.199 C-4.72 19.084 -4.757 17.968 -4.795 16.819 C-4.889 13.921 -4.889 13.921 -6 11 C-9.306 10.146 -9.306 10.146 -13 10 C-15.975 12.145 -16.886 13.456 -17.645 17.066 C-17.7 18.22 -17.755 19.374 -17.812 20.562 C-17.872 21.796 -17.931 23.03 -17.992 24.301 C-18.001 28.561 -17.663 32.676 -17.059 36.891 C-17.039 37.587 -17.02 38.283 -17 39 C-19 41 -19 41 -21.602 41.195 C-23.098 41.161 -23.098 41.161 -24.625 41.125 C-25.628 41.107 -26.631 41.089 -27.664 41.07 C-28.82 41.036 -28.82 41.036 -30 41 C-30.025 35.482 -30.043 29.965 -30.055 24.447 C-30.06 22.569 -30.067 20.691 -30.075 18.813 C-30.088 16.118 -30.093 13.422 -30.098 10.727 C-30.103 9.884 -30.108 9.041 -30.113 8.173 C-30.114 2.228 -30.114 2.228 -29 0 C-25.7 0 -22.4 0 -19 0 C-18.67 0.99 -18.34 1.98 -18 3 C-17.134 2.288 -17.134 2.288 -16.25 1.562 C-11.271 -1.895 -5.711 -1.333 0 0 Z " fill="#354554" transform="translate(575,563)"/>
<path d="M0 0 C3.168 2.592 4.768 4.803 6.062 8.688 C6.214 11.043 6.311 13.402 6.379 15.762 C6.4 16.446 6.42 17.129 6.442 17.834 C6.507 20.014 6.566 22.195 6.625 24.375 C6.668 25.855 6.712 27.335 6.756 28.814 C6.863 32.439 6.964 36.063 7.062 39.688 C3.762 39.688 0.462 39.688 -2.938 39.688 C-2.938 39.028 -2.938 38.367 -2.938 37.688 C-3.601 37.965 -4.265 38.242 -4.949 38.527 C-6.274 39.071 -6.274 39.071 -7.625 39.625 C-8.93 40.164 -8.93 40.164 -10.262 40.715 C-12.819 41.645 -15.26 42.229 -17.938 42.688 C-18.267 42.028 -18.598 41.367 -18.938 40.688 C-19.907 40.213 -20.876 39.739 -21.875 39.25 C-24.938 37.688 -24.938 37.688 -26.938 34.688 C-26.938 33.697 -26.938 32.707 -26.938 31.688 C-27.598 31.357 -28.257 31.028 -28.938 30.688 C-25.108 20.675 -25.108 20.675 -19.938 17.688 C-15.054 15.689 -10.181 14.36 -4.938 13.688 C-5.285 11.712 -5.285 11.712 -5.938 9.688 C-8.387 8.463 -9.613 8.7 -12.312 9 C-13.469 9.118 -13.469 9.118 -14.648 9.238 C-17.07 9.713 -18.835 10.404 -20.938 11.688 C-21.267 12.347 -21.598 13.008 -21.938 13.688 C-22.061 13.048 -22.185 12.409 -22.312 11.75 C-22.519 11.069 -22.725 10.389 -22.938 9.688 C-23.598 9.357 -24.257 9.028 -24.938 8.688 C-26.062 6.625 -26.062 6.625 -26.938 4.688 C-18.609 -1.772 -10.077 -4.502 0 0 Z M-16.062 25.562 C-17.099 28.08 -16.919 29.188 -15.938 31.688 C-13.188 32.634 -13.188 32.634 -9.938 32.688 C-6.484 30.155 -5.15 28.552 -4.125 24.375 C-4.063 23.488 -4.001 22.601 -3.938 21.688 C-8.243 21.688 -12.85 22.728 -16.062 25.562 Z " fill="#304150" transform="translate(453.9375,564.3125)"/>
<path d="M0 0 C4.627 5.845 4.76 11.706 5 19 C0.27 19.934 -4.32 20.152 -9.125 20.125 C-9.828 20.129 -10.53 20.133 -11.254 20.137 C-14.642 20.13 -17.762 20.057 -21 19 C-19.902 24.408 -19.902 24.408 -16 28 C-10.309 28.835 -5.943 28.042 -1 25 C1.475 27.97 1.475 27.97 4 31 C0.03 35.739 -3.888 37.887 -10 39 C-15.559 39.147 -20.314 38.088 -25 35 C-30.472 29.589 -32.434 24.942 -32.5 17.312 C-32.518 11.05 -31.781 6.716 -27.715 1.703 C-19.757 -6.201 -8.823 -7.3 0 0 Z M-20 7 C-20.33 8.65 -20.66 10.3 -21 12 C-16.05 12 -11.1 12 -6 12 C-6.492 7.139 -6.492 7.139 -9 5 C-13.693 3.644 -16.235 3.773 -20 7 Z " fill="#3C4D5B" transform="translate(734,567)"/>
<path d="M0 0 C4.747 5.093 6.811 9.733 7.066 16.766 C7.025 17.611 6.984 18.457 6.941 19.328 C1.319 21.245 -3.582 21.577 -9.496 21.453 C-10.323 21.444 -11.15 21.435 -12.002 21.426 C-14.021 21.402 -16.04 21.367 -18.059 21.328 C-17.697 24.005 -17.364 25.901 -15.777 28.117 C-13.582 29.664 -12.227 29.73 -9.559 29.703 C-8.785 29.711 -8.012 29.719 -7.215 29.727 C-4.588 29.241 -3.822 28.26 -2.059 26.328 C-0.059 26.391 -0.059 26.391 1.941 27.328 C4.941 30.65 4.941 30.65 4.941 33.328 C4.281 33.328 3.621 33.328 2.941 33.328 C2.611 34.318 2.281 35.308 1.941 36.328 C-3.145 39.554 -8.464 41.055 -14.395 39.855 C-20.685 37.943 -25.505 35.014 -29.059 29.328 C-31.209 22.785 -31.479 13.907 -28.93 7.484 C-25.348 1.874 -21.29 -1.818 -14.746 -3.547 C-9.198 -3.735 -4.458 -3.621 0 0 Z M-17.559 8.141 C-19.341 10.298 -19.341 10.298 -19.059 13.328 C-14.109 13.328 -9.159 13.328 -4.059 13.328 C-4.55 8.467 -4.55 8.467 -7.059 6.328 C-12.713 5.683 -12.713 5.683 -17.559 8.141 Z " fill="#374756" transform="translate(618.05859375,565.671875)"/>
<path d="M0 0 C5.882 6.386 6.292 11.639 6 20 C3.579 21.21 2.018 21.129 -0.684 21.133 C-1.611 21.134 -2.539 21.135 -3.494 21.137 C-4.465 21.133 -5.437 21.129 -6.438 21.125 C-7.889 21.131 -7.889 21.131 -9.369 21.137 C-10.298 21.135 -11.227 21.134 -12.184 21.133 C-13.035 21.132 -13.886 21.131 -14.763 21.129 C-17 21 -17 21 -20 20 C-19.34 22.64 -18.68 25.28 -18 28 C-13.849 29.038 -10.25 29.522 -6 29 C-3.54 27.662 -3.54 27.662 -2 26 C0.867 27.285 2.976 28.571 5 31 C5 31.66 5 32.32 5 33 C-0.426 37.823 -5.717 39.775 -13 40 C-18.434 39.111 -23.185 37.046 -27 33 C-28.188 29.812 -28.188 29.812 -29 27 C-29.66 26.67 -30.32 26.34 -31 26 C-31.402 17.063 -31.241 9.934 -25.625 2.688 C-18.527 -4.58 -8.389 -6.524 0 0 Z M-14.688 6 C-18.529 7.865 -18.529 7.865 -20 13 C-14.72 13 -9.44 13 -4 13 C-5.521 8.147 -5.521 8.147 -8.188 6 C-11.12 4.656 -11.12 4.656 -14.688 6 Z " fill="#42525F" transform="translate(800,566)"/>
<path d="M0 0 C1.375 0.017 1.375 0.017 2.777 0.035 C3.696 0.044 4.616 0.053 5.562 0.062 C6.273 0.074 6.983 0.086 7.715 0.098 C8.045 0.758 8.375 1.418 8.715 2.098 C9.705 1.438 10.695 0.778 11.715 0.098 C14.195 -0.098 14.195 -0.098 16.902 -0.027 C17.803 -0.009 18.704 0.009 19.633 0.027 C20.32 0.051 21.007 0.074 21.715 0.098 C21.574 1.723 21.427 3.348 21.277 4.973 C21.196 5.878 21.115 6.783 21.031 7.715 C20.715 10.098 20.715 10.098 19.715 12.098 C18.601 11.788 18.601 11.788 17.465 11.473 C14.795 10.944 14.795 10.944 12.527 11.598 C9.792 13.861 9.318 16.726 8.715 20.098 C8.513 23.562 8.57 27.005 8.652 30.473 C8.687 32.272 8.717 34.072 8.742 35.871 C8.76 36.659 8.778 37.447 8.797 38.259 C8.715 40.098 8.715 40.098 7.715 41.098 C5.862 41.17 4.007 41.181 2.152 41.16 C1.14 41.151 0.129 41.142 -0.914 41.133 C-1.697 41.121 -2.479 41.11 -3.285 41.098 C-3.31 35.419 -3.328 29.741 -3.34 24.063 C-3.345 22.129 -3.352 20.196 -3.361 18.263 C-3.373 15.49 -3.378 12.718 -3.383 9.945 C-3.388 9.076 -3.393 8.206 -3.398 7.31 C-3.399 5.239 -3.347 3.168 -3.285 1.098 C-2.285 0.098 -2.285 0.098 0 0 Z " fill="#1E3141" transform="translate(747.28515625,562.90234375)"/>
<path d="M0 0 C3.63 0 7.26 0 11 0 C11 13.53 11 27.06 11 41 C7.37 41 3.74 41 0 41 C0 27.47 0 13.94 0 0 Z " fill="#4F5961" transform="translate(510,563)"/>
<path d="M0 0 C3.3 0 6.6 0 10 0 C10.167 5.517 10.328 11.035 10.482 16.553 C10.536 18.431 10.591 20.309 10.648 22.187 C10.73 24.882 10.805 27.578 10.879 30.273 C10.906 31.116 10.933 31.959 10.961 32.827 C11.114 38.772 11.114 38.772 10 41 C6.7 41 3.4 41 0 41 C-1.005 36.978 -1.144 33.379 -1.133 29.277 C-1.134 28.165 -1.134 28.165 -1.136 27.029 C-1.136 25.465 -1.135 23.901 -1.13 22.337 C-1.125 19.942 -1.13 17.548 -1.137 15.154 C-1.136 13.633 -1.135 12.111 -1.133 10.59 C-1.135 9.874 -1.137 9.158 -1.139 8.421 C-1.124 5.338 -0.983 2.949 0 0 Z " fill="#334350" transform="translate(528,563)"/>
<path d="M0 0 C2.896 4.636 3.358 8.174 3.293 13.586 C3.289 14.288 3.284 14.99 3.28 15.713 C3.263 17.934 3.226 20.154 3.188 22.375 C3.172 23.889 3.159 25.404 3.146 26.918 C3.114 30.612 3.062 34.306 3 38 C0.03 38 -2.94 38 -6 38 C-6.02 37.208 -6.04 36.417 -6.06 35.601 C-6.155 32.004 -6.265 28.409 -6.375 24.812 C-6.406 23.567 -6.437 22.321 -6.469 21.037 C-6.507 19.835 -6.546 18.633 -6.586 17.395 C-6.617 16.29 -6.649 15.185 -6.681 14.046 C-7.172 9.359 -8.411 6.1 -12 3 C-11.34 2.67 -10.68 2.34 -10 2 C-11.32 1.34 -12.64 0.68 -14 0 C-3.402 -1.501 -3.402 -1.501 0 0 Z " fill="#223342" transform="translate(578,565)"/>
<path d="M0 0 C0.66 0 1.32 0 2 0 C2.001 1.204 2.003 2.408 2.004 3.649 C2.021 14.994 2.064 26.338 2.132 37.683 C2.166 43.515 2.191 49.347 2.196 55.18 C2.2 60.808 2.228 66.436 2.273 72.064 C2.286 74.212 2.291 76.36 2.286 78.507 C2.281 81.515 2.307 84.521 2.341 87.528 C2.332 88.417 2.323 89.306 2.314 90.222 C2.397 94.67 2.553 96.44 5.416 100.029 C9.541 103.175 12.461 103.147 17.492 103.133 C18.235 103.134 18.977 103.135 19.742 103.136 C21.314 103.136 22.886 103.135 24.458 103.13 C26.858 103.125 29.259 103.13 31.66 103.137 C33.188 103.136 34.715 103.135 36.242 103.133 C36.959 103.135 37.676 103.137 38.414 103.139 C41.752 103.123 44.809 103.036 48 102 C47.34 103.32 46.68 104.64 46 106 C41.287 106.218 36.573 106.415 31.858 106.592 C30.257 106.655 28.655 106.724 27.054 106.799 C24.744 106.906 22.433 106.992 20.121 107.074 C19.414 107.112 18.706 107.149 17.977 107.187 C12.78 107.342 9.514 106.368 5 104 C0.996 99.89 -0.128 96.531 -0.12 90.912 C-0.122 90.108 -0.123 89.303 -0.124 88.473 C-0.119 87.163 -0.119 87.163 -0.114 85.825 C-0.114 84.898 -0.114 83.971 -0.114 83.016 C-0.113 79.953 -0.105 76.891 -0.098 73.828 C-0.096 71.704 -0.094 69.58 -0.093 67.456 C-0.09 61.866 -0.08 56.276 -0.069 50.687 C-0.058 44.983 -0.054 39.278 -0.049 33.574 C-0.038 22.383 -0.021 11.191 0 0 Z " fill="#4D94CB" transform="translate(195,505)"/>
<path d="M0 0 C5.413 -0.19 9.889 -0.064 15 2 C18.594 5.404 19.617 8.118 20 13 C20 15.64 20 18.28 20 21 C10.76 21 1.52 21 -8 21 C-8 20.67 -8 20.34 -8 20 C-4.535 19.505 -4.535 19.505 -1 19 C-2.32 18.34 -3.64 17.68 -5 17 C-5 16.67 -5 16.34 -5 16 C0.61 16 6.22 16 12 16 C10.515 11.545 10.515 11.545 9 7 C5.37 7 1.74 7 -2 7 C-1.34 6.34 -0.68 5.68 0 5 C0 4.01 0 3.02 0 2 C0 1.34 0 0.68 0 0 Z " fill="#1C2E3F" transform="translate(785,564)"/>
<path d="M0 0 C1.772 0 3.544 0.006 5.316 0.016 C6.247 0.017 7.178 0.019 8.137 0.02 C11.122 0.026 14.108 0.038 17.094 0.051 C19.112 0.056 21.131 0.061 23.15 0.065 C28.11 0.076 33.071 0.093 38.031 0.114 C39.347 2.746 38.779 3.915 38.094 6.739 C37.899 7.556 37.704 8.373 37.504 9.215 C37.27 10.155 37.27 10.155 37.031 11.114 C36.041 11.114 35.051 11.114 34.031 11.114 C33.701 11.774 33.371 12.434 33.031 13.114 C27.586 12.619 27.586 12.619 22.031 12.114 C22.031 27.624 22.031 43.134 22.031 59.114 C20.711 59.774 19.391 60.434 18.031 61.114 C18.031 60.454 18.031 59.794 18.031 59.114 C15.061 59.114 12.091 59.114 9.031 59.114 C8.701 43.604 8.371 28.094 8.031 12.114 C5.061 12.114 2.091 12.114 -0.969 12.114 C-0.969 12.774 -0.969 13.434 -0.969 14.114 C-2.969 13.114 -2.969 13.114 -4.969 11.114 C-5.199 8.766 -5.199 8.766 -5.156 6.051 C-5.15 5.153 -5.144 4.254 -5.137 3.328 C-4.843 -0.553 -4.136 0.118 0 0 Z M-3.969 2.114 C-3.969 4.754 -3.969 7.394 -3.969 10.114 C0.651 10.114 5.271 10.114 10.031 10.114 C10.031 25.954 10.031 41.794 10.031 58.114 C13.331 58.114 16.631 58.114 20.031 58.114 C20.031 42.274 20.031 26.434 20.031 10.114 C25.311 10.114 30.591 10.114 36.031 10.114 C36.031 7.474 36.031 4.834 36.031 2.114 C22.831 2.114 9.631 2.114 -3.969 2.114 Z " fill="#7A868F" transform="translate(392.968994140625,544.886474609375)"/>
<path d="M0 0 C1.375 0.017 1.375 0.017 2.777 0.035 C3.696 0.044 4.616 0.053 5.562 0.062 C6.273 0.074 6.983 0.086 7.715 0.098 C8.045 0.758 8.375 1.418 8.715 2.098 C9.705 1.438 10.695 0.778 11.715 0.098 C14.195 -0.098 14.195 -0.098 16.902 -0.027 C17.803 -0.009 18.704 0.009 19.633 0.027 C20.32 0.051 21.007 0.074 21.715 0.098 C21.574 1.723 21.427 3.348 21.277 4.973 C21.196 5.878 21.115 6.783 21.031 7.715 C20.715 10.098 20.715 10.098 19.715 12.098 C18.601 11.788 18.601 11.788 17.465 11.473 C14.795 10.944 14.795 10.944 12.527 11.598 C9.792 13.861 9.318 16.726 8.715 20.098 C8.513 23.562 8.57 27.005 8.652 30.473 C8.687 32.272 8.717 34.072 8.742 35.871 C8.76 36.659 8.778 37.447 8.797 38.259 C8.715 40.098 8.715 40.098 7.715 41.098 C5.862 41.17 4.007 41.181 2.152 41.16 C1.14 41.151 0.129 41.142 -0.914 41.133 C-1.697 41.121 -2.479 41.11 -3.285 41.098 C-3.31 35.419 -3.328 29.741 -3.34 24.063 C-3.345 22.129 -3.352 20.196 -3.361 18.263 C-3.373 15.49 -3.378 12.718 -3.383 9.945 C-3.388 9.076 -3.393 8.206 -3.398 7.31 C-3.399 5.239 -3.347 3.168 -3.285 1.098 C-2.285 0.098 -2.285 0.098 0 0 Z M-1.285 1.098 C-1.285 13.968 -1.285 26.838 -1.285 40.098 C1.355 40.098 3.995 40.098 6.715 40.098 C6.74 39.427 6.765 38.757 6.791 38.066 C6.907 35.014 7.03 31.962 7.152 28.91 C7.192 27.855 7.231 26.8 7.271 25.713 C7.313 24.691 7.355 23.67 7.398 22.617 C7.435 21.68 7.472 20.742 7.51 19.777 C7.715 17.098 7.715 17.098 8.258 14.405 C8.806 11.638 8.381 9.827 7.715 7.098 C7.375 5.099 7.041 3.099 6.715 1.098 C4.075 1.098 1.435 1.098 -1.285 1.098 Z " fill="#6C7982" transform="translate(747.28515625,562.90234375)"/>
<path d="M0 0 C5.67 -0.231 10.64 -0.144 16 2 C19.148 4.938 19.603 7.796 20 12 C20 14.97 20 17.94 20 21 C11.09 21 2.18 21 -7 21 C-6.34 20.34 -5.68 19.68 -5 19 C-5.66 18.34 -6.32 17.68 -7 17 C-6.625 14.375 -6.625 14.375 -6 12 C-5.67 13.32 -5.34 14.64 -5 16 C0.61 16 6.22 16 12 16 C12 14.68 12 13.36 12 12 C11.34 12 10.68 12 10 12 C9.34 10.35 8.68 8.7 8 7 C5.69 6.67 3.38 6.34 1 6 C1 5.67 1 5.34 1 5 C6.75 4.875 6.75 4.875 9 6 C9 5.34 9 4.68 9 4 C9.66 4 10.32 4 11 4 C11 3.34 11 2.68 11 2 C7.37 1.67 3.74 1.34 0 1 C0 0.67 0 0.34 0 0 Z " fill="#1E3041" transform="translate(717,564)"/>
<path d="M0 0 C5.28 0 10.56 0 16 0 C18 7 18 7 18 10 C17.34 10 16.68 10 16 10 C16 7.36 16 4.72 16 2 C11.05 2 6.1 2 1 2 C1 29.72 1 57.44 1 86 C6.28 86 11.56 86 17 86 C17 76.43 17 66.86 17 57 C17.66 57 18.32 57 19 57 C18.67 67.23 18.34 77.46 18 88 C15.236 88.227 12.472 88.454 9.625 88.688 C8.756 88.767 7.886 88.847 6.991 88.928 C4.999 89.068 2.997 89.038 1 89 C-1.486 85.271 -1.275 82.402 -1.243 78.088 C-1.245 77.283 -1.247 76.478 -1.249 75.648 C-1.252 72.984 -1.242 70.32 -1.23 67.656 C-1.229 65.807 -1.229 63.957 -1.229 62.108 C-1.228 58.231 -1.219 54.354 -1.206 50.477 C-1.189 45.504 -1.185 40.53 -1.186 35.557 C-1.185 31.737 -1.18 27.918 -1.173 24.099 C-1.17 22.265 -1.168 20.431 -1.167 18.597 C-1.165 16.035 -1.156 13.474 -1.145 10.912 C-1.146 9.771 -1.146 9.771 -1.147 8.607 C-1.127 5.469 -1 3.001 0 0 Z " fill="#707B84" transform="translate(652,439)"/>
<path d="M0 0 C4.62 0 9.24 0 14 0 C14 0.33 14 0.66 14 1 C10.04 1 6.08 1 2 1 C2 20.14 2 39.28 2 59 C5.96 59 9.92 59 14 59 C13.99 57.95 13.979 56.9 13.968 55.819 C13.932 51.931 13.909 48.044 13.89 44.156 C13.88 42.472 13.866 40.788 13.849 39.104 C13.825 36.687 13.814 34.269 13.805 31.852 C13.794 31.096 13.784 30.341 13.773 29.563 C13.773 27.707 13.878 25.852 14 24 C14.66 23.34 15.32 22.68 16 22 C16 34.87 16 47.74 16 61 C10.72 61 5.44 61 0 61 C0 40.87 0 20.74 0 0 Z " fill="#08141F" transform="translate(790,441)"/>
<path d="M0 0 C-2.563 1.281 -3.271 0.692 -6 0 C-7.916 -0.067 -9.833 -0.085 -11.75 -0.062 C-12.735 -0.053 -13.72 -0.044 -14.734 -0.035 C-15.856 -0.018 -15.856 -0.018 -17 0 C-17.33 1.32 -17.66 2.64 -18 4 C-18.722 4.062 -19.444 4.124 -20.188 4.188 C-23.834 5.241 -25.386 7.318 -28 10 C-28.99 10 -29.98 10 -31 10 C-31 7.03 -31 4.06 -31 1 C-35.95 1 -40.9 1 -46 1 C-46 21.13 -46 41.26 -46 62 C-40.72 62 -35.44 62 -30 62 C-30 50.45 -30 38.9 -30 27 C-29.67 27 -29.34 27 -29 27 C-29 38.88 -29 50.76 -29 63 C-32.636 63.909 -35.414 64.134 -39.125 64.125 C-40.707 64.129 -40.707 64.129 -42.32 64.133 C-45 64 -45 64 -47 63 C-47 43.86 -47 24.72 -47 5 C-47.66 5 -48.32 5 -49 5 C-47.125 0.125 -47.125 0.125 -46 -1 C-43.303 -1.073 -40.633 -1.092 -37.938 -1.062 C-37.179 -1.058 -36.42 -1.053 -35.639 -1.049 C-33.759 -1.037 -31.88 -1.019 -30 -1 C-29.67 1.31 -29.34 3.62 -29 6 C-28.492 5.59 -27.984 5.18 -27.461 4.758 C-19.48 -1.49 -9.705 -5.176 0 0 Z " fill="#7E888F" transform="translate(586,440)"/>
<path d="M0 0 C0.66 0 1.32 0 2 0 C2.747 22.38 3.124 44.756 3.177 67.149 C3.184 69.753 3.194 72.357 3.208 74.961 C3.226 78.652 3.23 82.344 3.23 86.035 C3.238 87.141 3.245 88.247 3.252 89.386 C3.236 94.929 3.15 99.841 1 105 C-0.485 105.495 -0.485 105.495 -2 106 C-1.757 105.145 -1.757 105.145 -1.51 104.272 C-0.997 101.987 -0.862 99.985 -0.842 97.647 C-0.832 96.783 -0.822 95.919 -0.812 95.029 C-0.806 94.09 -0.801 93.15 -0.795 92.183 C-0.785 91.187 -0.775 90.192 -0.765 89.166 C-0.733 85.876 -0.708 82.587 -0.684 79.297 C-0.663 77.016 -0.642 74.735 -0.621 72.453 C-0.565 66.45 -0.516 60.446 -0.468 54.442 C-0.418 48.315 -0.362 42.189 -0.307 36.062 C-0.199 24.042 -0.098 12.021 0 0 Z " fill="#2A68B9" transform="translate(246,500)"/>
<path d="M0 0 C-1.502 3.543 -3.563 5.771 -6.312 8.438 C-7.072 9.179 -7.831 9.92 -8.613 10.684 C-9.401 11.448 -10.189 12.212 -11 13 C-14.255 16.231 -17.454 19.507 -20.617 22.828 C-22.369 24.636 -24.122 26.443 -25.875 28.25 C-26.748 29.173 -27.62 30.096 -28.52 31.047 C-35.795 38.487 -35.795 38.487 -39.957 39.156 C-43.157 38.992 -45.219 38.589 -48 37 C-50.408 33.388 -50.724 32.261 -50 28 C-47.945 25.056 -45.527 22.543 -43 20 C-42.093 19.072 -41.185 18.144 -40.25 17.188 C-39.507 16.466 -38.765 15.744 -38 15 C-37.505 14.443 -37.01 13.886 -36.5 13.312 C-34.529 11.588 -32.452 10.862 -30 10 C-30.374 12.663 -30.746 13.771 -32.777 15.598 C-33.49 16.081 -34.203 16.564 -34.938 17.062 C-37.752 18.988 -39.059 20.088 -41 23 C-42.325 23.683 -43.658 24.351 -45 25 C-46.491 27.982 -46.119 30.716 -46 34 C-44.811 35.385 -44.811 35.385 -41.465 35.551 C-36.413 35.484 -34.059 32.942 -30.658 29.459 C-29.967 28.709 -29.275 27.96 -28.562 27.188 C-27.844 26.45 -27.125 25.712 -26.385 24.951 C-22.43 20.96 -22.43 20.96 -20 16 C-18.938 15.372 -18.938 15.372 -17.855 14.73 C-14.082 12.444 -11.348 9.486 -8.312 6.312 C-2.268 0 -2.268 0 0 0 Z " fill="#4B86CC" transform="translate(173,472)"/>
<path d="M0 0 C1.44 1.437 2.778 2.975 4.094 4.527 C3.764 5.187 3.434 5.847 3.094 6.527 C3.045 7.651 3.045 7.651 3.594 9.152 C4.256 12.299 4.155 15.321 4.094 18.527 C1.219 18.652 1.219 18.652 -1.906 18.527 C-2.566 17.867 -3.226 17.207 -3.906 16.527 C-3.246 16.527 -2.586 16.527 -1.906 16.527 C-1.906 15.867 -1.906 15.207 -1.906 14.527 C-7.846 14.527 -13.786 14.527 -19.906 14.527 C-19.576 13.207 -19.246 11.887 -18.906 10.527 C-18.906 11.517 -18.906 12.507 -18.906 13.527 C-13.956 13.527 -9.006 13.527 -3.906 13.527 C-4.896 11.547 -5.886 9.567 -6.906 7.527 C-10.206 7.527 -13.506 7.527 -16.906 7.527 C-16.576 6.867 -16.246 6.207 -15.906 5.527 C-13.402 4.895 -13.402 4.895 -10.344 4.402 C-9.332 4.235 -8.32 4.067 -7.277 3.895 C-6.495 3.773 -5.712 3.652 -4.906 3.527 C-4.576 2.207 -4.246 0.887 -3.906 -0.473 C-9.186 -0.473 -14.466 -0.473 -19.906 -0.473 C-14.983 -5.396 -5.245 -4.052 0 0 Z " fill="#485966" transform="translate(617.90625,565.47265625)"/>
<path d="M0 0 C-0.99 1.485 -0.99 1.485 -2 3 C-3.945 3.293 -3.945 3.293 -6.125 3.188 C-7.404 3.126 -8.683 3.064 -10 3 C-9.67 3.99 -9.34 4.98 -9 6 C-9 6.33 -9 6.66 -9 7 C-7.02 6.67 -5.04 6.34 -3 6 C-4.32 5.34 -5.64 4.68 -7 4 C-5.35 4 -3.7 4 -2 4 C-1.67 5.65 -1.34 7.3 -1 9 C-2.052 8.897 -3.104 8.794 -4.188 8.688 C-8.014 8.714 -8.014 8.714 -10.875 10.75 C-14.023 15.564 -13.901 20.355 -14 26 C-14.33 26 -14.66 26 -15 26 C-15.061 25.241 -15.121 24.481 -15.184 23.699 C-15.267 22.705 -15.351 21.711 -15.438 20.688 C-15.519 19.701 -15.6 18.715 -15.684 17.699 C-15.918 14.906 -15.918 14.906 -17 12 C-17.66 11.67 -18.32 11.34 -19 11 C-19.625 8.938 -19.625 8.938 -20 7 C-20.99 7.495 -20.99 7.495 -22 8 C-19.973 3.27 -17.569 0.677 -12.812 -1.375 C-8.087 -2.15 -4.536 -1.337 0 0 Z " fill="#3E5160" transform="translate(490,564)"/>
<path d="M0 0 C1.65 0 3.3 0 5 0 C5 11.88 5 23.76 5 36 C3.35 36 1.7 36 0 36 C0 24.12 0 12.24 0 0 Z " fill="#2B4255" transform="translate(513,566)"/>
<path d="M0 0 C2.226 -0.01 4.45 -0.041 6.676 -0.072 C8.101 -0.079 9.526 -0.084 10.951 -0.088 C12.241 -0.097 13.531 -0.107 14.86 -0.116 C18.738 0.271 21.14 1.185 24.431 3.24 C27.349 8.526 26.655 14.74 26.556 20.615 C26.547 21.637 26.538 22.66 26.529 23.713 C26.506 26.222 26.473 28.731 26.431 31.24 C24.27 27.997 24.166 26.966 24.088 23.205 C24.058 22.231 24.028 21.257 23.998 20.254 C23.953 18.199 23.909 16.145 23.865 14.09 C23.835 13.117 23.806 12.145 23.775 11.143 C23.747 9.804 23.747 9.804 23.719 8.439 C23.632 6.034 23.632 6.034 21.431 4.24 C18.67 4.028 16.011 3.936 13.248 3.939 C12.031 3.933 12.031 3.933 10.789 3.926 C9.072 3.921 7.355 3.92 5.637 3.925 C3.008 3.928 0.379 3.904 -2.25 3.879 C-3.918 3.877 -5.585 3.876 -7.252 3.877 C-8.434 3.863 -8.434 3.863 -9.639 3.849 C-13.8 3.833 -13.8 3.833 -17.463 5.575 C-17.828 6.125 -18.193 6.674 -18.569 7.24 C-19.229 8.23 -19.889 9.22 -20.569 10.24 C-20.819 7.428 -20.819 7.428 -20.569 4.24 C-15.05 -1.278 -7.224 0.019 0 0 Z " fill="#4984E0" transform="translate(299.568603515625,365.759765625)"/>
<path d="M0 0 C-0.99 0.66 -1.98 1.32 -3 2 C-2.505 2.351 -2.01 2.701 -1.5 3.062 C0 5 0 5 0.5 8.375 C-0.123 12.894 -1.602 14.087 -5 17 C-5.66 17.99 -6.32 18.98 -7 20 C-12.75 19.25 -12.75 19.25 -15 17 C-15.125 13.375 -15.125 13.375 -15 10 C-15.66 10 -16.32 10 -17 10 C-16.34 8.68 -15.68 7.36 -15 6 C-15.99 6.33 -16.98 6.66 -18 7 C-19.331 7.342 -20.664 7.678 -22 8 C-20.269 3.921 -18.432 2.604 -14.508 0.75 C-9.761 -0.67 -4.9 -0.294 0 0 Z M-13.125 9.875 C-14.162 12.392 -13.982 13.501 -13 16 C-10.25 16.946 -10.25 16.946 -7 17 C-3.547 14.468 -2.212 12.865 -1.188 8.688 C-1.126 7.801 -1.064 6.914 -1 6 C-5.306 6 -9.912 7.04 -13.125 9.875 Z " fill="#43525F" transform="translate(451,580)"/>
<path d="M0 0 C0.892 0.102 1.784 0.204 2.703 0.309 C3.379 0.392 4.054 0.476 4.75 0.562 C4.75 0.893 4.75 1.222 4.75 1.562 C3.464 1.584 3.464 1.584 2.152 1.605 C-5.291 1.916 -9.68 2.511 -15.25 7.562 C-15.25 5.582 -15.25 3.602 -15.25 1.562 C-17.89 1.562 -20.53 1.562 -23.25 1.562 C-23.25 14.433 -23.25 27.303 -23.25 40.562 C-20.61 40.562 -17.97 40.562 -15.25 40.562 C-15.26 39.881 -15.271 39.2 -15.282 38.499 C-15.323 35.416 -15.349 32.333 -15.375 29.25 C-15.4 27.642 -15.4 27.642 -15.426 26.002 C-15.432 24.974 -15.439 23.946 -15.445 22.887 C-15.456 21.939 -15.466 20.991 -15.477 20.014 C-15.25 17.562 -15.25 17.562 -13.25 14.562 C-13.262 15.446 -13.273 16.329 -13.285 17.238 C-13.336 24.062 -13.175 30.684 -12.273 37.453 C-12.266 38.149 -12.258 38.845 -12.25 39.562 C-14.25 41.562 -14.25 41.562 -16.852 41.758 C-18.348 41.723 -18.348 41.723 -19.875 41.688 C-20.878 41.669 -21.881 41.651 -22.914 41.633 C-24.07 41.598 -24.07 41.598 -25.25 41.562 C-25.275 36.045 -25.293 30.527 -25.305 25.01 C-25.31 23.132 -25.317 21.254 -25.325 19.376 C-25.338 16.68 -25.343 13.985 -25.348 11.289 C-25.353 10.446 -25.358 9.604 -25.363 8.735 C-25.364 2.79 -25.364 2.79 -24.25 0.562 C-20.95 0.562 -17.65 0.562 -14.25 0.562 C-13.92 1.553 -13.59 2.543 -13.25 3.562 C-12.384 2.851 -12.384 2.851 -11.5 2.125 C-7.633 -0.56 -4.599 -0.545 0 0 Z " fill="#79858D" transform="translate(570.25,562.4375)"/>
<path d="M0 0 C1.984 0.489 3.961 0.989 5.93 1.535 C10.058 2.654 13.682 3.216 18 3 C18.125 8.75 18.125 8.75 17 11 C16.34 11 15.68 11 15 11 C14.34 9.68 13.68 8.36 13 7 C11.68 7 10.36 7 9 7 C10.32 7.66 11.64 8.32 13 9 C10.69 9.33 8.38 9.66 6 10 C7.811 11.811 10.613 11.382 13.062 11.562 C14.167 11.646 15.272 11.73 16.41 11.816 C17.692 11.907 17.692 11.907 19 12 C14.308 14.8 10.194 13.999 5 13 C1.693 11.76 -0.27 10.847 -2.562 8.188 C-3.235 4.826 -1.687 2.855 0 0 Z " fill="#455461" transform="translate(470,608)"/>
<path d="M0 0 C0.33 0 0.66 0 1 0 C1 14.52 1 29.04 1 44 C-4.28 44 -9.56 44 -15 44 C-15 30.14 -15 16.28 -15 2 C-12.442 5.837 -12.747 8.945 -12.805 13.387 C-12.808 14.204 -12.81 15.021 -12.813 15.863 C-12.824 18.471 -12.85 21.079 -12.875 23.688 C-12.885 25.456 -12.894 27.225 -12.902 28.994 C-12.924 33.33 -12.959 37.665 -13 42 C-8.71 42 -4.42 42 0 42 C0 28.14 0 14.28 0 0 Z " fill="#08131E" transform="translate(637,458)"/>
<path d="M0 0 C2 2 2 2 2.227 5.715 C2.227 7.313 2.215 8.91 2.195 10.508 C2.192 11.348 2.19 12.189 2.187 13.055 C2.176 15.745 2.15 18.435 2.125 21.125 C2.115 22.947 2.106 24.768 2.098 26.59 C2.076 31.06 2.041 35.53 2 40 C6.29 40 10.58 40 15 40 C15 28.45 15 16.9 15 5 C15.33 5 15.66 5 16 5 C16 17.21 16 29.42 16 42 C10.72 42 5.44 42 0 42 C0 28.14 0 14.28 0 0 Z " fill="#09131E" transform="translate(581,460)"/>
<path d="M0 0 C2.812 1.562 2.812 1.562 4.312 4.375 C4.864 7.891 4.455 9.459 2.812 12.562 C-0.375 13.375 -0.375 13.375 -4.188 13.562 C-7.188 11.5 -7.188 11.5 -9.188 8.562 C-9.312 5.438 -9.312 5.438 -8.188 2.562 C-5.25 -0.123 -3.959 -0.543 0 0 Z " fill="#45525E" transform="translate(535.1875,545.4375)"/>
<path d="M0 0 C1.399 2.799 1.253 4.905 1 8 C-0.598 10.438 -1.705 10.912 -4.5 11.75 C-7 12 -7 12 -10 11 C-12.313 7.53 -12.34 6.075 -12 2 C-10 -1 -10 -1 -8.25 -1.812 C-5.11 -2.074 -2.877 -1.215 0 0 Z " fill="#324250" transform="translate(521,547)"/>
<path d="M0 0 C0.33 1.32 0.66 2.64 1 4 C1.66 3.01 2.32 2.02 3 1 C3.797 5.182 4 8.66 4 13 C8.29 13.33 12.58 13.66 17 14 C17.33 12.68 17.66 11.36 18 10 C20.97 10.495 20.97 10.495 24 11 C23 14 23 14 20.891 15.133 C20.019 15.46 19.148 15.788 18.25 16.125 C17.389 16.458 16.528 16.79 15.641 17.133 C13.103 17.966 10.628 18.537 8 19 C7.67 18.34 7.34 17.68 7 17 C6.031 16.526 5.061 16.051 4.062 15.562 C1 14 1 14 -1 11 C-1 10.01 -1 9.02 -1 8 C-1.66 7.67 -2.32 7.34 -3 7 C-2.01 4.69 -1.02 2.38 0 0 Z " fill="#444E57" transform="translate(428,588)"/>
<path d="M0 0 C-1.98 0 -3.96 0 -6 0 C-4.68 0.33 -3.36 0.66 -2 1 C-2 1.66 -2 2.32 -2 3 C-2.66 3 -3.32 3 -4 3 C-4 3.66 -4 4.32 -4 5 C-4.99 5 -5.98 5 -7 5 C-6.34 5.66 -5.68 6.32 -5 7 C-6.361 6.969 -6.361 6.969 -7.75 6.938 C-10.427 6.989 -12.47 7.222 -15 8 C-15 5 -15 5 -13 3 C-15.853 1.697 -15.853 1.697 -18.043 2.777 C-18.751 3.16 -19.458 3.543 -20.188 3.938 C-20.903 4.318 -21.618 4.698 -22.355 5.09 C-22.898 5.39 -23.441 5.691 -24 6 C-22.16 1.841 -19.976 0.261 -16 -2 C-10.619 -3.841 -4.699 -3.133 0 0 Z " fill="#273F52" transform="translate(730,565)"/>
<path d="M0 0 C2.244 4.488 2.257 7.835 2.195 12.703 C2.192 13.541 2.19 14.379 2.187 15.242 C2.176 17.911 2.15 20.581 2.125 23.25 C2.115 25.062 2.106 26.875 2.098 28.688 C2.076 33.125 2.041 37.563 2 42 C-2.62 42 -7.24 42 -12 42 C-12 40.02 -12 38.04 -12 36 C-11.67 37.32 -11.34 38.64 -11 40 C-7.37 40 -3.74 40 0 40 C0 26.8 0 13.6 0 0 Z " fill="#14222F" transform="translate(775,460)"/>
<path d="M0 0 C2.798 0.386 3.821 0.801 5.75 2.938 C7 5 7 5 7 7 C6.34 7 5.68 7 5 7 C4.67 7.99 4.34 8.98 4 10 C-0.917 13.118 -6.278 14.704 -12.066 13.609 C-13.731 13.139 -15.369 12.577 -17 12 C-16.67 11.01 -16.34 10.02 -16 9 C-13.03 9.33 -10.06 9.66 -7 10 C-7 9.67 -7 9.34 -7 9 C-6.051 8.753 -5.102 8.505 -4.125 8.25 C-0.913 7.314 -0.913 7.314 0.375 4.875 C0.684 3.947 0.684 3.947 1 3 C0.34 2.67 -0.32 2.34 -1 2 C-0.67 1.34 -0.34 0.68 0 0 Z " fill="#44515C" transform="translate(616,592)"/>
<path d="M0 0 C0.66 0 1.32 0 2 0 C4.202 3.303 4.24 4.275 4.195 8.105 C4.186 9.58 4.186 9.58 4.176 11.084 C4.159 12.108 4.142 13.132 4.125 14.188 C4.116 15.223 4.107 16.259 4.098 17.326 C4.074 19.884 4.041 22.442 4 25 C2.68 25.33 1.36 25.66 0 26 C-0.196 21.855 -0.38 17.709 -0.562 13.562 C-0.619 12.378 -0.675 11.194 -0.732 9.975 C-0.781 8.85 -0.829 7.725 -0.879 6.566 C-0.926 5.524 -0.973 4.482 -1.022 3.408 C-1 1 -1 1 0 0 Z " fill="#283E50" transform="translate(574,576)"/>
<path d="M0 0 C3.558 3.558 3.046 8.65 3.114 13.467 C3.113 15.122 3.108 16.778 3.098 18.434 C3.096 19.312 3.095 20.189 3.093 21.094 C3.088 23.875 3.075 26.656 3.062 29.438 C3.057 31.333 3.053 33.228 3.049 35.123 C3.038 39.749 3.021 44.374 3 49 C-1.95 49.33 -6.9 49.66 -12 50 C-14 46 -14 46 -14 44 C-15.32 44.99 -16.64 45.98 -18 47 C-18.66 46.67 -19.32 46.34 -20 46 C-18.384 43.959 -16.714 41.959 -15 40 C-14.34 40 -13.68 40 -13 40 C-12.67 42.64 -12.34 45.28 -12 48 C-7.38 48 -2.76 48 2 48 C1.881 42.771 1.756 37.543 1.628 32.314 C1.585 30.539 1.543 28.765 1.503 26.99 C1.202 13.467 1.202 13.467 0 0 Z " fill="#87929B" transform="translate(775,454)"/>
<path d="M0 0 C0.33 0 0.66 0 1 0 C1 12.87 1 25.74 1 39 C-5.93 38.505 -5.93 38.505 -13 38 C-13 37.67 -13 37.34 -13 37 C-9.04 37 -5.08 37 -1 37 C-1.005 35.95 -1.01 34.9 -1.016 33.819 C-1.034 29.931 -1.045 26.044 -1.055 22.156 C-1.06 20.472 -1.067 18.788 -1.075 17.104 C-1.088 14.687 -1.093 12.269 -1.098 9.852 C-1.103 9.096 -1.108 8.341 -1.113 7.563 C-1.114 2.228 -1.114 2.228 0 0 Z " fill="#0F1C2A" transform="translate(805,463)"/>
<path d="M0 0 C4.947 4.105 9.502 8.439 13.984 13.047 C16.615 15.596 18.202 16.947 21.918 17.195 C22.997 17.172 24.076 17.149 25.188 17.125 C26.274 17.107 27.361 17.089 28.48 17.07 C29.312 17.047 30.143 17.024 31 17 C30.67 17.99 30.34 18.98 30 20 C26.781 21.61 23.492 21.459 20 21 C17 19.438 17 19.438 14 17 C13.349 16.479 12.698 15.958 12.027 15.422 C7.514 11.676 4.247 7.871 1 3 C0.34 2.34 -0.32 1.68 -1 1 C-0.67 0.67 -0.34 0.34 0 0 Z " fill="#4E8ADD" transform="translate(191,455)"/>
<path d="M0 0 C1.98 1.65 3.96 3.3 6 5 C4.837 8.488 4.216 9.307 1 11 C-2.644 10.872 -5.057 10.76 -7.938 8.438 C-8.463 7.726 -8.463 7.726 -9 7 C-8.01 7 -7.02 7 -6 7 C-6 6.34 -6 5.68 -6 5 C-8.64 5 -11.28 5 -14 5 C-14 4.67 -14 4.34 -14 4 C-13.408 3.963 -12.817 3.925 -12.207 3.887 C-7.393 3.486 -3.992 2.961 0 0 Z " fill="#404F5B" transform="translate(732,592)"/>
<path d="M0 0 C0.66 0 1.32 0 2 0 C1.67 10.23 1.34 20.46 1 31 C-1.764 31.227 -4.528 31.454 -7.375 31.688 C-8.244 31.767 -9.114 31.847 -10.009 31.928 C-12.001 32.068 -14.003 32.038 -16 32 C-18.491 28.263 -18.207 26.255 -18.125 21.812 C-18.107 20.54 -18.089 19.268 -18.07 17.957 C-18.047 16.981 -18.024 16.005 -18 15 C-17.67 15 -17.34 15 -17 15 C-16.67 19.62 -16.34 24.24 -16 29 C-10.72 29 -5.44 29 0 29 C0 19.43 0 9.86 0 0 Z " fill="#7D8890" transform="translate(669,496)"/>
<path d="M0 0 C0.495 1.485 0.495 1.485 1 3 C-13.333 3 -27.667 3 -42 3 C-41.34 2.01 -40.68 1.02 -40 0 C-37.16 -0.43 -34.544 -0.657 -31.688 -0.75 C-30.858 -0.786 -30.029 -0.822 -29.175 -0.859 C-19.43 -1.194 -9.722 -0.629 0 0 Z " fill="#367DD0" transform="translate(242,493)"/>
<path d="M0 0 C1.303 -0.004 1.303 -0.004 2.633 -0.008 C4.875 0.125 4.875 0.125 6.875 1.125 C6.545 2.775 6.215 4.425 5.875 6.125 C5.116 6.246 4.356 6.367 3.574 6.492 C2.58 6.66 1.586 6.827 0.562 7 C-0.424 7.162 -1.41 7.325 -2.426 7.492 C-5.326 8.006 -5.326 8.006 -8.125 10.125 C-7.465 8.145 -6.805 6.165 -6.125 4.125 C-7.115 4.125 -8.105 4.125 -9.125 4.125 C-10.115 4.125 -11.105 4.125 -12.125 4.125 C-8.622 0.097 -5.156 -0.015 0 0 Z " fill="#182837" transform="translate(607.125,563.875)"/>
<path d="M0 0 C0.491 0.164 0.982 0.329 1.488 0.498 C5.054 1.211 8.577 1.082 12.195 1.027 C13.814 1.015 15.432 1.002 17.051 0.99 C19.597 0.965 22.142 0.937 24.688 0.904 C27.149 0.874 29.609 0.856 32.07 0.84 C32.835 0.826 33.599 0.813 34.387 0.799 C36.259 0.79 38.131 0.886 40 1 C40.66 1.66 41.32 2.32 42 3 C38.721 4.639 35.094 4.12 31.492 4.098 C30.231 4.096 30.231 4.096 28.945 4.093 C26.255 4.088 23.565 4.075 20.875 4.062 C19.053 4.057 17.232 4.053 15.41 4.049 C10.94 4.038 6.47 4.021 2 4 C1.34 2.68 0.68 1.36 0 0 Z " fill="#3C6EC5" transform="translate(279,607)"/>
<path d="M0 0 C12.54 0 25.08 0 38 0 C38.495 1.485 38.495 1.485 39 3 C25.8 3 12.6 3 -1 3 C-0.67 2.01 -0.34 1.02 0 0 Z " fill="#497ED2" transform="translate(281,439)"/>
<path d="M0 0 C0 0.33 0 0.66 0 1 C-4.95 1.33 -9.9 1.66 -15 2 C-15 2.66 -15 3.32 -15 4 C-15.66 4 -16.32 4 -17 4 C-16.814 4.639 -16.629 5.279 -16.438 5.938 C-16.293 6.618 -16.149 7.299 -16 8 C-16.33 8.33 -16.66 8.66 -17 9 C-16.01 9.66 -15.02 10.32 -14 11 C-14.639 11.289 -15.279 11.577 -15.938 11.875 C-18.152 12.828 -18.152 12.828 -19 15 C-19.124 14.361 -19.248 13.721 -19.375 13.062 C-19.581 12.382 -19.788 11.701 -20 11 C-20.66 10.67 -21.32 10.34 -22 10 C-23.125 7.938 -23.125 7.938 -24 6 C-15.998 -0.205 -9.976 -1.485 0 0 Z " fill="#5A666F" transform="translate(451,563)"/>
<path d="M0 0 C2.625 2.312 2.625 2.312 4 4 C0.577 4 0.027 3.445 -2.688 1.562 C-10.133 -2.767 -20.764 -3.075 -29 -1 C-21.774 -9.31 -7.887 -5.253 0 0 Z " fill="#505D67" transform="translate(842,443)"/>
<path d="M0 0 C0.99 1.485 0.99 1.485 2 3 C-1.292 3.058 -4.583 3.094 -7.875 3.125 C-9.281 3.15 -9.281 3.15 -10.715 3.176 C-11.611 3.182 -12.507 3.189 -13.43 3.195 C-14.257 3.206 -15.085 3.216 -15.937 3.227 C-18 3 -18 3 -20 1 C-13.079 -1.739 -7.099 -2.922 0 0 Z " fill="#3C4B58" transform="translate(698,439)"/>
<path d="M0 0 C0.33 0 0.66 0 1 0 C1 11 1 11 -1 14 C-4.745 15.585 -9.022 15.189 -13 15 C-13.99 14.34 -14.98 13.68 -16 13 C-16 12.34 -16 11.68 -16 11 C-12.04 11 -8.08 11 -4 11 C-1.587 5.64 -1.587 5.64 0 0 Z " fill="#3C4954" transform="translate(493,583)"/>
<path d="M0 0 C-2.563 1.281 -3.271 0.692 -6 0 C-7.916 -0.067 -9.833 -0.085 -11.75 -0.062 C-12.735 -0.053 -13.72 -0.044 -14.734 -0.035 C-15.856 -0.018 -15.856 -0.018 -17 0 C-17.33 1.32 -17.66 2.64 -18 4 C-18.701 4.062 -19.403 4.124 -20.125 4.188 C-24.033 5.292 -26.004 7.282 -29 10 C-28.922 7.277 -28.572 5.556 -26.586 3.625 C-18.941 -2.033 -8.855 -4.723 0 0 Z " fill="#54616C" transform="translate(586,440)"/>
<path d="M0 0 C0.66 0 1.32 0 2 0 C1.688 2.889 1.357 4.586 -0.562 6.812 C-4.233 8.601 -6.925 8.323 -11 8 C-11.99 7.34 -12.98 6.68 -14 6 C-12.68 5.67 -11.36 5.34 -10 5 C-10.33 4.01 -10.66 3.02 -11 2 C-10.29 1.939 -9.579 1.879 -8.848 1.816 C-7.469 1.691 -7.469 1.691 -6.062 1.562 C-5.146 1.481 -4.229 1.4 -3.285 1.316 C-1.038 1.24 -1.038 1.24 0 0 Z " fill="#2A4154" transform="translate(615,595)"/>
<path d="M0 0 C-0.804 0.454 -1.609 0.908 -2.438 1.375 C-5.089 2.747 -5.089 2.747 -6 5 C-5.01 4.67 -4.02 4.34 -3 4 C-3.33 5.98 -3.66 7.96 -4 10 C-5.32 10.33 -6.64 10.66 -8 11 C-8.495 8.525 -8.495 8.525 -9 6 C-9.66 7.98 -10.32 9.96 -11 12 C-11.33 12 -11.66 12 -12 12 C-12.25 5.375 -12.25 5.375 -10 2 C-3.961 -1.676 -3.961 -1.676 0 0 Z " fill="#1C2D3C" transform="translate(440,585)"/>
<path d="M0 0 C2.97 0 5.94 0 9 0 C9 2.97 9 5.94 9 9 C8.67 9 8.34 9 8 9 C7.67 6.69 7.34 4.38 7 2 C5.35 2 3.7 2 2 2 C1.67 10.91 1.34 19.82 1 29 C0.67 29 0.34 29 0 29 C0 19.43 0 9.86 0 0 Z " fill="#141D29" transform="translate(511,564)"/>
<path d="M0 0 C1.258 -0.041 2.516 -0.082 3.812 -0.125 C4.52 -0.148 5.228 -0.171 5.957 -0.195 C8 0 8 0 11 2 C10.01 2.33 9.02 2.66 8 3 C8 3.66 8 4.32 8 5 C8.66 5 9.32 5 10 5 C10 5.66 10 6.32 10 7 C6.04 7 2.08 7 -2 7 C-1.34 6.34 -0.68 5.68 0 5 C0 4.01 0 3.02 0 2 C0 1.34 0 0.68 0 0 Z " fill="#18293A" transform="translate(785,564)"/>
<path d="M0 0 C0.516 0.804 1.031 1.609 1.562 2.438 C4.632 5.664 6.649 5.749 11 6 C11 6.99 11 7.98 11 9 C9.208 9.027 7.417 9.046 5.625 9.062 C4.627 9.074 3.63 9.086 2.602 9.098 C0 9 0 9 -2 8 C-2 6.35 -2 4.7 -2 3 C-1.34 3 -0.68 3 0 3 C0 2.01 0 1.02 0 0 Z " fill="#2B4153" transform="translate(434,593)"/>
<path d="M0 0 C1.32 0.66 2.64 1.32 4 2 C1.047 4.83 -1.777 5.678 -5.828 6.082 C-9.6 5.94 -12.575 4.529 -16 3 C-16 2.34 -16 1.68 -16 1 C-14.645 1.108 -14.645 1.108 -13.262 1.219 C-12.082 1.312 -10.903 1.404 -9.688 1.5 C-8.516 1.593 -7.344 1.686 -6.137 1.781 C-4.095 1.924 -2.047 2 0 2 C0 1.34 0 0.68 0 0 Z " fill="#3F4C57" transform="translate(504,486)"/>
<path d="M0 0 C0.99 0 1.98 0 3 0 C3 0.66 3 1.32 3 2 C3.66 2 4.32 2 5 2 C5.33 3.32 5.66 4.64 6 6 C5.34 6 4.68 6 4 6 C4 6.66 4 7.32 4 8 C3.34 8 2.68 8 2 8 C1.67 7.34 1.34 6.68 1 6 C-3.455 6.495 -3.455 6.495 -8 7 C-7.67 5.35 -7.34 3.7 -7 2 C-3.535 1.505 -3.535 1.505 0 1 C0 0.67 0 0.34 0 0 Z " fill="#1A2B3C" transform="translate(487,565)"/>
<path d="M0 0 C0.66 0.33 1.32 0.66 2 1 C-0.667 3.667 -3.333 6.333 -6 9 C-6.81 9.872 -6.81 9.872 -7.637 10.762 C-9 12 -9 12 -11 12 C-11.66 13.32 -12.32 14.64 -13 16 C-13.99 16 -14.98 16 -16 16 C-13.719 11.565 -10.833 9.129 -7 6 C-6.278 5.092 -5.556 4.185 -4.812 3.25 C-3 1 -3 1 0 0 Z " fill="#4481D2" transform="translate(179,445)"/>
<path d="M0 0 C-4.29 -0.33 -8.58 -0.66 -13 -1 C-13 -0.34 -13 0.32 -13 1 C-18.445 3.475 -18.445 3.475 -24 6 C-21.555 1.111 -18.806 -1.04 -13.625 -2.812 C-8.62 -3.17 -4.263 -2.842 0 0 Z " fill="#5F6A73" transform="translate(730,565)"/>
<path d="M0 0 C1.12 3.361 0.902 4.017 -0.215 7.23 C-0.489 8.033 -0.763 8.835 -1.045 9.662 C-1.487 10.912 -1.487 10.912 -1.938 12.188 C-2.228 13.032 -2.519 13.877 -2.818 14.748 C-3.538 16.835 -4.265 18.919 -5 21 C-6.975 17.697 -7.04 17.188 -6.172 13.145 C-5.713 11.696 -5.239 10.252 -4.75 8.812 C-4.519 8.076 -4.289 7.339 -4.051 6.58 C-3.437 4.696 -2.725 2.844 -2 1 C-1.34 0.67 -0.68 0.34 0 0 Z " fill="#39434D" transform="translate(920,442)"/>
<path d="M0 0 C3.827 3.424 5.723 6.007 7 11 C5.062 10.25 5.062 10.25 3 9 C2.67 7.68 2.34 6.36 2 5 C-3.94 5.495 -3.94 5.495 -10 6 C-6.741 3.828 -3.408 1.929 0 0 Z " fill="#47525B" transform="translate(455,481)"/>
<path d="M0 0 C0.66 0 1.32 0 2 0 C2.33 2.64 2.66 5.28 3 8 C7.29 8 11.58 8 16 8 C16 8.33 16 8.66 16 9 C9.565 9.495 9.565 9.495 3 10 C1 6 1 6 1 4 C-0.32 4.99 -1.64 5.98 -3 7 C-3.66 6.67 -4.32 6.34 -5 6 C-3.384 3.959 -1.714 1.959 0 0 Z " fill="#6E787F" transform="translate(760,494)"/>
<path d="M0 0 C4.255 4.255 4.125 9.726 4.125 15.438 C4.093 17.292 4.055 19.146 4 21 C1.97 17.463 1.168 13.908 0.312 9.938 C0.041 8.709 -0.231 7.481 -0.512 6.215 C-1 3 -1 3 0 0 Z " fill="#4A5863" transform="translate(527,456)"/>
<path d="M0 0 C0.799 0.195 1.598 0.389 2.422 0.59 C3.327 0.824 3.327 0.824 4.25 1.062 C3.26 2.548 3.26 2.548 2.25 4.062 C-2.04 3.732 -6.33 3.403 -10.75 3.062 C-10.09 2.732 -9.43 2.403 -8.75 2.062 C-8.75 1.403 -8.75 0.742 -8.75 0.062 C-5.478 -1.011 -3.321 -0.83 0 0 Z " fill="#3B4955" transform="translate(485.75,562.9375)"/>
<path d="M0 0 C0.66 0.33 1.32 0.66 2 1 C1.553 1.508 1.105 2.016 0.645 2.539 C0.04 3.227 -0.565 3.916 -1.188 4.625 C-1.826 5.349 -2.464 6.074 -3.121 6.82 C-4.722 8.677 -6.24 10.57 -7.75 12.5 C-8.493 13.325 -9.235 14.15 -10 15 C-10.99 15 -11.98 15 -13 15 C-11.39 10.926 -8.462 8.235 -5.375 5.25 C-4.859 4.743 -4.344 4.237 -3.812 3.715 C-2.546 2.472 -1.274 1.235 0 0 Z " fill="#417FD2" transform="translate(187,456)"/>
<path d="M0 0 C2.64 0 5.28 0 8 0 C8 2.64 8 5.28 8 8 C3.545 8.495 3.545 8.495 -1 9 C-0.01 8.01 0.98 7.02 2 6 C3.32 6 4.64 6 6 6 C6 4.35 6 2.7 6 1 C3.36 1.99 0.72 2.98 -2 4 C-1.34 2.68 -0.68 1.36 0 0 Z " fill="#14202E" transform="translate(759,564)"/>
<path d="M0 0 C1.32 0.66 2.64 1.32 4 2 C3.34 2 2.68 2 2 2 C2 2.66 2 3.32 2 4 C2.66 4.33 3.32 4.66 4 5 C2.68 6.32 1.36 7.64 0 9 C-0.66 8.67 -1.32 8.34 -2 8 C-2.33 9.98 -2.66 11.96 -3 14 C-4.175 10.475 -3.727 9.343 -2.625 5.875 C-2.349 4.986 -2.073 4.096 -1.789 3.18 C-1 1 -1 1 0 0 Z " fill="#46545E" transform="translate(862,511)"/>
<path d="M0 0 C0.33 1.32 0.66 2.64 1 4 C1.66 3.01 2.32 2.02 3 1 C3.693 4.724 4.111 8.211 4 12 C1 12 1 12 -1 11 C-1 10.01 -1 9.02 -1 8 C-1.66 7.67 -2.32 7.34 -3 7 C-2.01 4.69 -1.02 2.38 0 0 Z " fill="#4C5F6D" transform="translate(428,588)"/>
<path d="M0 0 C5.94 0 11.88 0 18 0 C18 0.66 18 1.32 18 2 C15.031 3.484 12.301 3.209 9 3.25 C7.742 3.276 6.484 3.302 5.188 3.328 C4.136 3.22 3.084 3.112 2 3 C1.34 2.01 0.68 1.02 0 0 Z " fill="#142637" transform="translate(598,580)"/>
<path d="M0 0 C0.33 0.99 0.66 1.98 1 3 C0.541 3.387 0.082 3.773 -0.391 4.172 C-3.725 7.002 -6.965 9.844 -10 13 C-10.66 12.67 -11.32 12.34 -12 12 C-10.759 10.368 -9.507 8.745 -8.25 7.125 C-7.206 5.768 -7.206 5.768 -6.141 4.383 C-4.134 2.15 -2.757 1.08 0 0 Z " fill="#4281CE" transform="translate(142,482)"/>
<path d="M0 0 C0.955 4.202 1.136 6.261 -1 10 C-0.67 10.66 -0.34 11.32 0 12 C-0.282 14.34 -0.613 16.675 -1 19 C-1.33 19 -1.66 19 -2 19 C-2.488 16.982 -2.977 14.964 -3.465 12.945 C-3.948 10.941 -3.948 10.941 -5 9 C-4.34 9 -3.68 9 -3 9 C-2.67 7.02 -2.34 5.04 -2 3 C-2.66 3 -3.32 3 -4 3 C-3.007 1.015 -2.384 0 0 0 Z " fill="#4B5C6A" transform="translate(494,564)"/>
<path d="M0 0 C0.33 0 0.66 0 1 0 C1 2.97 1 5.94 1 9 C5.62 9 10.24 9 15 9 C13 11 13 11 10.836 11.195 C9.618 11.161 9.618 11.161 8.375 11.125 C7.558 11.107 6.74 11.089 5.898 11.07 C5.272 11.047 4.645 11.024 4 11 C4 11.66 4 12.32 4 13 C2 12 2 12 0 10 C-0.195 7.617 -0.195 7.617 -0.125 4.875 C-0.107 3.965 -0.089 3.055 -0.07 2.117 C-0.047 1.419 -0.024 0.72 0 0 Z " fill="#77848F" transform="translate(388,546)"/>
<path d="M0 0 C0.66 0.33 1.32 0.66 2 1 C0.71 2.376 -0.627 3.708 -2 5 C-2.66 5 -3.32 5 -4 5 C-3.67 8.3 -3.34 11.6 -3 15 C-5.408 11.79 -6.682 9.65 -8 6 C-5.36 4.02 -2.72 2.04 0 0 Z " fill="#59636C" transform="translate(733,442)"/>
<path d="M0 0 C0.33 1.32 0.66 2.64 1 4 C6.94 4 12.88 4 19 4 C19 4.33 19 4.66 19 5 C15.7 5.33 12.4 5.66 9 6 C9 6.33 9 6.66 9 7 C2.945 7.195 2.945 7.195 1 7 C0.34 6.34 -0.32 5.68 -1 5 C-0.625 2.375 -0.625 2.375 0 0 Z " fill="#111F2F" transform="translate(711,576)"/>
<path d="M0 0 C0.692 0.217 1.384 0.433 2.098 0.656 C10.623 3.083 18.21 3.324 27 3 C21.973 6.021 16.676 5.22 11 5 C10.104 4.97 9.208 4.941 8.285 4.91 C5.875 4.75 5.875 4.75 2 4 C0.758 1.953 0.758 1.953 0 0 Z " fill="#7E8991" transform="translate(481,500)"/>
<path d="M0 0 C0.99 0.33 1.98 0.66 3 1 C5.061 1.069 7.125 1.085 9.188 1.062 C10.274 1.053 11.361 1.044 12.48 1.035 C13.312 1.024 14.143 1.012 15 1 C14.67 1.99 14.34 2.98 14 4 C10.81 5.595 7.463 5.52 4 5 C1.5 3.062 1.5 3.062 0 1 C0 0.67 0 0.34 0 0 Z " fill="#4581D7" transform="translate(207,471)"/>
<path d="M0 0 C1.22 2.912 1.012 3.969 -0.145 6.98 C-0.695 8.039 -1.245 9.097 -1.812 10.188 C-2.627 11.787 -2.627 11.787 -3.457 13.418 C-5 16 -5 16 -7 17 C-6.335 12.611 -4.812 9.019 -3 5 C-2.34 5 -1.68 5 -1 5 C-0.67 3.35 -0.34 1.7 0 0 Z " fill="#535C65" transform="translate(900,502)"/>
<path d="M0 0 C0 3 0 3 -2.188 5.48 C-3.116 6.374 -4.044 7.267 -5 8.188 C-5.928 9.089 -6.856 9.99 -7.812 10.918 C-8.895 11.949 -8.895 11.949 -10 13 C-10.66 12.67 -11.32 12.34 -12 12 C-9.886 7.994 -7.58 5.732 -4 3 C-3.67 2.34 -3.34 1.68 -3 1 C-2.01 0.67 -1.02 0.34 0 0 Z " fill="#4182E5" transform="translate(283,390)"/>
<path d="M0 0 C3.96 0 7.92 0 12 0 C12 6 12 6 11 8 C10.34 8 9.68 8 9 8 C8.722 6.824 8.722 6.824 8.438 5.625 C7.16 2.606 7.16 2.606 3.375 1.688 C2.261 1.461 1.147 1.234 0 1 C0 0.67 0 0.34 0 0 Z " fill="#495966" transform="translate(476,611)"/>
<path d="M0 0 C0.33 0 0.66 0 1 0 C1.243 4.125 0.346 7.122 -1 11 C-1.369 12.994 -1.713 14.993 -2 17 C-4.343 13.692 -4.096 10.89 -3.488 6.973 C-2.819 4.269 -1.663 2.217 0 0 Z " fill="#404F5A" transform="translate(413,443)"/>
<path d="M0 0 C-1.477 3.452 -3.438 5.65 -6.125 8.25 C-6.849 8.956 -7.574 9.663 -8.32 10.391 C-8.875 10.922 -9.429 11.453 -10 12 C-10.99 11.67 -11.98 11.34 -13 11 C-11.214 9.161 -9.422 7.328 -7.625 5.5 C-7.117 4.975 -6.609 4.451 -6.086 3.91 C-2.227 0 -2.227 0 0 0 Z " fill="#3F7EDE" transform="translate(271,425)"/>
<path d="M0 0 C1.354 2.709 1.065 5.009 1 8 C0.546 7.526 0.092 7.051 -0.375 6.562 C-1.933 4.91 -1.933 4.91 -4 4 C-4.33 3.01 -4.66 2.02 -5 1 C-4.01 1 -3.02 1 -2 1 C-6.651 0.731 -6.651 0.731 -11 2 C-10.67 1.01 -10.34 0.02 -10 -1 C-6.375 -2.745 -3.544 -1.496 0 0 Z " fill="#63717B" transform="translate(521,547)"/>
<path d="M0 0 C0.66 0.66 1.32 1.32 2 2 C1.241 2.026 0.481 2.052 -0.301 2.078 C-1.295 2.135 -2.289 2.192 -3.312 2.25 C-4.299 2.296 -5.285 2.343 -6.301 2.391 C-9.625 3.141 -10.21 4.205 -12 7 C-14.188 7.75 -14.188 7.75 -16 8 C-16 7.34 -16 6.68 -16 6 C-10.673 1.146 -7.451 -0.406 0 0 Z " fill="#5A92D8" transform="translate(194,438)"/>
<path d="M0 0 C0.66 0.99 1.32 1.98 2 3 C-4.16 5.524 -8.446 6.38 -15 5 C-15.66 4.67 -16.32 4.34 -17 4 C-16.67 3.34 -16.34 2.68 -16 2 C-15.34 2.33 -14.68 2.66 -14 3 C-11.696 3.236 -11.696 3.236 -9.125 3.25 C-8.261 3.276 -7.398 3.302 -6.508 3.328 C-3.55 2.941 -2.208 1.951 0 0 Z " fill="#162332" transform="translate(799,593)"/>
<path d="M0 0 C-1.65 0.33 -3.3 0.66 -5 1 C-5 1.66 -5 2.32 -5 3 C-8.96 4.98 -8.96 4.98 -13 7 C-13 6.01 -13 5.02 -13 4 C-8.611 0.684 -5.452 -1.692 0 0 Z " fill="#59636C" transform="translate(443,581)"/>
<path d="M0 0 C1.98 0 3.96 0 6 0 C6.33 0.99 6.66 1.98 7 3 C5.68 3 4.36 3 3 3 C2.67 3.99 2.34 4.98 2 6 C1 7 1 7 -1 8 C-1.125 2.25 -1.125 2.25 0 0 Z " fill="#1F3242" transform="translate(530,547)"/>
<path d="M0 0 C-0.33 0.33 -0.66 0.66 -1 1 C-0.01 1.66 0.98 2.32 2 3 C1.361 3.289 0.721 3.577 0.062 3.875 C-2.152 4.828 -2.152 4.828 -3 7 C-3.124 6.361 -3.248 5.721 -3.375 5.062 C-3.581 4.382 -3.788 3.701 -4 3 C-4.66 2.67 -5.32 2.34 -6 2 C-6 1.34 -6 0.68 -6 0 C-3.509 -1.245 -2.589 -0.777 0 0 Z " fill="#465561" transform="translate(435,571)"/>
<path d="M0 0 C1.65 0.33 3.3 0.66 5 1 C4.34 1.66 3.68 2.32 3 3 C4.32 4.32 5.64 5.64 7 7 C6.01 6.67 5.02 6.34 4 6 C2.439 5.933 0.875 5.915 -0.688 5.938 C-1.496 5.947 -2.304 5.956 -3.137 5.965 C-3.752 5.976 -4.366 5.988 -5 6 C-3.35 4.02 -1.7 2.04 0 0 Z " fill="#172838" transform="translate(564,566)"/>
<path d="M0 0 C0.99 0.99 1.98 1.98 3 3 C3.33 3 3.66 3 4 3 C4.33 5.64 4.66 8.28 5 11 C3.35 11.33 1.7 11.66 0 12 C0 8.04 0 4.08 0 0 Z " fill="#4D5C67" transform="translate(889,476)"/>
<path d="M0 0 C2.497 3.746 2.297 5.552 2 10 C1.46 12.398 0.765 14.658 0 17 C-0.33 17 -0.66 17 -1 17 C-0.67 13.04 -0.34 9.08 0 5 C-0.66 5 -1.32 5 -2 5 C-1.125 1.125 -1.125 1.125 0 0 Z " fill="#6E7881" transform="translate(698,464)"/>
<path d="M0 0 C3.719 0.507 6.735 1.116 10 3 C10 3.66 10 4.32 10 5 C11.32 5.66 12.64 6.32 14 7 C8.4 6.58 4.412 4.314 0 1 C0 0.67 0 0.34 0 0 Z " fill="#4F5A64" transform="translate(407,496)"/>
<path d="M0 0 C0.33 0.99 0.66 1.98 1 3 C-1.64 5.64 -4.28 8.28 -7 11 C-7.99 10.67 -8.98 10.34 -10 10 C-6.7 6.7 -3.4 3.4 0 0 Z " fill="#4482DB" transform="translate(255,439)"/>
<path d="M0 0 C-1.125 2 -1.125 2 -3 4 C-6.188 4.25 -6.188 4.25 -9 4 C-8.01 3.67 -7.02 3.34 -6 3 C-6 2.34 -6 1.68 -6 1 C-8.64 1 -11.28 1 -14 1 C-14 0.67 -14 0.34 -14 0 C-4.59 -1.333 -4.59 -1.333 0 0 Z " fill="#4C5E6C" transform="translate(732,596)"/>
<path d="M0 0 C0.33 0 0.66 0 1 0 C1 11 1 11 -1 14 C-1.66 13.67 -2.32 13.34 -3 13 C-3 9.901 -2.417 7.756 -1.5 4.812 C-1.222 3.911 -0.943 3.01 -0.656 2.082 C-0.44 1.395 -0.223 0.708 0 0 Z " fill="#465462" transform="translate(493,583)"/>
<path d="M0 0 C5.706 0.428 9.411 2.843 14 6 C13.67 6.66 13.34 7.32 13 8 C12.34 7.34 11.68 6.68 11 6 C8.682 5.283 6.347 4.618 4 4 C3.01 3.67 2.02 3.34 1 3 C0.67 2.01 0.34 1.02 0 0 Z " fill="#56636D" transform="translate(757,439)"/>
<path d="M0 0 C2.64 0.33 5.28 0.66 8 1 C8.66 2.65 9.32 4.3 10 6 C7.03 5.67 4.06 5.34 1 5 C1.99 4.34 2.98 3.68 4 3 C2.68 2.01 1.36 1.02 0 0 Z " fill="#304659" transform="translate(475,613)"/>
<path d="M0 0 C0.66 0 1.32 0 2 0 C1.67 1.65 1.34 3.3 1 5 C0.484 4.835 -0.031 4.67 -0.562 4.5 C-3.734 3.85 -6.772 3.938 -10 4 C-10.33 3.34 -10.66 2.68 -11 2 C-10.29 1.939 -9.579 1.879 -8.848 1.816 C-7.469 1.691 -7.469 1.691 -6.062 1.562 C-5.146 1.481 -4.229 1.4 -3.285 1.316 C-1.038 1.24 -1.038 1.24 0 0 Z " fill="#1E2E3D" transform="translate(615,595)"/>
<path d="M0 0 C0 0.33 0 0.66 0 1 C-3.3 1.66 -6.6 2.32 -10 3 C-10 3.66 -10 4.32 -10 5 C-12 6.625 -12 6.625 -14 8 C-14.33 7.01 -14.66 6.02 -15 5 C-10.496 -0.171 -6.607 -0.154 0 0 Z " fill="#5E6973" transform="translate(614,452)"/>
<path d="M0 0 C0.99 0.33 1.98 0.66 3 1 C2.67 1.66 2.34 2.32 2 3 C1.34 3 0.68 3 0 3 C-0.66 4.65 -1.32 6.3 -2 8 C-2.99 8 -3.98 8 -5 8 C-5 5 -5 5 -2.5 2.312 C-1.675 1.549 -0.85 0.786 0 0 Z " fill="#4C5A66" transform="translate(474,564)"/>
<path d="M0 0 C-2.028 1.014 -4.027 2.011 -6.125 2.875 C-8.42 4.252 -9.021 5.552 -10 8 C-10.66 7.67 -11.32 7.34 -12 7 C-11.67 6.67 -11.34 6.34 -11 6 C-11.99 5.34 -12.98 4.68 -14 4 C-13.01 4 -12.02 4 -11 4 C-11 3.34 -11 2.68 -11 2 C-7.17 0.198 -4.219 -0.196 0 0 Z " fill="#2D4558" transform="translate(445,565)"/>
<path d="M0 0 C1.842 2.763 2.722 4.807 3.688 7.938 C3.959 8.792 4.231 9.647 4.512 10.527 C5.021 13.105 4.849 14.544 4 17 C4 16.34 4 15.68 4 15 C3.34 15 2.68 15 2 15 C1.662 13.251 1.33 11.501 1 9.75 C0.814 8.775 0.629 7.801 0.438 6.797 C0 4 0 4 0 0 Z " fill="#626F77" transform="translate(879,443)"/>
<path d="M0 0 C0 3 0 3 -1.75 4.824 C-2.493 5.439 -3.235 6.054 -4 6.688 C-4.743 7.31 -5.485 7.933 -6.25 8.574 C-6.827 9.045 -7.405 9.515 -8 10 C-9.32 9.34 -10.64 8.68 -12 8 C-10.68 8 -9.36 8 -8 8 C-7.67 7.01 -7.34 6.02 -7 5 C-5.364 3.951 -3.695 2.951 -2 2 C-1.34 1.34 -0.68 0.68 0 0 Z " fill="#3778D6" transform="translate(225,448)"/>
<path d="M0 0 C0.782 0.017 1.565 0.034 2.371 0.051 C3.156 0.055 3.941 0.059 4.75 0.062 C6.809 0.363 6.809 0.363 8.809 2.363 C8.479 3.023 8.149 3.683 7.809 4.363 C6.819 4.363 5.829 4.363 4.809 4.363 C4.809 3.703 4.809 3.043 4.809 2.363 C1.509 2.693 -1.791 3.023 -5.191 3.363 C-2.191 0.363 -2.191 0.363 0 0 Z " fill="#6F7B85" transform="translate(495.19140625,451.63671875)"/>
<path d="M0 0 C0.66 0.33 1.32 0.66 2 1 C1.505 1.433 1.01 1.866 0.5 2.312 C-1.332 3.997 -1.332 3.997 -1 7 C-2.822 8.925 -4.892 10.375 -7 12 C-6.691 11.423 -6.381 10.845 -6.062 10.25 C-4.932 8.101 -4.932 8.101 -4.625 6 C-3.767 3.256 -2.101 1.898 0 0 Z " fill="#3E5160" transform="translate(408,424)"/>
<path d="M0 0 C2.798 0.386 3.821 0.801 5.75 2.938 C7 5 7 5 7 7 C6.01 7 5.02 7 4 7 C3.34 6.01 2.68 5.02 2 4 C1.01 3.34 0.02 2.68 -1 2 C-0.67 1.34 -0.34 0.68 0 0 Z " fill="#505A64" transform="translate(616,592)"/>
<path d="M0 0 C2.31 0 4.62 0 7 0 C7 0.66 7 1.32 7 2 C5.567 2.532 4.128 3.05 2.688 3.562 C1.487 3.998 1.487 3.998 0.262 4.441 C-2 5 -2 5 -5 4 C-4.175 3.526 -3.35 3.051 -2.5 2.562 C-1.262 1.789 -1.262 1.789 0 1 C0 0.67 0 0.34 0 0 Z " fill="#192736" transform="translate(443,583)"/>
<path d="M0 0 C3.161 1.37 3.993 1.989 6 5 C6.125 8.188 6.125 8.188 6 11 C5.34 10.01 4.68 9.02 4 8 C2.948 6.763 2.948 6.763 1.875 5.5 C0 3 0 3 0 0 Z " fill="#353F4A" transform="translate(730,565)"/>
<path d="M0 0 C1 2 1 2 0.512 3.805 C0.104 4.829 0.104 4.829 -0.312 5.875 C-0.577 6.553 -0.841 7.231 -1.113 7.93 C-1.999 9.998 -2.973 11.999 -4 14 C-3.913 12.041 -3.805 10.083 -3.688 8.125 C-3.629 7.034 -3.571 5.944 -3.512 4.82 C-3.343 3.89 -3.174 2.959 -3 2 C-2.01 1.34 -1.02 0.68 0 0 Z " fill="#202B37" transform="translate(471,453)"/>
<path d="M0 0 C3.362 1.441 5.592 3.248 8 6 C8 6.66 8 7.32 8 8 C4.564 6.473 1.881 4.401 -1 2 C-0.67 1.34 -0.34 0.68 0 0 Z " fill="#518EE8" transform="translate(304,392)"/>
<path d="M0 0 C1.485 0.99 1.485 0.99 3 2 C3.66 2.33 4.32 2.66 5 3 C5 4.32 5 5.64 5 7 C3.125 6.75 3.125 6.75 1 6 C-0.312 4.062 -0.312 4.062 -1 2 C-0.67 1.34 -0.34 0.68 0 0 Z " fill="#42505A" transform="translate(468,612)"/>
<path d="M0 0 C0.33 0 0.66 0 1 0 C1 1.98 1 3.96 1 6 C1.66 6 2.32 6 3 6 C4.32 8.31 5.64 10.62 7 13 C3.628 11.605 1.75 10.237 0 7 C-0.188 3.25 -0.188 3.25 0 0 Z " fill="#5083CB" transform="translate(274,597)"/>
<path d="M0 0 C0.33 0.66 0.66 1.32 1 2 C0.062 4.125 0.062 4.125 -1 6 C-2.32 6 -3.64 6 -5 6 C-4.75 4.125 -4.75 4.125 -4 2 C-1.938 0.75 -1.938 0.75 0 0 Z " fill="#203545" transform="translate(436,589)"/>
<path d="M0 0 C2.97 0.33 5.94 0.66 9 1 C6.009 2.496 3.099 3.777 0 5 C-0.99 5.495 -0.99 5.495 -2 6 C-1.34 4.02 -0.68 2.04 0 0 Z " fill="#182735" transform="translate(601,568)"/>
<path d="M0 0 C1.32 0.99 2.64 1.98 4 3 C2.125 7.75 2.125 7.75 1 10 C0.876 9.196 0.752 8.391 0.625 7.562 C0.316 6.294 0.316 6.294 0 5 C-0.66 4.67 -1.32 4.34 -2 4 C-1.34 2.68 -0.68 1.36 0 0 Z " fill="#4B5B69" transform="translate(436,586)"/>
<path d="M0 0 C1.312 3.937 0.243 6.125 -1 10 C-1.33 8.68 -1.66 7.36 -2 6 C-2.66 6 -3.32 6 -4 6 C-2.848 3.532 -1.952 1.952 0 0 Z " fill="#293E51" transform="translate(597,570)"/>
<path d="M0 0 C2.313 2.313 2.496 3.479 3.125 6.625 C3.293 7.442 3.46 8.26 3.633 9.102 C3.754 9.728 3.875 10.355 4 11 C3.67 10.34 3.34 9.68 3 9 C2.34 9 1.68 9 1 9 C1 8.34 1 7.68 1 7 C0.34 6.67 -0.32 6.34 -1 6 C-0.67 4.02 -0.34 2.04 0 0 Z " fill="#303A43" transform="translate(878,488)"/>
<path d="M0 0 C3 1 3 1 7 3 C3.37 3.66 -0.26 4.32 -4 5 C-3 2 -3 2 0 0 Z " fill="#4F5D68" transform="translate(749,473)"/>
<path d="M0 0 C3.829 1.453 5.121 3.429 7 7 C6.01 7.33 5.02 7.66 4 8 C4 7.34 4 6.68 4 6 C3.34 5.67 2.68 5.34 2 5 C1.278 3.356 0.606 1.689 0 0 Z " fill="#37424C" transform="translate(826,453)"/>
<path d="M0 0 C1.188 3.429 0.802 5.378 -0.438 8.75 C-0.869 9.949 -0.869 9.949 -1.309 11.172 C-1.537 11.775 -1.765 12.378 -2 13 C-4.047 9.281 -4.047 9.281 -3.625 6.75 C-3.419 6.173 -3.212 5.595 -3 5 C-2.34 5 -1.68 5 -1 5 C-0.67 3.35 -0.34 1.7 0 0 Z " fill="#59646D" transform="translate(917,450)"/>
<path d="M0 0 C4.29 0 8.58 0 13 0 C13.66 1.32 14.32 2.64 15 4 C14.203 3.509 14.203 3.509 13.391 3.008 C10.373 1.736 8.013 1.804 4.75 1.875 C3.134 1.902 3.134 1.902 1.484 1.93 C0.665 1.953 -0.155 1.976 -1 2 C-0.67 1.34 -0.34 0.68 0 0 Z " fill="#3372CE" transform="translate(185,440)"/>
<path d="M0 0 C0 1.65 0 3.3 0 5 C-1.32 5 -2.64 5 -4 5 C-4.66 3.68 -5.32 2.36 -6 1 C-3.924 0.447 -2.156 0 0 0 Z " fill="#283E50" transform="translate(765,565)"/>
<path d="M0 0 C2.31 0 4.62 0 7 0 C7 1.65 7 3.3 7 5 C4.496 4.165 2.332 3.206 0 2 C0 1.34 0 0.68 0 0 Z " fill="#1C2936" transform="translate(548,564)"/>
<path d="M0 0 C0.33 0 0.66 0 1 0 C1.33 3.63 1.66 7.26 2 11 C1.01 11.66 0.02 12.32 -1 13 C-0.67 8.71 -0.34 4.42 0 0 Z " fill="#112130" transform="translate(494,579)"/>
<path d="M0 0 C0.33 0.66 0.66 1.32 1 2 C1.66 2 2.32 2 3 2 C3.33 3.98 3.66 5.96 4 8 C3.34 8 2.68 8 2 8 C1.67 8.66 1.34 9.32 1 10 C0.67 6.7 0.34 3.4 0 0 Z " fill="#4F5A64" transform="translate(880,497)"/>
<path d="M0 0 C0.66 0 1.32 0 2 0 C2 1.98 2 3.96 2 6 C1.67 5.34 1.34 4.68 1 4 C-0.32 4.99 -1.64 5.98 -3 7 C-3.66 6.67 -4.32 6.34 -5 6 C-3.384 3.959 -1.714 1.959 0 0 Z " fill="#7C8991" transform="translate(760,494)"/>
<path d="M0 0 C0 3.908 -1.506 5.116 -4 8 C-4.66 7.67 -5.32 7.34 -6 7 C-2.25 1.125 -2.25 1.125 0 0 Z " fill="#4F5A61" transform="translate(500,610)"/>
<path d="M0 0 C0.66 0.66 1.32 1.32 2 2 C0.639 1.969 0.639 1.969 -0.75 1.938 C-3.427 1.989 -5.47 2.222 -8 3 C-8.33 2.34 -8.66 1.68 -9 1 C-5.987 -0.507 -3.317 -0.178 0 0 Z " fill="#5E6972" transform="translate(723,570)"/>
<path d="M0 0 C1.671 0.062 1.671 0.062 3.375 0.125 C3.045 1.115 2.715 2.105 2.375 3.125 C0.062 3.75 0.062 3.75 -2.625 4.125 C-3.615 3.465 -4.605 2.805 -5.625 2.125 C-3.625 0.125 -3.625 0.125 0 0 Z " fill="#20374C" transform="translate(607.625,564.875)"/>
<path d="M0 0 C0.99 1.32 1.98 2.64 3 4 C2.67 4.66 2.34 5.32 2 6 C1.01 6 0.02 6 -1 6 C-1.625 4.125 -1.625 4.125 -2 2 C-1.34 1.34 -0.68 0.68 0 0 Z " fill="#3F505E" transform="translate(412,472)"/>
<path d="M0 0 C0.33 0 0.66 0 1 0 C0.886 1.48 0.759 2.959 0.625 4.438 C0.521 5.673 0.521 5.673 0.414 6.934 C0.277 7.616 0.141 8.297 0 9 C-0.99 9.495 -0.99 9.495 -2 10 C-2.25 3.375 -2.25 3.375 0 0 Z " fill="#44515D" transform="translate(558,457)"/>
<path d="M0 0 C-0.33 0.66 -0.66 1.32 -1 2 C-3.066 2.414 -3.066 2.414 -5.562 2.625 C-6.389 2.7 -7.215 2.775 -8.066 2.852 C-9.024 2.925 -9.024 2.925 -10 3 C-6.819 -0.484 -4.568 -1.418 0 0 Z " fill="#53616C" transform="translate(422,420)"/>
<path d="M0 0 C-0.99 1.485 -0.99 1.485 -2 3 C-5.125 3.188 -5.125 3.188 -8 3 C-8 2.34 -8 1.68 -8 1 C-2.25 -1.125 -2.25 -1.125 0 0 Z " fill="#333D47" transform="translate(495,617)"/>
<path d="M0 0 C2.007 0.287 4.009 0.619 6 1 C5.67 1.99 5.34 2.98 5 4 C3.35 4.33 1.7 4.66 0 5 C-0.562 3.062 -0.562 3.062 -1 1 C-0.67 0.67 -0.34 0.34 0 0 Z " fill="#5C6976" transform="translate(446,598)"/>
<path d="M0 0 C2.062 1.688 2.062 1.688 4 4 C3.75 6.75 3.75 6.75 3 9 C1.352 6.033 0.557 3.344 0 0 Z " fill="#3E4953" transform="translate(800,567)"/>
<path d="M0 0 C-0.66 0.66 -1.32 1.32 -2 2 C-4.729 1.967 -7.297 1.436 -10 1 C-10 0.67 -10 0.34 -10 0 C-6.337 -0.749 -3.576 -1.238 0 0 Z " fill="#334655" transform="translate(800,566)"/>
<path d="M0 0 C0.66 0.33 1.32 0.66 2 1 C0.68 3.31 -0.64 5.62 -2 8 C-2.99 8 -3.98 8 -5 8 C-3.387 5.288 -1.751 2.626 0 0 Z " fill="#192C3E" transform="translate(760,490)"/>
<path d="M0 0 C1 3 1 3 -0.438 6.188 C-1.211 7.58 -1.211 7.58 -2 9 C-2.33 9 -2.66 9 -3 9 C-2.67 6.69 -2.34 4.38 -2 2 C-1.34 2 -0.68 2 0 2 C0 1.34 0 0.68 0 0 Z " fill="#2D3943" transform="translate(513,476)"/>
<path d="M0 0 C2.993 1.098 3.846 1.677 5.25 4.625 C5.498 5.409 5.745 6.192 6 7 C1.2 4.538 1.2 4.538 0.188 1.812 C0.126 1.214 0.064 0.616 0 0 Z " fill="#303B45" transform="translate(506,454)"/>
<path d="M0 0 C0.66 0.33 1.32 0.66 2 1 C0.25 3.062 0.25 3.062 -2 5 C-4.25 4.75 -4.25 4.75 -6 4 C-4.02 2.68 -2.04 1.36 0 0 Z " fill="#4F5B65" transform="translate(733,442)"/>
<path d="M0 0 C2.97 0.495 2.97 0.495 6 1 C6 1.66 6 2.32 6 3 C6.99 3.33 7.98 3.66 9 4 C2.25 3.125 2.25 3.125 0 2 C0 1.34 0 0.68 0 0 Z " fill="#5E97E7" transform="translate(312,400)"/>
<path d="M0 0 C1.938 0.375 1.938 0.375 4 1 C5.534 4.069 4.55 6.701 4 10 C3.67 10 3.34 10 3 10 C2.512 7.982 2.023 5.964 1.535 3.945 C1.052 1.941 1.052 1.941 0 0 Z " fill="#5D6870" transform="translate(489,573)"/>
<path d="M0 0 C2.799 2.528 4.458 4.204 5 8 C3.062 7.375 3.062 7.375 1 6 C0.25 2.875 0.25 2.875 0 0 Z " fill="#4C5A67" transform="translate(457,484)"/>
<path d="M0 0 C2.296 3.445 2.54 5.938 3 10 C2.67 9.34 2.34 8.68 2 8 C1.34 8 0.68 8 0 8 C0 5.36 0 2.72 0 0 Z " fill="#5A646E" transform="translate(884,460)"/>
<path d="M0 0 C1.98 1.65 3.96 3.3 6 5 C5.67 5.99 5.34 6.98 5 8 C4.381 7.216 3.762 6.433 3.125 5.625 C1.101 3.032 1.101 3.032 -1 1 C-0.67 0.67 -0.34 0.34 0 0 Z " fill="#4584DB" transform="translate(191,455)"/>
<path d="M0 0 C1.884 3.265 2.493 6.281 3 10 C0 8 0 8 -0.75 5.562 C-1 3 -1 3 0 0 Z " fill="#5892E2" transform="translate(278,372)"/>
<path d="M0 0 C0.99 0.33 1.98 0.66 3 1 C2.34 2.32 1.68 3.64 1 5 C0.67 5 0.34 5 0 5 C0 3.35 0 1.7 0 0 Z " fill="#647787" transform="translate(392,482)"/>
<path d="M0 0 C0.66 1.32 1.32 2.64 2 4 C1.01 3.01 0.02 2.02 -1 1 C-0.67 0.67 -0.34 0.34 0 0 Z " fill="#576571" transform="translate(618,460)"/>
<path d="M0 0 C0.33 0 0.66 0 1 0 C1 1.65 1 3.3 1 5 C0.67 5 0.34 5 0 5 C0 3.35 0 1.7 0 0 Z " fill="#5E6C77" transform="translate(619,497)"/>
<path d="M0 0 C4 1 4 1 4 1 Z " fill="#6E7880" transform="translate(480,623)"/>
<path d="M0 0 C1 4 1 4 1 4 Z " fill="#586672" transform="translate(743,484)"/>
<path d="M0 0 C4 1 4 1 4 1 Z " fill="#659DE8" transform="translate(287,437)"/>
<path d="M0 0 C0.66 0.66 1.32 1.32 2 2 C1.34 2 0.68 2 0 2 C0 1.34 0 0.68 0 0 Z " fill="#707A83" transform="translate(784,606)"/>
<path d="M0 0 C0.33 0.66 0.66 1.32 1 2 C0.34 1.67 -0.32 1.34 -1 1 C-0.67 0.67 -0.34 0.34 0 0 Z " fill="#616E76" transform="translate(489,605)"/>
<path d="M0 0 C0.66 0 1.32 0 2 0 C1.67 0.66 1.34 1.32 1 2 C0.67 1.34 0.34 0.68 0 0 Z " fill="#6F7B80" transform="translate(753,605)"/>
<path d="M0 0 C0.66 0 1.32 0 2 0 C1.67 0.66 1.34 1.32 1 2 C0.67 1.34 0.34 0.68 0 0 Z " fill="#6D7A81" transform="translate(408,605)"/>
<path d="" fill="#66727D" transform="translate(0,0)"/>
<path d="M0 0 C0.99 0.495 0.99 0.495 2 1 C1.01 1.495 1.01 1.495 0 2 C0 1.34 0 0.68 0 0 Z " fill="#64737C" transform="translate(649,579)"/>
<path d="M0 0 C0.66 0 1.32 0 2 0 C1.67 0.66 1.34 1.32 1 2 C0.67 1.34 0.34 0.68 0 0 Z " fill="#636E79" transform="translate(722,573)"/>
<path d="M0 0 C0.66 0.66 1.32 1.32 2 2 C1.34 2 0.68 2 0 2 C0 1.34 0 0.68 0 0 Z " fill="#64717B" transform="translate(752,560)"/>
<path d="M0 0 C0.33 0.66 0.66 1.32 1 2 C0.34 1.67 -0.32 1.34 -1 1 C-0.67 0.67 -0.34 0.34 0 0 Z " fill="#657584" transform="translate(401,494)"/>
<path d="" fill="#566571" transform="translate(0,0)"/>
<path d="" fill="#55646F" transform="translate(0,0)"/>
<path d="M0 0 C0.99 0.495 0.99 0.495 2 1 C1.01 1.495 1.01 1.495 0 2 C0 1.34 0 0.68 0 0 Z " fill="#596673" transform="translate(616,457)"/>
<path d="" fill="#596770" transform="translate(0,0)"/>
<path d="M0 0 C0.66 0 1.32 0 2 0 C1.67 0.66 1.34 1.32 1 2 C0.67 1.34 0.34 0.68 0 0 Z " fill="#5C6A78" transform="translate(478,440)"/>
<path d="" fill="#6F7D86" transform="translate(0,0)"/>
<path d="M0 0 C2 1 2 1 2 1 Z " fill="#717C81" transform="translate(692,606)"/>
<path d="M0 0 C2 1 2 1 2 1 Z " fill="#6E787E" transform="translate(528,605)"/>
<path d="M0 0 C2 1 2 1 2 1 Z " fill="#626E77" transform="translate(457,605)"/>
<path d="M0 0 C2 1 2 1 2 1 Z " fill="#69757E" transform="translate(568,600)"/>
<path d="" fill="#616E77" transform="translate(0,0)"/>
<path d="" fill="#606B78" transform="translate(0,0)"/>
<path d="" fill="#596672" transform="translate(0,0)"/>
<path d="M0 0 C2 1 2 1 2 1 Z " fill="#65737E" transform="translate(425,572)"/>
<path d="M0 0 C2 1 2 1 2 1 Z " fill="#65747F" transform="translate(749,561)"/>
<path d="M0 0 C2 1 2 1 2 1 Z " fill="#65737D" transform="translate(427,558)"/>
<path d="M0 0 C2 1 2 1 2 1 Z " fill="#72A6C5" transform="translate(125,510)"/>
<path d="M0 0 C2 1 2 1 2 1 Z " fill="#5E6975" transform="translate(700,503)"/>
<path d="" fill="#5E6E76" transform="translate(0,0)"/>
<path d="M0 0 C2 1 2 1 2 1 Z " fill="#5D6D79" transform="translate(785,499)"/>
<path d="" fill="#5F6E77" transform="translate(0,0)"/>
<path d="M0 0 C2 1 2 1 2 1 Z " fill="#647787" transform="translate(394,486)"/>
<path d="" fill="#5E6C76" transform="translate(0,0)"/>
<path d="M0 0 C2 1 2 1 2 1 Z " fill="#536470" transform="translate(420,481)"/>
<path d="" fill="#5C6974" transform="translate(0,0)"/>
<path d="" fill="#556370" transform="translate(0,0)"/>
<path d="" fill="#5C6773" transform="translate(0,0)"/>
<path d="" fill="#586672" transform="translate(0,0)"/>
<path d="" fill="#576571" transform="translate(0,0)"/>
<path d="" fill="#5F6B77" transform="translate(0,0)"/>
<path d="" fill="#5D6873" transform="translate(0,0)"/>
<path d="M0 0 C2 1 2 1 2 1 Z " fill="#5B6976" transform="translate(464,459)"/>
<path d="" fill="#5A6871" transform="translate(0,0)"/>
<path d="" fill="#636F78" transform="translate(0,0)"/>
<path d="M0 0 C2 1 2 1 2 1 Z " fill="#626F78" transform="translate(827,436)"/>
<path d="M0 0 C2 1 2 1 2 1 Z " fill="#62707B" transform="translate(499,436)"/>
<path d="M0 0 C2 1 2 1 2 1 Z " fill="#6DA1E4" transform="translate(319,405)"/>
<path d="" fill="#6E9FE2" transform="translate(0,0)"/>
<path d="" fill="#717983" transform="translate(0,0)"/>
<path d="" fill="#6E7D83" transform="translate(0,0)"/>
<path d="" fill="#6E797F" transform="translate(0,0)"/>
<path d="" fill="#6A757D" transform="translate(0,0)"/>
<path d="" fill="#68737B" transform="translate(0,0)"/>
<path d="" fill="#606C74" transform="translate(0,0)"/>
<path d="" fill="#707E85" transform="translate(0,0)"/>
<path d="" fill="#6F7D81" transform="translate(0,0)"/>
<path d="" fill="#6B7981" transform="translate(0,0)"/>
<path d="" fill="#68767E" transform="translate(0,0)"/>
<path d="" fill="#717C83" transform="translate(0,0)"/>
<path d="" fill="#6F7B82" transform="translate(0,0)"/>
<path d="" fill="#6C7A82" transform="translate(0,0)"/>
<path d="" fill="#707C84" transform="translate(0,0)"/>
<path d="" fill="#6A767B" transform="translate(0,0)"/>
<path d="" fill="#707B80" transform="translate(0,0)"/>
<path d="" fill="#6D787D" transform="translate(0,0)"/>
<path d="" fill="#717B7F" transform="translate(0,0)"/>
<path d="" fill="#717C82" transform="translate(0,0)"/>
<path d="" fill="#70797E" transform="translate(0,0)"/>
<path d="" fill="#6B777E" transform="translate(0,0)"/>
<path d="" fill="#707B83" transform="translate(0,0)"/>
<path d="" fill="#6E7980" transform="translate(0,0)"/>
<path d="" fill="#6F7C80" transform="translate(0,0)"/>
<path d="" fill="#68757F" transform="translate(0,0)"/>
<path d="" fill="#6D787F" transform="translate(0,0)"/>
<path d="" fill="#647478" transform="translate(0,0)"/>
<path d="" fill="#64717A" transform="translate(0,0)"/>
<path d="" fill="#64707A" transform="translate(0,0)"/>
<path d="" fill="#687681" transform="translate(0,0)"/>
<path d="" fill="#6F7A82" transform="translate(0,0)"/>
<path d="" fill="#67747B" transform="translate(0,0)"/>
<path d="" fill="#707A83" transform="translate(0,0)"/>
<path d="" fill="#6E7982" transform="translate(0,0)"/>
<path d="" fill="#67737F" transform="translate(0,0)"/>
<path d="" fill="#6A7780" transform="translate(0,0)"/>
<path d="" fill="#6D7880" transform="translate(0,0)"/>
<path d="" fill="#6D7780" transform="translate(0,0)"/>
<path d="" fill="#69757E" transform="translate(0,0)"/>
<path d="" fill="#626E78" transform="translate(0,0)"/>
<path d="" fill="#67757D" transform="translate(0,0)"/>
<path d="" fill="#63707A" transform="translate(0,0)"/>
<path d="" fill="#637178" transform="translate(0,0)"/>
<path d="" fill="#56656E" transform="translate(0,0)"/>
<path d="" fill="#68757E" transform="translate(0,0)"/>
<path d="" fill="#65747E" transform="translate(0,0)"/>
<path d="" fill="#68707C" transform="translate(0,0)"/>
<path d="" fill="#63737C" transform="translate(0,0)"/>
<path d="" fill="#66707C" transform="translate(0,0)"/>
<path d="" fill="#68737A" transform="translate(0,0)"/>
<path d="" fill="#616D7A" transform="translate(0,0)"/>
<path d="" fill="#5F6B76" transform="translate(0,0)"/>
<path d="" fill="#5D6A78" transform="translate(0,0)"/>
<path d="" fill="#66717D" transform="translate(0,0)"/>
<path d="" fill="#5F6A77" transform="translate(0,0)"/>
<path d="" fill="#5F6971" transform="translate(0,0)"/>
<path d="" fill="#616B75" transform="translate(0,0)"/>
<path d="" fill="#636F78" transform="translate(0,0)"/>
<path d="" fill="#66707C" transform="translate(0,0)"/>
<path d="" fill="#616D78" transform="translate(0,0)"/>
<path d="" fill="#5B626E" transform="translate(0,0)"/>
<path d="" fill="#63707B" transform="translate(0,0)"/>
<path d="" fill="#65707B" transform="translate(0,0)"/>
<path d="" fill="#5C6B72" transform="translate(0,0)"/>
<path d="" fill="#636E78" transform="translate(0,0)"/>
<path d="" fill="#63707A" transform="translate(0,0)"/>
<path d="" fill="#5C6672" transform="translate(0,0)"/>
<path d="" fill="#66737B" transform="translate(0,0)"/>
<path d="" fill="#64717B" transform="translate(0,0)"/>
<path d="" fill="#646C77" transform="translate(0,0)"/>
<path d="" fill="#616A75" transform="translate(0,0)"/>
<path d="" fill="#5F6976" transform="translate(0,0)"/>
<path d="" fill="#606C76" transform="translate(0,0)"/>
<path d="" fill="#616F78" transform="translate(0,0)"/>
<path d="" fill="#68717A" transform="translate(0,0)"/>
<path d="" fill="#69757E" transform="translate(0,0)"/>
<path d="" fill="#626F77" transform="translate(0,0)"/>
<path d="" fill="#63707B" transform="translate(0,0)"/>
<path d="" fill="#68757C" transform="translate(0,0)"/>
<path d="" fill="#65737F" transform="translate(0,0)"/>
<path d="" fill="#69767F" transform="translate(0,0)"/>
<path d="" fill="#5A6770" transform="translate(0,0)"/>
<path d="" fill="#576771" transform="translate(0,0)"/>
<path d="" fill="#697885" transform="translate(0,0)"/>
<path d="" fill="#636F7A" transform="translate(0,0)"/>
<path d="" fill="#6B7882" transform="translate(0,0)"/>
<path d="" fill="#677781" transform="translate(0,0)"/>
<path d="" fill="#667481" transform="translate(0,0)"/>
<path d="" fill="#64747E" transform="translate(0,0)"/>
<path d="" fill="#67727F" transform="translate(0,0)"/>
<path d="" fill="#64747F" transform="translate(0,0)"/>
<path d="" fill="#6C7881" transform="translate(0,0)"/>
<path d="" fill="#67737F" transform="translate(0,0)"/>
<path d="" fill="#69767F" transform="translate(0,0)"/>
<path d="" fill="#68747F" transform="translate(0,0)"/>
<path d="" fill="#6A7880" transform="translate(0,0)"/>
<path d="" fill="#65747E" transform="translate(0,0)"/>
<path d="" fill="#697480" transform="translate(0,0)"/>
<path d="" fill="#67737E" transform="translate(0,0)"/>
<path d="" fill="#6C7881" transform="translate(0,0)"/>
<path d="" fill="#687881" transform="translate(0,0)"/>
<path d="" fill="#68747E" transform="translate(0,0)"/>
<path d="" fill="#646D7A" transform="translate(0,0)"/>
<path d="" fill="#63727B" transform="translate(0,0)"/>
<path d="" fill="#697986" transform="translate(0,0)"/>
<path d="" fill="#647079" transform="translate(0,0)"/>
<path d="" fill="#67737C" transform="translate(0,0)"/>
<path d="" fill="#6E8094" transform="translate(0,0)"/>
<path d="" fill="#5F6E79" transform="translate(0,0)"/>
<path d="" fill="#63707C" transform="translate(0,0)"/>
<path d="" fill="#626E78" transform="translate(0,0)"/>
<path d="" fill="#6B7982" transform="translate(0,0)"/>
<path d="" fill="#657079" transform="translate(0,0)"/>
<path d="" fill="#64747E" transform="translate(0,0)"/>
<path d="" fill="#667178" transform="translate(0,0)"/>
<path d="" fill="#5D6878" transform="translate(0,0)"/>
<path d="" fill="#667278" transform="translate(0,0)"/>
<path d="" fill="#5F6870" transform="translate(0,0)"/>
<path d="" fill="#647178" transform="translate(0,0)"/>
<path d="" fill="#64707A" transform="translate(0,0)"/>
<path d="" fill="#72A6C5" transform="translate(0,0)"/>
<path d="" fill="#76A5C5" transform="translate(0,0)"/>
<path d="" fill="#5F6E74" transform="translate(0,0)"/>
<path d="" fill="#637281" transform="translate(0,0)"/>
<path d="" fill="#5F6F78" transform="translate(0,0)"/>
<path d="" fill="#63707B" transform="translate(0,0)"/>
<path d="" fill="#606E76" transform="translate(0,0)"/>
<path d="" fill="#576471" transform="translate(0,0)"/>
<path d="" fill="#5E6E78" transform="translate(0,0)"/>
<path d="" fill="#5E6977" transform="translate(0,0)"/>
<path d="" fill="#62727D" transform="translate(0,0)"/>
<path d="" fill="#65717D" transform="translate(0,0)"/>
<path d="" fill="#616D7E" transform="translate(0,0)"/>
<path d="" fill="#616F76" transform="translate(0,0)"/>
<path d="" fill="#616E79" transform="translate(0,0)"/>
<path d="" fill="#5B6773" transform="translate(0,0)"/>
<path d="" fill="#636F7F" transform="translate(0,0)"/>
<path d="" fill="#5D6C75" transform="translate(0,0)"/>
<path d="" fill="#60707F" transform="translate(0,0)"/>
<path d="" fill="#5D6D78" transform="translate(0,0)"/>
<path d="" fill="#5D6B76" transform="translate(0,0)"/>
<path d="" fill="#5D6B77" transform="translate(0,0)"/>
<path d="" fill="#596974" transform="translate(0,0)"/>
<path d="" fill="#576570" transform="translate(0,0)"/>
<path d="" fill="#5B6976" transform="translate(0,0)"/>
<path d="" fill="#65A6E1" transform="translate(0,0)"/>
<path d="" fill="#5A6573" transform="translate(0,0)"/>
<path d="" fill="#5C6A75" transform="translate(0,0)"/>
<path d="" fill="#566573" transform="translate(0,0)"/>
<path d="" fill="#5B6974" transform="translate(0,0)"/>
<path d="" fill="#596774" transform="translate(0,0)"/>
<path d="" fill="#5A6975" transform="translate(0,0)"/>
<path d="" fill="#576572" transform="translate(0,0)"/>
<path d="" fill="#5B6673" transform="translate(0,0)"/>
<path d="" fill="#5E6974" transform="translate(0,0)"/>
<path d="" fill="#586475" transform="translate(0,0)"/>
<path d="" fill="#576670" transform="translate(0,0)"/>
<path d="" fill="#556570" transform="translate(0,0)"/>
<path d="" fill="#576774" transform="translate(0,0)"/>
<path d="" fill="#596973" transform="translate(0,0)"/>
<path d="" fill="#596875" transform="translate(0,0)"/>
<path d="" fill="#5E6B75" transform="translate(0,0)"/>
<path d="" fill="#5C6B75" transform="translate(0,0)"/>
<path d="" fill="#5D6A6E" transform="translate(0,0)"/>
<path d="" fill="#5D676F" transform="translate(0,0)"/>
<path d="" fill="#5D6B77" transform="translate(0,0)"/>
<path d="" fill="#5E6D78" transform="translate(0,0)"/>
<path d="" fill="#556370" transform="translate(0,0)"/>
<path d="" fill="#556571" transform="translate(0,0)"/>
<path d="" fill="#5B6A76" transform="translate(0,0)"/>
<path d="" fill="#5A6875" transform="translate(0,0)"/>
<path d="" fill="#596776" transform="translate(0,0)"/>
<path d="" fill="#5B6877" transform="translate(0,0)"/>
<path d="" fill="#5D6A76" transform="translate(0,0)"/>
<path d="" fill="#576774" transform="translate(0,0)"/>
<path d="" fill="#5B6A72" transform="translate(0,0)"/>
<path d="" fill="#5E6A78" transform="translate(0,0)"/>
<path d="" fill="#596974" transform="translate(0,0)"/>
<path d="" fill="#566774" transform="translate(0,0)"/>
<path d="" fill="#596A74" transform="translate(0,0)"/>
<path d="" fill="#52626E" transform="translate(0,0)"/>
<path d="" fill="#5A6A77" transform="translate(0,0)"/>
<path d="" fill="#556470" transform="translate(0,0)"/>
<path d="" fill="#586672" transform="translate(0,0)"/>
<path d="" fill="#5D6C76" transform="translate(0,0)"/>
<path d="" fill="#54626D" transform="translate(0,0)"/>
<path d="" fill="#5F6B75" transform="translate(0,0)"/>
<path d="" fill="#5C6873" transform="translate(0,0)"/>
<path d="" fill="#596571" transform="translate(0,0)"/>
<path d="" fill="#596773" transform="translate(0,0)"/>
<path d="" fill="#576370" transform="translate(0,0)"/>
<path d="" fill="#596671" transform="translate(0,0)"/>
<path d="" fill="#606D75" transform="translate(0,0)"/>
<path d="" fill="#566270" transform="translate(0,0)"/>
<path d="" fill="#606F77" transform="translate(0,0)"/>
<path d="" fill="#5B6A76" transform="translate(0,0)"/>
<path d="" fill="#5B6A73" transform="translate(0,0)"/>
<path d="" fill="#5B6A74" transform="translate(0,0)"/>
<path d="" fill="#5F6C78" transform="translate(0,0)"/>
<path d="" fill="#5F6D76" transform="translate(0,0)"/>
<path d="" fill="#5C6A77" transform="translate(0,0)"/>
<path d="" fill="#5E6D79" transform="translate(0,0)"/>
<path d="" fill="#5D6977" transform="translate(0,0)"/>
<path d="" fill="#627078" transform="translate(0,0)"/>
<path d="" fill="#5C6B77" transform="translate(0,0)"/>
<path d="" fill="#606E7A" transform="translate(0,0)"/>
<path d="" fill="#5F6C76" transform="translate(0,0)"/>
<path d="" fill="#657786" transform="translate(0,0)"/>
<path d="" fill="#66737C" transform="translate(0,0)"/>
<path d="" fill="#66737B" transform="translate(0,0)"/>
<path d="" fill="#5B6873" transform="translate(0,0)"/>
<path d="" fill="#71A5DE" transform="translate(0,0)"/>
<path d="" fill="#5A6976" transform="translate(0,0)"/>
<path d="" fill="#5C6B79" transform="translate(0,0)"/>
<path d="" fill="#5C6A77" transform="translate(0,0)"/>
<path d="" fill="#586A77" transform="translate(0,0)"/>
<path d="" fill="#606E77" transform="translate(0,0)"/>
<path d="" fill="#5C6D77" transform="translate(0,0)"/>
<path d="" fill="#5B6A77" transform="translate(0,0)"/>
<path d="" fill="#5B6A76" transform="translate(0,0)"/>
<path d="" fill="#62717C" transform="translate(0,0)"/>
<path d="" fill="#606F7B" transform="translate(0,0)"/>
<path d="" fill="#586672" transform="translate(0,0)"/>
<path d="" fill="#5D6B77" transform="translate(0,0)"/>
<path d="" fill="#677783" transform="translate(0,0)"/>
<path d="" fill="#68A3EE" transform="translate(0,0)"/>
</svg>
