<?xml version="1.0" encoding="UTF-8"?>
<!-- Generator: visioncortex VTracer 0.6.4 -->
<svg version="1.1" xmlns="http://www.w3.org/2000/svg" width="1024" height="1024">
<path d="M0 0 C337.92 0 675.84 0 1024 0 C1024 337.92 1024 675.84 1024 1024 C686.08 1024 348.16 1024 0 1024 C0 686.08 0 348.16 0 0 Z " fill="#FA5C55" transform="translate(0,0)"/>
<path d="M0 0 C0.975 -0.002 1.951 -0.004 2.955 -0.006 C6.243 -0.012 9.531 -0.01 12.818 -0.009 C15.191 -0.012 17.564 -0.015 19.937 -0.018 C25.788 -0.025 31.639 -0.028 37.489 -0.028 C44.496 -0.029 51.503 -0.036 58.51 -0.043 C75.446 -0.059 92.381 -0.065 109.317 -0.069 C117.328 -0.072 125.339 -0.075 133.35 -0.079 C160.771 -0.092 188.192 -0.103 215.613 -0.106 C217.334 -0.106 219.056 -0.107 220.777 -0.107 C222.502 -0.107 224.228 -0.107 225.954 -0.107 C229.415 -0.108 232.877 -0.108 236.339 -0.109 C237.626 -0.109 237.626 -0.109 238.94 -0.109 C266.773 -0.113 294.607 -0.129 322.441 -0.152 C351.866 -0.177 381.291 -0.19 410.717 -0.192 C413.946 -0.192 417.176 -0.192 420.406 -0.192 C421.599 -0.192 421.599 -0.192 422.816 -0.192 C435.617 -0.193 448.417 -0.204 461.218 -0.219 C474.083 -0.233 486.948 -0.237 499.813 -0.229 C507.457 -0.224 515.1 -0.228 522.743 -0.244 C528.45 -0.255 534.157 -0.25 539.864 -0.239 C542.173 -0.237 544.482 -0.24 546.791 -0.249 C549.929 -0.26 553.067 -0.253 556.205 -0.241 C557.101 -0.248 557.998 -0.256 558.921 -0.264 C566.618 -0.2 574.991 0.984 580.855 6.381 C581.472 6.923 582.09 7.464 582.726 8.022 C588.448 15.159 587.86 22.812 587.816 31.569 C587.818 32.977 587.82 34.385 587.824 35.793 C587.829 38.735 587.822 41.677 587.808 44.619 C587.791 48.375 587.801 52.13 587.819 55.886 C587.83 58.79 587.826 61.695 587.819 64.6 C587.817 65.984 587.819 67.369 587.826 68.753 C587.864 78.265 587.549 85.343 581.007 92.78 C575.934 97.092 568.819 99.254 562.237 99.259 C561.405 99.262 560.573 99.265 559.715 99.268 C558.804 99.266 557.893 99.265 556.954 99.263 C555.98 99.265 555.006 99.267 554.002 99.269 C550.711 99.275 547.42 99.273 544.129 99.272 C541.757 99.274 539.384 99.277 537.011 99.281 C531.157 99.288 525.303 99.291 519.448 99.291 C512.438 99.292 505.428 99.299 498.418 99.306 C481.473 99.322 464.529 99.328 447.584 99.332 C439.57 99.335 431.555 99.338 423.541 99.342 C396.111 99.355 368.681 99.366 341.252 99.369 C339.529 99.369 337.807 99.369 336.085 99.37 C334.359 99.37 332.632 99.37 330.906 99.37 C327.443 99.371 323.979 99.371 320.516 99.372 C319.657 99.372 318.799 99.372 317.914 99.372 C290.066 99.376 262.219 99.392 234.372 99.415 C204.936 99.439 175.5 99.453 146.064 99.454 C142.833 99.455 139.603 99.455 136.372 99.455 C135.577 99.455 134.781 99.455 133.961 99.455 C121.154 99.456 108.347 99.467 95.539 99.482 C82.668 99.496 69.798 99.499 56.927 99.491 C49.279 99.487 41.631 99.491 33.984 99.507 C28.275 99.518 22.566 99.513 16.857 99.502 C14.546 99.5 12.235 99.503 9.924 99.512 C6.786 99.523 3.648 99.515 0.509 99.503 C-0.84 99.515 -0.84 99.515 -2.216 99.526 C-10.565 99.457 -18.01 97.481 -24.583 92.131 C-31.151 83.922 -30.891 75.686 -30.884 65.604 C-30.89 63.65 -30.89 63.65 -30.897 61.656 C-30.904 58.907 -30.904 56.157 -30.899 53.408 C-30.893 49.903 -30.91 46.399 -30.933 42.895 C-30.951 39.527 -30.947 36.159 -30.946 32.792 C-30.955 31.542 -30.965 30.293 -30.974 29.006 C-30.93 20.696 -30.116 14.895 -25.395 7.881 C-18.005 0.656 -9.886 -0.019 0 0 Z " fill="#FEFDFD" transform="translate(233.58291149139404,697.8685722351074)"/>
<path d="M0 0 C0.677 0.552 1.354 1.103 2.051 1.672 C3.081 2.499 3.081 2.499 4.133 3.344 C12.743 11.049 18.441 23.139 19.262 34.621 C19.674 48.016 16.597 59.641 7.801 69.797 C-1.543 79.686 -11.86 85.606 -25.696 86.266 C-40.096 86.459 -50.777 81.503 -61.102 71.609 C-66.259 66.231 -69.373 60.638 -71.949 53.672 C-72.195 53.017 -72.442 52.362 -72.695 51.688 C-76.614 39.04 -73.776 26.391 -68.025 14.961 C-61.917 3.623 -52.654 -2.655 -40.949 -7.328 C-27.263 -11.039 -11.377 -8.403 0 0 Z " fill="#FEFCFC" transform="translate(479.94921875,384.328125)"/>
<path d="M0 0 C6.622 5.441 11.464 10.875 15.059 18.691 C15.452 19.489 15.845 20.287 16.25 21.109 C20.772 31.524 20.484 43.955 17.059 54.691 C12.156 67.041 5.006 75.79 -6.941 81.691 C-7.738 82.105 -8.535 82.519 -9.355 82.945 C-19.86 87.612 -33.243 87.448 -44.004 83.691 C-57.37 77.645 -65.741 67.762 -70.996 54.293 C-75.141 42.886 -74.563 28.451 -69.488 17.418 C-62.764 5.566 -53.517 -2.139 -40.941 -7.309 C-27.216 -11.003 -11.435 -8.371 0 0 Z " fill="#FEFCFC" transform="translate(583.94140625,384.30859375)"/>
<path d="M0 0 C9.074 7.132 13.88 16.105 17.5 26.965 C18.823 41.737 18.138 54.544 9.188 66.84 C2.02 75.256 -7.422 83.12 -18.913 84.189 C-43.963 85.234 -43.963 85.234 -55.5 76.965 C-56.562 76.247 -56.562 76.247 -57.645 75.516 C-66.233 68.985 -72.11 58.317 -74.5 47.965 C-76.247 32.845 -74.291 19.728 -64.762 7.504 C-47.518 -11.854 -21.274 -14.626 0 0 Z " fill="#FEFCFB" transform="translate(420.5,250.03515625)"/>
<path d="M0 0 C7.26 0 14.52 0 22 0 C24.029 4.3 26.056 8.6 28.079 12.903 C28.765 14.36 29.451 15.816 30.139 17.272 C43 44.518 43 44.518 43 48 C43.66 48 44.32 48 45 48 C45.094 47.337 45.187 46.674 45.284 45.991 C46.204 42.146 47.798 38.706 49.457 35.137 C49.801 34.386 50.146 33.635 50.5 32.862 C51.599 30.468 52.706 28.078 53.812 25.688 C54.545 24.092 55.278 22.496 56.01 20.9 C56.721 19.354 57.433 17.808 58.145 16.262 C58.471 15.553 58.797 14.845 59.133 14.114 C61.336 9.358 63.654 4.693 66 0 C73.59 0 81.18 0 89 0 C89 30.36 89 60.72 89 92 C83.39 92 77.78 92 72 92 C71.67 71.54 71.34 51.08 71 30 C68.071 36.497 65.143 42.994 62.125 49.688 C61.203 51.73 60.282 53.773 59.333 55.878 C58.599 57.506 57.866 59.134 57.133 60.762 C56.754 61.6 56.376 62.438 55.986 63.301 C55.621 64.113 55.256 64.924 54.879 65.76 C54.564 66.46 54.249 67.159 53.924 67.88 C52.899 70.232 51.953 72.618 51 75 C46.38 75 41.76 75 37 75 C34.791 70.2 32.586 65.399 30.384 60.596 C29.636 58.966 28.887 57.337 28.138 55.708 C27.053 53.351 25.972 50.992 24.891 48.633 C24.561 47.919 24.232 47.205 23.893 46.469 C21.406 41.031 19.228 35.571 17 30 C16.67 50.13 16.34 70.26 16 91 C10.72 91 5.44 91 0 91 C0 60.97 0 30.94 0 0 Z " fill="#FEFDFC" transform="translate(453,242)"/>
<path d="M0 0 C7.92 0 15.84 0 24 0 C25.307 2.541 25.307 2.541 26.641 5.133 C32.901 17.27 39.196 29.374 45.827 41.315 C49.774 48.458 53.338 55.675 57 63 C57.33 42.21 57.66 21.42 58 0 C63.61 0 69.22 0 75 0 C75 30.03 75 60.06 75 91 C67.41 91 59.82 91 52 91 C45.279 79.358 39.063 67.496 32.938 55.533 C32.606 54.887 32.275 54.241 31.934 53.576 C31.033 51.816 30.133 50.056 29.234 48.295 C25.874 41.836 22.426 35.424 19 29 C18.67 49.79 18.34 70.58 18 92 C12.06 92 6.12 92 0 92 C0 61.64 0 31.28 0 0 Z " fill="#FEFAFA" transform="translate(598,242)"/>
<path d="M0 0 C7.59 0 15.18 0 23 0 C30.041 12.433 36.691 25.029 43.201 37.744 C43.532 38.389 43.862 39.033 44.202 39.698 C45.102 41.452 45.998 43.208 46.895 44.964 C49.873 50.673 52.947 56.331 56 62 C56.33 41.54 56.66 21.08 57 0 C62.61 0 68.22 0 74 0 C74 30.03 74 60.06 74 91 C66.41 91 58.82 91 51 91 C49.008 87.108 49.008 87.108 46.977 83.137 C45.653 80.551 44.329 77.966 43.004 75.381 C42.102 73.62 41.201 71.858 40.299 70.096 C35.415 60.549 30.508 51.015 25.523 41.52 C25.113 40.735 24.702 39.951 24.279 39.143 C23.892 38.408 23.505 37.674 23.107 36.917 C22.771 36.279 22.436 35.641 22.09 34.983 C20.791 32.619 19.388 30.313 18 28 C17.67 48.79 17.34 69.58 17 91 C11.39 91 5.78 91 0 91 C0 60.97 0 30.94 0 0 Z " fill="#FEFDFD" transform="translate(617,378)"/>
<path d="M0 0 C0.743 0.002 1.486 0.003 2.251 0.005 C11.202 0.203 18.604 2.93 25.75 8.375 C26.575 8.932 27.4 9.489 28.25 10.062 C31.782 13.33 34.477 17.134 36.75 21.375 C36.75 22.365 36.75 23.355 36.75 24.375 C34.837 25.217 32.92 26.048 31 26.875 C29.933 27.339 28.865 27.803 27.766 28.281 C24.75 29.375 24.75 29.375 20.75 29.375 C20.193 28.653 19.636 27.931 19.062 27.188 C14.832 22.042 10.568 19.734 3.922 18.887 C-2.967 18.525 -9.526 18.722 -15.418 22.688 C-21.313 28.117 -24.831 34.949 -25.586 42.926 C-25.666 50.629 -25.517 56.814 -21.25 63.375 C-20.837 64.009 -20.425 64.643 -20 65.297 C-15.317 71.524 -9.296 74.8 -1.621 75.891 C6.979 76.272 13.174 75.096 19.75 69.375 C23.91 64.575 24.603 60.817 26.75 54.375 C20.15 54.375 13.55 54.375 6.75 54.375 C6.75 49.095 6.75 43.815 6.75 38.375 C18.96 38.375 31.17 38.375 43.75 38.375 C44.27 54.293 44.719 68.795 33.625 81.516 C25.728 89.346 16.849 93.829 5.606 93.931 C4.684 93.913 3.762 93.894 2.812 93.875 C1.846 93.863 0.88 93.851 -0.116 93.838 C-7.103 93.644 -13.072 92.841 -19.25 89.375 C-20.031 88.939 -20.812 88.504 -21.617 88.055 C-32.723 81.211 -40.267 71.892 -43.387 59.078 C-46.152 45.63 -45.223 32.86 -37.828 21.117 C-36.397 19.094 -34.885 17.236 -33.25 15.375 C-32.738 14.77 -32.226 14.166 -31.699 13.543 C-23.411 4.464 -12.162 -0.028 0 0 Z " fill="#FEFBFB" transform="translate(732.25,241.625)"/>
<path d="M0 0 C7.24 6.089 9.693 12.177 10.867 21.57 C4.927 21.57 -1.013 21.57 -7.133 21.57 C-8.123 19.26 -9.113 16.95 -10.133 14.57 C-14.941 9.762 -19.862 8.471 -26.508 8.195 C-31.746 8.288 -35.908 9.404 -40.133 12.57 C-42.294 15.812 -42.775 16.807 -42.133 20.57 C-38.669 23.872 -35.71 25.256 -31.09 26.352 C-29.933 26.636 -28.776 26.921 -27.584 27.215 C-25.783 27.638 -25.783 27.638 -23.945 28.07 C1.344 34.113 1.344 34.113 7.082 42.305 C11.311 49.348 11.993 56.4 10.254 64.387 C7.676 72.551 3.533 77.475 -3.547 82.172 C-13.954 87.54 -27.388 87.02 -38.68 84.906 C-47.4 82.073 -54.719 76.505 -59.203 68.48 C-61.66 63.433 -62.133 60.32 -62.133 54.57 C-56.523 54.57 -50.913 54.57 -45.133 54.57 C-44.576 56.396 -44.576 56.396 -44.008 58.258 C-42.296 62.855 -40.147 64.81 -36.133 67.57 C-29.206 69.879 -18.803 69.917 -12.195 66.758 C-8.902 64.859 -8.902 64.859 -8.133 61.57 C-7.633 58.112 -7.633 58.112 -8.133 54.57 C-12.294 50.11 -17.433 49.058 -23.133 47.57 C-25.02 47.053 -26.906 46.535 -28.793 46.016 C-29.707 45.768 -30.621 45.521 -31.563 45.267 C-43.14 42.13 -52.711 39.531 -59.258 28.711 C-61.552 23.098 -60.71 15.226 -59.004 9.473 C-55.509 1.84 -48.525 -2.962 -41.133 -6.43 C-27.424 -11.45 -11.643 -8.487 0 0 Z " fill="#FEFBFB" transform="translate(384.1328125,384.4296875)"/>
<path d="M0 0 C7.153 5.935 11.291 12.397 14.562 21.125 C14.562 21.785 14.562 22.445 14.562 23.125 C11.644 23.287 8.734 23.406 5.812 23.5 C4.988 23.55 4.163 23.601 3.312 23.652 C0.927 23.71 -1.116 23.684 -3.438 23.125 C-5.773 20.305 -5.773 20.305 -7.438 17.125 C-14.081 10.831 -20.602 8.632 -29.688 8.805 C-33.885 9.294 -36.938 10.835 -40.438 13.125 C-41.324 13.661 -42.211 14.197 -43.125 14.75 C-50.745 22.575 -51.785 32.081 -51.823 42.428 C-51.689 50.41 -50.273 56.067 -44.688 61.977 C-37.881 68.167 -31.694 68.821 -22.723 68.555 C-16.929 68.147 -12.539 66.308 -8.438 62.125 C-7.537 60.356 -6.684 58.563 -5.875 56.75 C-4.551 54.141 -4.551 54.141 -2.438 52.125 C3.1 50.827 8.964 51.564 14.562 52.125 C12.667 63.875 7.125 72.068 -2.438 79.125 C-12.81 85.855 -25.291 87.594 -37.355 85.656 C-48.302 83.062 -56.954 77.338 -63.438 68.125 C-70.663 55.218 -73.501 38.683 -69.527 24.184 C-68.36 21.006 -67.051 18.099 -65.438 15.125 C-64.991 14.299 -64.545 13.472 -64.086 12.621 C-57.931 2.46 -48.62 -4.487 -37.109 -7.48 C-23.637 -9.47 -11.377 -7.985 0 0 Z " fill="#FEFBFB" transform="translate(318.4375,248.875)"/>
<path d="M0 0 C7.403 5.17 12.15 11.451 15 20 C15.729 28.517 15.051 35.432 11 43 C10.661 43.647 10.322 44.294 9.973 44.961 C6.446 50.709 0.403 54.559 -5.957 56.641 C-15.025 58.236 -22.363 57.197 -30 52 C-36.576 47.171 -39.842 40.783 -42 33 C-43.29 24.05 -41.713 16.085 -36.352 8.742 C-26.863 -2.487 -13.808 -7.322 0 0 Z " fill="#F85E54" transform="translate(466,396)"/>
<path d="M0 0 C5.998 3.68 9.679 9.878 12.375 16.25 C14.155 26.927 13.595 36.077 7.527 45.219 C2.527 51.555 -3.36 55.35 -11.402 56.477 C-20.443 56.85 -27.153 55.212 -34.027 49.238 C-41.342 41.614 -43.648 33.311 -43.541 22.905 C-43.16 14.719 -40.139 9.065 -34.688 3.125 C-24.479 -6.121 -12.056 -6.504 0 0 Z " fill="#F75C55" transform="translate(572,397)"/>
<path d="M0 0 C1.361 0.835 1.361 0.835 2.75 1.688 C10.532 9.686 12.386 17.576 12.273 28.391 C11.606 37.196 7.618 44.211 1 50 C-6.156 54.614 -13.553 56.093 -22 55 C-30.519 52.224 -36.529 47.784 -41 40 C-45.177 31.626 -45.703 22.404 -42.898 13.504 C-40.02 7.339 -36.664 2.785 -31 -1 C-30.134 -1.598 -29.267 -2.196 -28.375 -2.812 C-18.772 -7.614 -8.684 -5.416 0 0 Z " fill="#F85E4C" transform="translate(408,263)"/>
<path d="M0 0 C5.61 0 11.22 0 17 0 C17 30.03 17 60.06 17 91 C11.39 91 5.78 91 0 91 C0 60.97 0 30.94 0 0 Z " fill="#FEFBFB" transform="translate(562,242)"/>
<path d="M0 0 C1.858 0.09 3.712 0.246 5.562 0.438 C7.08 0.59 7.08 0.59 8.629 0.746 C9.803 0.872 9.803 0.872 11 1 C13.425 8.427 13.996 16.249 13 24 C9.9 29.55 9.9 29.55 7 31 C5.359 31.146 3.71 31.221 2.062 31.25 C1.187 31.276 0.312 31.302 -0.59 31.328 C-3 31 -3 31 -4.816 29.609 C-6 28 -6 28 -6 26 C-5.505 26.165 -5.01 26.33 -4.5 26.5 C-0.902 27.22 2.325 27.178 6 27 C8.36 24.64 8.491 23.221 9 20 C8.34 20.33 7.68 20.66 7 21 C2.257 21.467 0.071 21.67 -4 19.125 C-6.79 14.766 -7.069 11.045 -6 6 C-3.562 2.938 -3.562 2.938 -1 1 C-0.67 0.67 -0.34 0.34 0 0 Z " fill="#FDECEB" transform="translate(498,564)"/>
<path d="M0 0 C2.516 2.032 2.238 4.146 2.625 7.312 C2.848 10.168 2.945 13.012 3 15.875 C3.037 16.617 3.075 17.359 3.113 18.123 C3.179 22.246 2.946 23.876 0.422 27.309 C-2.585 29.463 -3.863 29.946 -7.5 29.812 C-8.772 29.797 -8.772 29.797 -10.07 29.781 C-12.777 29.231 -13.732 28.503 -15.375 26.312 C-15.375 25.653 -15.375 24.992 -15.375 24.312 C-14.88 24.477 -14.385 24.643 -13.875 24.812 C-10.341 25.519 -6.978 25.373 -3.375 25.312 C-1.89 21.847 -1.89 21.847 -0.375 18.312 C-1.035 18.643 -1.695 18.972 -2.375 19.312 C-9.616 19.896 -9.616 19.896 -12.812 17.438 C-15.662 13.562 -15.836 10.545 -15.781 5.805 C-15.332 3.049 -14.824 2.019 -12.812 0.125 C-7.92 -2.455 -5.096 -1.475 0 0 Z " fill="#FEE5E6" transform="translate(600.375,565.6875)"/>
<path d="M0 0 C0.99 0 1.98 0 3 0 C3.33 3.63 3.66 7.26 4 11 C4.66 10.34 5.32 9.68 6 9 C10.192 8.525 12.301 8.544 15.875 10.875 C18.7 13.7 19.203 15.354 19.375 19.25 C19.316 22.572 18.972 24.812 17.062 27.562 C12.935 30.848 10.064 30.537 5 30 C4.34 30 3.68 30 3 30 C2.01 30 1.02 30 0 30 C0 20.1 0 10.2 0 0 Z " fill="#FEF0F1" transform="translate(668,555)"/>
<path d="M0 0 C0.99 0 1.98 0 3 0 C3 10.56 3 21.12 3 32 C2.01 32 1.02 32 0 32 C-0.33 31.01 -0.66 30.02 -1 29 C-1.66 29.33 -2.32 29.66 -3 30 C-7.181 30.394 -9.309 30.45 -12.875 28.125 C-15.681 25.319 -16.22 23.624 -16.438 19.75 C-16.391 16.121 -15.876 14.155 -13.438 11.438 C-10.812 9.186 -9.882 8.984 -6.25 8.5 C-3 9 -3 9 -1 11 C-0.67 7.37 -0.34 3.74 0 0 Z " fill="#FEE8E9" transform="translate(576,555)"/>
<path d="M0 0 C1.32 0.33 2.64 0.66 4 1 C5.65 8.92 7.3 16.84 9 25 C11.549 17.523 11.549 17.523 14.085 10.042 C14.405 9.113 14.725 8.184 15.055 7.227 C15.379 6.273 15.704 5.32 16.039 4.338 C17 2 17 2 19 0 C19.99 0 20.98 0 22 0 C30 20.174 30 20.174 30 26 C30.66 26 31.32 26 32 26 C32.026 25.38 32.052 24.76 32.078 24.121 C32.616 15.73 34.669 8.033 37 0 C37.99 0 38.98 0 40 0 C39.355 5.829 38.352 11.469 37.062 17.188 C36.893 17.968 36.723 18.749 36.549 19.553 C35.661 23.534 34.672 27.258 33 31 C31.68 31 30.36 31 29 31 C21 9.383 21 9.383 21 6 C20.34 6 19.68 6 19 6 C18.773 7.176 18.546 8.351 18.312 9.562 C16.78 16.543 14.329 23.254 12 30 C10.35 30.33 8.7 30.66 7 31 C5.823 26.774 4.66 22.543 3.5 18.312 C3.166 17.114 2.832 15.916 2.488 14.682 C2.172 13.525 1.857 12.368 1.531 11.176 C1.238 10.113 0.945 9.05 0.643 7.954 C0.041 5.19 -0.127 2.815 0 0 Z " fill="#FEEAE9" transform="translate(233,554)"/>
<path d="M0 0 C2.797 2.183 3.769 3.66 4.371 7.156 C4.594 11.21 4.352 13.43 2.188 16.938 C-1.738 20.638 -4.631 21.717 -10 22 C-12.438 20.688 -12.438 20.688 -14 19 C-14 18.34 -14 17.68 -14 17 C-14.66 17 -15.32 17 -16 17 C-16.376 9.825 -16.2 5.693 -11.375 0.125 C-7.538 -1.693 -4.011 -1.178 0 0 Z " fill="#FA5A5B" transform="translate(648,565)"/>
<path d="M0 0 C0.33 0 0.66 0 1 0 C1 30.36 1 60.72 1 92 C6.94 92 12.88 92 19 92 C19 72.2 19 52.4 19 32 C21.209 34.946 22.702 37.187 24.234 40.422 C24.844 41.702 24.844 41.702 25.465 43.009 C25.889 43.913 26.313 44.818 26.75 45.75 C27.188 46.679 27.626 47.607 28.078 48.564 C30.823 54.41 33.516 60.279 36.125 66.188 C36.42 66.852 36.715 67.516 37.019 68.2 C39 72.754 39 72.754 39 75 C43.62 75 48.24 75 53 75 C53.33 73.35 53.66 71.7 54 70 C55.562 67.188 55.562 67.188 57 65 C58 68 58 68 57.258 70.008 C56.884 70.706 56.51 71.405 56.125 72.125 C55.756 72.829 55.388 73.533 55.008 74.258 C54 76 54 76 53 77 C50.47 77.073 47.967 77.092 45.438 77.062 C44.371 77.056 44.371 77.056 43.283 77.049 C41.522 77.037 39.761 77.019 38 77 C37.688 76.315 37.375 75.63 37.054 74.924 C35.621 71.782 34.185 68.641 32.75 65.5 C32.259 64.422 31.768 63.345 31.262 62.234 C27.537 51.861 27.537 51.861 21 44 C21.002 44.584 21.004 45.169 21.007 45.771 C21.029 51.837 21.044 57.904 21.055 63.971 C21.06 66.237 21.067 68.503 21.075 70.769 C21.088 74.02 21.093 77.272 21.098 80.523 C21.103 81.541 21.108 82.559 21.113 83.608 C21.113 85.019 21.113 85.019 21.114 86.458 C21.116 87.289 21.118 88.12 21.12 88.975 C21 91 21 91 20 93 C13.531 94.472 6.398 94.599 0 93 C0 62.31 0 31.62 0 0 Z " fill="#EE3B29" transform="translate(451,242)"/>
<path d="M0 0 C4.995 0.491 6.318 1.881 9.812 5.375 C11.583 8.917 10.841 12.647 9.812 16.375 C7.347 19.322 5.58 20.926 1.812 21.883 C-2.243 22.236 -4.056 21.482 -7.188 18.938 C-9.516 15.595 -9.901 12.512 -9.691 8.496 C-8.885 5.101 -6.864 3.464 -4.188 1.375 C-3.188 0.375 -3.188 0.375 0 0 Z " fill="#FA6463" transform="translate(545.1875,563.625)"/>
<path d="M0 0 C3 1.875 3 1.875 5 5 C5.921 9.969 5.784 13.719 3.125 18.062 C-0.133 21.033 -2.519 21.425 -6.957 21.328 C-9 21 -9 21 -12 19.125 C-14.8 14.749 -14.923 11.064 -14 6 C-10.47 0.235 -6.639 -1.066 0 0 Z " fill="#FB5E5F" transform="translate(553,617)"/>
<path d="M0 0 C1.32 0.33 2.64 0.66 4 1 C5.333 6.333 6.667 11.667 8 17 C8.99 17 9.98 17 11 17 C11.853 13.774 12.476 10.534 13.062 7.25 C13.239 6.265 13.416 5.28 13.598 4.266 C13.73 3.518 13.863 2.77 14 2 C14.99 1.67 15.98 1.34 17 1 C17.442 9.128 16.573 14.141 12 21 C9.625 21.438 9.625 21.438 7 21 C4.688 19 4.688 19 3 17 C2.752 17.639 2.505 18.279 2.25 18.938 C1 21 1 21 -3 22 C-3 19.03 -3 16.06 -3 13 C-3.33 13.66 -3.66 14.32 -4 15 C-4.99 15 -5.98 15 -7 15 C-7 13.35 -7 11.7 -7 10 C-7.99 10.495 -7.99 10.495 -9 11 C-9.465 12.895 -9.465 12.895 -9.625 15.062 C-9.749 16.362 -9.873 17.661 -10 19 C-11.32 19.33 -12.64 19.66 -14 20 C-14.304 14.827 -13.793 12.297 -11 8 C-10.278 5.683 -9.599 3.352 -9 1 C-7.35 1 -5.7 1 -4 1 C-3.34 3.64 -2.68 6.28 -2 9 C-1.34 9 -0.68 9 0 9 C0 6.03 0 3.06 0 0 Z " fill="#FD827E" transform="translate(438,564)"/>
<path d="M0 0 C0.33 0 0.66 0 1 0 C1 30.69 1 61.38 1 93 C-15 94 -15 94 -19 92 C-19 75.17 -19 58.34 -19 41 C-21.331 41.959 -21.331 41.959 -23 45 C-23.278 40.321 -22.548 37.324 -20.5 33.125 C-20.036 32.158 -19.572 31.191 -19.094 30.195 C-18.552 29.109 -18.552 29.109 -18 28 C-17.67 28 -17.34 28 -17 28 C-17 49.12 -17 70.24 -17 92 C-11.39 92 -5.78 92 0 92 C0 61.64 0 31.28 0 0 Z " fill="#EF3524" transform="translate(542,242)"/>
<path d="M0 0 C3.488 0.928 4.946 2.59 6.938 5.516 C6.938 7.826 6.938 10.136 6.938 12.516 C1.988 12.516 -2.962 12.516 -8.062 12.516 C-7.402 13.836 -6.743 15.156 -6.062 16.516 C0.022 16.714 0.022 16.714 5.938 15.516 C5.602 18.035 5.364 19.188 3.312 20.766 C-0.054 21.829 -2.549 21.947 -6.062 21.516 C-9 19.641 -9 19.641 -11.062 16.516 C-11.918 12.334 -11.913 8.494 -10.211 4.535 C-7.448 0.579 -4.567 -0.381 0 0 Z " fill="#FDB2B1" transform="translate(481.0625,616.484375)"/>
<path d="M0 0 C2.938 2.062 2.938 2.062 5 5 C5 7.31 5 9.62 5 12 C0.05 12 -4.9 12 -10 12 C-9.01 13.32 -8.02 14.64 -7 16 C-3.135 16.351 0.296 16.185 4 15 C3.688 16.875 3.688 16.875 3 19 C-0.737 21.492 -2.573 21.458 -7 21 C-10.389 18.863 -11.726 17.823 -13 14 C-13.573 6.897 -13.573 6.897 -11.125 3.062 C-7.531 -0.425 -4.96 -0.504 0 0 Z " fill="#FEFCFC" transform="translate(607,617)"/>
<path d="M0 0 C3.062 2.125 3.062 2.125 5 5 C5 6.98 5 8.96 5 11 C-0.28 11 -5.56 11 -11 11 C-10.01 12.65 -9.02 14.3 -8 16 C-3.817 16.465 -0.075 15.988 4 15 C4 15.99 4 16.98 4 18 C1.223 20.272 -0.902 20.982 -4.438 21.625 C-8.792 20.861 -10.278 19.6 -12.891 16.137 C-14.831 12.399 -14.987 9.064 -14 5 C-10.52 -0.5 -6.091 -1.366 0 0 Z " fill="#FEF0F0" transform="translate(643,617)"/>
<path d="M0 0 C0.773 0.495 0.773 0.495 1.562 1 C2.222 0.34 2.883 -0.32 3.562 -1 C7.012 -1.45 8.845 -1.497 11.742 0.508 C14.281 3.984 14.002 7.127 13.812 11.25 C13.794 11.995 13.776 12.74 13.758 13.508 C13.711 15.339 13.639 17.17 13.562 19 C12.572 18.67 11.582 18.34 10.562 18 C10.502 17.001 10.441 16.002 10.379 14.973 C10.295 13.682 10.211 12.392 10.125 11.062 C10.044 9.775 9.963 8.487 9.879 7.16 C9.913 4.14 9.913 4.14 8.562 3 C6.062 2.833 6.062 2.833 3.562 3 C1.566 4.996 2.153 8.817 2 11.562 C1.957 12.273 1.914 12.984 1.869 13.717 C1.763 15.478 1.662 17.239 1.562 19 C0.242 19 -1.077 19 -2.438 19 C-2.438 14.05 -2.438 9.1 -2.438 4 C-5.077 3.67 -7.717 3.34 -10.438 3 C-10.438 8.61 -10.438 14.22 -10.438 20 C-12.087 19.67 -13.737 19.34 -15.438 19 C-16.595 15.527 -16.506 12.639 -16.438 9 C-15.778 9 -15.117 9 -14.438 9 C-14.438 11.31 -14.438 13.62 -14.438 16 C-13.778 16 -13.117 16 -12.438 16 C-12.768 10.72 -13.097 5.44 -13.438 0 C-8.764 -1.168 -4.556 -1.869 0 0 Z " fill="#FEE4E4" transform="translate(731.4375,565)"/>
<path d="M0 0 C2.7 1.8 4.542 3.084 6 6 C6 7.98 6 9.96 6 12 C0.72 12 -4.56 12 -10 12 C-6.74 17.241 -6.74 17.241 -3 17.438 C-0.2 17.029 1.61 16.471 4 15 C4 16.32 4 17.64 4 19 C0.295 21.47 -2.705 21.769 -7 21 C-10 19.188 -10 19.188 -12 16 C-12.865 11.597 -13.323 7.109 -10.855 3.176 C-7.473 0.061 -4.441 -0.85 0 0 Z " fill="#FEEFEE" transform="translate(288,564)"/>
<path d="M0 0 C4.632 2.265 4.632 2.265 6 5 C6 7.31 6 9.62 6 12 C1.05 12 -3.9 12 -9 12 C-8.01 13.65 -7.02 15.3 -6 17 C-2.049 17.588 0.609 17.087 4 15 C4.33 16.32 4.66 17.64 5 19 C1.282 21.479 -2.678 21.745 -7 21 C-9.431 19.13 -10.641 17.719 -12 15 C-12.555 10.368 -12.636 7.018 -10.125 3 C-6.736 -0.19 -4.607 -0.361 0 0 Z " fill="#FEEBEA" transform="translate(356,564)"/>
<path d="M0 0 C1.609 0.133 1.609 0.133 3.25 0.27 C4.859 0.384 4.859 0.384 6.5 0.5 C9.25 1.082 9.25 1.082 11.25 4.082 C11.746 9.336 10.905 12.546 8.25 17.082 C6.813 17.109 5.375 17.128 3.938 17.145 C2.737 17.162 2.737 17.162 1.512 17.18 C-0.75 17.082 -0.75 17.082 -3.75 16.082 C-4.904 13.108 -4.914 10.121 -4.938 6.957 C-4.952 6.088 -4.966 5.219 -4.98 4.324 C-4.616 0.779 -3.479 0.104 0 0 Z " fill="#FAFBFC" transform="translate(247.75,735.91796875)"/>
<path d="M0 0 C2.211 0.941 2.211 0.941 4 3 C4.502 6.073 4.375 9.084 4.25 12.188 C4.232 13.032 4.214 13.877 4.195 14.748 C4.148 16.833 4.076 18.916 4 21 C3.34 21 2.68 21 2 21 C1.67 20.34 1.34 19.68 1 19 C0.34 19.66 -0.32 20.32 -1 21 C-2.875 21.266 -2.875 21.266 -5 21.25 C-6.052 21.258 -6.052 21.258 -7.125 21.266 C-9 21 -9 21 -11 19 C-11.676 11.901 -11.676 11.901 -9.5 9 C-5.879 7.552 -2.887 7.806 1 8 C0.34 6.68 -0.32 5.36 -1 4 C-3.97 4 -6.94 4 -10 4 C-9.67 3.01 -9.34 2.02 -9 1 C-5.943 -0.528 -3.37 -0.232 0 0 Z " fill="#FEEAE9" transform="translate(320,564)"/>
<path d="M0 0 C0.808 0.102 1.616 0.204 2.449 0.309 C3.064 0.392 3.679 0.476 4.312 0.562 C4.642 1.553 4.973 2.543 5.312 3.562 C1.353 3.562 -2.608 3.562 -6.688 3.562 C-6.688 5.212 -6.688 6.862 -6.688 8.562 C-6.027 9.222 -5.368 9.883 -4.688 10.562 C-3.973 12.546 -3.301 14.546 -2.688 16.562 C-0.736 16.408 -0.736 16.408 1.312 15.562 C2.556 13.517 2.556 13.517 3.375 11.062 C4.285 8.594 4.285 8.594 5.312 6.562 C6.303 6.232 7.293 5.903 8.312 5.562 C8.769 11.272 7.934 14.114 4.312 18.562 C0.608 21.032 -1.309 21.032 -5.688 20.562 C-7.625 18.938 -7.625 18.938 -8.688 16.562 C-8.875 13.312 -8.875 13.312 -8.688 10.562 C-9.678 11.058 -9.678 11.058 -10.688 11.562 C-11.34 13.587 -11.34 13.587 -11.688 15.562 C-12.678 15.562 -13.668 15.562 -14.688 15.562 C-15.893 10.89 -15.781 6.348 -15.688 1.562 C-14.697 1.562 -13.707 1.562 -12.688 1.562 C-12.358 2.553 -12.027 3.543 -11.688 4.562 C-11.089 3.923 -10.491 3.284 -9.875 2.625 C-6.578 -0.484 -4.293 -0.56 0 0 Z " fill="#FE9692" transform="translate(401.6875,564.4375)"/>
<path d="M0 0 C1.32 0.33 2.64 0.66 4 1 C4 3.97 4 6.94 4 10 C4.66 9.67 5.32 9.34 6 9 C9.413 8.629 11.295 8.524 14.18 10.473 C16.839 14.165 16.441 17.324 16.25 21.75 C16.232 22.543 16.214 23.336 16.195 24.152 C16.148 26.102 16.077 28.051 16 30 C15.01 30 14.02 30 13 30 C12.67 24.72 12.34 19.44 12 14 C9.69 13.34 7.38 12.68 5 12 C5 12.66 5 13.32 5 14 C4.34 14 3.68 14 3 14 C3 19.28 3 24.56 3 30 C2.01 30 1.02 30 0 30 C0 20.1 0 10.2 0 0 Z " fill="#FEE2E2" transform="translate(517,608)"/>
<path d="M0 0 C8.127 -0.478 8.127 -0.478 11.625 1.438 C13.734 5.369 13.22 8.79 12 13 C10.438 15.062 10.438 15.062 8 16 C5.36 16 2.72 16 0 16 C0 10.72 0 5.44 0 0 Z " fill="#F64763" transform="translate(688,737)"/>
<path d="M0 0 C0.99 0 1.98 0 3 0 C3 3.96 3 7.92 3 12 C3.99 11.34 4.98 10.68 6 10 C12.121 10.328 12.121 10.328 14.7 12.3 C16.294 14.385 16.352 15.414 16.293 18.012 C16.283 18.769 16.274 19.526 16.264 20.307 C16.239 21.092 16.213 21.878 16.188 22.688 C16.174 23.485 16.16 24.282 16.146 25.104 C16.111 27.069 16.057 29.035 16 31 C15.01 31 14.02 31 13 31 C12.951 29.94 12.902 28.881 12.852 27.789 C12.777 26.401 12.701 25.013 12.625 23.625 C12.594 22.926 12.563 22.228 12.531 21.508 C12.405 17.298 12.405 17.298 10 14 C6.693 14.29 6.693 14.29 4 16 C3.763 18.526 3.578 21.031 3.438 23.562 C3.394 24.273 3.351 24.984 3.307 25.717 C3.2 27.478 3.1 29.239 3 31 C2.01 31 1.02 31 0 31 C0 20.77 0 10.54 0 0 Z " fill="#FEF0F1" transform="translate(772,554)"/>
<path d="M0 0 C3.96 0 7.92 0 12 0 C12 0.66 12 1.32 12 2 C10.68 2 9.36 2 8 2 C8 3.32 8 4.64 8 6 C8.99 6 9.98 6 11 6 C11.144 7.093 11.289 8.186 11.438 9.312 C11.883 12.931 11.883 12.931 13 16 C8.71 16 4.42 16 0 16 C0 10.72 0 5.44 0 0 Z " fill="#FABEC9" transform="translate(717,737)"/>
<path d="M0 0 C0.99 0 1.98 0 3 0 C3 0.66 3 1.32 3 2 C3.536 1.67 4.072 1.34 4.625 1 C7.672 -0.283 9.72 -0.41 13 0 C15.172 1.508 15.172 1.508 17 4 C17.291 6.894 17.382 9.379 17.25 12.25 C17.232 12.995 17.214 13.74 17.195 14.508 C17.148 16.339 17.077 18.17 17 20 C16.01 20.33 15.02 20.66 14 21 C13.939 20.024 13.879 19.048 13.816 18.043 C13.733 16.771 13.649 15.498 13.562 14.188 C13.481 12.923 13.4 11.658 13.316 10.355 C13.128 7.008 13.128 7.008 12 4 C9.584 3.833 9.584 3.833 7 4 C4.154 6.846 4.544 9.804 4.375 13.625 C4.336 14.331 4.298 15.038 4.258 15.766 C4.164 17.51 4.081 19.255 4 21 C2.68 21 1.36 21 0 21 C0 14.07 0 7.14 0 0 Z " fill="#FEDCDB" transform="translate(470,564)"/>
<path d="M0 0 C4.995 0.491 6.318 1.881 9.812 5.375 C11.583 8.917 10.841 12.647 9.812 16.375 C7.347 19.322 5.58 20.926 1.812 21.883 C-2.243 22.236 -4.056 21.482 -7.188 18.938 C-9.516 15.595 -9.901 12.512 -9.691 8.496 C-8.885 5.101 -6.864 3.464 -4.188 1.375 C-3.188 0.375 -3.188 0.375 0 0 Z M-6.188 7.375 C-6.755 11.35 -6.811 13.44 -4.562 16.812 C-1.45 18.86 0.156 19.061 3.812 18.375 C6.699 15.793 7.675 14.122 8.375 10.312 C8.049 7.213 8.049 7.213 5.625 5 C0.56 2.073 -2.771 2.44 -6.188 7.375 Z " fill="#FEF0F0" transform="translate(545.1875,563.625)"/>
<path d="M0 0 C0.873 -0.026 1.745 -0.052 2.645 -0.078 C5.87 0.338 7.085 0.731 9.188 3.25 C9.677 6.16 9.563 8.997 9.438 11.938 C9.419 12.735 9.401 13.532 9.383 14.354 C9.336 16.32 9.264 18.285 9.188 20.25 C8.197 20.25 7.207 20.25 6.188 20.25 C5.692 12.825 5.692 12.825 5.188 5.25 C3.207 4.59 1.228 3.93 -0.812 3.25 C-0.812 9.19 -0.812 15.13 -0.812 21.25 C-2.462 21.25 -4.113 21.25 -5.812 21.25 C-5.841 17.938 -5.859 14.625 -5.875 11.312 C-5.883 10.367 -5.892 9.421 -5.9 8.447 C-5.904 7.548 -5.907 6.649 -5.91 5.723 C-5.915 4.89 -5.921 4.057 -5.926 3.199 C-5.702 -0.645 -3.313 0.058 0 0 Z " fill="#FEDBDB" transform="translate(433.8125,615.75)"/>
<path d="M0 0 C2.312 1.562 2.312 1.562 4 4 C4.457 7.654 4.413 10.053 2.938 13.438 C1 15 1 15 -2.5 15.438 C-6 15 -6 15 -7.938 14 C-9.658 10.761 -9.639 7.526 -9 4 C-6.515 0.318 -4.412 -0.882 0 0 Z " fill="#FA5C5F" transform="translate(680,567)"/>
<path d="M0 0 C3.284 3.284 5.071 6.684 7.125 10.773 C7.513 11.534 7.901 12.295 8.301 13.079 C9.54 15.508 10.77 17.941 12 20.375 C13.231 22.801 14.464 25.226 15.699 27.65 C16.466 29.157 17.23 30.665 17.993 32.174 C18.343 32.865 18.694 33.555 19.055 34.267 C19.383 34.915 19.711 35.563 20.05 36.231 C21.076 38.205 21.076 38.205 22.82 40.752 C24 43 24 43 23.688 45.312 C23.461 45.869 23.234 46.426 23 47 C22.536 46.092 22.073 45.185 21.595 44.25 C19.861 40.859 18.123 37.472 16.384 34.085 C15.634 32.623 14.885 31.161 14.138 29.697 C13.059 27.585 11.975 25.476 10.891 23.367 C10.561 22.72 10.232 22.073 9.893 21.406 C7.832 17.412 5.679 13.616 3 10 C2.34 10 1.68 10 1 10 C1.077 10.697 1.155 11.394 1.234 12.112 C2.24 22.707 1.894 33.191 1.562 43.812 C1.509 45.68 1.456 47.548 1.404 49.416 C1.277 53.944 1.141 58.472 1 63 C0.67 63 0.34 63 0 63 C0 42.21 0 21.42 0 0 Z " fill="#EC4436" transform="translate(616,270)"/>
<path d="M0 0 C3.3 0 6.6 0 10 0 C10.027 2.479 10.047 4.958 10.062 7.438 C10.071 8.145 10.079 8.852 10.088 9.58 C10.097 11.387 10.052 13.194 10 15 C9 16 9 16 7.152 16.098 C5.102 16.065 3.051 16.033 1 16 C-0.502 12.997 -0.093 10.209 -0.062 6.875 C-0.053 5.594 -0.044 4.312 -0.035 2.992 C-0.024 2.005 -0.012 1.017 0 0 Z " fill="#F4667D" transform="translate(672,737)"/>
<path d="M0 0 C2.648 1.045 3.847 1.525 5.375 3.938 C5.875 7.868 5.975 10.038 3.75 13.375 C0.676 15.397 -1.014 15.552 -4.625 14.938 C-7.406 12.62 -7.612 11.031 -8.125 7.438 C-7.625 3.938 -7.625 3.938 -5.438 1.438 C-2.625 -0.062 -2.625 -0.062 0 0 Z " fill="#FA6162" transform="translate(570.625,567.0625)"/>
<path d="M0 0 C2.797 2.183 3.769 3.66 4.371 7.156 C4.597 11.269 4.345 13.448 2.125 17 C-1.207 20.136 -3.517 20.281 -8.09 20.223 C-10 20 -10 20 -12 18.688 C-13 17 -13 17 -13 14 C-12.196 14.495 -12.196 14.495 -11.375 15 C-8.371 16.265 -6.232 16.344 -3 16 C-0.98 15.064 -0.98 15.064 0 13 C0.368 9.561 0.584 7.099 -1.062 4 C-3.156 2.745 -3.156 2.745 -6.5 2.875 C-9.969 3.596 -9.969 3.596 -11.121 5.637 C-12.069 7.782 -12.069 7.782 -13 11 C-13.66 11 -14.32 11 -15 11 C-15.375 7.812 -15.375 7.812 -15 4 C-10.651 -1.353 -6.542 -2.21 0 0 Z " fill="#FEDFE0" transform="translate(648,565)"/>
<path d="M0 0 C2.119 1.621 2.909 2.505 3.398 5.156 C3.391 5.93 3.383 6.703 3.375 7.5 C3.383 8.273 3.39 9.047 3.398 9.844 C2.906 12.507 2.149 13.391 0 15 C-3 15.438 -3 15.438 -6 15 C-8.795 12.671 -8.985 11.12 -9.438 7.5 C-9 4 -9 4 -7.312 1.562 C-4.55 -0.304 -3.268 -0.586 0 0 Z " fill="#FA6260" transform="translate(504,567)"/>
<path d="M0 0 C3.812 0.5 3.812 0.5 5.812 2.5 C4.812 3.5 4.812 3.5 0.938 3.75 C-1.223 3.921 -1.223 3.921 -3.188 4.5 C-5.252 6.907 -5.252 6.907 -6.188 9.5 C-3.548 9.5 -0.908 9.5 1.812 9.5 C1.812 10.16 1.812 10.82 1.812 11.5 C-0.827 11.5 -3.467 11.5 -6.188 11.5 C-5.527 13.15 -4.868 14.8 -4.188 16.5 C-0.177 16.679 -0.177 16.679 3.812 16.5 C4.473 15.84 5.132 15.18 5.812 14.5 C6.803 14.5 7.793 14.5 8.812 14.5 C8.456 17.081 7.979 18.32 6.188 20.25 C2.833 22.016 0.554 21.96 -3.188 21.5 C-6.577 19.363 -7.913 18.323 -9.188 14.5 C-9.635 9.955 -9.883 6.809 -7.188 3 C-4.173 0.488 -3.65 0.106 0 0 Z " fill="#FEE6E5" transform="translate(390.1875,616.5)"/>
<path d="M0 0 C0.66 0 1.32 0 2 0 C2 0.66 2 1.32 2 2 C2.99 1.34 3.98 0.68 5 0 C11.053 -0.66 11.053 -0.66 14.207 1.539 C16.643 4.883 16.445 7.786 16.25 11.75 C16.232 12.447 16.214 13.145 16.195 13.863 C16.148 15.576 16.077 17.288 16 19 C15.01 19.33 14.02 19.66 13 20 C12.939 18.929 12.879 17.858 12.816 16.754 C12.732 15.357 12.647 13.96 12.562 12.562 C12.523 11.855 12.484 11.148 12.443 10.42 C12.524 6.913 12.524 6.913 11 4 C8.542 3.75 8.542 3.75 6 4 C3.154 6.846 3.544 9.804 3.375 13.625 C3.336 14.331 3.298 15.038 3.258 15.766 C3.164 17.51 3.081 19.255 3 21 C2.01 21 1.02 21 0 21 C0 14.07 0 7.14 0 0 Z " fill="#FEEDED" transform="translate(450,617)"/>
<path d="M0 0 C1.052 0.012 1.052 0.012 2.125 0.023 C2.826 0.016 3.528 0.008 4.25 0 C6.125 0.398 6.125 0.398 8.125 3.398 C8.453 7.005 8.528 9.524 7 12.836 C5.125 14.398 5.125 14.398 2.125 14.836 C-0.875 14.398 -0.875 14.398 -2.75 13.398 C-4.521 10.249 -4.423 6.928 -3.875 3.398 C-1.875 0.398 -1.875 0.398 0 0 Z " fill="#FA6060" transform="translate(591.875,567.6015625)"/>
<path d="M0 0 C3 1.875 3 1.875 5 5 C5.921 9.969 5.784 13.719 3.125 18.062 C-0.227 21.119 -2.554 21.276 -7.09 21.227 C-9 21 -9 21 -11 19.625 C-12 18 -12 18 -12 16 C-11.313 16.107 -10.626 16.214 -9.918 16.324 C-9.017 16.444 -8.116 16.564 -7.188 16.688 C-5.848 16.879 -5.848 16.879 -4.48 17.074 C-1.979 17.222 -1.979 17.222 -0.195 15.773 C1.962 12.572 1.3 9.774 1 6 C-0.942 3.612 -0.942 3.612 -4.5 3.812 C-7.85 3.759 -7.85 3.759 -10 5 C-11.048 6.975 -12.052 8.975 -13 11 C-13.33 11 -13.66 11 -14 11 C-13.769 7.001 -13.564 4.666 -10.938 1.562 C-7.126 -0.465 -4.225 -0.945 0 0 Z " fill="#FDE5E5" transform="translate(553,617)"/>
<path d="M0 0 C0.66 0 1.32 0 2 0 C2 1.32 2 2.64 2 4 C2.66 4.33 3.32 4.66 4 5 C3.402 5.516 2.804 6.031 2.188 6.562 C-0.237 8.988 -0.237 8.988 -1.5 12.688 C-3 16 -3 16 -5.062 17.062 C-7 17 -7 17 -9 15 C-9.717 13.018 -10.383 11.016 -11 9 C-11.33 8.01 -11.66 7.02 -12 6 C-11.67 5.01 -11.34 4.02 -11 3 C-8.755 1.877 -7.485 1.866 -5 1.875 C-3.948 1.871 -3.948 1.871 -2.875 1.867 C-1 2 -1 2 1 3 C0.67 2.01 0.34 1.02 0 0 Z " fill="#FB6058" transform="translate(406,565)"/>
<path d="M0 0 C1.199 0.153 1.199 0.153 2.422 0.309 C3.025 0.392 3.628 0.476 4.25 0.562 C4.91 2.873 5.57 5.183 6.25 7.562 C4.25 9.562 4.25 9.562 0.773 9.758 C-0.61 9.745 -1.992 9.721 -3.375 9.688 C-4.081 9.678 -4.788 9.669 -5.516 9.66 C-7.261 9.637 -9.005 9.601 -10.75 9.562 C-11.686 6.575 -11.886 5.87 -10.562 2.875 C-7.585 -0.924 -4.551 -0.602 0 0 Z " fill="#FE7371" transform="translate(666.75,231.4375)"/>
<path d="M0 0 C0.99 0.33 1.98 0.66 3 1 C3 6.94 3 12.88 3 19 C3.99 19 4.98 19 6 19 C6.66 13.06 7.32 7.12 8 1 C8.66 1 9.32 1 10 1 C10.054 3.208 10.093 5.417 10.125 7.625 C10.148 8.855 10.171 10.085 10.195 11.352 C9.963 15.688 8.933 19.133 7 23 C5.68 23 4.36 23 3 23 C2.67 22.34 2.34 21.68 2 21 C1.01 20.67 0.02 20.34 -1 20 C-1.185 6.367 -1.185 6.367 0 0 Z " fill="#FDC9CB" transform="translate(663,615)"/>
<path d="M0 0 C2.924 3.502 4.717 7.411 6.574 11.539 C7.067 12.622 7.067 12.622 7.57 13.727 C8.261 15.247 8.949 16.769 9.635 18.291 C10.688 20.627 11.751 22.958 12.814 25.289 C13.485 26.768 14.155 28.247 14.824 29.727 C15.143 30.426 15.462 31.124 15.79 31.845 C18 36.769 18 36.769 18 39 C22.62 39 27.24 39 32 39 C32.33 37.35 32.66 35.7 33 34 C34.562 31.188 34.562 31.188 36 29 C37 32 37 32 36.258 34.008 C35.884 34.706 35.51 35.405 35.125 36.125 C34.756 36.829 34.388 37.533 34.008 38.258 C33 40 33 40 32 41 C29.47 41.073 26.967 41.092 24.438 41.062 C23.727 41.058 23.016 41.053 22.283 41.049 C20.522 41.037 18.761 41.019 17 41 C16.688 40.315 16.375 39.63 16.054 38.924 C14.621 35.782 13.185 32.641 11.75 29.5 C11.259 28.422 10.768 27.345 10.262 26.234 C6.537 15.861 6.537 15.861 0 8 C-0.33 8.66 -0.66 9.32 -1 10 C-1.027 8.521 -1.046 7.042 -1.062 5.562 C-1.074 4.739 -1.086 3.915 -1.098 3.066 C-1 1 -1 1 0 0 Z " fill="#EC4B3B" transform="translate(472,278)"/>
<path d="M0 0 C0.99 0 1.98 0 3 0 C3.061 1.048 3.121 2.096 3.184 3.176 C3.268 4.555 3.353 5.934 3.438 7.312 C3.477 8.003 3.516 8.693 3.557 9.404 C3.749 12.472 4.023 15.07 5 18 C8.465 17.505 8.465 17.505 12 17 C13.105 13.685 13.321 10.796 13.562 7.312 C13.646 6.133 13.73 4.954 13.816 3.738 C13.877 2.835 13.938 1.931 14 1 C14.66 1 15.32 1 16 1 C16 7.6 16 14.2 16 21 C15.34 21 14.68 21 14 21 C14 20.34 14 19.68 14 19 C13.01 19.66 12.02 20.32 11 21 C9.062 21.371 9.062 21.371 7 21.438 C6.319 21.477 5.639 21.517 4.938 21.559 C3 21 3 21 1.262 18.992 C-0.348 15.174 -0.329 11.75 -0.188 7.688 C-0.174 6.947 -0.16 6.206 -0.146 5.443 C-0.111 3.629 -0.058 1.814 0 0 Z " fill="#FEF3F4" transform="translate(692,564)"/>
<path d="M0 0 C0.33 0.99 0.66 1.98 1 3 C1.66 3 2.32 3 3 3 C2.67 4.65 2.34 6.3 2 8 C2.99 8 3.98 8 5 8 C4.67 8.99 4.34 9.98 4 11 C4 10.34 4 9.68 4 9 C-1.61 9 -7.22 9 -13 9 C-13 7.02 -13 5.04 -13 3 C-10.625 1.188 -10.625 1.188 -8 0 C-5.138 -1.431 -3.066 -0.6 0 0 Z " fill="#FE7069" transform="translate(329,292)"/>
<path d="M0 0 C0 2.64 0 5.28 0 8 C1.65 8 3.3 8 5 8 C5 8.99 5 9.98 5 11 C3.35 11 1.7 11 0 11 C0.33 14.96 0.66 18.92 1 23 C2.32 23.33 3.64 23.66 5 24 C5 25.32 5 26.64 5 28 C0.561 28.36 0.561 28.36 -1.656 26.938 C-3.717 23.966 -3.285 21.37 -3.188 17.812 C-3.16 16.54 -3.133 15.268 -3.105 13.957 C-3.071 12.981 -3.036 12.005 -3 11 C-3.99 11 -4.98 11 -6 11 C-6 10.01 -6 9.02 -6 8 C-5.01 8 -4.02 8 -3 8 C-3.495 5.525 -3.495 5.525 -4 3 C-4.66 3 -5.32 3 -6 3 C-6 2.01 -6 1.02 -6 0 C-3 -1 -3 -1 0 0 Z " fill="#FEE6E6" transform="translate(507,610)"/>
<path d="M0 0 C0.66 0 1.32 0 2 0 C2.061 1.071 2.121 2.142 2.184 3.246 C2.268 4.643 2.353 6.04 2.438 7.438 C2.477 8.145 2.516 8.852 2.557 9.58 C2.476 13.087 2.476 13.087 4 16 C6 16.041 8 16.043 10 16 C11.416 13.167 11.346 10.525 11.562 7.375 C11.646 6.186 11.73 4.998 11.816 3.773 C11.877 2.858 11.938 1.943 12 1 C13.488 1.988 13.488 1.988 15 4 C15.217 6.811 15.283 9.388 15.188 12.188 C15.174 12.937 15.16 13.687 15.146 14.459 C15.111 16.306 15.057 18.153 15 20 C14.34 20 13.68 20 13 20 C13 19.34 13 18.68 13 18 C12.34 18 11.68 18 11 18 C11 18.66 11 19.32 11 20 C8.201 21.399 6.095 21.253 3 21 C0.927 19.45 0.1 18.583 -0.341 16.007 C-0.325 15.269 -0.309 14.53 -0.293 13.77 C-0.283 12.967 -0.274 12.165 -0.264 11.338 C-0.239 10.505 -0.213 9.671 -0.188 8.812 C-0.174 7.968 -0.16 7.123 -0.146 6.252 C-0.111 4.168 -0.057 2.084 0 0 Z " fill="#FEF0F1" transform="translate(564,617)"/>
<path d="M0 0 C0.99 0 1.98 0 3 0 C3 5.28 3 10.56 3 16 C2.01 16 1.02 16 0 16 C-0.66 17.32 -1.32 18.64 -2 20 C-5.161 18.63 -5.993 18.011 -8 15 C-9.237 10.669 -9.076 6.466 -9 2 C-8.01 2 -7.02 2 -6 2 C-5.34 6.29 -4.68 10.58 -4 15 C-3.34 15 -2.68 15 -2 15 C-1.939 14.001 -1.879 13.002 -1.816 11.973 C-1.733 10.682 -1.649 9.392 -1.562 8.062 C-1.481 6.775 -1.4 5.487 -1.316 4.16 C-1 1 -1 1 0 0 Z " fill="#FDC1BE" transform="translate(358,618)"/>
<path d="M0 0 C0.99 0.66 1.98 1.32 3 2 C3 2.99 3 3.98 3 5 C2.06 4.857 2.06 4.857 1.102 4.711 C0.284 4.6 -0.533 4.489 -1.375 4.375 C-2.187 4.259 -2.999 4.143 -3.836 4.023 C-4.55 4.016 -5.264 4.008 -6 4 C-8.189 5.781 -8.189 5.781 -8.266 8.094 C-8.26 8.888 -8.255 9.682 -8.25 10.5 C-8.258 11.691 -8.258 11.691 -8.266 12.906 C-8.189 15.219 -8.189 15.219 -6 17 C-3.789 17.243 -3.789 17.243 -1.375 17.125 C-0.558 17.107 0.26 17.089 1.102 17.07 C2.041 17.036 2.041 17.036 3 17 C2.34 18.32 1.68 19.64 1 21 C-6.32 21.366 -6.32 21.366 -9.438 19.688 C-12.507 16.373 -12.328 12.506 -12.293 8.227 C-11.859 4.932 -10.375 3.235 -8 1 C-5.229 -0.386 -3.067 -0.188 0 0 Z " fill="#FDEAEA" transform="translate(763,564)"/>
<path d="M0 0 C0.99 0 1.98 0 3 0 C3 2.31 3 4.62 3 7 C4.98 7 6.96 7 9 7 C9.33 8.32 9.66 9.64 10 11 C8 12 8 12 4 11 C4 14.96 4 18.92 4 23 C5.32 23.33 6.64 23.66 8 24 C8 24.66 8 25.32 8 26 C5.125 26.125 5.125 26.125 2 26 C0 24 0 24 -0.188 20.25 C-0.105 16.763 0.315 13.425 1 10 C-0.32 10 -1.64 10 -3 10 C-3 9.01 -3 8.02 -3 7 C-1.68 7 -0.36 7 1 7 C0.67 4.69 0.34 2.38 0 0 Z " fill="#FE9899" transform="translate(620,558)"/>
<path d="M0 0 C-0.681 -0.072 -1.361 -0.144 -2.062 -0.219 C-20.678 -2.001 -34.973 -2.333 -50 10 C-52.375 11.962 -54.697 13.953 -57 16 C-54.037 9.737 -49.568 5.028 -44 1 C-42.68 1 -41.36 1 -40 1 C-40 0.34 -40 -0.32 -40 -1 C-28.027 -4.198 -11.082 -7.388 0 0 Z " fill="#FE6B66" transform="translate(751,234)"/>
<path d="M0 0 C0.66 0 1.32 0 2 0 C2 1.65 2 3.3 2 5 C-2.95 5 -7.9 5 -13 5 C-12.01 6.65 -11.02 8.3 -10 10 C-6.049 10.588 -3.391 10.087 0 8 C0.33 9.32 0.66 10.64 1 12 C-2.753 14.502 -6.645 14.687 -11 14 C-13.5 12.562 -13.5 12.562 -15 10 C-15.318 6.918 -15.183 4.115 -15 1 C-10.05 1.33 -5.1 1.66 0 2 C0 1.34 0 0.68 0 0 Z " fill="#FEF2F2" transform="translate(360,571)"/>
<path d="M0 0 C0.66 0 1.32 0 2 0 C2.401 0.918 2.802 1.836 3.215 2.781 C8.193 13.708 14.432 21.588 26 26 C32.54 27.947 38.777 28.254 45.562 28.125 C46.476 28.116 47.389 28.107 48.33 28.098 C50.554 28.074 52.777 28.042 55 28 C51.858 31.142 48.849 30.987 44.504 31.055 C32.748 30.519 19.761 28.693 11 20 C6.163 14.616 0 7.55 0 0 Z " fill="#F04933" transform="translate(249,306)"/>
<path d="M0 0 C0.99 0 1.98 0 3 0 C2.34 4.62 1.68 9.24 1 14 C7.329 14.522 7.329 14.522 10 13 C10.027 11.563 10.046 10.125 10.062 8.688 C10.074 7.887 10.086 7.086 10.098 6.262 C10.097 3.831 10.097 3.831 9 1 C10.938 1.375 10.938 1.375 13 2 C14.536 5.072 14.227 7.602 14 11 C12.5 14.438 12.5 14.438 11 17 C9.563 17.027 8.125 17.046 6.688 17.062 C5.487 17.08 5.487 17.08 4.262 17.098 C2 17 2 17 -1 16 C-2.154 13.026 -2.164 10.039 -2.188 6.875 C-2.202 6.006 -2.216 5.137 -2.23 4.242 C-2 2 -2 2 0 0 Z " fill="#B1CFE1" transform="translate(245,736)"/>
<path d="M0 0 C0.33 0 0.66 0 1 0 C1.014 0.99 1.028 1.98 1.043 3 C1.322 12.348 2.541 18.413 9.188 25.25 C16.775 29.971 25.285 31.975 33.875 34.07 C37 35 37 35 39 37 C35.37 36.67 31.74 36.34 28 36 C28 35.34 28 34.68 28 34 C26.329 34.155 26.329 34.155 24.625 34.312 C17.839 34.312 11.912 30.643 6.625 26.625 C0.233 20.233 -1.103 13.843 -1.133 5.086 C-1 3 -1 3 0 0 Z " fill="#F14F42" transform="translate(323,396)"/>
<path d="M0 0 C2.357 0.09 4.712 0.247 7.062 0.438 C8.353 0.539 9.643 0.641 10.973 0.746 C12.471 0.872 12.471 0.872 14 1 C13.67 1.99 13.34 2.98 13 4 C9.04 4 5.08 4 1 4 C2.596 6.622 2.596 6.622 5 9 C8.964 9.578 11.597 9.094 15 7 C15 8.32 15 9.64 15 11 C11.311 13.46 8.282 13.8 4 13 C1 10.938 1 10.938 -1 8 C-1.375 4.25 -1.375 4.25 -1 1 C-0.67 0.67 -0.34 0.34 0 0 Z " fill="#FEF1F0" transform="translate(277,572)"/>
<path d="M0 0 C0 0.66 0 1.32 0 2 C-2.945 1.589 -5.572 1.184 -8.312 0.004 C-15.586 -2.713 -24.454 -2.537 -32 -1 C-32.99 -0.34 -33.98 0.32 -35 1 C-35.973 1.213 -35.973 1.213 -36.965 1.43 C-40.154 2.323 -41.98 4.562 -44.316 6.82 C-44.872 7.21 -45.428 7.599 -46 8 C-46.99 7.67 -47.98 7.34 -49 7 C-46.297 3.196 -44.379 1.539 -40 0 C-39.67 -0.66 -39.34 -1.32 -39 -2 C-36.09 -3.036 -33.037 -3.467 -30 -4 C-28.824 -4.259 -28.824 -4.259 -27.625 -4.523 C-18.079 -6.105 -9.066 -2.715 0 0 Z " fill="#FE6C62" transform="translate(379,369)"/>
<path d="M0 0 C0.381 2.326 0.713 4.661 1 7 C0 8 0 8 -3.562 8.062 C-4.697 8.042 -5.831 8.021 -7 8 C-7 7.34 -7 6.68 -7 6 C-9.64 6 -12.28 6 -15 6 C-14.427 3.133 -14.139 2.139 -12 0 C-3.854 -1.445 -3.854 -1.445 0 0 Z " fill="#FDC4C3" transform="translate(399,620)"/>
<path d="M0 0 C-0.66 2.97 -1.32 5.94 -2 9 C-1.34 9 -0.68 9 0 9 C0 9.66 0 10.32 0 11 C-0.99 11.495 -0.99 11.495 -2 12 C-2.47 15.276 -2.47 15.276 -2.625 19.062 C-2.7 20.353 -2.775 21.643 -2.852 22.973 C-2.901 23.972 -2.95 24.971 -3 26 C-3.99 26.33 -4.98 26.66 -6 27 C-6 22.05 -6 17.1 -6 12 C-6.99 12 -7.98 12 -9 12 C-9 11.01 -9 10.02 -9 9 C-8.01 9 -7.02 9 -6 9 C-5.845 7.329 -5.845 7.329 -5.688 5.625 C-5.461 4.429 -5.234 3.232 -5 2 C-2 0 -2 0 0 0 Z " fill="#FEE9E9" transform="translate(423,609)"/>
<path d="M0 0 C0.66 0 1.32 0 2 0 C-0.218 7.059 -5.428 10.512 -11.562 14.188 C-12.678 14.862 -13.793 15.536 -14.941 16.23 C-23.398 21.123 -32.245 21.906 -42 21 C-44.324 19.988 -44.324 19.988 -46 19 C-44.277 18.979 -44.277 18.979 -42.52 18.957 C-28.863 18.61 -16.771 16.033 -6 7 C-4.287 5.169 -2.708 3.316 -1.191 1.32 C-0.798 0.885 -0.405 0.449 0 0 Z " fill="#EF4B3A" transform="translate(429,316)"/>
<path d="M0 0 C0.33 0 0.66 0 1 0 C1.108 2.082 1.186 4.166 1.25 6.25 C1.296 7.41 1.343 8.57 1.391 9.766 C1 13 1 13 -0.699 15.395 C-3.401 17.28 -4.798 17.511 -8.062 17.438 C-8.92 17.436 -9.777 17.435 -10.66 17.434 C-13.41 16.924 -14.344 16.221 -16 14 C-16 13.34 -16 12.68 -16 12 C-15.505 12.165 -15.01 12.33 -14.5 12.5 C-10.966 13.207 -7.603 13.06 -4 13 C-3.01 10.69 -2.02 8.38 -1 6 C-3.31 6.33 -5.62 6.66 -8 7 C-8 6.34 -8 5.68 -8 5 C-6.21 3.991 -4.419 2.982 -2.629 1.973 C-1.021 1.103 -1.021 1.103 0 0 Z " fill="#FEEFEF" transform="translate(601,578)"/>
<path d="M0 0 C3.5 0.797 4.976 2.579 6.973 5.449 C6.973 7.429 6.973 9.409 6.973 11.449 C2.353 11.449 -2.267 11.449 -7.027 11.449 C-7.027 10.789 -7.027 10.129 -7.027 9.449 C-3.397 9.449 0.233 9.449 3.973 9.449 C2.908 6.84 2.908 6.84 0.973 4.449 C-1.941 3.615 -1.941 3.615 -5.027 4.449 C-7.904 6.824 -7.904 6.824 -10.027 9.449 C-10.377 6.301 -10.274 4.829 -8.527 2.137 C-5.653 0.197 -3.462 -0.188 0 0 Z " fill="#FEEEEE" transform="translate(481.02734375,616.55078125)"/>
<path d="M0 0 C0.969 0.866 1.939 1.733 2.938 2.625 C14.261 12.247 24.699 16.727 39.688 16.25 C41.33 16.223 41.33 16.223 43.006 16.195 C45.672 16.149 48.335 16.083 51 16 C50.67 16.66 50.34 17.32 50 18 C46.997 18.754 43.889 18.94 40.812 19.25 C39.961 19.353 39.11 19.456 38.232 19.562 C33.25 20.087 29.714 19.987 25 18 C23.948 17.773 22.896 17.546 21.812 17.312 C13.55 14.967 5.232 8.767 0 2 C0 1.34 0 0.68 0 0 Z " fill="#EE4C45" transform="translate(520,453)"/>
<path d="M0 0 C0.66 0 1.32 0 2 0 C2.442 8.128 1.573 13.141 -3 20 C-5.438 20.438 -5.438 20.438 -8 20 C-10.653 17.621 -10.981 16.329 -11.188 12.75 C-11.126 11.842 -11.064 10.935 -11 10 C-10.34 10 -9.68 10 -9 10 C-8.34 11.98 -7.68 13.96 -7 16 C-6.01 16 -5.02 16 -4 16 C-2.892 11.834 -2.22 7.61 -1.5 3.363 C-1 1 -1 1 0 0 Z " fill="#FEEAE9" transform="translate(453,565)"/>
<path d="M0 0 C2.853 0.295 3.836 0.812 5.75 3 C7.443 7.063 7.255 10.659 7 15 C6.34 14.34 5.68 13.68 5 13 C5 11.68 5 10.36 5 9 C4.34 9 3.68 9 3 9 C3.33 12.63 3.66 16.26 4 20 C2.68 19.67 1.36 19.34 0 19 C-0.195 16.396 -0.381 13.792 -0.562 11.188 C-0.619 10.45 -0.675 9.712 -0.732 8.951 C-0.958 5.632 -1.063 3.188 0 0 Z " fill="#FDA8A7" transform="translate(415,564)"/>
<path d="M0 0 C0.66 0 1.32 0 2 0 C2.457 5.709 1.621 8.551 -2 13 C-5.673 15.449 -7.664 15.315 -12 15 C-14 13 -14 13 -14.125 9.875 C-14.084 8.926 -14.043 7.977 -14 7 C-13.34 7 -12.68 7 -12 7 C-10.375 9 -10.375 9 -9 11 C-7.054 10.844 -7.054 10.844 -5 10 C-3.684 7.96 -3.684 7.96 -2.812 5.5 C-1.042 1.042 -1.042 1.042 0 0 Z " fill="#FED2D1" transform="translate(408,570)"/>
<path d="M0 0 C0 0.33 0 0.66 0 1 C-0.557 1.037 -1.114 1.075 -1.688 1.113 C-11.004 1.916 -16.858 4.012 -23.371 10.934 C-25.381 13.483 -26.322 15.835 -27 19 C-27.33 19.66 -27.66 20.32 -28 21 C-28.27 23.299 -28.445 25.598 -28.621 27.906 C-29 30 -29 30 -31 32 C-31.654 22.449 -30.226 14.799 -24.25 7.125 C-17.133 -0.346 -9.978 -0.548 0 0 Z " fill="#EF473D" transform="translate(737,260)"/>
<path d="M0 0 C3.63 0 7.26 0 11 0 C11 0.66 11 1.32 11 2 C8.69 2 6.38 2 4 2 C4 3.65 4 5.3 4 7 C5.98 7 7.96 7 10 7 C10 7.33 10 7.66 10 8 C8.02 8.33 6.04 8.66 4 9 C3.67 10.65 3.34 12.3 3 14 C5.64 14 8.28 14 11 14 C11 14.66 11 15.32 11 16 C7.37 16 3.74 16 0 16 C0 10.72 0 5.44 0 0 Z " fill="#F78193" transform="translate(765,737)"/>
<path d="M0 0 C0.99 0 1.98 0 3 0 C4.034 10.176 3.858 19.836 3 30 C2.01 30 1.02 30 0 30 C0 20.1 0 10.2 0 0 Z " fill="#FEF2F2" transform="translate(517,608)"/>
<path d="M0 0 C0.99 0 1.98 0 3 0 C3 10.23 3 20.46 3 31 C2.01 31 1.02 31 0 31 C0 20.77 0 10.54 0 0 Z " fill="#FEF4F4" transform="translate(527,554)"/>
<path d="M0 0 C2.483 7.603 2.185 15.103 2 23 C1.67 23 1.34 23 1 23 C1 18.38 1 13.76 1 9 C0.34 9 -0.32 9 -1 9 C-1.33 10.32 -1.66 11.64 -2 13 C-2.195 10.982 -2.391 8.964 -2.586 6.945 C-2.864 4.773 -2.864 4.773 -5 3 C-8.192 2.58 -9.585 2.731 -12.312 4.5 C-12.869 4.995 -13.426 5.49 -14 6 C-14.66 5.34 -15.32 4.68 -16 4 C-11.53 -2.32 -7.181 -1.27 0 0 Z " fill="#FDE8E8" transform="translate(509,565)"/>
<path d="M0 0 C1.922 2.883 2.967 5.401 4.188 8.625 C9.492 21.407 17.975 28.618 30.625 33.938 C32.412 34.637 34.202 35.33 36 36 C31.669 37.489 29.401 36.203 25.43 34.289 C12.582 27.473 3.824 17.803 -0.723 3.77 C-1 2 -1 2 0 0 Z " fill="#EF4E3C" transform="translate(346,298)"/>
<path d="M0 0 C0.688 1.625 0.688 1.625 1 4 C-0.438 7.25 -0.438 7.25 -2 10 C0.31 10 2.62 10 5 10 C5.625 11.812 5.625 11.812 6 14 C5.01 15.485 5.01 15.485 4 17 C1.375 17.188 1.375 17.188 -1 17 C-0.67 16.01 -0.34 15.02 0 14 C0.99 14 1.98 14 3 14 C3 13.34 3 12.68 3 12 C-0.438 12.181 -0.438 12.181 -4 13 C-5.513 14.936 -5.513 14.936 -6 17 C-6.66 17 -7.32 17 -8 17 C-7.372 13.43 -6.443 10.189 -5.125 6.812 C-4.798 5.953 -4.47 5.093 -4.133 4.207 C-3 2 -3 2 0 0 Z " fill="#96C1D9" transform="translate(324,736)"/>
<path d="M0 0 C1.32 0 2.64 0 4 0 C4 6.93 4 13.86 4 21 C2.68 21 1.36 21 0 21 C0 14.07 0 7.14 0 0 Z " fill="#FDD1D0" transform="translate(460,564)"/>
<path d="M0 0 C5.28 0 10.56 0 16 0 C16 0.33 16 0.66 16 1 C11.05 1 6.1 1 1 1 C1.99 2.32 2.98 3.64 4 5 C7.865 5.351 11.296 5.185 15 4 C14.688 5.875 14.688 5.875 14 8 C10.263 10.492 8.427 10.458 4 10 C1.062 8 1.062 8 -1 6 C-0.67 4.02 -0.34 2.04 0 0 Z " fill="#FDD8D9" transform="translate(596,628)"/>
<path d="M0 0 C0.99 0 1.98 0 3 0 C3.961 2.882 4.106 4.699 4.062 7.688 C4.053 8.496 4.044 9.304 4.035 10.137 C4.024 10.752 4.012 11.366 4 12 C3.34 10.68 2.68 9.36 2 8 C1.01 8.495 1.01 8.495 0 9 C-0.465 10.895 -0.465 10.895 -0.625 13.062 C-0.811 15.012 -0.811 15.012 -1 17 C-2.32 17.33 -3.64 17.66 -5 18 C-5.303 12.854 -4.838 10.257 -2 6 C-1.289 4.015 -0.61 2.018 0 0 Z " fill="#FEB1AF" transform="translate(429,566)"/>
<path d="M0 0 C0.99 0 1.98 0 3 0 C3 0.66 3 1.32 3 2 C5.31 2 7.62 2 10 2 C10 2.33 10 2.66 10 3 C7.69 3 5.38 3 3 3 C3 8.61 3 14.22 3 20 C1.35 19.67 -0.3 19.34 -2 19 C-3.158 15.527 -3.069 12.639 -3 9 C-2.34 9 -1.68 9 -1 9 C-1 11.31 -1 13.62 -1 16 C-0.34 16 0.32 16 1 16 C0.67 10.72 0.34 5.44 0 0 Z " fill="#FEE8E9" transform="translate(718,565)"/>
<path d="M0 0 C1.32 0.33 2.64 0.66 4 1 C3.67 4.3 3.34 7.6 3 11 C3.99 10.67 4.98 10.34 6 10 C6.33 6.7 6.66 3.4 7 0 C7.66 0 8.32 0 9 0 C9.054 1.604 9.093 3.208 9.125 4.812 C9.148 5.706 9.171 6.599 9.195 7.52 C9 10 9 10 7 13 C3.875 13.188 3.875 13.188 1 13 C0.959 12.402 0.918 11.804 0.875 11.188 C0.123 8.649 0.123 8.649 -3.062 7.25 C-4.032 6.837 -5.001 6.425 -6 6 C-2.867 4.956 -2.01 5.066 1 6 C0.67 4.02 0.34 2.04 0 0 Z " fill="#8DBCD5" transform="translate(372,740)"/>
<path d="M0 0 C1.021 0.875 2.042 1.75 3.062 2.625 C3.708 3.173 4.354 3.721 5.02 4.285 C6.249 5.35 7.459 6.437 8.637 7.559 C18.51 16.763 31.017 18.97 44 20 C44 20.33 44 20.66 44 21 C30.952 21.769 18.449 19.372 8 11 C7.67 10.01 7.34 9.02 7 8 C6.34 8 5.68 8 5 8 C5 7.34 5 6.68 5 6 C4.34 6 3.68 6 3 6 C0 2.538 0 2.538 0 0 Z " fill="#ED473F" transform="translate(695,316)"/>
<path d="M0 0 C0.99 0 1.98 0 3 0 C3.66 1.98 4.32 3.96 5 6 C5.33 6 5.66 6 6 6 C6.33 4.35 6.66 2.7 7 1 C7.99 1 8.98 1 10 1 C10 1.66 10 2.32 10 3 C9.34 3 8.68 3 8 3 C7.939 3.964 7.879 4.928 7.816 5.922 C7.733 7.185 7.649 8.448 7.562 9.75 C7.481 11.003 7.4 12.256 7.316 13.547 C7.075 16.183 6.757 18.48 6 21 C5.01 21 4.02 21 3 21 C2.67 15.06 2.34 9.12 2 3 C1.34 2.67 0.68 2.34 0 2 C0 1.34 0 0.68 0 0 Z " fill="#FB6467" transform="translate(663,613)"/>
<path d="M0 0 C-0.75 5.75 -0.75 5.75 -3 8 C-10.234 8.574 -10.234 8.574 -13 6.5 C-13.33 6.005 -13.66 5.51 -14 5 C-13.01 5 -12.02 5 -11 5 C-11 4.01 -11 3.02 -11 2 C-9.542 1.664 -8.084 1.331 -6.625 1 C-5.813 0.814 -5.001 0.629 -4.164 0.438 C-2 0 -2 0 0 0 Z " fill="#FB6263" transform="translate(600,584)"/>
<path d="M0 0 C3.386 -0.308 5.334 -0.457 8.188 1.5 C10.713 4.983 10.439 8.127 10.25 12.25 C10.232 12.995 10.214 13.74 10.195 14.508 C10.148 16.339 10.077 18.17 10 20 C9.01 20.33 8.02 20.66 7 21 C6.939 20.024 6.879 19.048 6.816 18.043 C6.733 16.771 6.649 15.498 6.562 14.188 C6.481 12.923 6.4 11.658 6.316 10.355 C6.128 7.008 6.128 7.008 5 4 C3.684 3.301 2.35 2.633 1 2 C0.67 1.34 0.34 0.68 0 0 Z " fill="#FEEAEA" transform="translate(477,564)"/>
<path d="M0 0 C1.65 0 3.3 0 5 0 C7 2 7 2 7.23 3.91 C7.111 9.889 7.111 9.889 6 11 C4 11.041 2 11.043 0 11 C0 7.37 0 3.74 0 0 Z " fill="#FEF9FA" transform="translate(691,739)"/>
<path d="M0 0 C1.98 0 3.96 0 6 0 C6 3.96 6 7.92 6 12 C4.35 12 2.7 12 1 12 C0 11 0 11 -0.098 8.496 C-0.08 6.982 -0.08 6.982 -0.062 5.438 C-0.053 4.426 -0.044 3.414 -0.035 2.371 C-0.024 1.589 -0.012 0.806 0 0 Z " fill="#FDE9EC" transform="translate(674,739)"/>
<path d="M0 0 C0.66 0 1.32 0 2 0 C2.325 4.14 2.43 6.34 0.125 9.875 C-2.861 12.861 -3.582 12.973 -7.938 13.25 C-11.696 13.209 -11.696 13.209 -14 11.625 C-15 10 -15 10 -15 8 C-14.325 8.13 -13.649 8.26 -12.953 8.395 C-10.242 8.814 -7.744 9.103 -5 9 C-1.954 6.4 -0.586 3.957 0 0 Z " fill="#FDECED" transform="translate(556,625)"/>
<path d="M0 0 C0.66 0 1.32 0 2 0 C2.682 16.34 2.682 16.34 -1 22 C-3.109 22.734 -3.109 22.734 -5 23 C-5 22.01 -5 21.02 -5 20 C-4.01 20 -3.02 20 -2 20 C-2.012 19.383 -2.023 18.765 -2.035 18.129 C-2.097 12.326 -1.821 6.748 -1 1 C-0.67 0.67 -0.34 0.34 0 0 Z " fill="#FEF1F1" transform="translate(366,615)"/>
<path d="M0 0 C0.66 0 1.32 0 2 0 C2.325 4.14 2.43 6.34 0.125 9.875 C-2.861 12.861 -3.582 12.973 -7.938 13.25 C-10.639 13.216 -11.704 13.194 -14 11.688 C-15 10 -15 10 -15 7 C-14.196 7.495 -14.196 7.495 -13.375 8 C-10.371 9.265 -8.232 9.344 -5 9 C-1.689 6.872 -1.055 3.652 0 0 Z " fill="#FEF4F4" transform="translate(650,572)"/>
<path d="M0 0 C0.66 0 1.32 0 2 0 C2 7.26 2 14.52 2 22 C1.34 22.33 0.68 22.66 0 23 C-0.103 21.907 -0.206 20.814 -0.312 19.688 C-0.733 16.165 -0.733 16.165 -2.188 14.125 C-4.7 12.566 -7.092 12.323 -10 12 C-9.67 11.34 -9.34 10.68 -9 10 C-6.667 9.958 -4.333 9.959 -2 10 C-1.67 10.33 -1.34 10.66 -1 11 C-0.67 7.37 -0.34 3.74 0 0 Z " fill="#FEF7F7" transform="translate(576,555)"/>
<path d="M0 0 C0.516 0.825 1.031 1.65 1.562 2.5 C3.824 5.35 3.824 5.35 7.438 5.375 C10.36 5.067 13.147 4.692 16 4 C16 4.99 16 5.98 16 7 C13.223 9.272 11.098 9.982 7.562 10.625 C3.063 9.836 1.809 8.206 -0.934 4.727 C-2 3 -2 3 -2 1 C-1.34 0.67 -0.68 0.34 0 0 Z " fill="#FEE3E3" transform="translate(631,628)"/>
<path d="M0 0 C1.875 0.312 1.875 0.312 4 1 C6.421 4.632 6.21 6.383 6.125 10.688 C6.107 11.867 6.089 13.046 6.07 14.262 C6.047 15.165 6.024 16.069 6 17 C4.68 17 3.36 17 2 17 C1.939 16.024 1.879 15.048 1.816 14.043 C1.733 12.771 1.649 11.498 1.562 10.188 C1.481 8.923 1.4 7.658 1.316 6.355 C1.128 3.008 1.128 3.008 0 0 Z " fill="#FEE1E0" transform="translate(372,617)"/>
<path d="M0 0 C0.851 -0.021 1.702 -0.041 2.578 -0.062 C9.912 -0.107 15.526 1.743 22 5.25 C21.67 5.91 21.34 6.57 21 7.25 C20.224 6.889 19.448 6.528 18.648 6.156 C6.825 1.077 -3.655 1.224 -16 4.25 C-17.665 4.59 -19.332 4.925 -21 5.25 C-20 3.312 -20 3.312 -18 1.25 C-12.015 0.201 -6.066 0.037 0 0 Z " fill="#FE7062" transform="translate(292,229.75)"/>
<path d="M0 0 C0.66 0 1.32 0 2 0 C2.054 2.208 2.093 4.417 2.125 6.625 C2.148 7.855 2.171 9.085 2.195 10.352 C1.963 14.688 0.933 18.133 -1 22 C-2.32 22 -3.64 22 -5 22 C-5 21.01 -5 20.02 -5 19 C-4.01 19 -3.02 19 -2 19 C-1.939 18.047 -1.879 17.095 -1.816 16.113 C-1.733 14.859 -1.649 13.605 -1.562 12.312 C-1.481 11.071 -1.4 9.83 -1.316 8.551 C-1.055 5.618 -0.652 2.866 0 0 Z " fill="#FEDADB" transform="translate(671,616)"/>
<path d="M0 0 C0.66 0 1.32 0 2 0 C2 0.99 2 1.98 2 3 C2.598 2.505 3.196 2.01 3.812 1.5 C6 0 6 0 9 0 C9 1.32 9 2.64 9 4 C8.196 4.309 7.391 4.619 6.562 4.938 C4.109 5.763 4.109 5.763 3 7 C2.765 9.183 2.586 11.372 2.438 13.562 C2.354 14.76 2.27 15.958 2.184 17.191 C2.123 18.118 2.062 19.045 2 20 C1.34 20 0.68 20 0 20 C0 13.4 0 6.8 0 0 Z " fill="#FEFAFB" transform="translate(331,564)"/>
<path d="M0 0 C0.66 0 1.32 0 2 0 C1.4 3.811 -0.346 6.036 -2.75 9 C-3.425 9.846 -4.101 10.691 -4.797 11.562 C-8.146 15.268 -11.7 18.063 -16.188 20.25 C-16.862 20.585 -17.536 20.92 -18.23 21.266 C-20 22 -20 22 -22 22 C-22 21.34 -22 20.68 -22 20 C-21.147 19.563 -21.147 19.563 -20.277 19.117 C-11.782 14.607 -6.254 10.047 -1.262 1.758 C-0.845 1.178 -0.429 0.598 0 0 Z " fill="#EE504B" transform="translate(597,446)"/>
<path d="M0 0 C0.99 0 1.98 0 3 0 C3.027 2.771 3.047 5.542 3.062 8.312 C3.071 9.098 3.079 9.884 3.088 10.693 C3.091 11.451 3.094 12.208 3.098 12.988 C3.103 13.685 3.108 14.381 3.114 15.099 C3 17 3 17 2 20 C1.01 20 0.02 20 -1 20 C-0.67 13.4 -0.34 6.8 0 0 Z " fill="#FDDBDB" transform="translate(619,617)"/>
<path d="M0 0 C0.598 0.206 1.196 0.413 1.812 0.625 C0.493 2.275 -0.827 3.925 -2.188 5.625 C3.092 5.625 8.373 5.625 13.812 5.625 C13.812 6.285 13.812 6.945 13.812 7.625 C8.202 7.625 2.592 7.625 -3.188 7.625 C-3.517 8.945 -3.848 10.265 -4.188 11.625 C-4.167 10.903 -4.146 10.181 -4.125 9.438 C-4.186 6.706 -4.58 4.282 -5.188 1.625 C-2.188 -0.375 -2.188 -0.375 0 0 Z " fill="#FE7874" transform="translate(325.1875,431.375)"/>
<path d="M0 0 C2.31 0 4.62 0 7 0 C7.33 0.99 7.66 1.98 8 3 C6.02 3.33 4.04 3.66 2 4 C1.67 6.31 1.34 8.62 1 11 C2.98 11 4.96 11 7 11 C7 11.66 7 12.32 7 13 C4.03 13 1.06 13 -2 13 C-1.859 11.395 -1.712 9.791 -1.562 8.188 C-1.481 7.294 -1.4 6.401 -1.316 5.48 C-1 3 -1 3 0 0 Z " fill="#A6C9DD" transform="translate(291,740)"/>
<path d="M0 0 C0.743 0.495 0.743 0.495 1.5 1 C6.062 2.825 11.348 2.551 16 1 C15.664 3.519 15.426 4.672 13.375 6.25 C10.059 7.297 7.457 7.37 4 7 C1.562 5.188 1.562 5.188 0 3 C0 2.01 0 1.02 0 0 Z " fill="#FDE9E9" transform="translate(471,631)"/>
<path d="M0 0 C0.99 0 1.98 0 3 0 C3 6.6 3 13.2 3 20 C2.01 20.33 1.02 20.66 0 21 C0 14.07 0 7.14 0 0 Z " fill="#FEE7E7" transform="translate(377,564)"/>
<path d="M0 0 C2.97 0 5.94 0 9 0 C9 0.66 9 1.32 9 2 C7.68 2 6.36 2 5 2 C5 3.32 5 4.64 5 6 C5.99 6 6.98 6 8 6 C8.144 7.114 8.289 8.227 8.438 9.375 C8.784 12.821 8.784 12.821 10 15 C8.35 15 6.7 15 5 15 C5.33 12.36 5.66 9.72 6 7 C4.68 7 3.36 7 2 7 C0 4 0 4 0 0 Z " fill="#F8637B" transform="translate(720,737)"/>
<path d="M0 0 C0.66 0 1.32 0 2 0 C2.33 1.32 2.66 2.64 3 4 C3.66 3.01 4.32 2.02 5 1 C5.33 4.3 5.66 7.6 6 11 C7.32 10.67 8.64 10.34 10 10 C10 10.66 10 11.32 10 12 C5.71 12 1.42 12 -3 12 C-2.67 11.34 -2.34 10.68 -2 10 C-1.01 10.33 -0.02 10.66 1 11 C0.67 10.01 0.34 9.02 0 8 C-0.128 5.326 -0.044 2.679 0 0 Z " fill="#FD8D8A" transform="translate(418,573)"/>
<path d="M0 0 C-3.33 2.22 -3.526 2.174 -7.188 1.562 C-11.955 0.979 -16.53 0.996 -21.312 1.25 C-22.335 1.29 -22.335 1.29 -23.378 1.33 C-27.758 1.601 -30.339 2.693 -34 5 C-34.99 4.67 -35.98 4.34 -37 4 C-33.252 -0.619 -27.56 -0.307 -22 -1 C-20.975 -1.137 -19.95 -1.273 -18.895 -1.414 C-12.209 -2.158 -6.498 -1.739 0 0 Z " fill="#FE6A65" transform="translate(571,366)"/>
<path d="M0 0 C0.99 0 1.98 0 3 0 C3.168 2.417 3.335 4.833 3.5 7.25 C3.548 7.932 3.595 8.614 3.645 9.316 C3.865 12.557 4 15.749 4 19 C3.34 19.33 2.68 19.66 2 20 C-0.568 16.158 -0.227 12.186 -0.125 7.75 C-0.116 7.005 -0.107 6.26 -0.098 5.492 C-0.074 3.661 -0.038 1.831 0 0 Z " fill="#FDE6E7" transform="translate(692,564)"/>
<path d="M0 0 C-2.116 2.116 -3.436 2.641 -6.188 3.688 C-11.874 6.169 -16.315 9.576 -19.098 15.23 C-19.818 17.123 -20.421 19.059 -21 21 C-21.33 21 -21.66 21 -22 21 C-22.511 15.634 -21.389 13.151 -18 9 C-12.322 3.45 -8.227 -0.374 0 0 Z " fill="#EC473D" transform="translate(553,394)"/>
<path d="M0 0 C0.66 0 1.32 0 2 0 C2 1.65 2 3.3 2 5 C-3.28 5 -8.56 5 -14 5 C-14.33 5.66 -14.66 6.32 -15 7 C-15 5.02 -15 3.04 -15 1 C-10.05 1.33 -5.1 1.66 0 2 C0 1.34 0 0.68 0 0 Z " fill="#FEFBFB" transform="translate(360,571)"/>
<path d="M0 0 C1.812 1.312 1.812 1.312 3 3 C3 3.99 3 4.98 3 6 C-0.96 6 -4.92 6 -9 6 C-6.684 0.21 -5.951 -0.581 0 0 Z " fill="#FC6860" transform="translate(356,567)"/>
<path d="M0 0 C0.845 -0.004 1.691 -0.008 2.562 -0.012 C3.459 -0.003 4.357 0.006 5.281 0.016 C6.19 0.021 7.099 0.026 8.036 0.032 C14.144 0.118 19.896 0.528 25.781 2.266 C26.957 2.575 28.132 2.884 29.344 3.203 C30.148 3.554 30.952 3.904 31.781 4.266 C32.276 5.751 32.276 5.751 32.781 7.266 C29.129 6.404 25.639 5.216 22.098 3.984 C17.933 2.692 14.057 2.141 9.699 2.168 C8.768 2.171 7.837 2.174 6.877 2.178 C5.437 2.19 5.437 2.19 3.969 2.203 C2.99 2.208 2.011 2.212 1.002 2.217 C-1.405 2.229 -3.812 2.245 -6.219 2.266 C-3.82 -0.133 -3.27 0.01 0 0 Z " fill="#FE6E63" transform="translate(385.21875,230.734375)"/>
<path d="M0 0 C0.125 2.375 0.125 2.375 0 5 C-2 7 -2 7 -5.062 7.188 C-8 7 -8 7 -9 6 C-9.041 4.334 -9.043 2.666 -9 1 C-6.043 -0.478 -3.258 -0.06 0 0 Z " fill="#FB5E54" transform="translate(321,575)"/>
<path d="M0 0 C0.969 0.309 1.939 0.619 2.938 0.938 C3.598 2.587 4.257 4.237 4.938 5.938 C0.978 5.938 -2.983 5.938 -7.062 5.938 C-5.871 1.17 -5.002 -0.102 0 0 Z " fill="#FC685E" transform="translate(286.0625,567.0625)"/>
<path d="M0 0 C0.99 0.66 1.98 1.32 3 2 C3 2.99 3 3.98 3 5 C2.385 4.881 1.77 4.763 1.137 4.641 C-1.279 4.255 -3.553 3.978 -6 4 C-8.775 6.168 -8.961 7.815 -9.688 11.25 C-9.791 12.158 -9.894 13.065 -10 14 C-10.33 14 -10.66 14 -11 14 C-11.776 4.959 -11.776 4.959 -8.875 1.375 C-5.576 -0.203 -3.613 -0.471 0 0 Z " fill="#FEF2F2" transform="translate(763,564)"/>
<path d="M0 0 C2.438 1.5 2.438 1.5 4 3 C3.34 4.98 2.68 6.96 2 9 C-0.97 9 -3.94 9 -7 9 C-7 8.67 -7 8.34 -7 8 C-4.36 8 -1.72 8 1 8 C0.34 6.68 -0.32 5.36 -1 4 C-3.97 4 -6.94 4 -10 4 C-9.67 3.01 -9.34 2.02 -9 1 C-5.943 -0.528 -3.37 -0.232 0 0 Z " fill="#FEE8E7" transform="translate(320,564)"/>
<path d="M0 0 C0.99 0 1.98 0 3 0 C3 2.31 3 4.62 3 7 C4.65 7 6.3 7 8 7 C8 7.99 8 8.98 8 10 C6.35 10 4.7 10 3 10 C3 11.65 3 13.3 3 15 C2.629 14.041 2.629 14.041 2.25 13.062 C1.184 10.813 1.184 10.813 -1.125 10.25 C-1.744 10.168 -2.362 10.085 -3 10 C-3 9.01 -3 8.02 -3 7 C-1.68 7 -0.36 7 1 7 C0.67 4.69 0.34 2.38 0 0 Z " fill="#FEECEC" transform="translate(620,558)"/>
<path d="M0 0 C-0.33 0.66 -0.66 1.32 -1 2 C-1.84 1.683 -2.681 1.366 -3.547 1.039 C-12.519 -1.661 -22.677 -1.197 -32 -1 C-32 -1.33 -32 -1.66 -32 -2 C-9.007 -5.452 -9.007 -5.452 0 0 Z " fill="#FE6C65" transform="translate(472,368)"/>
<path d="M0 0 C0.99 0 1.98 0 3 0 C3.66 4.95 4.32 9.9 5 15 C5.99 15 6.98 15 8 15 C7.67 15.99 7.34 16.98 7 18 C3.839 16.63 3.007 16.011 1 13 C-0.237 8.669 -0.076 4.466 0 0 Z " fill="#FEEBEB" transform="translate(349,620)"/>
<path d="M0 0 C2.051 0.033 4.102 0.065 6.152 0.098 C6.812 1.748 7.472 3.398 8.152 5.098 C4.192 5.098 0.232 5.098 -3.848 5.098 C-2.608 0.138 -2.608 0.138 0 0 Z " fill="#FB5C5F" transform="translate(636.84765625,619.90234375)"/>
<path d="M0 0 C2.094 3.434 2.234 6.094 2.195 10.078 C2.189 11.238 2.182 12.398 2.176 13.594 C2.159 14.8 2.142 16.007 2.125 17.25 C2.116 18.472 2.107 19.694 2.098 20.953 C2.074 23.969 2.041 26.984 2 30 C1.67 30 1.34 30 1 30 C1 23.07 1 16.14 1 9 C-1.331 9.959 -1.331 9.959 -3 13 C-3.383 7.768 -2.219 4.622 0 0 Z " fill="#E94737" transform="translate(522,274)"/>
<path d="M0 0 C0.99 0 1.98 0 3 0 C3 5.28 3 10.56 3 16 C1.35 16 -0.3 16 -2 16 C-2 15.34 -2 14.68 -2 14 C-1.34 14 -0.68 14 0 14 C0 9.38 0 4.76 0 0 Z " fill="#F68194" transform="translate(749,737)"/>
<path d="M0 0 C1.65 0 3.3 0 5 0 C5 0.66 5 1.32 5 2 C4.34 2 3.68 2 3 2 C3 6.62 3 11.24 3 16 C2.01 16 1.02 16 0 16 C0 10.72 0 5.44 0 0 Z " fill="#F4677D" transform="translate(645,737)"/>
<path d="M0 0 C7.401 0.126 13.118 2.899 18.625 7.75 C19.306 8.585 19.306 8.585 20 9.438 C17 9.438 17 9.438 13.812 7.062 C7.673 2.981 0.154 3.019 -7 2.438 C-4.485 -0.078 -3.492 0.084 0 0 Z " fill="#ED4A38" transform="translate(392,257.5625)"/>
<path d="M0 0 C1.98 0 3.96 0 6 0 C6 5.28 6 10.56 6 16 C4.02 16 2.04 16 0 16 C0 15.34 0 14.68 0 14 C1.32 14 2.64 14 4 14 C4 12.02 4 10.04 4 8 C3.34 7.67 2.68 7.34 2 7 C2.66 7 3.32 7 4 7 C4 5.35 4 3.7 4 2 C2.68 2 1.36 2 0 2 C0 1.34 0 0.68 0 0 Z " fill="#F46D82" transform="translate(652,737)"/>
<path d="M0 0 C2.357 0.09 4.712 0.247 7.062 0.438 C8.353 0.539 9.643 0.641 10.973 0.746 C12.471 0.872 12.471 0.872 14 1 C13.67 1.99 13.34 2.98 13 4 C9.04 4 5.08 4 1 4 C0.34 5.32 -0.32 6.64 -1 8 C-1.042 5.667 -1.041 3.333 -1 1 C-0.67 0.67 -0.34 0.34 0 0 Z " fill="#FEF9F9" transform="translate(277,572)"/>
<path d="M0 0 C0.808 0.102 1.616 0.204 2.449 0.309 C3.064 0.392 3.679 0.476 4.312 0.562 C4.642 1.553 4.973 2.543 5.312 3.562 C4.66 3.504 4.008 3.446 3.336 3.387 C-2.982 3.033 -2.982 3.033 -8.312 6.062 C-9.096 6.888 -9.88 7.712 -10.688 8.562 C-11.053 4.05 -11.053 4.05 -9.375 1.812 C-6.194 -0.544 -3.754 -0.49 0 0 Z " fill="#FECDCA" transform="translate(401.6875,564.4375)"/>
<path d="M0 0 C3.125 0.188 3.125 0.188 6.125 2.188 C6.125 3.178 6.125 4.168 6.125 5.188 C2.495 5.188 -1.135 5.188 -4.875 5.188 C-3.637 0.237 -3.637 0.237 0 0 Z " fill="#FA5253" transform="translate(602.875,619.8125)"/>
<path d="M0 0 C2.717 1.274 4.183 2.537 6 4.938 C6.25 8.188 6.25 8.188 6 10.938 C5.34 10.278 4.68 9.617 4 8.938 C0.643 8.694 0.643 8.694 -3.125 8.812 C-4.406 8.831 -5.688 8.849 -7.008 8.867 C-7.995 8.89 -8.983 8.914 -10 8.938 C-9.67 7.947 -9.34 6.957 -9 5.938 C-9 6.597 -9 7.258 -9 7.938 C-5.04 7.938 -1.08 7.938 3 7.938 C2.34 6.617 1.68 5.298 1 3.938 C-2.562 3.119 -2.562 3.119 -6 2.938 C-2.618 -0.082 -2.618 -0.082 0 0 Z " fill="#FECECF" transform="translate(642,617.0625)"/>
<path d="M0 0 C-0.99 0.66 -1.98 1.32 -3 2 C-9.007 6.897 -14.421 11.479 -17 19 C-17.821 16.671 -18.171 15.454 -17.285 13.105 C-13.197 6.693 -8.299 -0.692 0 0 Z " fill="#ED463A" transform="translate(444,396)"/>
<path d="M0 0 C0.601 0.196 1.201 0.392 1.82 0.594 C0.807 1.265 0.807 1.265 -0.227 1.949 C-6.337 6.091 -11.115 9.699 -14.18 16.594 C-14.84 16.594 -15.5 16.594 -16.18 16.594 C-14.539 9.865 -10.562 5.147 -5.055 1.094 C-2.18 -0.406 -2.18 -0.406 0 0 Z " fill="#ED4B39" transform="translate(382.1796875,260.40625)"/>
<path d="M0 0 C3.125 0.188 3.125 0.188 6.125 2.188 C6.125 3.178 6.125 4.168 6.125 5.188 C2.495 5.188 -1.135 5.188 -4.875 5.188 C-3.637 0.237 -3.637 0.237 0 0 Z " fill="#FB5B56" transform="translate(389.875,619.8125)"/>
<path d="M0 0 C-3.013 1.734 -5.196 2.256 -8.66 2.266 C-9.536 2.268 -10.412 2.271 -11.314 2.273 C-12.221 2.266 -13.128 2.258 -14.062 2.25 C-14.973 2.258 -15.884 2.265 -16.822 2.273 C-17.697 2.271 -18.572 2.268 -19.473 2.266 C-20.269 2.263 -21.066 2.261 -21.887 2.259 C-24 2 -24 2 -27 0 C-23.25 -0.197 -19.5 -0.381 -15.75 -0.562 C-14.687 -0.619 -13.623 -0.675 -12.527 -0.732 C-10.99 -0.805 -10.99 -0.805 -9.422 -0.879 C-8.479 -0.926 -7.537 -0.973 -6.565 -1.022 C-4.177 -1.002 -2.273 -0.695 0 0 Z " fill="#EF4B3D" transform="translate(375,470)"/>
<path d="M0 0 C0.66 0 1.32 0 2 0 C-1.84 9.076 -8.365 12.116 -17 16 C-17 15.34 -17 14.68 -17 14 C-17.66 13.67 -18.32 13.34 -19 13 C-18.371 12.792 -17.742 12.585 -17.094 12.371 C-10.476 9.989 -3.305 6.609 0 0 Z " fill="#ED4D46" transform="translate(767,320)"/>
<path d="M0 0 C3.125 0.25 3.125 0.25 5 1.625 C6.125 3.25 6.125 3.25 6.125 5.25 C2.495 5.25 -1.135 5.25 -4.875 5.25 C-3.642 0.317 -3.642 0.317 0 0 Z " fill="#FA5956" transform="translate(478.875,619.75)"/>
<path d="M0 0 C0.33 1.32 0.66 2.64 1 4 C1.66 4 2.32 4 3 4 C3.33 2.68 3.66 1.36 4 0 C3.965 1.048 3.965 1.048 3.93 2.117 C3.912 3.027 3.894 3.937 3.875 4.875 C3.852 5.78 3.829 6.685 3.805 7.617 C3.757 10.188 3.757 10.188 6 12 C8.323 12.4 10.657 12.74 13 13 C13 13.33 13 13.66 13 14 C6.641 15.345 6.641 15.345 3.562 13.688 C2 12 2 12 2 10 C1.34 10 0.68 10 0 10 C0 6.7 0 3.4 0 0 Z " fill="#FC7A7C" transform="translate(632,572)"/>
<path d="M0 0 C0.99 0.495 0.99 0.495 2 1 C2.33 7.27 2.66 13.54 3 20 C2.34 20 1.68 20 1 20 C-0.148 17.703 -0.116 16.417 -0.098 13.867 C-0.094 13.062 -0.091 12.256 -0.088 11.426 C-0.08 10.584 -0.071 9.742 -0.062 8.875 C-0.058 8.026 -0.053 7.176 -0.049 6.301 C-0.037 4.2 -0.019 2.1 0 0 Z " fill="#FEF8F8" transform="translate(653,616)"/>
<path d="M0 0 C0.99 0 1.98 0 3 0 C3.054 1.416 3.093 2.833 3.125 4.25 C3.148 5.039 3.171 5.828 3.195 6.641 C2.983 9.207 2.287 10.792 1 13 C-0.32 13 -1.64 13 -3 13 C-3 12.34 -3 11.68 -3 11 C-2.34 11 -1.68 11 -1 11 C-0.67 7.37 -0.34 3.74 0 0 Z " fill="#ABCCDF" transform="translate(270,740)"/>
<path d="M0 0 C1.32 0.33 2.64 0.66 4 1 C6.681 0.614 6.681 0.614 9 0 C8.67 1.65 8.34 3.3 8 5 C6.68 5.33 5.36 5.66 4 6 C4 5.34 4 4.68 4 4 C3.34 4 2.68 4 2 4 C1.67 5.65 1.34 7.3 1 9 C0.67 9 0.34 9 0 9 C0 6.03 0 3.06 0 0 Z " fill="#D2E1EB" transform="translate(361,740)"/>
<path d="M0 0 C0.66 0.33 1.32 0.66 2 1 C1.34 2.98 0.68 4.96 0 7 C3.63 7 7.26 7 11 7 C11.33 6.34 11.66 5.68 12 5 C12 5.99 12 6.98 12 8 C7.38 8 2.76 8 -2 8 C-2.33 9.65 -2.66 11.3 -3 13 C-3.33 13 -3.66 13 -4 13 C-4.492 5.738 -4.492 5.738 -2 2 C-1.34 1.34 -0.68 0.68 0 0 Z " fill="#FDD3D3" transform="translate(598,618)"/>
<path d="M0 0 C1.179 0.018 2.359 0.036 3.574 0.055 C4.93 0.089 4.93 0.089 6.312 0.125 C6.642 0.785 6.973 1.445 7.312 2.125 C6.576 2.162 5.84 2.2 5.082 2.238 C-2.284 2.677 -2.284 2.677 -8.688 6.125 C-9.678 6.62 -9.678 6.62 -10.688 7.125 C-10.375 4.75 -10.375 4.75 -9.688 2.125 C-6.056 -0.296 -4.304 -0.085 0 0 Z " fill="#FE6C62" transform="translate(464.6875,229.875)"/>
<path d="M0 0 C0.33 0 0.66 0 1 0 C1 3.63 1 7.26 1 11 C2.98 10.67 4.96 10.34 7 10 C7.33 7.69 7.66 5.38 8 3 C8.99 2.67 9.98 2.34 11 2 C10.94 3.459 10.851 4.918 10.75 6.375 C10.68 7.593 10.68 7.593 10.609 8.836 C10 11 10 11 8.156 12.312 C5.205 13.254 2.978 12.677 0 12 C0 8.04 0 4.08 0 0 Z " fill="#F68395" transform="translate(690,739)"/>
<path d="M0 0 C1.65 0 3.3 0 5 0 C5.33 5.28 5.66 10.56 6 16 C4.68 16 3.36 16 2 16 C2.33 11.38 2.66 6.76 3 2 C2.01 2 1.02 2 0 2 C0 1.34 0 0.68 0 0 Z " fill="#F46179" transform="translate(755,737)"/>
<path d="M0 0 C0.33 0 0.66 0 1 0 C1 4.62 1 9.24 1 14 C-0.32 14 -1.64 14 -3 14 C-3 9.71 -3 5.42 -3 1 C-2.67 1 -2.34 1 -2 1 C-1.67 2.98 -1.34 4.96 -1 7 C-0.67 4.69 -0.34 2.38 0 0 Z " fill="#FB534D" transform="translate(356,619)"/>
<path d="M0 0 C2.31 0 4.62 0 7 0 C7.289 0.639 7.577 1.279 7.875 1.938 C8.828 4.152 8.828 4.152 11 5 C10.34 7.31 9.68 9.62 9 12 C8.67 12 8.34 12 8 12 C7.856 10.866 7.711 9.731 7.562 8.562 C7.388 5.192 7.388 5.192 6 4 C3.672 3.632 1.338 3.298 -1 3 C-0.67 2.01 -0.34 1.02 0 0 Z " fill="#FEF0F1" transform="translate(722,564)"/>
<path d="M0 0 C0.99 0.33 1.98 0.66 3 1 C3 5.95 3 10.9 3 16 C2.01 16 1.02 16 0 16 C0 10.72 0 5.44 0 0 Z " fill="#F45C73" transform="translate(742,737)"/>
<path d="M0 0 C1.458 -0.054 2.916 -0.093 4.375 -0.125 C5.187 -0.148 5.999 -0.171 6.836 -0.195 C9 0 9 0 11 2 C11.125 5.625 11.125 5.625 11 9 C10.01 9 9.02 9 8 9 C7.67 7.02 7.34 5.04 7 3 C4.69 2.67 2.38 2.34 0 2 C0 1.34 0 0.68 0 0 Z " fill="#B4D0E2" transform="translate(275,740)"/>
<path d="M0 0 C2.051 6.153 -3.389 14.273 -6 20 C-6.33 20 -6.66 20 -7 20 C-7.454 14.73 -5.952 11.16 -3.5 6.625 C-2.999 5.664 -2.999 5.664 -2.488 4.684 C-1.67 3.117 -0.836 1.557 0 0 Z " fill="#EC4A3B" transform="translate(517,287)"/>
<path d="M0 0 C0.99 0 1.98 0 3 0 C2.67 1.65 2.34 3.3 2 5 C5.465 4.505 5.465 4.505 9 4 C9 4.99 9 5.98 9 7 C5.7 7 2.4 7 -1 7 C-1.33 5.68 -1.66 4.36 -2 3 C-1.34 2.01 -0.68 1.02 0 0 Z " fill="#9FC6DB" transform="translate(277,746)"/>
<path d="M0 0 C0.66 0 1.32 0 2 0 C0.232 6.287 -4.668 11.445 -10 15 C-12.188 14.625 -12.188 14.625 -14 14 C-13.238 13.49 -13.238 13.49 -12.461 12.969 C-7.751 9.652 -4.437 6.327 -1.227 1.539 C-0.822 1.031 -0.417 0.523 0 0 Z " fill="#F2513E" transform="translate(328,314)"/>
<path d="M0 0 C-0.866 0.619 -0.866 0.619 -1.75 1.25 C-6.861 5.162 -6.861 5.162 -9 11 C-9.66 11 -10.32 11 -11 11 C-11.312 7.75 -11.312 7.75 -11 4 C-7.616 0.118 -5.042 -0.469 0 0 Z " fill="#FEEFEF" transform="translate(644,565)"/>
<path d="M0 0 C0.66 0 1.32 0 2 0 C2 4.29 2 8.58 2 13 C-0.31 13 -2.62 13 -5 13 C-5.33 12.01 -5.66 11.02 -6 10 C-4.35 10 -2.7 10 -1 10 C-0.67 6.7 -0.34 3.4 0 0 Z " fill="#98C2D9" transform="translate(348,740)"/>
<path d="M0 0 C0.33 1.32 0.66 2.64 1 4 C3.64 4 6.28 4 9 4 C9 4.66 9 5.32 9 6 C6.03 6 3.06 6 0 6 C0 6.99 0 7.98 0 9 C-0.66 9 -1.32 9 -2 9 C-2 6.36 -2 3.72 -2 1 C-1.34 0.67 -0.68 0.34 0 0 Z " fill="#FEF0F0" transform="translate(383,622)"/>
<path d="M0 0 C0.99 0 1.98 0 3 0 C6.727 4.279 6.315 8.65 6 14 C3.435 11.435 3.46 9.523 3 6 C2.34 6 1.68 6 1 6 C0.67 4.02 0.34 2.04 0 0 Z " fill="#FEDFDF" transform="translate(416,565)"/>
<path d="M0 0 C0.33 0 0.66 0 1 0 C1.193 4.824 0.757 8.496 -1 13 C-1.99 13 -2.98 13 -4 13 C-3.01 11.35 -2.02 9.7 -1 8 C-3.833 6.584 -6.475 6.654 -9.625 6.438 C-10.814 6.354 -12.002 6.27 -13.227 6.184 C-14.599 6.093 -14.599 6.093 -16 6 C-16 5.67 -16 5.34 -16 5 C-11.05 4.67 -6.1 4.34 -1 4 C-0.67 2.68 -0.34 1.36 0 0 Z " fill="#FC7774" transform="translate(400,623)"/>
<path d="M0 0 C-13.24 4.587 -13.24 4.587 -18 3 C-18 2.01 -18 1.02 -18 0 C-15.375 -0.194 -12.751 -0.381 -10.125 -0.562 C-9.005 -0.647 -9.005 -0.647 -7.863 -0.732 C-2.227 -1.113 -2.227 -1.113 0 0 Z " fill="#FE685B" transform="translate(404,305)"/>
<path d="M0 0 C1.32 0 2.64 0 4 0 C4 3.3 4 6.6 4 10 C2.35 10.33 0.7 10.66 -1 11 C-0.528 8.575 -0.054 6.189 0.625 3.812 C1.213 1.911 1.213 1.911 0 0 Z " fill="#ECF1F6" transform="translate(323,735)"/>
<path d="M0 0 C6.4 -0.369 6.4 -0.369 9.438 1.5 C9.953 1.995 10.469 2.49 11 3 C10.67 3.99 10.34 4.98 10 6 C9.484 5.691 8.969 5.381 8.438 5.062 C5.333 3.709 2.349 3.386 -1 3 C-0.67 2.01 -0.34 1.02 0 0 Z " fill="#FEF4F3" transform="translate(600,617)"/>
<path d="M0 0 C0.99 0.495 0.99 0.495 2 1 C2 1.66 2 2.32 2 3 C3.583 3.027 5.167 3.046 6.75 3.062 C7.632 3.074 8.513 3.086 9.422 3.098 C11.782 3.008 13.745 2.669 16 2 C15.062 4 15.062 4 13 6 C8.833 6.75 5.22 6.625 1.438 4.688 C0 3 0 3 0 0 Z " fill="#FC665E" transform="translate(345,581)"/>
<path d="M0 0 C0.33 0 0.66 0 1 0 C1.195 6.055 1.195 6.055 1 8 C0.34 8.66 -0.32 9.32 -1 10 C-1 8.68 -1 7.36 -1 6 C-4.3 6 -7.6 6 -11 6 C-10.67 5.34 -10.34 4.68 -10 4 C-7.03 4 -4.06 4 -1 4 C-0.67 2.68 -0.34 1.36 0 0 Z " fill="#FEF7F7" transform="translate(323,569)"/>
<path d="M0 0 C5 5 10 10 15 15 C11.281 15 10.682 14.141 8 11.688 C7.319 11.073 6.639 10.458 5.938 9.824 C5.298 9.222 4.659 8.62 4 8 C3.437 7.484 2.873 6.969 2.293 6.438 C0.512 4.458 0.35 2.591 0 0 Z " fill="#EE4F43" transform="translate(412,448)"/>
<path d="M0 0 C0.66 0 1.32 0 2 0 C2.133 0.915 2.266 1.83 2.402 2.773 C2.579 3.962 2.756 5.15 2.938 6.375 C3.112 7.558 3.286 8.742 3.465 9.961 C3.835 12.907 3.835 12.907 5 15 C3.68 15 2.36 15 1 15 C0.505 7.575 0.505 7.575 0 0 Z " fill="#F87085" transform="translate(717,737)"/>
<path d="M0 0 C0.99 0 1.98 0 3 0 C3 4.29 3 8.58 3 13 C2.34 13 1.68 13 1 13 C0.128 10.005 -0.108 7.364 -0.062 4.25 C-0.053 3.451 -0.044 2.652 -0.035 1.828 C-0.024 1.225 -0.012 0.622 0 0 Z " fill="#FDCBC8" transform="translate(386,566)"/>
<path d="M0 0 C0 0.33 0 0.66 0 1 C-1.98 1.33 -3.96 1.66 -6 2 C-5.67 2.66 -5.34 3.32 -5 4 C-9.875 7 -9.875 7 -11 7 C-11.33 9.64 -11.66 12.28 -12 15 C-12.33 15 -12.66 15 -13 15 C-13.464 11.131 -13.876 7.553 -11.91 4.066 C-8.273 0.043 -5.501 -0.66 0 0 Z " fill="#FDDCDD" transform="translate(573,564)"/>
<path d="M0 0 C0.835 0.371 0.835 0.371 1.688 0.75 C1.027 0.75 0.368 0.75 -0.312 0.75 C-0.56 1.513 -0.808 2.276 -1.062 3.062 C-2.422 5.986 -3.628 7.05 -6.312 8.75 C-6.808 6.275 -6.808 6.275 -7.312 3.75 C-2.882 -0.312 -2.882 -0.312 0 0 Z " fill="#F2574D" transform="translate(349.3125,394.25)"/>
<path d="M0 0 C0.99 0.33 1.98 0.66 3 1 C2.693 1.664 2.386 2.328 2.07 3.012 C0.796 6.571 0.311 10.081 -0.125 13.812 C-0.211 14.505 -0.298 15.198 -0.387 15.912 C-0.597 17.607 -0.799 19.304 -1 21 C-1.33 21 -1.66 21 -2 21 C-2.054 18.625 -2.094 16.251 -2.125 13.875 C-2.142 13.21 -2.159 12.545 -2.176 11.859 C-2.218 7.505 -1.6 4.044 0 0 Z " fill="#F34B36" transform="translate(268,273)"/>
<path d="M0 0 C0.99 0 1.98 0 3 0 C3.027 1.625 3.046 3.25 3.062 4.875 C3.074 5.78 3.086 6.685 3.098 7.617 C3 10 3 10 2 12 C1.34 12 0.68 12 0 12 C0 8.04 0 4.08 0 0 Z " fill="#9DC6DB" transform="translate(334,740)"/>
<path d="M0 0 C2.31 0.66 4.62 1.32 7 2 C7 2.66 7 3.32 7 4 C7.66 4.33 8.32 4.66 9 5 C6.291 6.354 3.991 6.065 1 6 C-0.062 4.125 -0.062 4.125 -1 2 C-0.67 1.34 -0.34 0.68 0 0 Z " fill="#FEDEDE" transform="translate(566,632)"/>
<path d="M0 0 C1.32 0 2.64 0 4 0 C4.077 4.516 4.102 8.591 3 13 C2.01 13 1.02 13 0 13 C0.33 10.36 0.66 7.72 1 5 C1.66 5 2.32 5 3 5 C3 4.01 3 3.02 3 2 C2.01 2 1.02 2 0 2 C0 1.34 0 0.68 0 0 Z " fill="#9CC2D9" transform="translate(390,740)"/>
<path d="M0 0 C0.99 0.33 1.98 0.66 3 1 C3 3.31 3 5.62 3 8 C1.68 8.33 0.36 8.66 -1 9 C-1.098 2.848 -1.098 2.848 -1 1 C-0.67 0.67 -0.34 0.34 0 0 Z " fill="#B2CEE1" transform="translate(341,740)"/>
<path d="M0 0 C4.499 0.472 6.314 1.866 9.25 5.25 C10.279 6.402 10.279 6.402 11.328 7.578 C13.091 10.132 13.632 11.947 14 15 C11.738 12.851 9.93 10.604 8.125 8.062 C5.735 4.818 3.318 2.342 0 0 Z " fill="#EC4A3E" transform="translate(464,397)"/>
<path d="M0 0 C2.858 2.858 2.408 5.147 2.625 9.125 C2.7 10.406 2.775 11.688 2.852 13.008 C2.901 13.995 2.95 14.983 3 16 C2.01 16 1.02 16 0 16 C0 10.72 0 5.44 0 0 Z " fill="#F3657B" transform="translate(664,737)"/>
<path d="M0 0 C0.99 0 1.98 0 3 0 C3 4.95 3 9.9 3 15 C2.34 15 1.68 15 1 15 C0.505 7.575 0.505 7.575 0 0 Z " fill="#F57286" transform="translate(733,737)"/>
<path d="M0 0 C0.99 0 1.98 0 3 0 C2.67 4.95 2.34 9.9 2 15 C1.34 15 0.68 15 0 15 C0 10.05 0 5.1 0 0 Z " fill="#FEF9F9" transform="translate(358,618)"/>
<path d="M0 0 C0.66 0 1.32 0 2 0 C2.054 1.583 2.093 3.166 2.125 4.75 C2.148 5.632 2.171 6.513 2.195 7.422 C1.991 10.114 1.366 11.699 0 14 C-1.104 9.583 -1.151 5.526 -1 1 C-0.67 0.67 -0.34 0.34 0 0 Z " fill="#FEC1BE" transform="translate(453,565)"/>
<path d="M0 0 C0.99 0 1.98 0 3 0 C3.961 2.882 4.106 4.699 4.062 7.688 C4.053 8.496 4.044 9.304 4.035 10.137 C4.024 10.752 4.012 11.366 4 12 C0.998 8.998 0.04 7.042 -0.125 2.75 C-0.084 1.842 -0.043 0.935 0 0 Z " fill="#FEF2F2" transform="translate(429,566)"/>
<path d="M0 0 C0.99 0.144 1.98 0.289 3 0.438 C6.994 1.009 10.995 1.508 15 2 C11.938 3.784 9.779 4.229 6.25 4.125 C5.451 4.107 4.652 4.089 3.828 4.07 C3.225 4.047 2.622 4.024 2 4 C2 3.34 2 2.68 2 2 C1.34 2 0.68 2 0 2 C0 1.34 0 0.68 0 0 Z " fill="#FE6E61" transform="translate(287,305)"/>
<path d="M0 0 C5.87 0.294 9.856 3.024 14 7 C14.33 7.99 14.66 8.98 15 10 C14.34 10 13.68 10 13 10 C13 9.34 13 8.68 13 8 C12.438 7.724 11.876 7.448 11.297 7.164 C8.914 5.956 6.582 4.678 4.25 3.375 C3.451 2.929 2.652 2.483 1.828 2.023 C1.225 1.686 0.622 1.348 0 1 C0 0.67 0 0.34 0 0 Z " fill="#EF4C43" transform="translate(738,261)"/>
<path d="M0 0 C0.99 0 1.98 0 3 0 C3 3.63 3 7.26 3 11 C2.34 11 1.68 11 1 11 C-0.203 8.595 -0.101 7.05 -0.062 4.375 C-0.053 3.558 -0.044 2.74 -0.035 1.898 C-0.024 1.272 -0.012 0.645 0 0 Z " fill="#FEF9FA" transform="translate(429,618)"/>
<path d="M0 0 C0.33 0 0.66 0 1 0 C2.056 4.283 2.117 8.43 2.062 12.812 C2.058 13.505 2.053 14.198 2.049 14.912 C2.037 16.608 2.019 18.304 2 20 C1.67 20 1.34 20 1 20 C1 15.38 1 10.76 1 6 C0.34 6 -0.32 6 -1 6 C-1.495 7.98 -1.495 7.98 -2 10 C-2 7.69 -2 5.38 -2 3 C-1.34 3 -0.68 3 0 3 C0 2.01 0 1.02 0 0 Z " fill="#FDB0AE" transform="translate(509,568)"/>
<path d="M0 0 C1.98 0.495 1.98 0.495 4 1 C3.67 3.97 3.34 6.94 3 10 C2.34 10 1.68 10 1 10 C0.639 8.523 0.286 7.043 -0.062 5.562 C-0.26 4.739 -0.457 3.915 -0.66 3.066 C-0.828 2.044 -0.828 2.044 -1 1 C-0.67 0.67 -0.34 0.34 0 0 Z " fill="#FB6D61" transform="translate(262,570)"/>
<path d="M0 0 C0.66 0 1.32 0 2 0 C2.125 6.75 2.125 6.75 1 9 C0.01 9 -0.98 9 -2 9 C-2.125 5.625 -2.125 5.625 -2 2 C-1.34 1.34 -0.68 0.68 0 0 Z " fill="#FDE7E6" transform="translate(408,570)"/>
<path d="M0 0 C2.445 2.25 4.099 4.558 5.75 7.438 C6.199 8.199 6.647 8.961 7.109 9.746 C8.132 12.334 7.958 13.436 7 16 C6.012 14.276 5.035 12.545 4.062 10.812 C3.245 9.368 3.245 9.368 2.41 7.895 C1.094 5.193 0.427 2.956 0 0 Z " fill="#ED4B44" transform="translate(642,420)"/>
<path d="M0 0 C0.99 0.33 1.98 0.66 3 1 C0.03 3.97 -2.94 6.94 -6 10 C-6.33 9.01 -6.66 8.02 -7 7 C-4.899 3.924 -3.114 2.076 0 0 Z " fill="#F0513D" transform="translate(278,261)"/>
<path d="M0 0 C0.66 1.32 1.32 2.64 2 4 C5.059 4.816 5.059 4.816 8 5 C8 5.33 8 5.66 8 6 C6.02 6.33 4.04 6.66 2 7 C1.67 8.65 1.34 10.3 1 12 C3.64 12 6.28 12 9 12 C9 12.33 9 12.66 9 13 C6.03 13 3.06 13 0 13 C0 8.71 0 4.42 0 0 Z " fill="#F24560" transform="translate(767,739)"/>
<path d="M0 0 C0 0.99 0 1.98 0 3 C-4.62 3 -9.24 3 -14 3 C-14 2.34 -14 1.68 -14 1 C-12.042 0.832 -10.083 0.666 -8.125 0.5 C-6.489 0.361 -6.489 0.361 -4.82 0.219 C-3.217 0.094 -1.608 0 0 0 Z " fill="#FDFDFE" transform="translate(488,625)"/>
<path d="M0 0 C0.33 0 0.66 0 1 0 C1.081 1.791 1.139 3.583 1.188 5.375 C1.24 6.872 1.24 6.872 1.293 8.398 C1.196 9.257 1.1 10.115 1 11 C0.01 11.66 -0.98 12.32 -2 13 C-2 9.37 -2 5.74 -2 2 C-1.34 2 -0.68 2 0 2 C0 1.34 0 0.68 0 0 Z " fill="#FB534E" transform="translate(380,622)"/>
<path d="M0 0 C-0.66 2.97 -1.32 5.94 -2 9 C-2.66 8.34 -3.32 7.68 -4 7 C-4.66 7.66 -5.32 8.32 -6 9 C-5.688 5.625 -5.688 5.625 -5 2 C-2 0 -2 0 0 0 Z " fill="#FDC3C2" transform="translate(423,609)"/>
<path d="M0 0 C4.29 0 8.58 0 13 0 C11.02 0.99 11.02 0.99 9 2 C8.67 2.66 8.34 3.32 8 4 C5.688 4.25 5.688 4.25 3 4 C2.01 2.68 1.02 1.36 0 0 Z " fill="#FB5248" transform="translate(348,577)"/>
<path d="M0 0 C4.95 0 9.9 0 15 0 C15 0.33 15 0.66 15 1 C9.06 1.495 9.06 1.495 3 2 C3.33 2.99 3.66 3.98 4 5 C5.65 5 7.3 5 9 5 C9 5.33 9 5.66 9 6 C3.522 6.365 3.522 6.365 1.125 4.688 C0 3 0 3 0 0 Z " fill="#FC7E77" transform="translate(347,576)"/>
<path d="M0 0 C0.66 0 1.32 0 2 0 C2 4.29 2 8.58 2 13 C1.01 13 0.02 13 -1 13 C-0.67 8.71 -0.34 4.42 0 0 Z " fill="#9DC4DB" transform="translate(263,740)"/>
<path d="M0 0 C2.31 0 4.62 0 7 0 C7.33 0.99 7.66 1.98 8 3 C6.577 3.124 6.577 3.124 5.125 3.25 C1.895 3.651 1.895 3.651 0.625 6.062 C0.316 7.022 0.316 7.022 0 8 C0 5.36 0 2.72 0 0 Z " fill="#94C0D8" transform="translate(291,740)"/>
<path d="M0 0 C0 0.33 0 0.66 0 1 C-1.423 1.124 -1.423 1.124 -2.875 1.25 C-4.422 1.621 -4.422 1.621 -6 2 C-7.092 3.933 -7.092 3.933 -8 6 C-10.625 7.25 -10.625 7.25 -13 8 C-10.642 0.729 -7.463 -0.431 0 0 Z " fill="#FDE1E0" transform="translate(549,564)"/>
<path d="M0 0 C0.33 0.66 0.66 1.32 1 2 C-2.96 4.64 -6.92 7.28 -11 10 C-11.99 9.34 -12.98 8.68 -14 8 C-13.408 7.674 -12.817 7.348 -12.207 7.012 C-8.097 4.739 -4.006 2.455 0 0 Z " fill="#EF5249" transform="translate(486,457)"/>
<path d="M0 0 C0.99 0 1.98 0 3 0 C3 4.29 3 8.58 3 13 C2.34 13 1.68 13 1 13 C0.67 8.71 0.34 4.42 0 0 Z " fill="#92BED6" transform="translate(409,740)"/>
<path d="M0 0 C0.99 0 1.98 0 3 0 C2.859 1.792 2.712 3.584 2.562 5.375 C2.481 6.373 2.4 7.37 2.316 8.398 C2 11 2 11 1 13 C0.34 13 -0.32 13 -1 13 C-0.67 8.71 -0.34 4.42 0 0 Z " fill="#97C1D9" transform="translate(354,740)"/>
<path d="M0 0 C0.33 0 0.66 0 1 0 C1 4.95 1 9.9 1 15 C0.01 14.67 -0.98 14.34 -2 14 C-2 11.03 -2 8.06 -2 5 C-1.67 5 -1.34 5 -1 5 C-0.67 3.35 -0.34 1.7 0 0 Z " fill="#FB4F48" transform="translate(363,618)"/>
<path d="M0 0 C1.98 0.495 1.98 0.495 4 1 C3.67 3.97 3.34 6.94 3 10 C1.68 8.68 0.36 7.36 -1 6 C-0.34 6 0.32 6 1 6 C0.67 4.02 0.34 2.04 0 0 Z " fill="#AFCDDF" transform="translate(372,740)"/>
<path d="M0 0 C2.938 0.326 4.819 0.882 7.312 2.5 C9.813 6.204 9.334 9.659 9 14 C8.67 14 8.34 14 8 14 C7.925 13.397 7.85 12.793 7.773 12.172 C7.107 7.418 7.107 7.418 4.531 3.547 C3.067 2.621 1.536 1.801 0 1 C0 0.67 0 0.34 0 0 Z " fill="#FB686A" transform="translate(644,563)"/>
<path d="M0 0 C2.523 1.974 2.993 2.967 3.688 6.188 C3.791 7.116 3.894 8.044 4 9 C3.01 9.33 2.02 9.66 1 10 C-0.158 6.527 -0.069 3.639 0 0 Z " fill="#E94235" transform="translate(616,270)"/>
<path d="M0 0 C-1.502 4.206 -4.286 5.739 -8 8 C-7.812 5.688 -7.812 5.688 -7 3 C-2.966 0 -2.966 0 0 0 Z " fill="#FE6A58" transform="translate(270,233)"/>
<path d="M0 0 C1.938 0.375 1.938 0.375 4 1 C5.507 4.013 5.178 6.683 5 10 C4.34 10.66 3.68 11.32 3 12 C3 9.03 3 6.06 3 3 C2.01 2.67 1.02 2.34 0 2 C0 1.34 0 0.68 0 0 Z " fill="#98C2DA" transform="translate(254,737)"/>
<path d="M0 0 C0.33 0 0.66 0 1 0 C1.144 0.949 1.289 1.898 1.438 2.875 C1.829 5.893 1.829 5.893 3 8 C1.75 10.625 1.75 10.625 0 13 C-0.99 13 -1.98 13 -3 13 C-3 12.01 -3 11.02 -3 10 C-2.01 10 -1.02 10 0 10 C0 6.7 0 3.4 0 0 Z " fill="#FDC2C0" transform="translate(364,625)"/>
<path d="M0 0 C1.32 0.33 2.64 0.66 4 1 C4 4.256 3.757 7.442 3.5 10.688 C3.407 11.867 3.314 13.046 3.219 14.262 C3.147 15.165 3.074 16.069 3 17 C2.67 17 2.34 17 2 17 C1.939 16.024 1.879 15.048 1.816 14.043 C1.733 12.771 1.649 11.498 1.562 10.188 C1.481 8.923 1.4 7.658 1.316 6.355 C1.128 3.008 1.128 3.008 0 0 Z " fill="#FEB8B5" transform="translate(372,617)"/>
<path d="M0 0 C3.63 0.66 7.26 1.32 11 2 C9.68 2.33 8.36 2.66 7 3 C7 3.66 7 4.32 7 5 C4.625 4.75 4.625 4.75 2 4 C1.34 2.68 0.68 1.36 0 0 Z " fill="#FEE7E8" transform="translate(492,590)"/>
<path d="M0 0 C2.64 0 5.28 0 8 0 C8.33 0.99 8.66 1.98 9 3 C6.69 3.33 4.38 3.66 2 4 C1.34 2.68 0.68 1.36 0 0 Z " fill="#FB574C" transform="translate(279,577)"/>
<path d="M0 0 C0.66 0 1.32 0 2 0 C2 1.32 2 2.64 2 4 C2.66 4.33 3.32 4.66 4 5 C2.02 5.99 2.02 5.99 0 7 C0 6.01 0 5.02 0 4 C-2.97 3.67 -5.94 3.34 -9 3 C-9 2.67 -9 2.34 -9 2 C-1.25 1.875 -1.25 1.875 1 3 C0.67 2.01 0.34 1.02 0 0 Z " fill="#FD928E" transform="translate(406,565)"/>
<path d="M0 0 C0.66 0.33 1.32 0.66 2 1 C1.125 5.875 1.125 5.875 0 7 C-1.666 7.041 -3.334 7.043 -5 7 C-4.67 6.01 -4.34 5.02 -4 4 C-3.01 4 -2.02 4 -1 4 C-0.67 2.68 -0.34 1.36 0 0 Z " fill="#B9D4E5" transform="translate(328,746)"/>
<path d="M0 0 C2.875 0.688 2.875 0.688 3.875 1.688 C3.916 3.687 3.918 5.688 3.875 7.688 C3.339 6.883 2.803 6.079 2.25 5.25 C-0.556 2.222 -2.093 1.962 -6.125 1.688 C-3.125 -0.312 -3.125 -0.312 0 0 Z " fill="#F76179" transform="translate(696.125,737.3125)"/>
<path d="M0 0 C0.33 0.99 0.66 1.98 1 3 C-1.551 5.354 -2.71 5.983 -6.25 6.188 C-7.158 6.126 -8.065 6.064 -9 6 C-9 5.34 -9 4.68 -9 4 C-8.434 3.795 -7.868 3.59 -7.285 3.379 C-6.552 3.109 -5.818 2.84 -5.062 2.562 C-4.332 2.296 -3.601 2.029 -2.848 1.754 C-1.017 1.146 -1.017 1.146 0 0 Z " fill="#FEF8F8" transform="translate(508,589)"/>
<path d="M0 0 C0 0.66 0 1.32 0 2 C-2.652 3.075 -5.284 4.095 -8 5 C-8 6.98 -8 8.96 -8 11 C-8.33 11 -8.66 11 -9 11 C-9.312 7.75 -9.312 7.75 -9 4 C-5.848 0.586 -4.719 0 0 0 Z " fill="#FA7778" transform="translate(572,567)"/>
<path d="M0 0 C1.32 0.33 2.64 0.66 4 1 C4 2.98 4 4.96 4 7 C3.01 7 2.02 7 1 7 C0.67 4.69 0.34 2.38 0 0 Z " fill="#FEE0DF" transform="translate(438,564)"/>
<path d="M0 0 C4.95 1.98 4.95 1.98 10 4 C10 4.99 10 5.98 10 7 C6.04 5.35 2.08 3.7 -2 2 C-1.34 1.34 -0.68 0.68 0 0 Z " fill="#FF797C" transform="translate(571,376)"/>
<path d="M0 0 C0.66 0.33 1.32 0.66 2 1 C1.01 1 0.02 1 -1 1 C-0.67 0.67 -0.34 0.34 0 0 Z M-5 2 C-3.68 2.33 -2.36 2.66 -1 3 C-3.64 4.98 -6.28 6.96 -9 9 C-7.73 3.921 -7.73 3.921 -5 2 Z " fill="#FE6A5D" transform="translate(367,237)"/>
<path d="M0 0 C1.078 0.102 2.155 0.204 3.266 0.309 C4.085 0.392 4.905 0.476 5.75 0.562 C5.75 0.893 5.75 1.222 5.75 1.562 C5.002 1.623 4.255 1.684 3.484 1.746 C2.5 1.83 1.515 1.914 0.5 2 C-0.475 2.081 -1.449 2.162 -2.453 2.246 C-4.815 2.513 -6.969 2.916 -9.25 3.562 C-9.58 2.572 -9.91 1.583 -10.25 0.562 C-6.7 -0.601 -3.692 -0.361 0 0 Z " fill="#FE6A64" transform="translate(610.25,230.4375)"/>
<path d="M0 0 C2 3 2 3 3 5 C5.322 5.407 7.657 5.744 10 6 C10 6.33 10 6.66 10 7 C8.544 7.222 7.085 7.427 5.625 7.625 C4.813 7.741 4.001 7.857 3.164 7.977 C2.45 7.984 1.736 7.992 1 8 C0.34 7.34 -0.32 6.68 -1 6 C-0.625 2.875 -0.625 2.875 0 0 Z " fill="#FDDAD8" transform="translate(383,628)"/>
<path d="M0 0 C3.125 0.188 3.125 0.188 6.125 2.188 C6.125 3.178 6.125 4.168 6.125 5.188 C2.332 4.186 -0.59 3.377 -3.875 1.188 C-2.875 0.188 -2.875 0.188 0 0 Z " fill="#FA5F61" transform="translate(602.875,619.8125)"/>
<path d="M0 0 C0.66 0.33 1.32 0.66 2 1 C2 1.66 2 2.32 2 3 C1.01 3.495 1.01 3.495 0 4 C-1.048 5.975 -2.052 7.975 -3 10 C-3.33 10 -3.66 10 -4 10 C-3.385 3.477 -3.385 3.477 -1.438 1.062 C-0.726 0.537 -0.726 0.537 0 0 Z " fill="#FECFD0" transform="translate(543,618)"/>
<path d="M0 0 C2.97 0.99 5.94 1.98 9 3 C8.01 3.33 7.02 3.66 6 4 C6 4.66 6 5.32 6 6 C3.133 5.427 2.139 5.139 0 3 C0 2.01 0 1.02 0 0 Z " fill="#FEE6E8" transform="translate(635,579)"/>
<path d="M0 0 C0.577 0.639 1.155 1.279 1.75 1.938 C3.981 3.982 5.074 4.582 8 5 C8 5.66 8 6.32 8 7 C5.125 7.125 5.125 7.125 2 7 C0 5 0 5 -0.125 2.375 C-0.084 1.591 -0.043 0.808 0 0 Z " fill="#FEF6F7" transform="translate(620,577)"/>
<path d="M0 0 C2 2 2 2 2.195 4.164 C2.172 4.976 2.149 5.788 2.125 6.625 C2.107 7.442 2.089 8.26 2.07 9.102 C2.047 9.728 2.024 10.355 2 11 C1.34 11 0.68 11 0 11 C0 8.69 0 6.38 0 4 C-0.66 3.67 -1.32 3.34 -2 3 C-1.34 2.01 -0.68 1.02 0 0 Z " fill="#FC9798" transform="translate(717,570)"/>
<path d="M0 0 C0.99 0 1.98 0 3 0 C3 0.66 3 1.32 3 2 C5.31 2 7.62 2 10 2 C10 2.33 10 2.66 10 3 C7.69 3 5.38 3 3 3 C2.67 4.32 2.34 5.64 2 7 C1.34 7 0.68 7 0 7 C0 4.69 0 2.38 0 0 Z " fill="#FDC9C9" transform="translate(718,565)"/>
<path d="M0 0 C1.65 0 3.3 0 5 0 C4.01 0.33 3.02 0.66 2 1 C2.33 3.31 2.66 5.62 3 8 C2.01 8 1.02 8 0 8 C0 5.36 0 2.72 0 0 Z " fill="#FC8081" transform="translate(618,557)"/>
<path d="M0 0 C0.99 0.33 1.98 0.66 3 1 C1.568 2.008 0.129 3.006 -1.312 4 C-2.513 4.835 -2.513 4.835 -3.738 5.688 C-6 7 -6 7 -9 7 C-9 6.34 -9 5.68 -9 5 C-8.434 4.723 -7.868 4.446 -7.285 4.16 C-6.552 3.798 -5.818 3.436 -5.062 3.062 C-4.332 2.703 -3.601 2.343 -2.848 1.973 C-1.038 1.136 -1.038 1.136 0 0 Z " fill="#EE5144" transform="translate(385,462)"/>
<path d="M0 0 C2.333 2.121 3.915 4.016 5 7 C4.625 9.25 4.625 9.25 4 11 C3.01 9.02 2.02 7.04 1 5 C0.34 5 -0.32 5 -1 5 C-0.67 3.35 -0.34 1.7 0 0 Z " fill="#EC4F48" transform="translate(636,408)"/>
<path d="M0 0 C0.33 0 0.66 0 1 0 C1 1.65 1 3.3 1 5 C1.66 5 2.32 5 3 5 C1.25 8.875 1.25 8.875 -1 10 C-1 9.34 -1 8.68 -1 8 C-1.66 7.67 -2.32 7.34 -3 7 C-2.01 4.69 -1.02 2.38 0 0 Z " fill="#FDB5B2" transform="translate(405,574)"/>
<path d="M0 0 C2.475 0.495 2.475 0.495 5 1 C5 1.99 5 2.98 5 4 C4.34 4 3.68 4 3 4 C3 5.98 3 7.96 3 10 C2.67 10 2.34 10 2 10 C2 7.69 2 5.38 2 3 C1.34 3 0.68 3 0 3 C0 2.01 0 1.02 0 0 Z " fill="#FDA29E" transform="translate(439,571)"/>
<path d="M0 0 C0.99 0.33 1.98 0.66 3 1 C2.34 2.98 1.68 4.96 1 7 C-1.97 7 -4.94 7 -8 7 C-8 6.67 -8 6.34 -8 6 C-5.36 6 -2.72 6 0 6 C-0.278 4.793 -0.278 4.793 -0.562 3.562 C-0.707 2.717 -0.851 1.871 -1 1 C-0.67 0.67 -0.34 0.34 0 0 Z " fill="#FECDCB" transform="translate(321,566)"/>
<path d="M0 0 C1.812 0.938 1.812 0.938 2.812 3.938 C-0.158 3.938 -3.127 3.938 -6.188 3.938 C-2.779 -0.079 -2.779 -0.079 0 0 Z " fill="#FA6A63" transform="translate(364.1875,397.0625)"/>
<path d="M0 0 C0.66 0 1.32 0 2 0 C2.671 1.456 3.337 2.915 4 4.375 C4.557 5.593 4.557 5.593 5.125 6.836 C6 9 6 9 6 11 C5.34 11 4.68 11 4 11 C3.326 9.733 2.661 8.461 2 7.188 C1.629 6.48 1.257 5.772 0.875 5.043 C0 3 0 3 0 0 Z " fill="#F25943" transform="translate(249,306)"/>
<path d="M0 0 C7.483 6.15 7.483 6.15 10 10 C9.01 10 8.02 10 7 10 C5.703 8.54 4.41 7.073 3.207 5.535 C1.916 3.893 0.515 2.436 -1 1 C-0.67 0.67 -0.34 0.34 0 0 Z " fill="#FE6665" transform="translate(420,248)"/>
<path d="M0 0 C0.99 0 1.98 0 3 0 C3 1.98 3 3.96 3 6 C1.68 6.33 0.36 6.66 -1 7 C-1.33 6.34 -1.66 5.68 -2 5 C-1.34 5 -0.68 5 0 5 C0 3.35 0 1.7 0 0 Z " fill="#FC8C8F" transform="translate(656,631)"/>
<path d="M0 0 C1.32 0.66 2.64 1.32 4 2 C4 3.32 4 4.64 4 6 C2.35 6 0.7 6 -1 6 C-0.67 4.02 -0.34 2.04 0 0 Z " fill="#FEE8E8" transform="translate(429,631)"/>
<path d="M0 0 C0.33 0 0.66 0 1 0 C1.36 5.4 1.36 5.4 -0.125 7.875 C-2.78 9.468 -4.968 9.202 -8 9 C-4.25 7 -4.25 7 -2 7 C-1.856 6.402 -1.711 5.804 -1.562 5.188 C-1.113 3.438 -0.571 1.713 0 0 Z " fill="#FA4F4F" transform="translate(554,625)"/>
<path d="M0 0 C0.33 0 0.66 0 1 0 C1.33 2.64 1.66 5.28 2 8 C1.34 8 0.68 8 0 8 C-0.33 8.66 -0.66 9.32 -1 10 C-2.25 3.375 -2.25 3.375 0 0 Z " fill="#FE8685" transform="translate(541,625)"/>
<path d="M0 0 C0.33 0 0.66 0 1 0 C1 2.31 1 4.62 1 7 C1.66 7 2.32 7 3 7 C3 7.99 3 8.98 3 10 C1.68 9.67 0.36 9.34 -1 9 C-0.67 6.03 -0.34 3.06 0 0 Z " fill="#FEF2F2" transform="translate(416,574)"/>
<path d="M0 0 C0.33 0.99 0.66 1.98 1 3 C1.66 3 2.32 3 3 3 C2.67 5.64 2.34 8.28 2 11 C1.01 10.34 0.02 9.68 -1 9 C-0.67 6.03 -0.34 3.06 0 0 Z " fill="#FEDDDB" transform="translate(266,569)"/>
<path d="M0 0 C0.33 0 0.66 0 1 0 C1.054 1.604 1.093 3.208 1.125 4.812 C1.148 5.706 1.171 6.599 1.195 7.52 C1 10 1 10 -1 13 C-1.66 12.34 -2.32 11.68 -3 11 C-2.625 8.875 -2.625 8.875 -2 7 C-2 7.66 -2 8.32 -2 9 C-1.34 9 -0.68 9 0 9 C0 6.03 0 3.06 0 0 Z " fill="#FEC5C4" transform="translate(432,620)"/>
<path d="M0 0 C0.99 0 1.98 0 3 0 C3 2.31 3 4.62 3 7 C2.01 7 1.02 7 0 7 C0 4.69 0 2.38 0 0 Z " fill="#FEE1E1" transform="translate(424,577)"/>
<path d="M0 0 C0.66 0 1.32 0 2 0 C3.478 2.957 3.06 5.742 3 9 C2.34 9 1.68 9 1 9 C0.67 6.03 0.34 3.06 0 0 Z " fill="#FEF7F6" transform="translate(238,572)"/>
<path d="M0 0 C5.28 0.66 10.56 1.32 16 2 C16 2.33 16 2.66 16 3 C9.526 4.272 6.023 3.689 0 1 C0 0.67 0 0.34 0 0 Z " fill="#EC4038" transform="translate(543,469)"/>
<path d="M0 0 C1.176 0.082 2.351 0.165 3.562 0.25 C4.223 1.24 4.882 2.23 5.562 3.25 C-1.062 3.5 -1.062 3.5 -4.438 1.25 C-3.438 0.25 -3.438 0.25 0 0 Z " fill="#FC6A62" transform="translate(331.4375,428.75)"/>
<path d="M0 0 C1.226 0.014 1.226 0.014 2.477 0.027 C3.416 0.045 3.416 0.045 4.375 0.062 C0.513 2.06 -2.177 3.062 -6.625 3.062 C-6.625 2.402 -6.625 1.743 -6.625 1.062 C-4.22 -0.14 -2.675 -0.038 0 0 Z " fill="#FA6662" transform="translate(762.625,270.9375)"/>
<path d="M0 0 C0.99 0.33 1.98 0.66 3 1 C3 2.98 3 4.96 3 7 C2.01 7 1.02 7 0 7 C0 4.69 0 2.38 0 0 Z " fill="#FDA9AC" transform="translate(663,615)"/>
<path d="M0 0 C1.125 1.562 1.125 1.562 2 4 C1.125 7.75 1.125 7.75 0 11 C-0.99 10.67 -1.98 10.34 -3 10 C-2.34 10 -1.68 10 -1 10 C-1.017 9.043 -1.017 9.043 -1.035 8.066 C-1.044 7.24 -1.053 6.414 -1.062 5.562 C-1.074 4.739 -1.086 3.915 -1.098 3.066 C-1 1 -1 1 0 0 Z " fill="#FEA19E" transform="translate(390,569)"/>
<path d="M0 0 C1.32 0 2.64 0 4 0 C4 1.98 4 3.96 4 6 C2.68 5.34 1.36 4.68 0 4 C0 2.68 0 1.36 0 0 Z " fill="#FED8D8" transform="translate(505,565)"/>
<path d="M0 0 C0 1.32 0 2.64 0 4 C-2.375 4.625 -2.375 4.625 -5 5 C-5.66 4.34 -6.32 3.68 -7 3 C-3.375 0 -3.375 0 0 0 Z " fill="#FEE5E4" transform="translate(340,564)"/>
<path d="M0 0 C0.66 0 1.32 0 2 0 C2.66 2.31 3.32 4.62 4 7 C2.35 6.67 0.7 6.34 -1 6 C-0.67 4.02 -0.34 2.04 0 0 Z " fill="#FC6F64" transform="translate(252,560)"/>
<path d="M0 0 C0 0.66 0 1.32 0 2 C-2.31 2.33 -4.62 2.66 -7 3 C-7 2.01 -7 1.02 -7 0 C-4.333 -1.333 -2.833 -0.671 0 0 Z " fill="#FB6461" transform="translate(753,272)"/>
<path d="M0 0 C0.66 0 1.32 0 2 0 C2.33 1.98 2.66 3.96 3 6 C1.68 6 0.36 6 -1 6 C-0.67 4.02 -0.34 2.04 0 0 Z " fill="#F4F7F9" transform="translate(370,740)"/>
<path d="M0 0 C0.99 0.33 1.98 0.66 3 1 C3 3.31 3 5.62 3 8 C2.67 7.34 2.34 6.68 2 6 C1.34 6 0.68 6 0 6 C0 4.02 0 2.04 0 0 Z " fill="#F67083" transform="translate(742,737)"/>
<path d="M0 0 C0.33 0 0.66 0 1 0 C1 2.31 1 4.62 1 7 C-0.65 7 -2.3 7 -4 7 C-4 5.68 -4 4.36 -4 3 C-3.34 3 -2.68 3 -2 3 C-2 3.66 -2 4.32 -2 5 C-1.34 5 -0.68 5 0 5 C0 3.35 0 1.7 0 0 Z " fill="#FB6B6D" transform="translate(579,632)"/>
<path d="M0 0 C0 1.65 0 3.3 0 5 C-0.99 5 -1.98 5 -3 5 C-3 4.34 -3 3.68 -3 3 C-4.65 2.67 -6.3 2.34 -8 2 C-8 1.67 -8 1.34 -8 1 C-2.25 0 -2.25 0 0 0 Z " fill="#FB6563" transform="translate(507,584)"/>
<path d="M0 0 C2.387 2.963 4.735 5.943 7 9 C4.289 8.626 3.18 8.186 1.25 6.188 C0 4 0 4 0 0 Z " fill="#F25647" transform="translate(325,413)"/>
<path d="M0 0 C2.188 0.312 2.188 0.312 4 1 C1.03 3.475 1.03 3.475 -2 6 C-2.33 5.01 -2.66 4.02 -3 3 C-1.75 1.438 -1.75 1.438 0 0 Z " fill="#ED5247" transform="translate(716,264)"/>
<path d="M0 0 C0.66 0 1.32 0 2 0 C1.34 3.96 0.68 7.92 0 12 C-0.33 12 -0.66 12 -1 12 C-1.027 10.188 -1.046 8.375 -1.062 6.562 C-1.074 5.553 -1.086 4.544 -1.098 3.504 C-1 1 -1 1 0 0 Z " fill="#7EB4D1" transform="translate(404,740)"/>
<path d="M0 0 C0.33 0 0.66 0 1 0 C1.054 1.937 1.093 3.875 1.125 5.812 C1.148 6.891 1.171 7.97 1.195 9.082 C1 12 1 12 -1 15 C-1.562 13.062 -1.562 13.062 -2 11 C-1.67 10.67 -1.34 10.34 -1 10 C-0.767 8.318 -0.587 6.629 -0.438 4.938 C-0.354 4.018 -0.27 3.099 -0.184 2.152 C-0.123 1.442 -0.062 0.732 0 0 Z " fill="#FD7D7A" transform="translate(428,622)"/>
<path d="M0 0 C2.875 -0.125 2.875 -0.125 6 0 C6.66 0.66 7.32 1.32 8 2 C4.675 3.108 2.378 2.845 -1 2 C-0.67 1.34 -0.34 0.68 0 0 Z " fill="#FDF1F1" transform="translate(388,617)"/>
<path d="M0 0 C0.33 0 0.66 0 1 0 C1.66 3.96 2.32 7.92 3 12 C2.01 11.67 1.02 11.34 0 11 C-1.669 7.384 -0.657 3.794 0 0 Z " fill="#FA7C7D" transform="translate(584,571)"/>
<path d="M0 0 C0.66 0 1.32 0 2 0 C1.01 2.97 0.02 5.94 -1 9 C-1.99 8.67 -2.98 8.34 -4 8 C-3.34 8 -2.68 8 -2 8 C-1.783 6.577 -1.783 6.577 -1.562 5.125 C-1 2 -1 2 0 0 Z " fill="#FB6B66" transform="translate(450,572)"/>
<path d="M0 0 C0.99 0.33 1.98 0.66 3 1 C1.879 1.839 0.753 2.671 -0.375 3.5 C-1.315 4.196 -1.315 4.196 -2.273 4.906 C-4 6 -4 6 -6 6 C-6 5.34 -6 4.68 -6 4 C-3.188 1.812 -3.188 1.812 0 0 Z " fill="#FE6A68" transform="translate(408,310)"/>
<path d="M0 0 C-4.44 2.96 -4.44 2.96 -7 4 C-7.99 3.67 -8.98 3.34 -10 3 C-6.682 -0.063 -4.448 -0.303 0 0 Z " fill="#FF6D60" transform="translate(379,233)"/>
<path d="M0 0 C1.98 0.495 1.98 0.495 4 1 C4 2.32 4 3.64 4 5 C2.35 4.01 0.7 3.02 -1 2 C-0.67 1.34 -0.34 0.68 0 0 Z " fill="#FDEBEB" transform="translate(606,618)"/>
<path d="M0 0 C0.66 0 1.32 0 2 0 C2 1.98 2 3.96 2 6 C0.68 6 -0.64 6 -2 6 C-1.34 4.02 -0.68 2.04 0 0 Z " fill="#FEDFDE" transform="translate(451,574)"/>
<path d="M0 0 C1.255 3.766 0.371 5.372 -1 9 C-1.33 9 -1.66 9 -2 9 C-2.125 5.625 -2.125 5.625 -2 2 C-1.34 1.34 -0.68 0.68 0 0 Z " fill="#FEF9FA" transform="translate(538,570)"/>
<path d="M0 0 C1.467 3.815 0.433 6.29 -1 10 C-1.66 9.34 -2.32 8.68 -3 8 C-3 7.01 -3 6.02 -3 5 C-2.34 5 -1.68 5 -1 5 C-0.67 3.35 -0.34 1.7 0 0 Z " fill="#FC5747" transform="translate(245,566)"/>
<path d="M0 0 C0.66 0 1.32 0 2 0 C4.092 4.431 4.092 4.431 3.625 7.312 C3.419 7.869 3.212 8.426 3 9 C0 3.375 0 3.375 0 0 Z " fill="#EE5447" transform="translate(407,438)"/>
<path d="M0 0 C-2.463 2.463 -4.707 2.998 -8 4 C-8.33 3.34 -8.66 2.68 -9 2 C-5.865 0.142 -3.625 -0.201 0 0 Z " fill="#FE6A61" transform="translate(440,367)"/>
<path d="M0 0 C0.66 0.66 1.32 1.32 2 2 C-0.31 3.32 -2.62 4.64 -5 6 C-5.33 5.34 -5.66 4.68 -6 4 C-4.02 2.68 -2.04 1.36 0 0 Z " fill="#FF716E" transform="translate(308,310)"/>
</svg>
