<svg width="1080" height="1080" viewBox="0 0 1080 1080" fill="none" xmlns="http://www.w3.org/2000/svg">
  <rect width="1080" height="1080" fill="#333"/>
  <rect x="180" y="120" width="720" height="840" stroke="#fff" stroke-width="8"/>
  <g>
    <g>
      <ellipse cx="395" cy="304" rx="90" ry="82" stroke="#fff" stroke-width="10"/>
      <ellipse cx="620" cy="304" rx="90" ry="82" stroke="#fff" stroke-width="10"/>
      <path d="M395 304 L455 195 L555 195 L620 304" stroke="#fff" stroke-width="10"/>
      <line x1="455" y1="195" x2="395" y2="304" stroke="#a4c24b" stroke-width="8"/>
      <line x1="555" y1="195" x2="620" y2="304" stroke="#a4c24b" stroke-width="8"/>
      <circle cx="395" cy="304" r="10" fill="#a4c24b"/>
      <circle cx="620" cy="304" r="10" fill="#a4c24b"/>
      <circle cx="455" cy="195" r="10" fill="#a4c24b"/>
      <circle cx="555" cy="195" r="10" fill="#a4c24b"/>
      <ellipse cx="622" cy="182" rx="13" ry="7" stroke="#fff" stroke-width="7"/>
      <ellipse cx="389" cy="204" rx="12" ry="6" stroke="#fff" stroke-width="7"/>
      <path d="M455 195 Q485 240 555 195" stroke="#fff" stroke-width="10" fill="none"/>
    </g>
  </g>
  <text x="540" y="496" text-anchor="middle" font-family="'Arial Black', Impact, sans-serif" font-size="120" font-weight="bold" fill="#fff" letter-spacing="2">
    COMING
  </text>
  <text x="540" y="610" text-anchor="middle" font-family="'Arial Black', Impact, sans-serif" font-size="120" font-weight="bold" fill="#fff" letter-spacing="2">
    SOON
  </text>
  <text x="540" y="693" text-anchor="middle" font-family="'Times New Roman', Times, serif" font-size="40" fill="#fff">
    Saap Pluering ofn Inanthi !
  </text>
  <text x="540" y="745" text-anchor="middle" font-family="'Times New Roman', Times, serif" font-size="36" fill="#fff">
    www.rarjarda.com
  </text>
</svg>