<svg version="1.1" xmlns="http://www.w3.org/2000/svg" xmlns:xlink="http://www.w3.org/1999/xlink" width="1024" height="1024" viewBox="0 0 1024 1024"><path stroke="none" fill="black" fill-rule="evenodd" d="M268.8167882704472,1018.25C259.0010991056593,1008.2083380725388 252.4791096339561,995.5908694097404 249.82065525116897,981.5C248.73839034541396,975.7635639894822 248.5,890.6535038407872 248.5,510.0L248.5,45.5L250.73195840531133,37.0C253.72330061357079,25.608027501901844 259.98168147140046,13.466104858506302 266.67387451224766,6.070991913865726L272.1678068079614,0.0L278.4626912827674,0.0L284.7575757575734,0.0L277.08477127631454,7.75C268.8935964345379,16.023585646398907 263.644029748624,24.7231848654533 260.3396923518689,35.5C258.5645560137059,41.28945605669227 258.5,57.9926088924384 258.5,511.5C258.5,964.6242795785471 258.5659019784856,981.7135575903989 260.33541378469795,987.4477204516778C264.7761481328926,1001.8380703136154 273.3073620564457,1013.3666792518932 286.0504167770845,1022.1975480849296C288.4594608233218,1023.8670027370292 288.3836360194486,1023.8959642185267 281.46869650873725,1023.9475480849296L274.43739301747445,1024.0L268.8167882704472,1018.25zM744.0,1022.2062988157553C749.3852652854641,1018.5684501096592 757.1916074001425,1010.411787310285 760.8498238178252,1004.6003152331969C766.4068789457225,995.7723326812315 768.9239776060269,988.1284910895909 770.0588094337514,976.6347736444043C770.7148579112068,969.9902333292663 770.9631309883137,807.2233381401738 770.7797329941848,504.0L770.5,41.5L767.5428203591373,33.02401732433327C763.9316637086905,22.673580446789835 756.8053852279131,11.769086745441333 749.2537318940285,5.038407372498909L743.6007652730133,2.2737367544323206e-13L749.7236573545495,1.1368683772161603e-13C757.3747911985076,-2.8375638657387748e-14 759.805741441488,1.8405821216856886 767.3300324526831,13.330581046195448C774.0621604129146,23.610904189948812 776.43095777937,29.30219592460249 778.431359234705,40.002718668820876C779.8706976341556,47.702009848035594 779.9954661639545,92.30958937130288 779.7599386618681,515.0C779.5124848681958,959.0939793970811 779.4144300753383,981.788180329298 777.718408767797,987.5C773.9679745713363,1000.1306218688213 767.7423165956558,1011.0960445070418 759.1244789731652,1020.25C755.6798192382535,1023.9089528931798 755.4230074776785,1023.9987265079695 748.5470522345142,1023.9475480849296C741.6062880059817,1023.8958872821255 741.5377065482292,1023.8696246823066 744.0,1022.2062988157553zM309.23200270095043,970.0C309.23200270095043,968.075 309.43779796668133,967.2875 309.68932551368573,968.25C309.94085306069013,969.2125 309.94085306069013,970.7875 309.68932551368573,971.75C309.43779796668133,972.7125 309.23200270095043,971.925 309.23200270095043,970.0zM452.4588814840624,971.9334688436459C452.09634760648424,971.3468767076512 452.0141975902512,970.6524690764155 452.2763258924334,970.3903407742332C452.5384541946156,970.128212472051 453.01939201590386,970.6081514924103 453.34507660640725,971.4568719305873C454.02126064466916,973.218979288368 453.4449308428542,973.5289302207561 452.4588814840624,971.9334688436459zM486.0,971.4409830056251C486.0,970.5835236587188 486.45,970.1600813061875 487.0,970.5C487.55,970.8399186938125 488.0,971.5414763412812 488.0,972.0590169943749C488.0,972.5765576474687 487.55,973.0 487.0,973.0C486.45,973.0 486.0,972.2984423525313 486.0,971.4409830056251zM597.2320027009505,970.0C597.2320027009505,968.075 597.4377979666814,967.2875 597.6893255136858,968.25C597.9408530606902,969.2125 597.9408530606902,970.7875 597.6893255136858,971.75C597.4377979666814,972.7125 597.2320027009505,971.925 597.2320027009505,970.0zM704.2320027009505,970.0C704.2320027009505,968.075 704.4377979666814,967.2875 704.6893255136858,968.25C704.9408530606902,969.2125 704.9408530606902,970.7875 704.6893255136858,971.75C704.4377979666814,972.7125 704.2320027009505,971.925 704.2320027009505,970.0zM304.2521834043085,968.5C304.2632827911554,966.3 304.468067649298,965.5177466246633 304.7072608668476,966.7616591659186C304.9464540843972,968.0055717071738 304.9373727678861,969.8055717071737 304.68708016348955,970.7616591659186C304.43678755909303,971.7177466246634 304.24108401746156,970.7 304.2521834043085,968.5zM434.1578947368421,970.0C434.1578947368421,968.625 434.3848684210526,968.0625 434.6622807017544,968.75C434.93969298245617,969.4375 434.93969298245617,970.5625 434.6622807017544,971.25C434.3848684210526,971.9375 434.1578947368421,971.375 434.1578947368421,970.0zM579.078947368421,970.4166666666667C579.1269312900389,969.2517236807213 579.3638876676575,969.0147673031026 579.6831140350878,969.8125C579.9719846491229,970.534375 579.9364583333333,971.396875 579.6041666666667,971.7291666666667C579.271875,972.0614583333333 579.0355263157894,971.4708333333334 579.078947368421,970.4166666666667zM709.1949487188963,969.5C709.2153284090261,967.85 709.439447309831,967.2960643502166 709.6929907206852,968.2690318893704C709.9465341315392,969.2419994285241 709.9298598396148,970.5919994285241 709.655936738631,971.2690318893704C709.3820136376471,971.9460643502166 709.1745690287664,971.15 709.1949487188963,969.5zM713.078947368421,969.4166666666667C713.1269312900389,968.2517236807213 713.3638876676575,968.0147673031026 713.6831140350878,968.8125C713.9719846491229,969.534375 713.9364583333333,970.396875 713.6041666666667,970.7291666666667C713.271875,971.0614583333333 713.0355263157894,970.4708333333334 713.078947368421,969.4166666666667zM445.0,967.0C445.0,966.45 445.42344235253125,966.0 445.94098300562507,966.0C446.45852365871883,966.0 447.1600813061875,966.45 447.5,967.0C447.8399186938125,967.55 447.41647634128117,968.0 446.55901699437493,968.0C445.70155764746875,968.0 445.0,967.55 445.0,967.0zM453.4315210856081,952.75C452.3983713643692,951.5125 452.1936269614188,951.0625 452.97653352349596,951.75C455.15430599070766,953.662384751554 456.4542887507644,953.2978339406678 461.0,949.5C466.9762116593872,944.5070168930214 467.40259187258204,945.1889637006402 461.63190796520746,950.5106651440349C458.9544573460716,952.9797993148156 456.43670174902206,955.0 456.0368955273196,955.0C455.6370893056171,955.0 454.4646708068469,953.9875 453.4315210856081,952.75zM571.4113027246221,949.1090544168809C564.9424246933373,945.1643705775053 561.8055021325728,938.1561681408762 563.6421797583455,931.7520475261974C564.4048647411329,929.0927204062737 564.5333333333333,929.5279871643062 564.5333333333333,934.7713810523944C564.5333333333333,939.3764757103253 565.043537217645,941.5936008275165 566.5877515214117,943.698992750506C571.0812939516493,949.8255180100869 581.3441877829056,951.916659977535 587.75,948.0109603735527C589.5375,946.9211004454879 591.0,946.2543968679805 591.0,946.5293968679805C591.0,946.8043968679805 589.5375,947.9211004454879 587.75,949.0109603735527C583.4830261893406,951.6125848604556 575.5945037866269,951.6599458614783 571.4113027246221,949.1090544168809zM688.1237525076027,949.6491126495245C687.5071271997979,948.9061246067629 686.8307834588591,946.3186246067629 686.6207664166277,943.8991126495245C686.4107493743965,941.479600692286 686.4352412697058,940.4 686.6751928506485,941.5C686.9151444315912,942.6 687.5663623733268,944.9475797863739 688.1223438322829,946.7168439697198L689.1332192122032,949.9336879394394L699.8166096061016,950.2544624159544L710.5,950.5752368924694L699.8724447154422,950.7876184462348C691.9584797330729,950.9457714865526 688.9586235681357,950.6550707368301 688.1237525076027,949.6491126495245zM449.2926494846673,948.8926494846673C448.68360670123434,948.2836067012342 446.68110670123434,947.4296693675085 444.8426494846673,946.9950109652766L441.5,946.2047229612186L444.67857142857144,946.1023614806093C447.3442983744672,946.0165154446734 451.0,948.0226876349769 451.0,949.5714285714286C451.0,950.276978961175 450.4638095889295,950.0638095889295 449.2926494846673,948.8926494846673zM712.1958603817657,942.578740671584C712.051594137107,936.7441235531269 711.5537790005322,934.1644126888029 710.3060669252736,932.7857063645451C708.7136641678775,931.0261211237494 708.7141815370845,930.9530907574971 710.3146987195472,931.567266827398C712.6051786305344,932.4462064385008 713.1691624678709,935.2181890380389 712.7467722744348,943.5209171425968L712.3917207635312,950.5L712.1958603817657,942.578740671584zM317.0,945.0817874682358C317.0,942.8259150827688 318.36345602084725,941.0 320.0479718098094,941.0C322.70295224421716,941.0 323.37884340347574,942.7449844335508 321.01452078006895,943.4953912834393C319.90653435103104,943.8470525151605 319.0,944.5544508893635 319.0,945.0673876705571C319.0,945.5803244517507 318.55,946.0 318.0,946.0C317.45,946.0 317.0,945.5868043607061 317.0,945.0817874682358zM332.25,943.8340586239838C327.41634921728667,942.7515972190984 326.9030640013701,941.1138792688504 329.6097575491532,935.4099460240568C331.3324358769128,931.7796709262936 332.94298594303643,931.732966576 333.090188267184,935.3090169943749C333.1558567398369,936.9043299112376 333.4402895398036,936.5979416499056 334.1363838756694,934.1820652028284C335.2601368592842,930.2819496214098 337.0885037233415,930.4466359813892 338.5,934.5751088911552C339.9784111029371,938.8993003813533 340.90342658553925,940.0 343.05901699437493,940.0C345.88519565628,940.0 345.4381422486859,942.8829203080846 342.4349003388255,944.0247508470637C339.4557931303869,945.1574053889171 338.04102268258305,945.1309165954225 332.25,943.8340586239838zM594.7201150729674,937.0C595.0281751337011,933.975 595.4421738125836,931.3125 595.6401121371507,931.0833333333333C596.383659779045,930.2224776351079 595.8239313765022,938.5835532664404 595.0097176732063,940.5C594.4809325916714,941.744622189679 594.3715529026555,940.4227110216175 594.7201150729674,937.0zM578.7453559925,940.4120226591665C578.3354101966249,940.0020768632916 578.0,938.8416666666666 578.0,937.8333333333333C578.0,936.6666666666666 577.2727272727273,936.0 576.0,936.0C574.9,936.0 574.0,935.55 574.0,935.0C574.0,934.45 574.9,934.0 576.0,934.0C577.313062850386,934.0 578.0,933.3333333333334 578.0,932.0590169943749C578.0,929.2427987099551 579.7991079396189,928.5624279608453 580.1785055397735,931.2351690120524C580.3858495656244,932.6958448028017 581.2988892784161,933.6134603690311 582.75,933.8195509530758C585.6383629590655,934.2297639025862 585.6650154553998,935.7646980977082 582.7909944791066,936.1804490469242C581.4466804467955,936.374915211085 580.3684046322579,937.4115404287382 580.0363504716065,938.8286893258332C579.7362493039728,940.1094684550416 579.1553017883749,940.8219684550415 578.7453559925,940.4120226591665zM444.40498756211207,937.75L442.5,935.5L444.75,937.4049875621121C446.86444476351716,939.1952057733446 447.45524077260524,940.0 446.65498756211207,940.0C446.46523072127377,940.0 445.4527307212737,938.9875 444.40498756211207,937.75zM317.2097579806697,937.1296375614654C316.39511363454756,936.6261596668189 317.2793677095605,935.156626376161 319.98914725434264,932.5105974226905C322.1749241389476,930.3762433813707 324.2224563251397,928.8891229918064 324.53921877921414,929.2058854458808C324.85598123328856,929.5226478999552 323.71066396182385,930.7818998173524 321.9940692870704,932.0042230400968C320.22064053229,933.2670156974035 319.0974464645099,934.8115581249447 319.3928200839195,935.5812894386175C320.0353626707812,937.2557285793383 318.8146575316528,938.1215200325024 317.2097579806697,937.1296375614654zM462.26903188937035,935.3070092793148C463.241999428524,935.0534658684608 464.591999428524,935.0701401603852 465.26903188937035,935.344063261369C465.94606435021666,935.6179863623529 465.15,935.8254309712336 463.5,935.8050512811037C461.85,935.7846715909739 461.2960643502166,935.560552690169 462.26903188937035,935.3070092793148zM444.8571641380312,931.25C446.110627493816,929.4625 447.34637871780876,928.0 447.60327796912617,928.0C448.4675593943905,928.0 446.1258217149485,931.6511352209176 444.3436662718855,933.0822443430753C443.0910002823057,934.0881620545088 443.24016414222376,933.5559210140977 444.8571641380312,931.25zM463.1949487188963,927.5C463.21532840902603,925.85 463.43944730983105,925.2960643502166 463.6929907206851,926.2690318893704C463.9465341315392,927.2419994285241 463.92985983961483,928.5919994285241 463.65593673863094,929.2690318893704C463.38201363764705,929.9460643502166 463.1745690287665,929.15 463.1949487188963,927.5zM689.7291551019819,927.5C690.279479504382,926.4 690.5093023165089,924.825 690.2398724622637,924.0C689.863728751008,922.8482398780361 690.0355733285404,922.7681613346386 690.9800716254163,923.6550716254162C691.9130234165577,924.531139424691 693.0562849793178,924.4566026629335 695.7131572244066,923.34649055774C697.6398149098724,922.5414815765391 699.4155036429083,922.0821703095751 699.6591321867088,922.3257988533755C699.9027607305092,922.5694273971759 698.6359808156197,923.2798493632265 696.8440657091767,923.9045143334879C695.0521506027336,924.5291793037494 692.4931068261336,926.0437083392761 691.1573017611765,927.2701344124362C688.9411816484259,929.3047931802702 688.8161588806842,929.3249160659561 689.7291551019819,927.5zM451.85324649914617,923.7467535008539C452.3570923032646,923.2429076967354 453.8337305790052,922.9981081819307 455.1346648896808,923.2027545790656C457.13634533736655,923.5176334230417 456.99550357893764,923.6584751814706 454.21858160946533,924.118837859281C452.23136296944284,924.4482822241472 451.29846879219224,924.3015312078077 451.85324649914617,923.7467535008539zM458.75,922.3377192982457C459.4375,922.0603070175439 460.5625,922.0603070175439 461.25,922.3377192982457C461.9375,922.6151315789474 461.375,922.8421052631579 460.0,922.8421052631579C458.625,922.8421052631579 458.0625,922.6151315789474 458.75,922.3377192982457zM464.0,922.0C464.0,921.45 464.9265576474687,921.0 466.05901699437493,921.0C467.1914763412812,921.0 467.8399186938125,921.45 467.5,922.0C467.1600813061875,922.55 466.2335236587188,923.0 465.44098300562507,923.0C464.6484423525313,923.0 464.0,922.55 464.0,922.0zM329.25,914.2837455631231C330.7625,914.0546209231385 333.2375,914.0546209231385 334.75,914.2837455631231C336.2625,914.5128702031077 335.025,914.7003358176406 332.0,914.7003358176406C328.975,914.7003358176406 327.7375,914.5128702031077 329.25,914.2837455631231zM334.5,824.6338520835081C325.1961149337854,820.2673339781401 319.90771673402446,812.2683276608076 320.124755805471,802.8904687788179L320.249511610942,797.5L320.9918082069821,802.5552363892792C322.24868738535787,811.1149164327398 325.2736808850268,816.5834302649948 330.6311664092648,819.981046946893C339.11517351358214,825.3614448847991 346.2991898153639,823.2143491767889 351.06417370124467,813.8742091537395C353.2941340834432,809.5031257011169 356.52270432746644,808.7101253131203 359.35355046938446,811.8381750901926C360.9170186748099,813.5657880109455 360.84162765548035,813.9185496699245 358.1001208880177,817.703089803747C354.9513505573357,822.0498409517246 346.38662905031276,827.0068067142952 342.05365567639825,826.990231084296C340.64914505437923,826.9848581806588 337.25,825.9244876303043 334.5,824.6338520835081zM334.38856216638453,816.0952250577657C332.677271357896,815.0517107060181 330.2954531655677,812.8192962090774 329.0956328500994,811.1343039534531C324.9626955582652,805.3301287449317 325.3996809700144,793.393149626875 329.94821315955255,787.8446629796953C331.8580679559199,785.5149435462328 331.88039531140686,785.5127468607319 333.45140597800105,787.5C334.99249076645333,789.4493983388218 334.98862151286374,790.5857072407093 333.4105446919565,799.5C332.6763562203995,803.6473082230508 337.27545668499226,810.6057749767053 341.7202963099866,812.0727043386753C345.4807044875897,813.313750953203 345.72521786078585,814.0337117319432 343.17125932841594,816.3450124378879C340.78481753228044,818.504712581095 338.2203441364004,818.4317767757117 334.38856216638453,816.0952250577657zM404.07894736842104,814.4166666666667C404.1269312900389,813.2517236807213 404.3638876676576,813.0147673031026 404.68311403508767,813.8125C404.97198464912276,814.534375 404.9364583333333,815.396875 404.60416666666663,815.7291666666667C404.271875,816.0614583333333 404.03552631578947,815.4708333333334 404.07894736842104,814.4166666666667zM703.25,803.3333333333334C701.584673033058,802.6672025465566 701.6496212843174,799.3484305370424 703.340683779465,798.6995089705595C705.3298938536436,797.9361774431302 707.2459357953717,799.4860997821937 706.8483931353693,801.5369609966646C706.4697982673054,803.4900734774873 705.2118355049872,804.1180675353282 703.25,803.3333333333334zM321.4632283258247,792.0C323.06800643902096,781.8791082409743 337.29408137514105,771.5961759397289 344.69756165285776,775.205692523112C347.73321555914663,776.6857049909161 348.3470897614102,777.8997233610504 347.0761032395435,779.9095767549584C346.33036000172314,781.0888454188903 345.6763799608387,781.108592877843 343.07348631137063,780.0304390268185C337.90909515270494,777.8912781674995 332.2665262378877,779.2628855268182 327.7818500732068,783.7475616914992C325.63989783106854,785.8895139336373 323.21708800751713,789.4100657430156 322.3978282430925,791.5710101567843L320.90826503504763,795.5L321.4632283258247,792.0zM381.4248030756113,783.081214880075C381.520380184108,769.8386871582854 382.8751080574986,769.073315686633 386.5252813080722,780.1996320857832C388.0229719105963,784.7648344386024 389.5888333855149,788.8738581591114 390.0049734745579,789.3307959091362C390.42111356360095,789.7877336591612 392.0527336591612,786.1877336591613 393.6307959091363,781.3307959091362C395.5502692128013,775.4230680302879 396.99651266890857,772.5 398.0,772.5C399.2182390123426,772.5 399.5537291397193,774.4432764622318 399.78603572925067,782.8453452430836C400.00961615376957,790.931805935611 399.79126824004805,793.0946910820492 398.78603572925067,792.7510279197531C397.9516984810359,792.465789455952 397.4594771250006,790.2370933608445 397.38462687547303,786.4056826766696C397.32117165698315,783.1575572045012 397.20867165698314,779.6859423525312 397.13462687547303,778.6909830056251C396.96476831132014,776.4085484760188 395.0,777.5006653216254 395.0,779.8775157669471C395.0,783.2685814362327 391.91061407377606,791.9999863123244 390.71125949461396,791.9986073544877C389.62673605492665,791.997360423745 385.0,782.3111032678243 385.0,780.0418569601968C385.0,779.5404452593806 384.44221912319654,777.8634044748205 383.7604869404368,776.3150996611746C382.6379567326834,773.765683676305 382.4656981673685,774.4437807121692 381.93529001604816,783.5L381.34960615122264,793.5L381.4248030756113,783.081214880075zM406.0456808491281,791.5550420559387C403.7815698661107,788.8269552152354 405.18634891987307,785.6378492326184 408.99322184555285,784.8635836372416C410.91449386060685,784.4728233335335 412.6738688606069,784.3405355272736 412.902944067775,784.5696107344418C413.1320192749432,784.7986859416098 411.89756944444446,785.270486111111 410.15972222222223,785.6180555555555C407.5156637025398,786.1468672594921 407.0,786.7072308683196 407.0,789.0516758367894C407.0,790.8790536574517 407.60857202172843,792.0123881699953 408.75,792.3106744863142C410.2264635222103,792.6965147439589 410.2456024343166,792.7861290709511 408.87244471544216,792.8839986495248C407.9772893089354,792.9477993922861 406.705245569094,792.3497689251724 406.0456808491281,791.5550420559387zM414.75,792.4253724581707C414.3375,792.0080842728435 414.0,788.8166666666666 414.0,785.3333333333333L414.0,779.0L410.5,779.0C407.6666666666667,779.0 407.0,779.3809523809524 407.0,781.0C407.0,782.1 406.55,783.0 406.0,783.0C404.6204571171543,783.0 404.743815845885,780.656184154115 406.2,779.2C406.85999999999996,778.54 408.8961378811787,778.0 410.72475084706366,778.0C413.4122976852267,778.0 414.24519477364606,778.5147118051383 415.07057300379563,780.6856210667595C416.2047932509767,783.6688463922897 415.93300326436037,793.6221076955553 414.75,792.4253724581707zM423.55670396864906,790.7774937565946C421.38607715735066,787.6784898757215 421.6083724697688,782.7974857027103 424.03895514741953,780.1885614466321C426.3199594041435,777.7401907788478 426.852981358964,777.6124899890881 429.0,779.0C430.1702612067832,779.7562808765415 429.8996670076305,779.972740594826 427.7690520282149,779.984687225483C425.73356603951146,779.9961004557238 424.8860382151227,780.6058785708614 424.4409701929001,782.3791708166567C423.35180558884383,786.718748252759 424.3560235570052,790.3811839600467 427.0,791.712087014816C429.3919102392747,792.9161070629594 429.4051708627086,792.9711537703633 427.30670396864906,792.9852581976029C426.10039115140603,792.9933661889213 424.41289115140603,791.9998721904676 423.55670396864906,790.7774937565946zM431.79039029479793,791.7734679528021C430.6646113802637,789.0343659369279 430.9421523816629,771.5421523816628 432.09312935437504,772.6931293543751C432.6465400137848,773.2465400137847 432.9503621786322,778.0091126882114 432.788164000244,783.588164000244C432.6296738001098,789.0396738001098 432.1806756326591,792.723060578761 431.79039029479793,791.7734679528021zM440.2,791.8C439.47043728127,791.0704372812701 439.0676641371121,788.0321965064012 439.1725989154502,784.05L439.3451978309004,777.5L439.9225989154502,783.9761915389445C440.42330656353704,789.5921813955504 440.83206309494005,790.619618906453 443.0,791.7114497365474C445.23590068290554,792.8375089373146 445.2834385599825,792.9720737151843 443.45,792.9852581976029C442.3225,792.9933661889213 440.85999999999996,792.46 440.2,791.8zM448.0,785.5C448.0,780.9171633284072 448.40938362675513,778.0 449.0525215269108,778.0C449.7133046650202,778.0 450.0311599405273,780.7914278624153 449.9065341268426,785.5C449.7973542170041,789.625 449.3237195298942,793.0 448.85401259993176,793.0C448.3843056699693,793.0 448.0,789.625 448.0,785.5zM703.0,790.944832983252C701.7038303424973,790.0955486670731 701.764470332319,789.7602365113164 703.4462534067209,788.4772502501185C705.9590316401549,786.5603205342694 708.1381681924779,788.2906265766205 705.9571428571428,790.4709789969972C704.9357137207243,791.4920929903802 704.0514711698427,791.6337844397938 703.0,790.944832983252zM381.76165916591856,703.2927391331524C383.0055717071738,703.0535459156027 384.8055717071738,703.0626272321139 385.76165916591856,703.3129198365104C386.71774662466333,703.5632124409069 385.7,703.7589159825384 383.5,703.7478165956916C381.3,703.7367172088447 380.51774662466335,703.531932350702 381.76165916591856,703.2927391331524zM392.75,703.3377192982457C393.4375,703.0603070175439 394.5625,703.0603070175439 395.25,703.3377192982457C395.9375,703.6151315789474 395.375,703.8421052631579 394.0,703.8421052631579C392.625,703.8421052631579 392.0625,703.6151315789474 392.75,703.3377192982457zM410.07894736842104,702.4166666666667C410.1269312900389,701.2517236807213 410.3638876676576,701.0147673031026 410.68311403508767,701.8125C410.97198464912276,702.534375 410.9364583333333,703.396875 410.60416666666663,703.7291666666667C410.271875,704.0614583333333 410.03552631578947,703.4708333333334 410.07894736842104,702.4166666666667zM442.5,703.0C442.1600813061875,702.45 442.3585236587188,702.0 442.94098300562507,702.0C443.5234423525313,702.0 444.0,702.45 444.0,703.0C444.0,703.55 443.8015576474687,704.0 443.55901699437493,704.0C443.3164763412812,704.0 442.8399186938125,703.55 442.5,703.0zM448.0,702.5C448.0,701.675 448.176855038117,701.0 448.3930111958157,701.0C448.6091673535143,701.0 449.04504419516184,701.675 449.36162639947696,702.5C449.6782086037921,703.325 449.501353565675,704.0 448.96861520366133,704.0C448.4358768416476,704.0 448.0,703.325 448.0,702.5zM457.0,702.5C457.0,701.675 457.176855038117,701.0 457.3930111958157,701.0C457.6091673535143,701.0 458.04504419516184,701.675 458.36162639947696,702.5C458.6782086037921,703.325 458.501353565675,704.0 457.96861520366133,704.0C457.4358768416476,704.0 457.0,703.325 457.0,702.5zM380.0,699.143519213867C380.0,698.6724547814937 381.34897379732803,698.3349547814937 382.99771954961784,698.393519213867C386.9097143596246,698.5324756024894 386.9117975570099,700.0 383.0,700.0C381.35,700.0 380.0,699.6145836462401 380.0,699.143519213867zM399.5,698.0C399.1600813061875,697.45 399.3585236587188,697.0 399.94098300562507,697.0C400.5234423525313,697.0 401.0,697.45 401.0,698.0C401.0,698.55 400.8015576474687,699.0 400.55901699437493,699.0C400.3164763412812,699.0 399.8399186938125,698.55 399.5,698.0zM334.3170028188423,696.5793460039017C329.0184566888779,694.8962022764867 325.11237113290116,691.8504318810157 322.25512336504437,687.1740949340921C320.47364196100483,684.2584194355628 320.0416681854232,682.1582474270289 320.16246515231364,677.0L320.3146835745386,670.5L320.9096591604339,677.0C321.61725221171025,684.730325314736 323.940545402589,689.006719227436 329.47510814541175,692.7660832660761C332.781807407445,695.0121660859712 334.5976757679525,695.5 339.65158984262655,695.5C344.9229451648408,695.5 346.42539618982386,695.0576012590598 350.15158984262655,692.4082607668192C352.54321542918194,690.7078041885699 355.5579098669251,687.3328041885699 356.85091081538917,684.9082607668192C358.73978848426316,681.3663716970547 359.07066423936243,681.0775768031199 358.5344683633268,683.4388184882705C357.55556564027296,687.7496049353273 353.12734451608475,692.5370391180705 348.0,694.8278328408145C341.4572048203607,697.7510212631446 338.99687207362365,698.0659599519736 334.3170028188423,696.5793460039017zM464.8125,697.3168859649122C465.534375,697.0280153508771 466.396875,697.0635416666667 466.72916666666663,697.3958333333333C467.0614583333333,697.728125 466.4708333333333,697.9644736842106 465.41666666666663,697.921052631579C464.2517236807212,697.8730687099611 464.0147673031026,697.6361123323425 464.8125,697.3168859649122zM337.1549789824704,688.1169440126291C336.16743238842304,687.4910692009566 336.531013762315,687.0835400892898 338.52297780236734,686.5835889403764C341.51088115586697,685.8336729356754 342.55127817576954,686.2989961799739 341.5411185159376,687.9334688436459C340.751802695593,689.2106086688216 338.9964914296382,689.2840345205716 337.1549789824704,688.1169440126291zM331.4458859478588,685.7691009128018C325.4121508860448,682.5763987009559 323.97457414687716,673.5605324261636 328.6191158503435,668.040808228033C332.3730054114089,663.5795639610567 336.5587237727773,661.6774742245116 341.24036342266913,662.3054138710493C345.85578876459806,662.9244723152206 348.47614044438694,665.0565724554922 351.213651955904,670.4203741814124C352.92497929934717,673.7735000111145 353.0516616309668,674.8842029115327 352.08918053280576,678.0966785036562C351.47026331006174,680.1624400811135 349.5230138108241,683.0650146577111 347.7619594233888,684.5468442294289L344.56004235532464,687.2410798143702L343.6815935997469,683.870539907185C343.19844678417917,682.0167429582333 343.0063805972261,678.3625 343.25477985096234,675.75L343.7064148577554,671.0L340.3532074288777,671.0C337.39308981369567,671.0 336.98488365200967,671.3223770108444 336.87105173267616,673.75C336.5875852251099,679.7953150087673 336.2337773253483,681.6092923049927 334.8427015602373,684.1493753787818C333.6378910578854,686.3493409312714 333.06169399402995,686.6240926998258 331.4458859478588,685.7691009128018zM391.0,674.5817874682358C391.0,673.8017705757655 390.708769638674,672.3392705757655 390.35282141927564,671.3317874682358C389.8270734845642,669.8436997797074 389.9554855221236,669.7316089870511 391.0372081284325,670.734386709157C392.5317538055325,672.1198593811013 393.1180715993749,676.0 391.83288103597533,676.0C391.3747964661889,676.0 391.0,675.3618043607061 391.0,674.5817874682358zM414.5,675.0C414.8399186938125,674.45 415.3164763412812,674.0 415.55901699437493,674.0C415.8015576474687,674.0 416.0,674.45 416.0,675.0C416.0,675.55 415.5234423525313,676.0 414.94098300562507,676.0C414.3585236587188,676.0 414.1600813061875,675.55 414.5,675.0zM429.25539667066425,674.75C428.05930598484434,673.239010311766 426.90060364026016,661.1794643174271 427.8926087457421,660.5663714452259C428.27919426213083,660.3274484565392 429.24524426860467,660.5335353047939 430.0393865379061,661.0243422191252C431.09814628335346,661.6786917277318 431.1869439777265,662.2130560222735 430.37229435881954,663.0277056411804C428.813793342369,664.5862066576309 429.8674644617781,673.217460889475 431.8033080547817,674.75C433.2320354681464,675.8810731131244 433.2330122190225,676.0 431.81357435054707,676.0C430.9507976447326,676.0 429.7996176887853,675.4375 429.25539667066425,674.75zM437.0,665.5C437.0,659.5937052729907 437.41234068439957,655.0 437.942502169578,655.0C439.09092998887536,655.0 439.6160333673429,661.3373099255446 439.1646729207948,669.75C438.61469179306897,680.0008334740919 437.0,676.830636233382 437.0,665.5zM446.1697681331144,670.0C446.2026614682069,664.7420483536556 446.2501984628415,664.6435181259678 447.24993854758645,667.761123989904C447.98628837568947,670.0573693611077 447.97610810367513,671.684670996765 447.21553097688655,673.261123989904C446.3042087935015,675.1500272097227 446.1407390261929,674.6402604084168 446.1697681331144,670.0zM382.1949487188963,670.5C382.21532840902603,668.85 382.43944730983105,668.2960643502166 382.6929907206851,669.2690318893704C382.9465341315392,670.2419994285241 382.92985983961483,671.5919994285241 382.65593673863094,672.2690318893704C382.38201363764705,672.9460643502166 382.1745690287665,672.15 382.1949487188963,670.5zM419.07894736842104,671.4166666666667C419.1269312900389,670.2517236807213 419.3638876676576,670.0147673031026 419.68311403508767,670.8125C419.97198464912276,671.534375 419.9364583333333,672.396875 419.60416666666663,672.7291666666667C419.271875,673.0614583333333 419.03552631578947,672.4708333333334 419.07894736842104,671.4166666666667zM321.0037380604375,669.7003400731157C320.9931689783295,667.4393623369336 324.5347947709777,662.6251415041529 328.1184162093778,660.029179490804C332.6387188483687,656.7546891068811 338.9703422521046,655.4603109028113 343.5,656.8847115505745C346.01525344437044,657.675660632128 345.3341516078354,657.8419829447759 339.28479622830616,657.9140472563131C332.6283834521466,657.9933432761245 331.78292415726594,658.2516981004991 328.3680829276488,661.2499684113789C326.33225268671885,663.0374510376373 323.843276511178,665.8499510376373 322.8370247597802,667.4999684113789C321.8307730083824,669.1499857851205 321.0057939936782,670.1401530329022 321.0037380604375,669.7003400731157zM355.03331691084554,665.5622532173616C354.31665052991974,664.2231498354679 352.10881846766813,661.973827841696 350.1270234391753,660.5637598978684C348.1452284106824,659.1536919540408 346.8989470823001,658.0 347.3575093761034,658.0C349.85451117673097,658.0 358.00938659105526,666.3239467422779 356.74807617661725,667.5852571567161C356.5216249613686,667.8117083719646 355.74998329177134,666.9013565992552 355.03331691084554,665.5622532173616zM419.07894736842104,665.4166666666667C419.1269312900389,664.2517236807213 419.3638876676576,664.0147673031026 419.68311403508767,664.8125C419.97198464912276,665.534375 419.9364583333333,666.396875 419.60416666666663,666.7291666666667C419.271875,667.0614583333333 419.03552631578947,666.4708333333334 419.07894736842104,665.4166666666667zM442.75,663.3377192982457C443.4375,663.0603070175439 444.5625,663.0603070175439 445.25,663.3377192982457C445.9375,663.6151315789474 445.375,663.8421052631579 444.0,663.8421052631579C442.625,663.8421052631579 442.0625,663.6151315789474 442.75,663.3377192982457zM673.5,603.0C673.1503343339298,602.4342290675995 673.9778877640458,602.0 675.4057992471371,602.0C678.4885724603395,602.0 680.2357075695,599.1055563278663 679.8099123291156,594.7037942431261C679.5406226928387,591.9199469889704 679.041226948469,591.4140094726919 676.0,590.8439744453733L672.5,590.1879488907465L676.5,590.3439744453733L680.5,590.5L680.7943887592787,596.6217607147291C681.0663874586941,602.2779242062255 680.9142752658367,602.79026433521 678.7943887592787,603.3581060314368C675.5282240954716,604.232994605478 674.2067926856296,604.1436145883486 673.5,603.0zM600.9889395035851,600.9793332734048C599.8784355246213,598.9043376081753 600.390528548594,597.0 602.0590169943749,597.0C602.5765576474687,597.0 603.0,597.9 603.0,599.0C603.0,601.2898823875798 606.7876791139452,601.812320886055 608.8,599.8C610.6981311521321,597.901868847868 610.269296292335,597.1780324477818 605.9373038196378,594.9680147954533C602.8612132924766,593.3987105069457 601.9505443585339,592.386484667278 602.1873038196378,590.7998184759415C602.6663304764236,587.5895754827914 605.2078094832796,586.464611852143 609.1407727221635,587.721925799636L612.5,588.7958242961856L608.25,588.8979121480928C602.7613028770982,589.0297543361037 602.5963524415299,591.2212121917817 607.9149458988247,593.3492913734233C612.858116379396,595.3271560617987 613.1220182842161,595.804524313986 611.4589049236342,599.7599064337809C610.2442199156827,602.6487915065059 609.6615507141714,603.0 606.0834576721509,603.0C603.0801418260144,603.0 601.7982584482106,602.4915595541721 600.9889395035851,600.9793332734048zM615.3450766064072,601.4568719305873C615.0193920159038,600.6081514924103 615.0335151742563,599.6331514924103 615.3764614027459,599.2902052639206C615.7194076312356,598.947259035431 616.0,599.1916666666666 616.0,599.8333333333333C616.0,601.9014484686641 619.0351121145801,601.0729847712387 619.9688379036357,598.75C620.7897236283261,596.7077462037205 620.8790799606196,596.8000778498185 620.9366136995809,599.75C620.9917585837061,602.5774386140504 620.6708721637192,603.0 618.4686152036613,603.0C617.0763535656749,603.0 615.6707611969107,602.3055923687643 615.3450766064072,601.4568719305873zM624.0,600.5C624.0,597.5107521988409 625.5510006564621,597.175021914556 626.2908280844516,600.0041263452492C626.640449761268,601.3410816912212 627.3450735318913,601.8048132686838 628.4074594484126,601.3971375410649C629.9188811687891,600.8171506078692 630.496229647155,598.6400622835763 630.1702334718641,594.75C630.0895737559408,593.7875 630.4682740682573,593.0 631.0117897214564,593.0C632.4172528061399,593.0 632.2401225335755,600.3598774664246 630.8,601.8C630.14,602.46 628.34,603.0 626.8,603.0C624.48,603.0 624.0,602.5714285714286 624.0,600.5zM634.2291666666667,601.8125C634.8472410403314,599.9582768790059 637.0,599.6507398847676 637.0,601.4166666666667C637.0,602.2875 636.2875,603.0 635.4166666666667,603.0C634.5458333333333,603.0 634.0114583333334,602.465625 634.2291666666667,601.8125zM639.5416054142213,600.1894282101601C639.202087599642,598.6436137257482 639.3628088948349,596.2811137257482 639.8987638479831,594.9394282101601C640.7236971365761,592.8743273315694 640.8829539508985,593.3056062000734 640.9366136995809,597.75C641.0067775106019,603.5613504877907 640.4832700852663,604.476799374363 639.5416054142213,600.1894282101601zM643.6361695868188,601.5057435676458C643.9515395835966,600.683902529851 644.6124164252442,600.2604601773197 645.1047847904802,600.5647605620208C646.5167077885116,601.4373769643017 646.148773520718,603.0 644.5313847963387,603.0C643.6393006157479,603.0 643.2878679604642,602.41340305648 643.6361695868188,601.5057435676458zM647.5453439546814,601.7191449633837C647.1146928876622,600.7396746932446 647.018940061351,598.6552996932446 647.3325598962122,597.0872005189392C648.0030841465447,593.7345792672769 647.2203765088677,592.5722143113126 645.3420092742958,594.1311206564046C644.2910213121581,595.0033631937725 644.0,594.7846268545358 644.0,593.1224447154422C644.0,590.5418805254175 645.1229285533731,590.4317359925153 647.7970909177566,592.75C649.5135326806243,594.2380043234463 649.7044087938388,595.173703168281 649.0720478274243,599.0C648.5146709013154,602.3725825591933 648.1321747739648,603.0538295493711 647.5453439546814,601.7191449633837zM654.8361028865735,598.2958123007988C655.0328938701934,595.6581155353595 655.6399478695267,593.05 656.1851117739809,592.5C656.8408885343065,591.8384059083292 657.0618837217215,593.1826100013396 656.8381594364942,596.4721649649898C656.5548097430345,600.638428764299 656.7951321440235,601.5034590335714 658.3208755230132,601.8091385067762C659.507601267145,602.0468965107108 660.3318194727179,601.4471243033616 660.6875068869742,600.0869735417865C661.4222315608413,597.2773820728332 663.2221830073835,597.4150151142659 662.8195509530758,600.25C662.557523988143,602.0949660857657 661.7779866433298,602.5532506729205 658.4891505490868,602.7958123007988L654.4783010981736,603.0916246015976L654.8361028865735,598.2958123007988zM665.6069888041843,601.4182125317642C664.7289746003673,599.1301441935071 664.8589136596877,598.0 666.0,598.0C666.55,598.0 667.0,598.7053244517507 667.0,599.5673876705571C667.0,600.6797004548189 667.580679425829,600.9504748508099 669.0,600.5C670.419320574171,600.0495251491901 671.0,600.3202995451811 671.0,601.4326123294429C671.0,603.5237814539508 666.4102687370946,603.5115264818795 665.6069888041843,601.4182125317642zM684.0702852626104,601.75C684.108942157046,601.0625 684.5273137888714,599.6 685.0,598.5C685.7202090257678,596.8239834171321 685.8708151045565,597.0264730528396 685.9297147373896,599.75C685.9683716318253,601.5375 685.55,603.0 685.0,603.0C684.45,603.0 684.0316283681747,602.4375 684.0702852626104,601.75zM692.5,602.268316433579C689.8104377935134,601.5963550480418 689.0335118527508,600.1776236239724 689.015312774517,595.9049875621121C689.0053474357658,593.5654039211095 689.6984280686511,591.6779064090649 691.0,590.5C692.1341898105194,589.4735723284057 693.0,589.1900248757759 693.0,589.8450124378879C693.0,590.4802555970496 692.55,591.0 692.0,591.0C690.4339499476406,591.0 690.8210807680651,598.6066207952372 692.4561951235,599.9636451814827C694.7535026625037,601.8702410980137 696.0,600.2586820291641 696.0,595.3819660112501C696.0,592.6366100187503 696.3899208905556,591.1229503745371 697.0,591.5C699.3544568861004,592.9551343806562 697.5629251439105,603.4140035774099 695.05,602.8839986495248C694.7475000000001,602.8201979067634 693.6,602.5431409095878 692.5,602.268316433579zM707.6666666666667,602.3333333333333C707.3,601.9666666666666 707.0,599.5567638364752 707.0,596.9779937106855C707.0,592.5687365347981 706.8063201904184,592.2271899091033 703.75,591.2467482292593L700.5,590.2041757038144L704.2309479717851,590.1020878519072C708.3066172425756,589.9905675830411 708.3973744531003,590.1441051496645 709.3427938912134,598.75C709.7798160292581,602.728093125299 709.2321858093893,603.898852476056 707.6666666666667,602.3333333333333zM701.8125,601.3168859649122C702.534375,601.0280153508771 703.396875,601.0635416666667 703.7291666666667,601.3958333333333C704.0614583333333,601.728125 703.4708333333334,601.9644736842106 702.4166666666667,601.921052631579C701.2517236807213,601.8730687099611 701.0147673031026,601.6361123323425 701.8125,601.3168859649122zM661.0,592.3915919701253C661.0,590.1086340561019 660.6880759143856,589.8614719022024 658.5,590.4106439983402C657.0583541631927,590.7724740705434 656.0,590.6066968738013 656.0,590.0190520282149C656.0,589.4585734126968 657.35,589.0 659.0,589.0C661.6666666666666,589.0 662.0,589.3333333333334 662.0,592.0C662.0,593.65 661.775,595.0 661.5,595.0C661.225,595.0 661.0,593.8262163865564 661.0,592.3915919701253zM636.638373600523,592.5C636.9549558048382,591.675 637.3908326464857,591.0 637.6069888041843,591.0C637.8231449618829,591.0 638.0,591.675 638.0,592.5C638.0,593.325 637.5641231583525,594.0 637.0313847963387,594.0C636.498646434325,594.0 636.3217913962079,593.325 636.638373600523,592.5zM614.8724447154422,591.75C615.6272893089354,590.7875 617.2022893089353,590.0522006077139 618.3724447154422,590.1160013504752C620.3932255032839,590.2261810022594 620.3996270531807,590.2566747266372 618.5,590.7236097817138C617.4,590.9939936761335 615.825,591.7292930684197 615.0,592.3576084312385C613.6954331153046,593.3511592378795 613.6788140975481,593.2719946988113 614.8724447154422,591.75zM373.5,585.2996389179164C370.3047713300383,584.5513828543097 369.0,581.9894553619907 369.0,576.4638579270072C369.0,570.8112287531013 370.48599670844493,568.6584047093502 375.19967682780054,567.4821332283418C377.32527562601416,566.9517024008153 378.4642255504688,567.3733164595596 380.55573743386117,569.464828342952C382.0167485119042,570.9258394209951 382.93464195013655,572.3986913831968 382.595500629933,572.7378327034003C382.2563593097295,573.0769740236038 381.0661022206634,572.3747012963311 379.95048487645283,571.1772266427943C377.42827712083925,568.4699544100928 373.4198891124923,568.346912924817 372.03518375848796,570.9342585459107C371.4658326913196,571.9981007461615 371.0,574.5026844005017 371.0,576.5C371.0,581.7647796378836 372.51613604438234,584.0 376.08720326889886,584.0C378.5566888547193,584.0 379.29857335137615,583.4419584541516 380.17625596664215,580.9242364562313C381.3540150494662,577.545714540108 383.6627562910872,578.3364793312659 382.58011500973316,581.7475799561067C382.0187154900718,583.5163932142779 377.92932994337417,586.168888920538 376.20294697887414,585.8839986495248C375.8163261404934,585.8201979067634 374.6,585.5572360275396 373.5,585.2996389179164zM412.83463406071183,585.2660343852255C411.36868279410334,585.0556343929093 409.94156752380184,584.290110698882 409.6632667933752,583.5648706207205C408.825834279088,581.3825564701775 410.9660179065065,573.7462774151643 412.7936027238325,572.3956800920837C415.5892047854951,570.3297115936126 416.1436641259258,572.326990793402 414.00396468654367,576.7556585360607C411.03028164481407,582.9104735168047 411.31206385861,584.0 415.87755528455784,584.0C420.91234823335253,584.0 422.40906359892614,582.1523520965459 421.76182017641906,576.7360606158747C421.32283581308076,573.0625319485812 422.43128132851444,565.7796785904501 423.015343212732,568.5C423.66071520890085,571.5058788387707 422.6674293500812,582.6640169961427 421.6688558149019,583.6258495011718C420.19945822212793,585.0411827918621 416.3053678104045,585.7641698764253 412.83463406071183,585.2660343852255zM299.6431341947708,584.2315959920916C299.38193930808234,583.8089737877418 300.9693951616115,583.634960286744 303.1708138692801,583.8448993232073C305.3722325769487,584.0548383596706 307.57542834304843,583.8245716569515 308.06680446061284,583.3331955393871C309.28692203176206,582.1130779682379 307.2369707919182,575.0 305.66522182590717,575.0C304.9827981831925,575.0 302.86644996398013,573.6931544626586 300.96222578321294,572.0958988059081L297.5,569.191797611816L299.59934159298484,566.3458988059081C301.14452012536293,564.2512317184251 302.69713282351586,563.4159991107105 305.48112016454786,563.181778571563C307.5614605027659,563.0067567859226 309.6425301104401,563.24253011044 310.1057192927127,563.7057192927127C310.5689084749854,564.1689084749854 309.08110683256723,564.3698558529393 306.7994934206723,564.1522690214989C303.63735608884576,563.8507107298864 302.33596437138436,564.1876376365979 301.3255526995226,565.569457935454C299.3965835829641,568.2074803923954 299.62335450476075,568.7274354033875 303.50651862824213,570.5701174311977C306.35233738522714,571.9205468519351 307.29875306702405,571.9969464071627 308.529410810689,570.9755911950797C309.7949166527548,569.9253146300729 309.9414484755128,569.9890078904957 309.4151245559342,571.3605860390268C309.0682616610065,572.2644962538617 309.48014359858655,574.7427317685671 310.33041775055653,576.8677760717054C311.7047294605394,580.3025191639996 311.710398864636,580.9684510517978 310.38148140842014,582.8657464932512C309.2417721875647,584.4929093386162 307.844903739585,585.0 304.5023130257259,585.0C302.09095955538913,585.0 299.9043290814593,584.6542181964412 299.6431341947708,584.2315959920916zM315.6881113588869,580.5861118932576C313.7437831913301,575.8576365053357 313.7103548696793,567.9147411996312 315.63212698347377,567.2836781873025C316.40508118677366,567.0298589105917 316.6103290089253,568.2775335313403 316.27907633649727,571.2163985456255C316.0122286397496,573.5838643063264 316.29981576825793,577.399714278848 316.91815884429343,579.696065151229C317.83807156510346,583.1123601835762 318.5384085442207,583.9465967045642 320.77120949126993,584.2857921865995C323.4881411741732,584.6985342866318 323.4869625471921,584.7009706708403 320.5,584.8464195371544C317.8456377121681,584.9756725758023 317.2912476517941,584.4848315800793 315.6881113588869,580.5861118932576zM325.7255422468074,581.0095683302368C326.05715142221106,578.5372373149905 325.78415065455647,576.4448437368443 325.0079410087886,575.5095683302368C323.984518133562,574.2764192048968 324.0326078573506,574.0 325.2705664803735,574.0C327.18779390735085,574.0 328.0,576.1073497072515 328.0,581.0817874682358C328.0,583.7800214561037 327.56258654013914,585.0 326.59515652257664,585.0C325.5339817948166,585.0 325.32124688473885,584.0238153327373 325.7255422468074,581.0095683302368zM332.52903373582967,580.75C332.96059133442844,578.4125 333.40017331314453,575.15 333.50588257742106,573.5C333.806104568731,568.8138801120987 334.11099811658016,568.2992326679621 334.9495141998758,571.0632107336739C335.8628183108538,574.0737105682698 334.10313229221197,585.0 332.7049852250628,585.0C332.1184499006632,585.0 332.0499329154496,583.3450143648838 332.52903373582967,580.75zM340.21725977632366,584.3676258875214C341.20685174274297,584.0785359636558 342.15191723236853,582.5172128066439 342.447567245248,580.6829810277584C342.7297434761784,578.9323414624913 343.1461780238616,576.375 343.3729773512107,575.0C343.59977667855975,573.625 343.7211383175438,575.2 343.6426698822863,578.5C343.5085148220087,584.1419080801529 343.35079503339705,584.5110199720538 341.0,584.684644859763C339.62267795225716,584.7863710343047 339.2711718756707,584.6440069500716 340.21725977632366,584.3676258875214zM349.56791709935635,582.25C348.68713597926376,578.1515651478513 349.3509658010654,568.0013767561057 350.5,567.9981289216844C351.1100136709005,567.9964046706571 351.37365045603457,571.0892481101548 351.1760154535233,575.9287747128822L350.8520309070465,583.8622470817609L354.1760154535233,584.2710864682865L357.5,584.6799258548123L353.8294552658191,584.8399629274061C350.58094675240994,584.9815990687508 350.0909585918788,584.6838072571859 349.56791709935635,582.25zM363.0,578.0817874682358C363.0,574.2767705757655 362.70329271563867,570.3903681476451 362.34065047919705,569.4453376279682C361.87912364097497,568.2426179667133 362.1010185553333,567.8670061851112 363.0802335418772,568.1934111806258C363.99450394284133,568.4981679809472 364.38367275455647,569.844634053776 364.2035333387669,572.0798610208934C364.0519353061404,573.9609374594021 364.33602552667884,577.6375 364.8348449399633,580.25C365.5599779217868,584.0477870639395 365.46697172082287,585.0 364.3708946638767,585.0C363.34180667888563,585.0 363.0,583.2750744374333 363.0,578.0817874682358zM439.29555101808097,583.6745777351337C439.5221159142412,583.0285599808102 440.5608025745113,582.6541392630601 441.6037435964589,582.8425316956891C442.6466846184065,583.0309241283181 443.95,583.2559241283182 444.5,583.3425316956891C445.0581494644362,583.4304225454059 445.5539472482149,580.9422330502567 445.6220938844084,577.711239448925C445.7353605111451,572.3410001139766 447.0,567.9250298918105 447.0,572.8997556790306C447.0,574.7458945642026 447.4765205703337,575.0780149617079 449.75,574.8164223456972C452.06944915725825,574.5495403300372 452.47003614609383,574.065881003296 452.3086158705039,571.7272096058766C452.2033545992811,570.2021748891087 452.5408545992811,569.2162325365775 453.0586158705039,569.5362266002516C453.57637714172677,569.8562206639256 454.0,571.698680821275 454.0,573.6305825054724C454.0,576.6605606625722 453.690884466369,577.1180917748609 451.75,576.9608745505125C447.5641394856819,576.621807809048 447.0,576.9827532128369 447.0,580.0C447.0,582.6737514998642 447.32975286621615,583.0 450.03222420405484,583.0C452.22800033429667,583.0 453.32707155214973,582.3793308016068 454.0164886827355,580.75C454.8858853837747,578.6953153091584 454.94819320665977,578.7604204122113 454.73426447868064,581.5L454.5,584.5L446.6918074216221,584.6745777351337C441.08409328880896,584.799956562917 438.99970530394654,584.5181399423001 439.29555101808097,583.6745777351337zM467.93708907651194,583.5758030254664C468.66565584003797,582.6979337800726 468.86766919595397,580.81153743387 468.46370853030373,578.6582419614094C468.0989635398173,576.713984009084 468.2808004763291,574.3522965522855 468.8737660524489,573.332438935943C469.7049732090705,571.9028231478123 469.94586733803254,572.9838454883266 469.96959131409926,578.25C469.99469418501553,583.822236144569 469.7169101121063,585.0 468.37755528455784,585.0C467.0871445820706,585.0 466.9970029820293,584.7085374729925 467.93708907651194,583.5758030254664zM477.64161572065973,582.7082193054614C477.32525553416053,581.4477399234651 476.7665761505062,577.8652746667282 476.4001059792057,574.7471854016015C475.82186016596205,569.8272159086389 475.38793104526525,568.9510501544669 473.11689828842054,568.1179134645613L470.5,567.1578947368421L473.0,567.0942601429381C476.9321202054845,566.994172593955 477.7469047949976,568.086542462574 478.52384579877275,574.5C479.42257366722947,581.9187782521981 480.62591684705524,584.555350873133 482.42985306081493,583.0582167888002C483.18830513711515,582.4287574730546 483.5053319488653,580.8563025349619 483.19891796556817,579.2436501263878C482.7309699130493,576.7808462234399 482.847651190457,576.6404865407235 484.33880369230405,577.8724447154422C487.7380747076921,580.6808494294496 485.65932613387236,585.0 480.90840802987464,585.0C478.9365776996233,585.0 478.0630010893101,584.387152343579 477.64161572065973,582.7082193054614zM387.615595158822,583.2822618254886C386.4010397146202,582.0677063812868 387.0499236482271,581.121578473256 390.16233035568723,579.5689055234998C391.90161205131517,578.7012375434975 393.42514106350757,578.1057787179818 393.54795038278144,578.2456636890206C394.0683972500034,578.8384745227502 388.1751787367794,583.8418454034461 387.615595158822,583.2822618254886zM428.01531277451704,579.25C428.0264489784418,575.795566018528 428.29730061139924,574.9091261111141 429.0083499784488,576.0C430.1409735684654,577.7376423600688 429.97444421115546,584.0 428.79561302935076,584.0C428.35802586320784,584.0 428.00689074853267,581.8625 428.01531277451704,579.25zM433.7044119214046,580.25C434.5056823593299,575.0574722255798 435.0,574.8984975583878 435.0,579.8333333333333C435.0,582.125 434.5782917548737,584.0 434.06287056638604,584.0C433.54375730289746,584.0 433.38386315749045,582.3272741397898 433.7044119214046,580.25zM463.08121888044815,579.25L463.1624377608963,574.5L464.5361149579568,577.5C466.35750173289324,581.4777615414318 466.343487804295,584.0 464.5,584.0C463.36579384134063,584.0 463.019806244179,582.8416528357548 463.08121888044815,579.25zM458.66666666666663,582.3333333333333C458.3,581.9666666666666 458.0,578.5166666666667 458.0,574.6666666666667C458.0,565.5945550556373 459.20307549904015,566.724936771944 459.37146523374867,575.955263455494C459.4421593551869,579.8303799322255 459.4625,583.0007205770386 459.41666666666663,583.000464888412C459.37083333333334,583.0002091997854 459.0333333333333,582.7 458.66666666666663,582.3333333333333zM439.01531277451704,576.75C439.0237348005015,576.0625 439.4668440519688,574.825 440.0,574.0C440.7553848499869,572.8311252954403 440.9727547489565,573.1070630416407 440.98468722548296,575.25C440.99310925146733,576.7625 440.55,578.0 440.0,578.0C439.45,578.0 439.00689074853267,577.4375 439.01531277451704,576.75zM404.0,572.1069888041843C404.0,571.6158326464857 404.7386495927424,570.9305311643847 405.6414435394274,570.5840966217374C407.0139156121966,570.0574296712427 407.07578286269467,570.2037609493594 406.01899882398527,571.4771078175531C404.57887320501743,573.2123530327987 404.0,573.39294809862 404.0,572.1069888041843zM400.0,570.4409830056251C400.0,569.5835236587188 400.45,569.1600813061875 401.0,569.5C401.55,569.8399186938125 402.0,570.5414763412812 402.0,571.0590169943749C402.0,571.5765576474687 401.55,572.0 401.0,572.0C400.45,572.0 400.0,571.2984423525313 400.0,570.4409830056251zM464.66752203348324,571.25C463.5069223821226,569.4032194736708 464.7808349461007,568.0 467.6180339887499,568.0C468.9930339887499,568.0 469.8520650862419,568.4303467242084 469.5269919831766,568.9563260537966C469.20191888011124,569.4823053833846 468.314720311094,569.6742639170362 467.55543960758274,569.3829005730222C466.7460961734632,569.0723263567537 466.0256013017985,569.6075659318805 465.8140036466393,570.6765745192257C465.55248061561775,571.9978101715789 465.23672797824963,572.1557373514054 464.66752203348324,571.25zM435.0,569.0C435.0,568.45 435.45,568.0 436.0,568.0C436.55,568.0 437.0,568.45 437.0,569.0C437.0,569.55 436.55,570.0 436.0,570.0C435.45,570.0 435.0,569.55 435.0,569.0zM447.75,568.3377192982457C448.4375,568.0603070175439 449.5625,568.0603070175439 450.25,568.3377192982457C450.9375,568.6151315789474 450.375,568.8421052631579 449.0,568.8421052631579C447.625,568.8421052631579 447.0625,568.6151315789474 447.75,568.3377192982457zM414.11600135047524,565.8333333333333C414.05220060771387,564.9166666666666 413.4375,563.9657738095237 412.75,563.7202380952381C412.0625,563.4747023809524 411.79207619371863,562.9576261872337 412.1490582082637,562.5711798869745C412.98867853935747,561.6622596687184 420.7178542266561,563.7344615545724 421.5579135084071,565.0937060250105C422.68352174619093,566.9149784117616 421.1572817146675,567.3001388575248 419.4761904761905,565.6190476190477C417.35910429760276,563.5019614404599 415.26180576181054,563.559336411131 414.68932551368573,565.75C414.28698147567957,567.2896171957822 414.218057164147,567.2996354245545 414.11600135047524,565.8333333333333zM622.4990749524934,506.00149675830687C622.8550795673938,505.4254691912463 622.1396094955267,505.1081374663766 620.8080919468684,505.25149675830687C619.1462267272645,505.4304232932263 618.5383843448727,505.013042760174 618.6370952230056,503.76076199529984C618.7124975956586,502.8041810927147 618.4156065239213,502.24314104227045 617.9773372858112,502.5140063276459C616.8141678761626,503.232884557483 614.2343078610478,502.0529797892353 613.6521367324699,500.53586614693234C613.3023761246847,499.6244046134355 613.7823453945485,499.3918271467241 615.2311898260757,499.7707084766971C616.646841079236,500.1409095955364 617.0838862064822,499.9447477276505 616.5973548968772,499.15752353211843C616.2038910097823,498.5208855894533 616.4066686206017,498.0 617.0479718098094,498.0C617.689274999017,498.0 617.9982378151637,498.5625 617.7345558456911,499.25C617.4342233614464,500.0330591652939 618.2293841006136,500.559351272421 619.8632000979861,500.658883278163C622.3938833594553,500.8130524020525 622.412351287768,500.7728954675308 620.4856330564793,499.30545591288995C618.5450750070282,497.82747558675976 618.5510762879791,497.80837315476543 620.75,498.4639603052841C623.0055502866846,499.1364301036747 623.9259613015986,497.69030954540494 622.0,496.5C621.45,496.1600813061875 621.0068907485327,495.3460236587188 621.015312774517,494.69098300562507C621.0253804252627,493.90795045124617 621.329616675917,493.97204935232804 621.903509375642,494.87811529493746C622.949232909761,496.529111169435 625.3219973690907,495.37720815210446 624.3696074992599,493.6809016994375C623.898189475795,492.84125665444236 624.0877779203865,492.85324110349893 625.0256688932208,493.7223732900233C626.6925478343609,495.26704978307725 627.0204218337083,500.04814461849327 625.5890206526409,501.93723080494476C624.7184591811678,503.086150948346 624.85105263258,503.2428979139533 626.25,502.71861560128343C627.4391721524764,502.27295056714223 628.0,502.55233455121015 628.0,503.59040179071366C628.0,504.5021094422093 627.5282935306756,504.8265033579942 626.8300612557022,504.3949720800184C626.0434066406124,503.90879279048596 625.8693194416613,504.21706863284817 626.2986764593634,505.3359550856435C626.6498811307409,506.25117978853956 626.5388535656749,507.0 626.0519485369946,507.0C625.5650435083143,507.0 624.9396929824561,506.4375 624.6622807017543,505.75C624.2587719298245,504.75 624.1421052631579,504.75 624.078947368421,505.75C624.0355263157894,506.4375 623.5234423525313,507.0 622.9409830056251,507.0C622.3585236587188,507.0 622.1596650348097,506.5506735412381 622.4990749524934,506.00149675830687zM632.3333333333334,503.40465920278956C632.3333333333334,502.6320966412553 632.9333333333334,502.0 633.6666666666667,502.0C634.4,502.0 635.0,502.40185503811705 635.0,502.8930111958157C635.0,503.3841673535143 634.4,504.0162639947696 633.6666666666667,504.2976703986052C632.9333333333334,504.57907680244085 632.3333333333334,504.1772217643238 632.3333333333334,503.40465920278956zM618.1491197280666,494.3333543709135C617.4061355785033,493.52764443270445 617.0045102668389,492.6621563998278 617.256619035479,492.4100476311876C617.5087278041192,492.15793886254744 618.2932492381536,492.64841742851297 619.0,493.5C620.6691616255861,495.5112167203479 619.915739912401,496.24911992310655 618.1491197280666,494.3333543709135zM595.6111954462531,483.57082513472676C596.3618546374234,481.6146386394835 594.2014597716205,478.77917515316165 592.6366931696398,479.6668663127439C592.0115119263379,480.02153125901333 595.55,476.08219157304296 600.5,470.9127781216987C605.45,465.74336467035437 609.8375,461.55572954469494 610.25,461.60692228689993C610.6625,461.658115029105 611.9,461.7675 613.0,461.85C614.1,461.9325 615.0,462.43874999999997 615.0,462.975C615.0,463.5116515842094 613.7295081954113,463.69590163908225 612.1740983545252,463.384819670905C609.855198684623,462.9210397369246 609.0079441252478,463.32920309118526 607.4517142833975,465.65981967090505C606.4086489492882,467.2219188519073 605.6664541550857,468.87094839600144 605.8023925185029,469.324329768892C605.93833088192,469.7777111417826 605.6208020881305,469.8836767907516 605.0967729767485,469.5598089888231C604.5727438653664,469.23594118689454 603.8541960258295,469.88402714192415 603.5,471.0C603.1458039741705,472.11597285807585 602.4384055999674,472.77094956163813 601.9280036128822,472.45550378569396C601.417601625797,472.14005800974985 601.0,472.5569660112501 601.0,473.3819660112501C601.0,474.2069660112501 600.4804711762656,475.2030524824532 599.8454915028126,475.5954915028125C599.1301921582291,476.0375708098956 598.9624291901044,475.86980784177086 599.4045084971874,475.15450849718746C599.7969475175468,474.51952882373433 599.6414763412812,474.0 599.0590169943749,474.0C598.4765576474687,474.0 597.9634945800419,474.5625 597.9188768445376,475.25C597.8742591090333,475.9375 597.7617591090334,478.2604647086861 597.6688768445376,480.41214379708015C597.5759945800419,482.56382288547417 596.9371939049222,484.5139249171668 596.2493197887159,484.74570386750815C595.4513580074453,485.0145768192852 595.2203711829424,484.58929683918944 595.6111954462531,483.57082513472676zM651.5884577962747,483.63007850076076C651.8995097472907,482.8194901098454 651.6445304691017,481.10861810543605 651.021837178077,479.82814071318455C649.9419301969538,477.6074704490373 649.9614563511878,477.58960544023086 651.4448337790159,479.44112963510486C653.2261594757443,481.66454733350713 653.4440861891314,483.60750565243245 652.0114543972137,484.4929207932013C651.4558679280101,484.8362921148586 651.2706056180724,484.4583879996609 651.5884577962747,483.63007850076076zM597.0,477.83333333333337C597.0,477.375 596.5765576474687,477.0 596.0590169943749,477.0C595.5414763412812,477.0 594.8862712429686,477.375 594.6030056647917,477.83333333333337C594.3197400866146,478.2916666666667 594.7431824391459,478.6666666666667 595.5439886704166,478.6666666666667C596.3447949016875,478.6666666666667 597.0,478.2916666666667 597.0,477.83333333333337zM643.5487570647639,466.04950140438916C639.5712689860977,462.0112918282239 637.9196562463405,461.0299348935321 634.5863489085958,460.7242086260792L630.5,460.34941444338L635.0,460.28257705465535C639.2035649544536,460.22014254245755 639.8228354263322,460.5709432996323 644.4007681120052,465.6078698329653C650.540286040576,472.3629496647577 650.0285410456726,472.62820766463847 643.5487570647639,466.04950140438916zM619.5,462.0348195256226C621.3930002932005,461.1884127156451 629.8021529115044,460.5898408483488 628.9166666666667,461.36453180387224C628.6875,461.565024296002 626.025,461.9990647143575 623.0,462.3290660668845C619.4081602733145,462.7209047339477 618.1938764630235,462.61881935929387 619.5,462.0348195256226zM388.9374751910907,454.33554728997683C387.8678739733586,451.522282891914 388.41294387870397,445.5679107463106 389.9708221852559,443.04721069597343C390.49089584227545,442.20571384226224 390.6132907013614,444.1731436520271 390.2737887568643,447.9172311265396C389.68023836659705,454.4630097817495 390.40007175796,455.9502178472461 394.17857142857144,455.98468722548296C397.6656527536172,456.016498138706 398.99932257326174,453.17471797867654 399.01531277451704,445.67857142857144C399.02598690016913,440.67458124080224 399.3242749913164,438.9543901100184 400.0,440.0C401.2739971185909,441.971369965427 401.2672499860576,449.93556211605585 399.98847764576124,453.60077673477343C399.10002665463117,456.14725311535346 398.4297151233229,456.53536696540954 394.4791935922226,456.79068074984866C390.3772005531371,457.05578381492677 389.88957168048205,456.8397508311847 388.9374751910907,454.33554728997683zM427.17431402670945,454.68554877863244C424.86593741366374,452.2283944734995 424.2579081223838,446.6956949544323 426.0,444.0C426.7838742160732,442.78704114500005 426.97230471518617,442.93056171750004 426.98468722548296,444.75C426.9985115413539,446.7812916300644 427.4860185998569,447.0 432.0,447.0C435.8710831698123,447.0 437.0,446.6464816241512 437.0,445.43425854591067C437.0,442.1246424297058 434.959667656555,440.0006323188755 431.71481624151204,439.93231971879277C428.73835065599627,439.86965734163095 428.6613949818198,439.7866059716986 430.6768566429328,438.8121428440012C435.25144855190285,436.60035622182716 441.930925484985,444.9850311899704 437.75,447.69098300562507C437.0625,448.1359423525313 434.25,448.5 431.5,448.5C426.7473034928892,448.5 426.5159566100259,448.6236517464446 426.8226119016655,451.0C427.2571318302457,454.36720318079625 429.8868061961388,456.24394705122216 433.25,455.58709312941903C434.7625,455.2916919082386 436.0,455.48875 436.0,456.025C436.0,458.03656499262456 429.37832476687913,457.03161070291327 427.17431402670945,454.68554877863244zM444.2,455.8C443.54,455.14000000000004 443.03045612654324,453.90250000000003 443.06768028120723,453.05C443.11324289194255,452.00653437929043 443.48230014966555,452.21808413489646 444.1969989866265,453.697344256571C444.93133403949804,455.21724677142555 446.3748942900535,456.0132461777031 448.8793187054192,456.27924114291596L452.5,456.6637937726899L448.95,456.83189688634496C446.9975,456.92435359885525 444.85999999999996,456.46 444.2,455.8zM407.0,446.8C407.0,441.2015779648521 407.3587585255421,437.97190207245757 407.9164256520886,438.55C409.1088686496463,439.7861295704655 409.26085452820615,441.1390179494388 409.11848261840305,449.25C408.9351531278012,459.69435106382406 407.0,457.45636944342874 407.0,446.8zM417.7944463133001,448.7815476620808C417.52411150588233,442.0962685601972 417.3157528697601,441.4738327350802 415.25,441.1804490469242C412.4967087963283,440.78941934548925 412.2450074251758,439.0 414.94329603135094,439.0C418.0895880862755,439.0 420.0,442.8397444396069 420.0,449.1634892490305C420.0,457.69924573441847 418.14204357523994,457.37749848807596 417.7944463133001,448.7815476620808zM375.9990056690476,447.9947302472412C375.27201594577275,444.14183188322386 374.93015773049933,440.7365089361673 375.2393207462178,440.42734592044883C375.5484837619363,440.11818290473036 376.11435611492874,441.80805429347186 376.4968148639788,444.18261567320764C376.8792736130289,446.5571770529434 377.8426527700715,449.525210536172 378.6376574351847,450.77824563593776C380.01984558302564,452.9567614858775 379.7603015175659,455.0 378.1013855885805,455.0C377.6720663561122,455.0 376.72599539232243,451.84762861125853 375.9990056690476,447.9947302472412zM453.0,451.9785612088502C453.0,450.7241243918561 451.9565573599542,449.51245547018766 450.25,448.7851997276267C446.0918565066304,447.0131914700043 444.0,444.9246192484631 444.0,442.54501243788786C444.0,439.6346559535245 445.84900230570514,438.0 449.14098300562506,438.0C453.1114670873136,438.0 453.632553115679,439.81319797336033 449.7689842253933,440.18522561912397C447.3596056634591,440.41722754780795 446.42255533080095,441.04141414959213 446.20548658214534,442.5589374752366C445.97965681610947,444.137708899989 446.9124992287795,445.070551312659 450.20548658214534,446.5589374752366C453.5527639351839,448.07186199026074 454.56979292608844,449.1065644520784 454.8164223456972,451.25C454.9904546358307,452.7625 454.65295463583067,454.0 454.0664223456972,454.0C453.47989005556377,454.0 453.0,453.0903525439826 453.0,451.9785612088502zM380.0485047372858,449.5C380.02907525805153,448.4 380.9072481262729,446.15 382.0,444.5C384.53380960585235,440.6740757895963 384.53380960585235,443.3718414644915 382.0,448.0C380.55964826292495,450.63089072307616 380.07505893815414,451.0033661274721 380.0485047372858,449.5zM375.4218685277862,402.8417565576133C373.9214950981099,400.45379045092596 371.86278554903583,397.28072162835986 370.8469584187328,395.7904925074663C368.63065150700953,392.5391468777209 368.56768346242364,392.0 370.40425920062467,392.0C371.8320570801094,392.0 379.5637560092653,405.76957732406794 378.6493836216375,406.68394971169585C378.3746237496956,406.9587095836377 376.9222419574625,405.22972266430054 375.4218685277862,402.8417565576133zM387.2518078764607,405.46381969404047C384.6466581106684,403.6391017696849 382.4895973413536,397.169742181642 383.34712633449965,393.753074530489C385.2090566026586,386.33455344634143 392.1772472647284,383.6546196472516 397.28828502477256,388.3913695794595C405.99394041127704,396.45949869488516 396.77798273102195,412.13621228962575 387.2518078764607,405.46381969404047zM409.5,406.0C407.9510387633857,405.3343885289816 408.4584573721947,405.12471983625477 411.75,405.07028526261035C414.0875,405.03162836817467 416.0,405.45 416.0,406.0C416.0,407.1983715291461 412.28876060063897,407.1983715291461 409.5,406.0zM430.0,398.62244471544216C430.0,389.5834846240245 428.8710584245017,387.2774445026775 424.9481755411091,388.30330142136796C423.25546154654506,388.74595607466875 423.0971775585306,388.58783449245135 424.06529390491414,387.4213256575713C425.6872886393869,385.46694156421387 428.364821486197,385.64065429935874 430.34501243788793,387.82874067158406C431.61715869207865,389.2344464596523 432.0,391.6633672716274 432.0,398.32874067158406C432.0,403.4429135571947 431.58978433142363,407.0 431.0,407.0C430.412911043539,407.0 430.0,403.5408149051474 430.0,398.62244471544216zM441.25,405.96883790363574C440.0125,405.47142368109644 439.0,404.37494751628503 439.0,403.53222420405484C439.0,401.60683070762667 439.95090499803746,401.57222964519025 441.3897574013846,403.44526688947155C443.408215044767,406.0728097376918 447.610939401272,406.389060598728 449.9133417950501,404.0866582049499C451.0610038077726,402.9389961922274 452.0,401.5371362945608 452.0,400.9714139879129C452.0,400.40569168126495 449.3,398.77187099823016 446.0,397.3407013589467C440.8331382622323,395.09989661668345 440.0,394.3710154537166 440.0,392.0915282312076C440.0,386.5826815295884 447.87961367708425,383.9466493471668 452.23037488911916,388.0C454.05096929586955,389.696141701993 454.1205811896374,390.0 452.68856144663215,390.0C451.75985265098444,390.0 451.0,389.55 451.0,389.0C451.0,387.27519131886703 443.2869467740408,387.8098454023664 442.6069888041843,389.5817874682358C441.37922598111385,392.7812860983769 442.09907081957056,393.7678160034124 446.57605278795893,395.021293464261C452.0936526246797,396.566125916602 454.490426363423,399.5798815889136 453.1031723308903,403.2286362052073C451.68949474456696,406.9468900347747 446.6066305180422,408.1219402911611 441.25,405.96883790363574zM360.2852121499012,393.75C360.8538320768249,376.31501593908064 360.95062399889696,376.04321530418366 366.60077673477343,376.01531277451704C373.21231722424596,375.98266255897903 379.0,380.30228107053074 379.0,385.2694333648352C379.0,387.1194791716492 375.2093454416513,392.0 373.77243228885504,392.0C373.17710821166145,392.0 373.39970935302813,391.2125 374.2671014918921,390.25C379.2153991301483,384.7591311490794 376.5175692631027,379.4482519215937 368.25,378.4048871137828L363.0,377.74233865888766L363.0,391.87116932944383C363.0,403.993942474906 362.77891032498115,406.0 361.44284695614454,406.0C360.0963100980103,406.0 359.93973163688133,404.3430991030288 360.2852121499012,393.75zM418.08717105263156,405.34375C418.169490131579,404.8796875 418.18355263157895,401.45809563565723 418.11842105263156,397.74021252368277C418.02331211012705,392.31114206584726 417.6062843622987,390.6433152093361 416.0,389.267971663509C414.9,388.3261223023879 414.0,387.20552666673063 414.0,386.77775913982623C414.0,385.35758375474256 416.9735927198319,385.97341931689635 418.75,387.7614913438773C420.9526230115874,389.9785778402979 421.3450237994036,405.04320869940085 419.21875,405.7572394016296C418.5140625,405.99388273073333 418.0048519736842,405.8078125 418.08717105263156,405.34375zM395.9100947556375,404.0767262307034C396.7324844383511,403.55611959508434 397.5095148510799,400.9010633079589 397.77444230075673,397.70638655033974C398.1567169863468,393.0966563975359 397.8936685790322,391.8936685790322 396.11434754511924,390.11434754511924C394.93869387476803,388.93869387476803 392.71869433383677,388.0 391.11394144287027,388.0C385.56032495265856,388.0 383.2269842306282,398.2783707221354 387.66686411684805,403.18438277367994C389.4106503526042,405.1112448751727 393.5654153812782,405.56100511497004 395.9100947556375,404.0767262307034zM602.7374145900662,401.594557447209C601.056612677524,399.9137555346668 599.4584275154257,389.2817043042226 600.4275771671878,386.2281841405029C600.8008876904814,385.051986833788 600.2291681738384,383.28976351401315 598.9443393073853,381.65636829509697C596.4562428446816,378.49326621006827 596.7148988815078,375.8508862119106 599.638659513508,374.5633274850435C601.8147837674214,373.60501108143393 602.9705377727845,368.5406426712202 602.9913079047749,359.87244471544216C603.0022677394745,355.2984720134895 604.8607831868823,353.64853702269335 607.2135254915625,356.12408494532974C608.1939580006629,357.1556928933658 608.514828474755,358.1818185042252 607.9635254915625,358.5225424859374C606.4192338899628,359.4769671842669 606.8538489618062,360.99331382287943 608.4915705975304,360.36486106470716C609.9594963468681,359.8015651016813 610.8075261896544,361.0154492385871 611.5005112898207,364.6719092261974C611.691067680362,365.67735915178883 611.9499490099804,366.725 612.0758031334171,367.0C612.3317180452708,367.5591918551259 612.709732454464,369.0945212990795 612.8846502524808,370.28518375848796C612.9480926136164,370.71703482565636 613.9,370.5887021343368 615.0,370.0C616.5878737754966,369.1501957448252 617.0,369.23950997736534 617.0,370.4334314451733C617.0,371.35929897057076 617.5764714412948,371.7160175593107 618.5,371.36162639947696C619.325,371.04504419516184 620.0,371.28416735351425 620.0,371.8930111958157C620.0,372.50185503811707 619.4375,373.00689074853267 618.75,373.01531277451704C617.9155229553529,373.02553530157655 617.995848790345,373.3441115037231 618.9916407864998,373.9736719880172C621.0920279301307,375.3015805798268 622.3925866755205,373.6020720050528 621.1099885401761,371.2055154672236C620.1668829876104,369.4433066228631 620.2931828407058,369.2639082653452 622.1373891186402,369.7461790406775C624.2153304639802,370.28957290919556 624.2187491574806,370.2619313064596 622.4278073816688,367.39802286552606L620.6155321905537,364.5L623.9010131688906,367.5C625.7080277069759,369.15 628.2574001547162,372.5985973745182 629.5662852749801,375.1635497211515C632.4152960659444,380.74660418539224 636.1837475203608,382.4272120014743 645.9519927360486,382.47104680959944C652.0000425546477,382.49818731410926 652.4408429718791,382.656518665618 652.9926932092287,385.0C653.3951121927682,386.70890816511195 654.6417171172642,387.846876453047 656.9322008286963,388.5961952764185L660.2830007110322,389.69239055283697L656.3915003555161,390.3351896125374C654.2511751599823,390.68872909537265 649.2621560359013,390.9829412209843 645.3047911908917,390.98899433611894L638.1095823817834,391.0L637.8047911908917,395.6718307573574C637.6371560359013,398.24133767390396 636.9897321428572,400.51142695961823 636.3660714285713,400.7164736145003C634.4562496217571,401.34438325180435 632.2183319129477,398.25176989709024 631.4982309322361,393.989528978277C630.8980118518377,390.43686290330874 630.2419924748386,389.64544826502816 626.1569849755456,387.5459079740957C623.5956432389955,386.22947460753164 620.776473731475,383.8431043906748 619.8921638477221,382.24286304774716C618.4770597907491,379.68210006395816 617.7305997621628,379.3333333333333 613.6649424900465,379.3333333333333C609.3176258190899,379.3333333333333 609.0802411371986,379.4715248090403 609.6344459470736,381.6796526521192C609.9583347114072,382.97012827745147 609.6898591395833,384.6687705882121 609.0378335652427,385.45441334269844C608.3858079909022,386.2400560971847 607.4021343165718,390.1717124037311 606.8518920667309,394.19142735724586C605.7263161370214,402.4141590672846 604.9513691145913,403.80851197173416 602.7374145900662,401.594557447209zM406.66666666666663,400.33333333333337C405.60903791327553,399.2757045799422 405.8933121061375,389.1839707333451 407.0,388.5C407.62784316495623,388.11197158445276 408.0,390.3229490168751 408.0,394.44098300562507C408.0,401.04525303348095 407.88533244052996,401.5519991071966 406.66666666666663,400.33333333333337zM624.5003917480651,376.1682125317642C624.2251762866293,375.4357294242345 623.9714761648114,374.0857294242345 623.9366136995809,373.1682125317642C623.8938004937588,372.04144655859477 623.5659293253138,372.2674809416492 622.9264331317631,373.86463101376467C622.2069221232165,375.66161912843626 621.4038597131592,376.1191948686785 619.5811146509997,375.77075507213306C617.8694915605985,375.4435575864488 617.3296460985449,375.695469026179 617.6960800092975,376.65038049072257C617.978499273712,377.38635329641477 618.6124164252442,377.73953982268023 619.1047847904802,377.43523943797925C619.5971531557161,377.1309390532782 620.0,377.5411854084207 620.0,378.34689800496255C620.0,379.5510823754492 620.4450521991737,379.6060852337153 622.5003917480651,378.65591499933754C623.9202481384021,377.9995245358168 624.7845409905636,376.9244728053028 624.5003917480651,376.1682125317642zM604.6831140350878,358.8125C604.3638876676575,358.0147673031026 604.1269312900389,358.2517236807212 604.078947368421,359.41666666666663C604.0355263157894,360.4708333333333 604.271875,361.0614583333333 604.6041666666667,360.72916666666663C604.9364583333333,360.396875 604.9719846491229,359.534375 604.6831140350878,358.8125zM336.66687153639526,249.06851157322274C323.81261477291605,238.85370495586295 325.5021504765252,238.36132543180446 339.0,248.38857052194865C343.125,251.45293910339632 347.4550631985634,253.96911606473194 348.62236266347423,253.98007488047222C351.0429021600936,254.00279933733432 375.3667568215178,229.57053308495924 376.51016337289474,225.96797804755022C377.7574600897347,222.0380940837191 376.0117491204584,215.1708827895746 372.64249611230844,210.75349594751432C368.50082695631244,205.32340364230342 365.5705334747878,203.8116210119761 360.21140515397315,204.3401085153953C355.3388913468007,204.8206087951379 347.0,208.8653768705611 347.0,210.74828288485432C347.0,212.47337534194085 345.5077141750664,212.3166844432063 343.93934235831756,210.42691201301386C342.0314959351813,208.1280977057292 336.0942290817497,205.33854675812935 331.47252664336656,204.569533786685C328.20731006746075,204.02622881737483 326.8052304901713,204.33476061037587 324.06447428596726,206.19969780411733C319.6075560133038,209.23239098689902 317.25640893507307,212.61390770704935 316.20744600849287,217.5C314.96698174981225,223.27810969333296 316.2704053913438,226.78217843304452 322.088218383464,233.30961859820377C327.7098914308529,239.61699466797785 328.1698472608956,241.69668595999056 322.9767137119196,237.32695217002004C316.5759302458208,231.9410479697299 314.0,227.2736644781988 314.0,221.0618512593145C314.0,205.9252902416069 326.55161133514355,197.47926234459305 338.71245820488946,204.43274238801928C345.4115527282,208.26323384768506 346.3249304713903,208.31792794110822 350.33782261913893,205.12888237182335C362.1018645362585,195.77999773416394 379.0,205.18192399318235 379.0,221.076184885523C379.0,225.41447681424455 378.43303568400887,227.0044058575779 375.42453555621825,231.10280314391656C373.45803011213826,233.7817196249693 370.8167587531769,236.78557740233285 369.5550436474152,237.77804264916892C368.29332854165347,238.77050789600497 364.940371028849,242.37106301231603 362.1040269522941,245.77927624097123C352.58232973395053,257.2207563798073 347.71726010419354,257.8498502646549 336.66687153639526,249.06851157322274zM409.306495124466,241.75C412.63863136422816,233.74733235395848 423.5699058800692,210.03772569874783 424.6236760938556,208.5274937565946C427.3251931086803,204.65576039890297 426.4490025597711,204.09269223593458 417.25,203.78893288343784C410.26730350375016,203.55835795397124 408.5,203.1970336850714 408.5,202.0C408.5,200.77572650674728 410.50627790291924,200.44751998587282 419.41449962457557,200.2144996245757C425.4174744180922,200.0574744180923 430.7022656113823,200.30226561138238 431.1584800541092,200.75848005410919C431.614694496836,201.214694496836 429.05778875912927,208.31816966577694 425.47646730364966,216.54398042953352C414.1182312486149,242.6323116671104 413.91994258221655,243.0 411.2091425897843,243.0C409.65972764041675,243.0 408.97368941651683,242.5492870878571 409.306495124466,241.75zM437.0,240.65003849977688C437.0,237.75984971482077 441.68631785187927,231.13347540662082 446.37769310763974,227.39013879968957C450.2249918021524,224.32030676626087 450.2139514687389,223.0 446.34098300562505,223.0C442.7535228006099,223.0 437.0,217.04249309444987 437.0,213.327843881189C437.0,207.3586335134201 445.96272214691874,199.9748202015671 453.15112912253323,200.02196200049087C463.6027935897464,200.09050434462975 474.1663768677022,212.08524871002723 466.3816725610673,215.04498801209752C459.4426947264857,217.68318268260043 440.0,235.40192903241146 440.0,239.0874456533493C440.0,239.59050703732152 445.8070420577084,240.0 452.94098300562507,240.0C464.8304285314175,240.0 469.37819604986686,240.8734229398007 465.4124689641184,242.39521520951985C464.5456448187939,242.72784684428393 457.79822942423453,243.0 450.4182125317642,243.0C437.0005766353359,243.0 437.0,242.999899012567 437.0,240.65003849977688zM345.66829614188623,231.74671956155765C344.72561642130825,231.05741532041438 343.67716546807475,228.6949153204144 343.3384051347006,226.49671956155765C342.5875249540268,221.62430249865423 341.41593379226447,220.00475618052567 338.62755528455784,219.98468722548296C337.45739987805104,219.97626519949856 335.825,219.49032838321511 335.0,218.90482763374195C333.91495612813196,218.13477430017832 335.76476073454427,218.0057053254488 341.68674763789943,218.43826394430846C349.85887299525115,219.03517901950414 349.8758408647089,219.03136962452197 351.18674763789943,216.30545331532932C352.8184389040128,212.91249362908079 358.4782819756394,209.0 361.7548720239761,209.0C363.58641203034813,209.0 364.0590736131244,209.40367334087213 363.6069888041843,210.58178746823577C363.27314496188296,211.45177057576544 363.0,212.35177057576544 363.0,212.58178746823577C363.0,212.8118043607061 362.16068641131056,213.0 361.13485869180124,213.0C359.2080318487041,213.0 354.0,216.57095776647083 354.0,217.8921127593525C354.0,218.3029366130602 355.4357891698768,219.2827755459954 357.1906425997262,220.0695326103196C361.80650070025854,222.13896981045303 362.2209671635341,224.40809936174205 357.6329533797417,222.49110480184265C352.62084607981365,220.39691265675017 351.0,221.35380845728235 351.0,226.40698880418432C351.0,230.14957209731708 349.6991425027314,233.0 347.9911296351049,233.0C347.6562509344126,233.0 346.61097586246416,232.43602380270096 345.66829614188623,231.74671956155765zM464.75860346041924,226.77581038125768C464.28961236002806,225.36883708008418 465.4683897035964,218.19827696307024 466.3064436384591,217.36022302820757C468.17970179697676,215.4869648696899 470.6908777845648,222.24787635110522 469.5071320877287,225.97752878139153C468.80801434746456,228.1802537298342 465.41678591646377,228.75035774939127 464.75860346041924,226.77581038125768zM323.0,222.03138479633873C323.0,218.1805380502383 323.3153354660148,217.1837751647134 324.4017040650025,217.60065391109669C325.9258220080471,218.18551284206063 327.4735475476625,224.42476697821797 326.48948717868916,226.01701010219858C326.15535053659767,226.55765454598935 325.2335236587188,227.0 324.44098300562507,227.0C323.3796836822485,227.0 323.0,225.69082278636319 323.0,222.03138479633873zM368.0,222.56955095307586C368.0,217.43008821721122 369.81344456095457,216.41438378992873 371.92965695389967,220.36856281607083C373.6688302723944,223.61823788731786 372.93080051086315,226.43562256635892 370.23978433131714,226.81955095307586C368.2002209892515,227.11053629514777 368.0,226.7306161428274 368.0,222.56955095307586zM458.58421712971494,215.8818965560949C461.8378977083717,213.6169396619471 464.6734562732497,211.60598338869744 464.8854583849993,211.41310483776232C466.1606768393233,210.25291692469926 461.44111418486534,205.92659582455403 457.843446200897,204.95784443968617C452.0313978315671,203.39282233875934 447.2472257038508,204.5527742961492 443.3211308949691,208.4788691050309C439.44972758907267,212.35027241092735 439.24940101500067,213.77605063622258 442.0725801490329,217.3651413081987C445.3900416956324,221.58261024171773 451.1365131326778,221.06640318047454 458.58421712971494,215.8818965560949zM333.0,211.0C330.5501295356459,210.21541433425242 330.56015544277506,210.19766833425805 333.5,210.11499279986768C335.15,210.06859081190922 337.175,210.46684405196876 338.0,211.0C339.23573076424054,211.79859055408488 339.14764101898743,211.9545106716986 337.5,211.88500720013232C336.4,211.83860521217386 334.375,211.4403519721143 333.0,211.0zM306.8001089673577,96.00149643503539C307.07963217249363,82.02901703105151 307.23069618844636,81.0 309.00239156171085,81.0C310.637301354223,81.0 310.9463958051634,81.87815273107293 311.20228259435316,87.25L311.5,93.5L318.75,93.7938095527206L326.0,94.08761910544122L326.0,87.5438095527206C326.0,81.23041269648529 326.08802697214406,81.0 328.5,81.0L331.0,81.0L331.0,96.0L331.0,111.0L328.5,111.0C326.0897435897436,111.0 326.0,110.76666666666667 326.0,104.5L326.0,98.0L318.5,98.0L311.0,98.0L311.0,104.5C311.0,110.57363068591545 310.85241062204767,111.00009815907379 308.75,111.00149643503539C306.5032633663079,111.0029906996638 306.50043527355234,110.98123492427759 306.8001089673577,96.00149643503539zM341.9230769230769,108.07692307692308C339.52564102564105,105.67948717948718 339.0,104.31282051282052 339.0,100.47692307692309C339.0,96.49140271493214 339.5026315789474,95.29736842105264 342.4,92.4C348.90252536561627,85.89747463438376 357.68274143596676,89.16370717983423 359.61045476377933,98.80227381889651L360.25,102.0L351.625,102.0C342.5659710569748,102.0 341.5895420449787,102.58954204497874 345.0,106.0C347.30646270173276,108.30646270173277 349.0581005265188,108.47005121992404 353.65386861827824,106.8081999165889C357.82896120521644,105.29846684942454 359.2287182058058,106.58137725124158 356.1392160376902,109.08607961652979C354.6008974851628,110.33321585642187 352.22248922093485,111.0 349.31229296076714,111.0C345.7093672726858,111.0 344.281182809195,110.43502896304112 341.9230769230769,108.07692307692308zM367.65498756211207,109.17125932841594C365.420778713717,106.70248633977863 365.5671905001851,102.7016623383206 367.9713675748787,100.5259119886079C369.13088777256667,99.47656063168253 372.3224879862483,98.48614013914852 375.7213675748787,98.12092442649582L381.5,97.5L379.25,95.25C377.01090088216483,93.0109008821648 372.6030810785462,92.21517732256531 371.58288415208176,93.86589062480306C371.2885517419142,94.34213046844474 369.8720832537409,94.5070413091493 368.43517640058553,94.23235915970209L365.8226184857575,93.73293706979806L367.93908702065653,91.61646853489903C369.53745110601244,90.01810444954307 371.29594355509255,89.5 375.1225689240021,89.5C379.5525300647571,89.5 380.4913536154007,89.87717616751831 382.5898240012841,92.5C384.65760816632104,95.08446991912358 384.9907537094991,96.57345270893076 384.9950328550598,103.25C384.99957377989887,110.33498904831342 384.82838427053247,111.0 383.0,111.0C381.8888888888889,111.0 381.0,110.33333333333333 381.0,109.5C381.0,108.675 380.60510012194896,108.0 380.12244471544216,108.0C379.6397893089354,108.0 378.6846891869864,108.675 378.0,109.5C376.22730495087427,111.63596686398054 369.69773716935464,111.4284722369283 367.65498756211207,109.17125932841594zM392.5,94.00290005327858C392.5,77.34359566644957 392.5422983265817,77.00491672402153 394.62321788692793,77.00248309588316C396.6972489521863,77.00005752381568 396.7506316695333,77.39382485119913 396.9275574737635,94.0L397.108679173671,111.0L394.8043395868355,111.0004169573954L392.5,111.00083391479082L392.5,94.00290005327858zM408.8982026916972,109.37734174725395C408.15752498514416,108.48487970824361 407.3766438848253,104.65987970824361 407.1629113576552,100.87734174725395C406.8797586022718,95.86623716632062 406.3978884763616,94.0 405.38715338140025,94.0C404.6242190216301,94.0 404.0,93.1 404.0,92.0C404.0,90.88888888888889 404.6666666666667,90.0 405.5,90.0C406.54761904761904,90.0 407.0,88.94444444444444 407.0,86.5C407.0,83.43333333333334 407.3095238095238,83.0 409.5,83.0C411.6904761904762,83.0 412.0,83.43333333333334 412.0,86.5C412.0,89.72222222222223 412.23809523809524,90.0 415.0,90.0C417.3333333333333,90.0 418.0,90.44444444444444 418.0,92.0C418.0,93.55555555555556 417.3333333333333,94.0 415.0,94.0L412.0,94.0L412.0,100.0247508470637C412.0,105.5310188690323 412.2151469987127,106.13130043724341 414.5,107.0C415.875,107.52277406822992 417.0,108.63663618705125 417.0,109.4752491529363C417.0,111.58837849590557 410.6697113995813,111.51187915748687 408.8982026916972,109.37734174725395zM425.0,94.0L425.0,77.0L427.5,77.0C429.94444444444446,77.0 430.0,77.16666666666667 430.0,84.5C430.0,88.625 430.3375,91.98568848265829 430.75,91.96819662812953C431.1625,91.95070477360079 432.3735083357972,91.2757047736008 433.44112963510486,90.46819662812953C437.304437086273,87.54613780699044 442.02660289230306,89.30957226460995 443.96068537718423,94.39659470571156C444.5323084197329,95.90007724486217 445.0,100.25090447482052 445.0,104.06509966117451C445.0,110.79566002258836 444.92633636843067,111.0 442.5,111.0C440.06164383561645,111.0 440.0,110.82 440.0,103.7C440.0,95.74015171043581 439.10301458224956,94.0 435.0,94.0C430.89698541775044,94.0 430.0,95.7401517104359 430.0,103.69999999999999C430.0,110.82 429.93835616438355,111.0 427.5,111.0L425.0,111.0L425.0,94.0zM466.17431402670945,108.68554877863241C462.96315796272734,105.26742978432463 463.258671970154,99.86124321046704 466.8780977468068,95.81040241375653L469.75619549361363,92.5892517425947L467.7495032371636,89.87505521300739C465.1118176683723,86.30739455455596 466.005773449574,82.65446280837713 469.91256918846534,81.03621502790693C476.47009861288734,78.31999740465068 482.15967147677935,85.8305614889301 477.04852388402344,90.45608648849341C475.9218357478105,91.47572523814533 475.0,92.82695566862087 475.0,93.45882077843905C475.0,94.68171150181945 481.11421457492946,101.0 482.2976072431483,101.0C482.68392325941676,101.0 483.0,99.2 483.0,97.0C483.0,93.0952380952381 483.0833333333333,93.0 486.5,93.0C489.3333333333333,93.0 490.0,93.38095238095238 490.0,95.0C490.0,96.28666618753331 489.3333333333333,97.0 488.13084237697535,97.0C486.7476563225565,97.0 486.104356093404,97.96950289019107 485.65656279995505,100.72892949878512C485.1293203167369,103.9779440746121 485.459478734965,104.87884725923962 488.2218872066527,107.72892949878512L491.3923335673461,111.0L488.81813884388885,111.0C487.2753945204778,111.0 485.6587448225727,110.11864279113595 484.78345998600145,108.80039343003102L483.32297585157136,106.60078686006204L480.5266292339844,108.80039343003102C476.55762613416584,111.92241172335747 469.1595753575026,111.86321384829657 466.17431402670945,108.68554877863241zM514.0,110.52893546914277C514.0,110.01067085331053 507.48723029611443,86.1104872296449 506.4886873528791,82.96435700510642C505.98118999047864,81.36537440597237 506.33559472136295,81.0 508.39406825634626,81.0C511.13942167942963,81.0 511.0581066557254,80.80692309522755 514.6060831063387,95.75C515.552846359113,99.7375 516.6321814787437,103.0 517.0046055944069,103.0C517.3770297100701,103.0 518.232916843832,100.4125 518.9065770027667,97.25C521.7577730821466,83.86504991582157 522.945395149896,80.8515108881195 525.2371185901309,81.18652774053925C526.9637363274757,81.4389343047615 527.706697028586,82.76622693737886 529.051004090951,88.0C532.1790329074978,100.17831358435578 533.0766739753943,103.0 533.8228369720948,103.0C534.2329988263407,103.0 535.6424398520159,98.05 536.9549281402617,92.0C539.1609529473571,81.83118538850812 539.5172826599787,81.0 541.6706352412635,81.0C542.9517858585685,81.0 544.0,81.1765885224847 544.0,81.3924189388549C544.0,81.94834120924942 538.0233952998253,107.135135808211 537.3896411767935,109.25C537.0847736111388,110.26735590256482 535.887579744379,111.0 534.5300135975037,111.0C532.5146862486184,111.0 531.9160495759359,110.07536620776531 530.1598536763076,104.25C529.0406318034101,100.5375 527.5933794894738,95.3625 526.9437374231162,92.75C526.2940953567586,90.1375 525.466190197204,88.0 525.1039481796618,88.0C524.7417061621195,88.0 523.3748861502081,92.6125 522.0665703754144,98.25C520.7582546006207,103.8875 519.4849112145811,109.0625 519.2369184064377,109.75C518.8238854181643,110.89503392886175 514.0,111.61253516903186 514.0,110.52893546914277zM552.7117149752274,108.60863042054046C544.3846685266146,100.89138422656615 552.0056361984681,86.58786236712419 562.7321637696971,89.80160819651658C566.6477848518387,90.9747568076259 569.1452697091036,94.05046631194467 570.3737105217467,99.2123471263669L571.0192035170081,101.92469425273377L561.9154510320691,102.2123471263669L552.8116985471299,102.5L555.0509557260269,105.34220225382523C556.8752648807927,107.65772708063555 557.8192421061341,108.07466581509357 560.145106452462,107.59220225382523C561.7152979036078,107.26649101422136 564.35,106.72392528845305 566.0,106.38650064100679C569.8124720782259,105.60685091561639 569.8604809296561,107.06048635654423 566.0957079433635,109.2843924736001C561.8091861016339,111.81650322222279 555.8483192587559,111.51553716333824 552.7117149752274,108.60863042054046zM578.0,94.0C578.0,77.66666666666666 578.0784313725491,77.0 580.0,77.0C581.9215686274509,77.0 582.0,77.66666666666666 582.0,94.0C582.0,110.33333333333334 581.9215686274509,111.0 580.0,111.0C578.0784313725491,111.0 578.0,110.33333333333334 578.0,94.0zM590.1896579291438,94.00000780167021C590.4976451742067,77.12900881397326 590.5170726386541,77.0000155441426 592.75,77.00000780167021C594.9950983451636,77.00000001699604 595.0,77.03703472543106 595.0,94.0L595.0,111.0L592.4396579291438,111.0L589.8793158582874,111.0L590.1896579291438,94.00000780167021zM604.0,100.5C604.0,90.66666666666667 604.1269841269841,90.0 606.0,90.0C607.152136484647,90.0 608.0,90.66666666666667 608.0,91.57258014903289C608.0,92.8761780162727 608.4506799246823,92.79065541764442 610.6348586918014,91.07258014903289C613.9195536380118,88.48883872778399 617.0805843164932,88.43510405587611 620.1392160376902,90.9110146422021C622.2489865191433,92.61883812207607 622.537160837363,93.78842768787544 622.8494979973707,101.9110146422021C623.1985163501739,110.98752644512375 623.1956299473195,111.0 620.7462905684929,111.0C618.413459568883,111.0 618.3165186928936,110.76132598724186 618.762819871431,106.11658105391894C619.0208989724836,103.43070063357436 618.6949438781862,99.60570063357436 618.0384752174368,97.61658105391894C616.981713966499,94.41456301262835 616.4593510240289,94.0 613.4814649115029,94.0C611.6315779039887,94.0 609.8280604026331,94.46918711817654 609.4736482418239,95.04263804039232C608.8063813973381,96.12229847433628 608.1378224431209,102.09096111952373 608.050277358327,107.75C608.0105725671194,110.316574213891 607.5794302854714,111.0 606.0,111.0C604.1269841269841,111.0 604.0,110.33333333333333 604.0,100.5zM632.9230769230769,108.07692307692308C630.4900155659311,105.64386171977725 630.0,104.33480686701999 630.0,100.26805271202797C630.0,95.12716408967785 630.9218373882912,93.34341815222125 634.9725062434054,90.64630388375204C640.3769653549863,87.04777625669122 648.1234227944524,90.18128862112772 649.9330563042341,96.69798221035616C650.5137407090624,98.78909199466027 650.9913557516758,100.8375 650.9944230655973,101.25C650.9974903795188,101.6625 647.175,102.0 642.5,102.0C633.5112873324277,102.0 632.5898149172817,102.58981491728179 636.0978684189129,106.09786841891284C637.6486448625287,107.64864486252878 638.8873721626932,108.02401886419253 640.8478684189129,107.5372703822554C647.1127425204876,105.98183871601553 649.0,105.81805516599772 649.0,106.82979667235773C649.0,108.87206364500693 644.5099010569095,111.0 640.2005706796715,111.0C636.7211275128011,111.0 635.2587926836694,110.4126388375156 632.9230769230769,108.07692307692308zM658.5714285714286,109.42857142857143C656.9388541750698,107.79599703221261 656.48862333233,103.31172347944151 657.765312774517,101.3997040001114C659.1159240533851,99.37697631954481 662.829606539268,98.0 666.9342585459107,98.0C669.9070469005042,98.0 671.0,97.5910066438662 671.0,96.47856120885018C671.0,94.09194362659247 666.3692520066849,92.42214767200504 663.1355572949407,93.64273109394219C661.6376504498638,94.20812777658723 659.5793519184931,94.37861620938934 658.5615605585613,94.02159427794683C656.8880229320513,93.4345489764438 656.9768584002857,93.16336348305403 659.4903740984167,91.18623174675298C663.7972941317674,87.79840795477108 670.40710968951,88.60077146396362 673.7181966281296,92.91334281564463C674.4420463937375,93.85613103593332 674.9492991342912,97.8478680876539 674.9681966281296,102.75C674.9974708974029,110.34393445729016 674.8409538078279,111.0 673.0,111.0C671.8888888888889,111.0 671.0,110.33333333333333 671.0,109.5C671.0,108.675 670.605100121949,108.0 670.1224447154422,108.0C669.6397893089353,108.0 668.6846891869864,108.675 668.0,109.5C666.366904422785,111.46775979058829 660.5666758075726,111.42381866471547 658.5714285714286,109.42857142857143zM684.4447508800115,108.9389504095951C681.8093597841238,106.02687602733823 684.231082598397,104.65429780684907 688.1020534338024,106.86607328200395C690.2941111033955,108.11855995779756 691.3747025256336,108.24110720446458 692.7308469548957,107.39101350429932C695.6854458364974,105.53893503716172 694.7335470170228,103.64530858871574 690.0252787410989,102.008786504009C687.2646078460584,101.04921949899291 684.9890834182811,99.4531058509876 684.0847662877839,97.84195230652118C682.7767181837676,95.51150177313434 682.8000874798607,94.95405038081341 684.3019200683175,92.66196413640262C686.5347177860574,89.25428409621767 692.0639623526968,88.15666471081781 695.5362780676695,90.43181334925707C699.051478055141,92.73506084223466 697.7250976285814,94.06112494564344 692.6076871720534,93.35970581697006C689.1522848115594,92.88609023864143 688.1758485792425,93.09936265715594 687.6613682819486,94.44007682075136C687.1849072950757,95.68171424955287 687.9079986948869,96.48143937138512 690.4780543221591,97.55527717752332C692.3797939509855,98.3498747298855 694.3304717191601,99.0 694.8128938069915,99.0C696.4020345834526,99.0 699.0,102.61654708258496 699.0,104.82874067158407C699.0,110.54436218385611 688.5644908762266,113.4912118645485 684.4447508800115,108.9389504095951zM378.42857142857144,106.42857142857143C379.29285714285714,105.56428571428572 380.0,103.96341169059582 380.0,102.87107359814944C380.0,101.15941786182711 379.42685286209235,100.92749105631239 375.85184468899945,101.192502169578C371.4354440611122,101.51988470700331 369.23755824524466,103.57072534526071 370.30946793883317,106.36407723035398C371.12167565450244,108.48065660940286 376.33507355751277,108.52206929963008 378.42857142857144,106.42857142857143zM478.5381506080988,105.95784405256381C480.3545113989913,103.95078797031954 480.3132927142007,103.84336514704066 476.13999375392507,99.70784405256381L471.8937111674284,95.5L469.4468555837142,98.30576370132634C468.1010850126714,99.84893373705583 467.0,101.838500434843 467.0,102.72702302974227C467.0,107.61329110993687 475.01015818617884,109.85623179801104 478.5381506080988,105.95784405256381zM669.0,106.0C672.1047216160833,102.89527838391668 671.5671401050329,101.0 667.5817874682358,101.0C665.7017705757655,101.0 663.4517705757655,101.27314496188295 662.5817874682358,101.60698880418433C661.0088420829875,102.21058458276512 660.3936246905771,106.06029135724378 661.6666666666667,107.33333333333334C663.012994281693,108.67966094835965 667.0553045560731,107.9446954439269 669.0,106.0zM355.0,97.57142857142858C355.0,93.52139612160005 349.23736719420856,91.74458589508504 345.2225062434054,94.55670396864906C341.08946283094593,97.45160026055603 342.40584380290744,99.0 349.0,99.0C353.5333333333333,99.0 355.0,98.65079365079364 355.0,97.57142857142858zM566.0,98.0C566.0,96.20098315825777 562.0491805648999,93.0 559.828740671584,93.0C557.3397552483464,93.0 554.0,95.66721750331811 554.0,97.6549875621121C554.0,98.63222498619731 555.6406168602286,99.0 560.0,99.0C563.3333333333334,99.0 566.0,98.55555555555556 566.0,98.0zM646.0,97.82874067158406C646.0,95.76314285010446 642.7640551621188,93.0 640.3450124378879,93.0C637.9850079948596,93.0 634.0,96.14026807186694 634.0,98.0C634.0,98.55555555555556 636.6666666666666,99.0 640.0,99.0C643.9182057839034,99.0 646.0,98.59361318409243 646.0,97.82874067158406zM415.72916666666663,92.39583333333334C415.396875,92.06354166666667 414.534375,92.0280153508772 413.8125,92.31688596491227C413.01476730310264,92.63611233234239 413.2517236807213,92.87306870996106 414.41666666666663,92.92105263157895C415.4708333333333,92.96447368421053 416.0614583333333,92.728125 415.72916666666663,92.39583333333334zM475.79402031670054,85.55517459879366C475.4309369024201,83.01725538747476 471.8099033064078,82.3191999287172 470.04420448800636,84.44673685038646C468.99090046241304,85.71589055929665 469.06473787849336,86.44985718048612 470.45993157158136,88.57919189914595C472.0980657973691,91.07930073570056 472.22408689308776,91.1071792731474 474.12224192914437,89.38937257455572C475.2034312164856,88.4109097172231 475.95573149088585,86.68552062813016 475.79402031670054,85.55517459879366zM660.3236480402566,23.982307151506667C664.0766544623978,21.792038218178 667.2577717379704,20.0 667.3927975415293,20.0C667.5278233450882,20.0 667.627785342554,21.8 667.6149353136756,24.0L667.5915716248057,28.0L660.5457858124029,27.982307151506667L653.5,27.96461430301333L660.3236480402566,23.982307151506667zM689.0,25.89415342031471C690.375,24.772534014664124 692.277493869485,22.875005192781714 693.2277641544113,21.67742270502046C694.9357574856365,19.524916270656504 694.9557827538347,19.548632794195626 694.9777641544113,23.75L695.0,28.0L690.75,27.966730715294247L686.5,27.93346143058849L689.0,25.89415342031471zM703.4152331499138,26.639696952347975C703.0998655630515,25.81786219469211 702.9899240915136,24.100225252281877 703.1709187687184,22.822725969214112C703.4317511312004,20.98171516592767 704.1221764930247,20.5 706.5,20.5C709.2619047619048,20.5 709.5,20.77777777777778 709.5,24.0C709.5,27.076582863906985 709.1666272820894,27.53834598454375 706.7443143811954,27.81697098313386C704.9956135145826,28.01811418652212 703.7790980979355,27.58791380732685 703.4152331499138,26.639696952347975zM725.0,24.46247418621118L725.0,20.924948372422357L734.25,21.21247418621118L743.5,21.5L743.8133584840882,24.75L744.1267169681763,28.0L734.5633584840882,28.0L725.0,28.0L725.0,24.46247418621118zM708.5,24.0C708.5,22.440188351010864 707.8539632132616,21.40297476888139 706.75,21.190370879821636C705.3826954158161,20.927052076590968 705.0,21.541470467697014 705.0,24.0C705.0,26.458529532302983 705.3826954158161,27.07294792340903 706.75,26.809629120178364C707.8539632132616,26.59702523111861 708.5,25.559811648989136 708.5,24.0z"/></svg>